999
dxfrw 0.6.3
  0
SECTION
  2
HEADER
  9
$ACADVER
  1
AC1015
  9
$DWGCODEPAGE
  3
ANSI_1252
  9
$INSBASE
 10
0
 20
0
 30
0
  9
$EXTMIN
 10
-0.01816793000595063
 20
-0.004087297201223805
 30
0
  9
$EXTMAX
 10
18.83613237082482
 20
21.09704938760374
 30
0
  9
$LIMMIN
 10
0
 20
0
  9
$LIMMAX
 10
12
 20
9
  9
$ORTHOMODE
 70
    0
  9
$REGENMODE
 70
    1
  9
$FILLMODE
 70
    1
  9
$QTEXTMODE
 70
    0
  9
$MIRRTEXT
 70
    1
  9
$LTSCALE
 40
1
  9
$ATTMODE
 70
    1
  9
$TEXTSIZE
 40
0.2
  9
$TRACEWID
 40
0.05
  9
$TEXTSTYLE
  7
Standard
  9
$CLAYER
  8
0
  9
$CELTYPE
  6
ByBlock
  9
$CECOLOR
 62
  256
  9
$CELTSCALE
 40
1
  9
$DISPSILH
 70
    0
  9
$DIMSCALE
 40
0.1
  9
$DIMASZ
 40
0.18
  9
$DIMEXO
 40
0.0625
  9
$DIMDLI
 40
0.38
  9
$DIMRND
 40
0
  9
$DIMDLE
 40
0
  9
$DIMEXE
 40
0.18
  9
$DIMTP
 40
0
  9
$DIMTM
 40
0
  9
$DIMTXT
 40
0.18
  9
$DIMCEN
 40
0.09
  9
$DIMTSZ
 40
0
  9
$DIMTOL
 70
    0
  9
$DIMLIM
 70
    0
  9
$DIMTIH
 70
    1
  9
$DIMTOH
 70
    1
  9
$DIMSE1
 70
    0
  9
$DIMSE2
 70
    0
  9
$DIMTAD
 70
    0
  9
$DIMZIN
 70
    0
  9
$DIMBLK
  1

  9
$DIMASO
 70
    1
  9
$DIMSHO
 70
    1
  9
$DIMPOST
  1

  9
$DIMAPOST
  1

  9
$DIMALT
 70
    0
  9
$DIMALTD
 70
    2
  9
$DIMALTF
 40
25.4
  9
$DIMLFAC
 40
1
  9
$DIMTOFL
 70
    0
  9
$DIMTVP
 40
0
  9
$DIMTIX
 70
    0
  9
$DIMSOXD
 70
    0
  9
$DIMSAH
 70
    0
  9
$DIMBLK1
  1

  9
$DIMBLK2
  1

  9
$DIMSTYLE
  2
Standard
  9
$DIMCLRD
 70
    0
  9
$DIMCLRE
 70
    0
  9
$DIMCLRT
 70
    0
  9
$DIMTFAC
 40
1
  9
$DIMGAP
 40
0.09
  9
$DIMJUST
 70
    0
  9
$DIMSD1
 70
    0
  9
$DIMSD2
 70
    0
  9
$DIMTOLJ
 70
    1
  9
$DIMTZIN
 70
    0
  9
$DIMALTZ
 70
    0
  9
$DIMALTTZ
 70
    0
  9
$DIMUPT
 70
    0
  9
$DIMDEC
 70
    4
  9
$DIMTDEC
 70
    4
  9
$DIMALTU
 70
    2
  9
$DIMALTTD
 70
    2
  9
$DIMTXSTY
  7
standard
  9
$DIMAUNIT
 70
    0
  9
$DIMADEC
 70
    0
  9
$DIMALTRND
 40
0
  9
$DIMAZIN
 70
    0
  9
$DIMDSEP
 70
    0
  9
$DIMATFIT
 70
    3
  9
$DIMFRAC
 70
    0
  9
$DIMLDRBLK
  1

  9
$DIMLUNIT
 70
    2
  9
$DIMLWD
 70
   -2
  9
$DIMLWE
 70
   -2
  9
$DIMTMOVE
 70
    2
  9
$LUNITS
 70
    2
  9
$LUPREC
 70
    4
  9
$SKETCHINC
 40
0.1
  9
$FILLETRAD
 40
0.5
  9
$AUNITS
 70
    0
  9
$AUPREC
 70
    0
  9
$MENU
  1
.
  9
$ELEVATION
 40
0
  9
$PELEVATION
 40
0
  9
$THICKNESS
 40
0
  9
$LIMCHECK
 70
    0
  9
$CHAMFERA
 40
0
  9
$CHAMFERB
 40
0
  9
$CHAMFERC
 40
0
  9
$CHAMFERD
 40
0
  9
$SKPOLY
 70
    0
  9
$USRTIMER
 70
    1
  9
$ANGBASE
 50
0
  9
$ANGDIR
 70
    0
  9
$PDMODE
 70
    0
  9
$PDSIZE
 40
0
  9
$PLINEWID
 40
0
  9
$SPLFRAME
 70
    0
  9
$SPLINETYPE
 70
    6
  9
$SPLINESEGS
 70
    8
  9
$HANDSEED
  5
20000
  9
$SURFTAB1
 70
    6
  9
$SURFTAB2
 70
    6
  9
$SURFTYPE
 70
    6
  9
$SURFU
 70
    6
  9
$SURFV
 70
    6
  9
$UCSBASE
  2

  9
$UCSNAME
  2

  9
$UCSORG
 10
0
 20
0
 30
0
  9
$UCSXDIR
 10
1
 20
0
 30
0
  9
$UCSYDIR
 10
0
 20
1
 30
0
  9
$UCSORTHOREF
  2

  9
$UCSORTHOVIEW
 70
    0
  9
$UCSORGTOP
 10
0
 20
0
 30
0
  9
$UCSORGBOTTOM
 10
0
 20
0
 30
0
  9
$UCSORGLEFT
 10
0
 20
0
 30
0
  9
$UCSORGRIGHT
 10
0
 20
0
 30
0
  9
$UCSORGFRONT
 10
0
 20
0
 30
0
  9
$UCSORGBACK
 10
0
 20
0
 30
0
  9
$PUCSBASE
  2

  9
$PUCSNAME
  2

  9
$PUCSORG
 10
0
 20
0
 30
0
  9
$PUCSXDIR
 10
1
 20
0
 30
0
  9
$PUCSYDIR
 10
0
 20
1
 30
0
  9
$PUCSORTHOREF
  2

  9
$PUCSORTHOVIEW
 70
    0
  9
$PUCSORGTOP
 10
0
 20
0
 30
0
  9
$PUCSORGBOTTOM
 10
0
 20
0
 30
0
  9
$PUCSORGLEFT
 10
0
 20
0
 30
0
  9
$PUCSORGRIGHT
 10
0
 20
0
 30
0
  9
$PUCSORGFRONT
 10
0
 20
0
 30
0
  9
$PUCSORGBACK
 10
0
 20
0
 30
0
  9
$USERI1
 70
    0
  9
$USERI2
 70
    0
  9
$USERI3
 70
    0
  9
$USERI4
 70
    0
  9
$USERI5
 70
    0
  9
$USERR1
 40
0
  9
$USERR2
 40
0
  9
$USERR3
 40
0
  9
$USERR4
 40
0
  9
$USERR5
 40
0
  9
$WORLDVIEW
 70
    1
  9
$SHADEDGE
 70
    3
  9
$SHADEDIF
 70
   70
  9
$TILEMODE
 70
    1
  9
$MAXACTVP
 70
   64
  9
$PINSBASE
 10
0
 20
0
 30
0
  9
$PLIMCHECK
 70
    0
  9
$PEXTMIN
 10
1e+020
 20
1e+020
 30
1e+020
  9
$PEXTMAX
 10
-1e+020
 20
-1e+020
 30
-1e+020
  9
$GRIDMODE
 70
    1
  9
$SNAPSTYLE
 70
    0
  9
$GRIDUNIT
 10
0.1
 20
0.1
  9
$PLIMMIN
 10
0
 20
0
  9
$PLIMMAX
 10
12
 20
9
  9
$UNITMODE
 70
    0
  9
$VISRETAIN
 70
    1
  9
$PLINEGEN
 70
    0
  9
$PSLTSCALE
 70
    1
  9
$TREEDEPTH
 70
 3020
  9
$CMLSTYLE
  2
Standard
  9
$CMLJUST
 70
    0
  9
$CMLSCALE
 40
1
  9
$PROXYGRAPHICS
 70
    1
  9
$MEASUREMENT
 70
    0
  9
$CELWEIGHT
370
   -1
  9
$ENDCAPS
280
    0
  9
$JOINSTYLE
280
    0
  9
$LWDISPLAY
290
    0
  9
$INSUNITS
 70
    4
  9
$HYPERLINKBASE
  1

  9
$STYLESHEET
  1

  9
$XEDIT
290
    1
  9
$CEPSNTYPE
380
    0
  9
$PSTYLEMODE
290
    1
  9
$EXTNAMES
290
    1
  9
$PSVPSCALE
 40
0
  9
$OLESTARTUP
290
    0
  0
ENDSEC
  0
SECTION
  2
CLASSES
  0
ENDSEC
  0
SECTION
  2
TABLES
  0
TABLE
  2
VPORT
  5
8
330
0
100
AcDbSymbolTable
 70
    1
  0
VPORT
  5
31
330
2
100
AcDbSymbolTableRecord
100
AcDbViewportTableRecord
  2
*ACTIVE
 70
    0
 10
0
 20
0
 11
1
 21
1
 12
21.44410616501621
 22
14.04678371991964
 13
0
 23
0
 14
10
 24
10
 15
0.1
 25
0.1
 16
0
 26
0
 36
1
 17
0
 27
0
 37
0
 40
39.27896929088639
 41
1.855960264900662
 42
50
 43
0
 44
0
 50
0
 51
0
 71
    0
 72
  100
 73
    1
 74
    3
 75
    0
 76
    1
 77
    0
 78
    0
281
    0
 65
    1
110
0
120
0
130
0
111
1
121
0
131
0
112
0
122
1
132
0
 79
    0
146
0
  0
ENDTAB
  0
TABLE
  2
LTYPE
  5
5
330
0
100
AcDbSymbolTable
 70
    4
  0
LTYPE
  5
14
330
5
100
AcDbSymbolTableRecord
100
AcDbLinetypeTableRecord
  2
ByBlock
 70
    0
  3

 72
   65
 73
    0
 40
0
  0
LTYPE
  5
15
330
5
100
AcDbSymbolTableRecord
100
AcDbLinetypeTableRecord
  2
ByLayer
 70
    0
  3

 72
   65
 73
    0
 40
0
  0
LTYPE
  5
16
330
5
100
AcDbSymbolTableRecord
100
AcDbLinetypeTableRecord
  2
Continuous
 70
    0
  3
Solid line
 72
   65
 73
    0
 40
0
  0
LTYPE
  5
32
330
5
100
AcDbSymbolTableRecord
100
AcDbLinetypeTableRecord
  2
DOT
 70
    0
  3
Dot . . . . . . . . . . . . . . . . . . . . . .
 72
   65
 73
    2
 40
6.35
 49
0
 74
    0
 49
-6.35
 74
    0
  0
LTYPE
  5
33
330
5
100
AcDbSymbolTableRecord
100
AcDbLinetypeTableRecord
  2
DOTTINY
 70
    0
  3
Dot (.15x) .....................................
 72
   65
 73
    2
 40
0.9525
 49
0
 74
    0
 49
-0.9525
 74
    0
  0
LTYPE
  5
34
330
5
100
AcDbSymbolTableRecord
100
AcDbLinetypeTableRecord
  2
DOT2
 70
    0
  3
Dot (.5x) .....................................
 72
   65
 73
    2
 40
3.175
 49
0
 74
    0
 49
-3.175
 74
    0
  0
LTYPE
  5
35
330
5
100
AcDbSymbolTableRecord
100
AcDbLinetypeTableRecord
  2
DOTX2
 70
    0
  3
Dot (2x) .  .  .  .  .  .  .  .  .  .  .  .  .
 72
   65
 73
    2
 40
12.7
 49
0
 74
    0
 49
-12.7
 74
    0
  0
LTYPE
  5
36
330
5
100
AcDbSymbolTableRecord
100
AcDbLinetypeTableRecord
  2
DASHED
 70
    0
  3
Dashed _ _ _ _ _ _ _ _ _ _ _ _ _ _ _ _ _
 72
   65
 73
    2
 40
19.05
 49
12.7
 74
    0
 49
-6.35
 74
    0
  0
LTYPE
  5
37
330
5
100
AcDbSymbolTableRecord
100
AcDbLinetypeTableRecord
  2
DASHEDTINY
 70
    0
  3
Dashed (.15x) _ _ _ _ _ _ _ _ _ _ _ _ _ _ _ _ _
 72
   65
 73
    2
 40
2.8575
 49
1.905
 74
    0
 49
-0.9525
 74
    0
  0
LTYPE
  5
38
330
5
100
AcDbSymbolTableRecord
100
AcDbLinetypeTableRecord
  2
DASHED2
 70
    0
  3
Dashed (.5x) _ _ _ _ _ _ _ _ _ _ _ _ _ _ _ _ _
 72
   65
 73
    2
 40
9.524999999999999
 49
6.35
 74
    0
 49
-3.175
 74
    0
  0
LTYPE
  5
39
330
5
100
AcDbSymbolTableRecord
100
AcDbLinetypeTableRecord
  2
DASHEDX2
 70
    0
  3
Dashed (2x) ____  ____  ____  ____  ____  ___
 72
   65
 73
    2
 40
38.09999999999999
 49
25.4
 74
    0
 49
-12.7
 74
    0
  0
LTYPE
  5
3A
330
5
100
AcDbSymbolTableRecord
100
AcDbLinetypeTableRecord
  2
DASHDOT
 70
    0
  3
Dash dot __ . __ . __ . __ . __ . __ . __ . __
 72
   65
 73
    4
 40
25.4
 49
12.7
 74
    0
 49
-6.35
 74
    0
 49
0
 74
    0
 49
-6.35
 74
    0
  0
LTYPE
  5
3B
330
5
100
AcDbSymbolTableRecord
100
AcDbLinetypeTableRecord
  2
DASHDOTTINY
 70
    0
  3
Dash dot (.15x) _._._._._._._._._._._._._._._.
 72
   65
 73
    4
 40
3.81
 49
1.905
 74
    0
 49
-0.9525
 74
    0
 49
0
 74
    0
 49
-0.9525
 74
    0
  0
LTYPE
  5
3C
330
5
100
AcDbSymbolTableRecord
100
AcDbLinetypeTableRecord
  2
DASHDOT2
 70
    0
  3
Dash dot (.5x) _._._._._._._._._._._._._._._.
 72
   65
 73
    4
 40
12.7
 49
6.35
 74
    0
 49
-3.175
 74
    0
 49
0
 74
    0
 49
-3.175
 74
    0
  0
LTYPE
  5
3D
330
5
100
AcDbSymbolTableRecord
100
AcDbLinetypeTableRecord
  2
DASHDOTX2
 70
    0
  3
Dash dot (2x) ____  .  ____  .  ____  .  ___
 72
   65
 73
    4
 40
50.8
 49
25.4
 74
    0
 49
-12.7
 74
    0
 49
0
 74
    0
 49
-12.7
 74
    0
  0
LTYPE
  5
3E
330
5
100
AcDbSymbolTableRecord
100
AcDbLinetypeTableRecord
  2
DIVIDE
 70
    0
  3
Divide ____ . . ____ . . ____ . . ____ . . ____
 72
   65
 73
    6
 40
31.75
 49
12.7
 74
    0
 49
-6.35
 74
    0
 49
0
 74
    0
 49
-6.35
 74
    0
 49
0
 74
    0
 49
-6.35
 74
    0
  0
LTYPE
  5
3F
330
5
100
AcDbSymbolTableRecord
100
AcDbLinetypeTableRecord
  2
DIVIDETINY
 70
    0
  3
Divide (.15x) __..__..__..__..__..__..__..__.._
 72
   65
 73
    6
 40
4.7625
 49
1.905
 74
    0
 49
-0.9525
 74
    0
 49
0
 74
    0
 49
-0.9525
 74
    0
 49
0
 74
    0
 49
-0.9525
 74
    0
  0
LTYPE
  5
40
330
5
100
AcDbSymbolTableRecord
100
AcDbLinetypeTableRecord
  2
DIVIDE2
 70
    0
  3
Divide (.5x) __..__..__..__..__..__..__..__.._
 72
   65
 73
    6
 40
15.875
 49
6.35
 74
    0
 49
-3.175
 74
    0
 49
0
 74
    0
 49
-3.175
 74
    0
 49
0
 74
    0
 49
-3.175
 74
    0
  0
LTYPE
  5
41
330
5
100
AcDbSymbolTableRecord
100
AcDbLinetypeTableRecord
  2
DIVIDEX2
 70
    0
  3
Divide (2x) ________  .  .  ________  .  .  _
 72
   65
 73
    6
 40
63.5
 49
25.4
 74
    0
 49
-12.7
 74
    0
 49
0
 74
    0
 49
-12.7
 74
    0
 49
0
 74
    0
 49
-12.7
 74
    0
  0
LTYPE
  5
42
330
5
100
AcDbSymbolTableRecord
100
AcDbLinetypeTableRecord
  2
BORDER
 70
    0
  3
Border __ __ . __ __ . __ __ . __ __ . __ __ .
 72
   65
 73
    6
 40
44.45
 49
12.7
 74
    0
 49
-6.35
 74
    0
 49
12.7
 74
    0
 49
-6.35
 74
    0
 49
0
 74
    0
 49
-6.35
 74
    0
  0
LTYPE
  5
43
330
5
100
AcDbSymbolTableRecord
100
AcDbLinetypeTableRecord
  2
BORDERTINY
 70
    0
  3
Border (.15x) __.__.__.__.__.__.__.__.__.__.__.
 72
   65
 73
    6
 40
6.6675
 49
1.905
 74
    0
 49
-0.9525
 74
    0
 49
1.905
 74
    0
 49
-0.9525
 74
    0
 49
0
 74
    0
 49
-0.9525
 74
    0
  0
LTYPE
  5
44
330
5
100
AcDbSymbolTableRecord
100
AcDbLinetypeTableRecord
  2
BORDER2
 70
    0
  3
Border (.5x) __.__.__.__.__.__.__.__.__.__.__.
 72
   65
 73
    6
 40
22.225
 49
6.35
 74
    0
 49
-3.175
 74
    0
 49
6.35
 74
    0
 49
-3.175
 74
    0
 49
0
 74
    0
 49
-3.175
 74
    0
  0
LTYPE
  5
45
330
5
100
AcDbSymbolTableRecord
100
AcDbLinetypeTableRecord
  2
BORDERX2
 70
    0
  3
Border (2x) ____  ____  .  ____  ____  .  ___
 72
   65
 73
    6
 40
88.89999999999999
 49
25.4
 74
    0
 49
-12.7
 74
    0
 49
25.4
 74
    0
 49
-12.7
 74
    0
 49
0
 74
    0
 49
-12.7
 74
    0
  0
LTYPE
  5
46
330
5
100
AcDbSymbolTableRecord
100
AcDbLinetypeTableRecord
  2
CENTER
 70
    0
  3
Center ____ _ ____ _ ____ _ ____ _ ____ _ ____
 72
   65
 73
    4
 40
50.8
 49
31.75
 74
    0
 49
-6.35
 74
    0
 49
6.35
 74
    0
 49
-6.35
 74
    0
  0
LTYPE
  5
47
330
5
100
AcDbSymbolTableRecord
100
AcDbLinetypeTableRecord
  2
CENTERTINY
 70
    0
  3
Center (.15x) ___ _ ___ _ ___ _ ___ _ ___ _ ___
 72
   65
 73
    4
 40
7.62
 49
4.7625
 74
    0
 49
-0.9525
 74
    0
 49
0.9525
 74
    0
 49
-0.9525
 74
    0
  0
LTYPE
  5
48
330
5
100
AcDbSymbolTableRecord
100
AcDbLinetypeTableRecord
  2
CENTER2
 70
    0
  3
Center (.5x) ___ _ ___ _ ___ _ ___ _ ___ _ ___
 72
   65
 73
    4
 40
28.575
 49
19.05
 74
    0
 49
-3.175
 74
    0
 49
3.175
 74
    0
 49
-3.175
 74
    0
  0
LTYPE
  5
49
330
5
100
AcDbSymbolTableRecord
100
AcDbLinetypeTableRecord
  2
CENTERX2
 70
    0
  3
Center (2x) ________  __  ________  __  _____
 72
   65
 73
    4
 40
101.6
 49
63.5
 74
    0
 49
-12.7
 74
    0
 49
12.7
 74
    0
 49
-12.7
 74
    0
  0
ENDTAB
  0
TABLE
  2
LAYER
  5
2
330
0
100
AcDbSymbolTable
 70
    1
  0
LAYER
  5
10
330
2
100
AcDbSymbolTableRecord
100
AcDbLayerTableRecord
  2
0
 70
    0
 62
    7
  6
CONTINUOUS
370
   -3
390
F
  0
ENDTAB
  0
TABLE
  2
STYLE
  5
3
330
0
100
AcDbSymbolTable
 70
    3
  0
STYLE
  5
4A
330
2
100
AcDbSymbolTableRecord
100
AcDbTextStyleTableRecord
  2
Standard
 70
    0
 40
0
 41
1
 50
0
 71
    0
 42
1
  3
txt
  4

  0
ENDTAB
  0
TABLE
  2
VIEW
  5
6
330
0
100
AcDbSymbolTable
 70
    0
  0
ENDTAB
  0
TABLE
  2
UCS
  5
7
330
0
100
AcDbSymbolTable
 70
    0
  0
ENDTAB
  0
TABLE
  2
APPID
  5
9
330
0
100
AcDbSymbolTable
 70
    1
  0
APPID
  5
12
330
9
100
AcDbSymbolTableRecord
100
AcDbRegAppTableRecord
  2
ACAD
 70
    0
  0
APPID
  5
4B
330
9
100
AcDbSymbolTableRecord
100
AcDbRegAppTableRecord
  2
LibreCad
 70
    0
  0
ENDTAB
  0
TABLE
  2
DIMSTYLE
  5
A
330
0
100
AcDbSymbolTable
 70
    1
100
AcDbDimStyleTable
 71
    1
  0
DIMSTYLE
105
4C
330
A
100
AcDbSymbolTableRecord
100
AcDbDimStyleTableRecord
  2
Standard
 70
    0
 40
0.1
 41
0.18
 42
0.0625
 43
0.38
 44
0.18
 45
0
 46
0
 47
0
 48
0
 49
1
140
0.18
141
0.09
142
0
143
25.4
144
1
145
0
146
1
147
0.09
148
0
 71
    0
 72
    0
 73
    1
 74
    1
 75
    0
 76
    0
 77
    0
 78
    0
 79
    0
170
    0
171
    2
172
    0
173
    0
174
    0
175
    0
176
    0
177
    0
178
    0
179
    0
271
    4
272
    4
273
    2
274
    2
275
    0
276
    0
277
    2
278
    0
279
    0
280
    0
281
    0
282
    0
283
    1
284
    0
285
    0
286
    0
288
    0
289
    3
340
standard
341

371
   -2
372
   -2
  0
ENDTAB
  0
TABLE
  2
BLOCK_RECORD
  5
1
330
0
100
AcDbSymbolTable
 70
    2
  0
BLOCK_RECORD
  5
1F
330
1
100
AcDbSymbolTableRecord
100
AcDbBlockTableRecord
  2
*Model_Space
  0
BLOCK_RECORD
  5
1E
330
1
100
AcDbSymbolTableRecord
100
AcDbBlockTableRecord
  2
*Paper_Space
  0
ENDTAB
  0
ENDSEC
  0
SECTION
  2
BLOCKS
  0
BLOCK
  5
20
330
1F
100
AcDbEntity
  8
0
100
AcDbBlockBegin
  2
*Model_Space
 70
    0
 10
0
 20
0
 30
0
  3
*Model_Space
  1

  0
ENDBLK
  5
21
330
1F
100
AcDbEntity
  8
0
100
AcDbBlockEnd
  0
BLOCK
  5
1C
330
1B
100
AcDbEntity
  8
0
100
AcDbBlockBegin
  2
*Paper_Space
 70
    0
 10
0
 20
0
 30
0
  3
*Paper_Space
  1

  0
ENDBLK
  5
1D
330
1F
100
AcDbEntity
  8
0
100
AcDbBlockEnd
  0
ENDSEC
  0
SECTION
  2
ENTITIES
  0
LWPOLYLINE
  5
4D
100
AcDbEntity
  8
0
  6
ByLayer
 62
  256
370
   -1
100
AcDbPolyline
 90
  198
 70
    1
 43
0
 10
5.64674573343454
 20
10.54398826962685
 42
0.09473799999999988
 10
5.565204792769225
 20
10.51115161769627
 42
0.05100499999999996
 10
5.480212486744566
 20
10.44330725921848
 42
0.04153899999999992
 10
5.393666247042316
 20
10.34305927239155
 42
0.02484899999999991
 10
5.307404731921444
 20
10.21124057754009
 42
0.04291499999999997
 10
5.139622995250966
 20
9.85851318690405
 42
0.02211100000000002
 10
4.988498240262454
 20
9.39315157774571
 42
0.02201499999999999
 10
4.876730603206883
 20
8.90653019676374
 42
0.03577500000000013
 10
4.830100125789284
 20
8.485191127963835
 42
-0.001996000000000086
 10
4.828779445422839
 20
8.454277554299464
 42
-0.002543999999999942
 10
4.82730286706833
 20
8.425784911349099
 42
-0.001981000000000068
 10
4.825849085677802
 20
8.40191340297233
 42
-0.021266
 10
4.824810814576087
 20
8.392275689613985
 10
4.822536105013878
 20
8.377208321232924
 10
4.668086970879448
 20
8.377208321232931
 42
0.002430000000000008
 10
4.586173086131509
 20
8.376810205502576
 42
0.008260000000000026
 10
4.532796429021316
 20
8.375409320192535
 42
0.01228600000000003
 10
4.492534497213293
 20
8.372694403630547
 42
0.0160050000000001
 10
4.455879531917201
 20
8.368129133492108
 42
0.001465000000000001
 10
4.432971492104091
 20
8.364459356595042
 42
0.001880000000000021
 10
4.41191695232339
 20
8.360941856293314
 42
0.001441999999999993
 10
4.394288546887207
 20
8.357876198941739
 42
0.01617400000000005
 10
4.387327042745757
 20
8.356411197170505
 10
4.376532799035037
 20
8.35377244858973
 10
4.376777450828177
 20
8.523697752912435
 42
0.012285
 10
4.37214058397474
 20
8.724145223650744
 42
0.015281
 10
4.357568574623515
 20
8.909976040983365
 42
0.015157
 10
4.33154595897362
 20
9.095812141987325
 42
0.01175399999999999
 10
4.292372225993118
 20
9.296317792477465
 42
0.008593000000000002
 10
4.259967054099538
 20
9.432483998967671
 42
0.010833
 10
4.225103668957125
 20
9.55724667726451
 42
0.01104200000000001
 10
4.185466041506453
 20
9.678382560440125
 42
0.009577999999999996
 10
4.138700088381033
 20
9.803585861306415
 42
0.002510000000000002
 10
4.108546591617308
 20
9.878720736358934
 42
0.01331700000000001
 10
4.090751245913643
 20
9.91929755123194
 42
0.02141400000000006
 10
4.077989042413863
 20
9.943647499016835
 42
0.1258490000000059
 10
4.067965264845179
 20
9.953862379260139
 42
0.183376999999991
 10
4.053218419403008
 20
9.956572308986265
 42
0.02518400000000014
 10
4.022260142317085
 20
9.949279773930346
 42
0.02512099999999998
 10
3.9837873566119
 20
9.9360187087422
 42
0.01586999999999992
 10
3.940305472375778
 20
9.91691799938226
 42
0.020833
 10
3.875870803557554
 20
9.88277248113687
 42
0.03040099999999994
 10
3.822489337712768
 20
9.847050529085365
 42
0.03341900000000003
 10
3.777844274009781
 20
9.808103459668605
 42
0.0355259999999999
 10
3.739761352008922
 20
9.76429719363251
 42
0.03562800000000008
 10
3.708162741450353
 20
9.715362798042605
 42
0.02983099999999997
 10
3.681691548040465
 20
9.659497294263225
 42
0.02144800000000002
 10
3.655558272127918
 20
9.5856119777989
 42
0.007460999999999937
 10
3.62410926664547
 20
9.477126213050154
 42
-0.008348000000000208
 10
3.59227164416766
 20
9.368023802299149
 42
-0.02587500000000007
 10
3.565809652657294
 20
9.296059248784395
 42
-0.03378199999999997
 10
3.536342558230929
 20
9.23828408370197
 42
-0.0247129999999999
 10
3.496353893155209
 20
9.17837787742409
 10
3.466003713210055
 20
9.13744456315341
 10
3.476507236262927
 20
9.043606441433274
 42
0.01648900000000003
 10
3.506753167591543
 20
8.835669455622149
 42
0.02543499999999998
 10
3.547859002636511
 20
8.658739309179589
 42
0.02917999999999994
 10
3.600924101238967
 20
8.507514995574946
 42
0.03858900000000001
 10
3.667392864788634
 20
8.377616648103395
 42
-0.008619999999999991
 10
3.677388680456183
 20
8.360667995890076
 42
-0.009160000000000047
 10
3.686587492890808
 20
8.343721184056665
 42
-0.00882299999999998
 10
3.693971572005214
 20
8.32886735911165
 42
-0.04112099999999939
 10
3.697351459383742
 20
8.31992845581324
 42
-0.03724500000000048
 10
3.699496214377842
 20
8.309605230623935
 42
-0.004522000000000003
 10
3.702301606390635
 20
8.286599116372035
 42
-0.005347999999999994
 10
3.705099696250902
 20
8.259154955663496
 42
-0.004383999999999997
 10
3.707518371015333
 20
8.229775190231965
 42
0.01515500000000005
 10
3.721872621866867
 20
8.0918238152342
 42
0.01338199999999995
 10
3.745013380687282
 20
7.949111199321695
 42
0.01377400000000002
 10
3.774614704112503
 20
7.813597555925435
 42
0.02084200000000006
 10
3.808467720687236
 20
7.69774184143059
 42
-0.004588999999999992
 10
3.814053273697999
 20
7.680703663639975
 42
-0.006214000000000007
 10
3.818766486633938
 20
7.665202796740715
 42
-0.004303999999999996
 10
3.822434482518193
 20
7.652159964989015
 42
-0.06648200000000204
 10
3.823050059912768
 20
7.64755058509996
 42
-0.1382799999999977
 10
3.821687169542695
 20
7.64271679759672
 42
-0.002440000000000094
 10
3.807289046408914
 20
7.61946905927346
 42
-0.005932000000000113
 10
3.789958248213452
 20
7.592505475188421
 42
-0.003895999999999868
 10
3.769395564804054
 20
7.561855372685899
 42
-0.005170000000000024
 10
3.704282211370653
 20
7.468503348728968
 42
-0.01962600000000003
 10
3.660760966751406
 20
7.412268581626775
 42
-0.02714400000000009
 10
3.629085891376152
 20
7.37841437771017
 42
-0.193451999999998
 10
3.608663907978824
 20
7.370205867765551
 42
0.07117500000000045
 10
3.594790530586259
 20
7.368220928987691
 42
0.03178000000000001
 10
3.577407133145778
 20
7.36191958692819
 42
0.03166399999999994
 10
3.560440848905632
 20
7.35320277592731
 42
0.05335299999999928
 10
3.547661903885427
 20
7.34359824877434
 42
0.1096469999999994
 10
3.52804873777267
 20
7.31500664087877
 42
0.1007369999999983
 10
3.521585204813176
 20
7.27989225166419
 42
0.1038219999999997
 10
3.529386040925354
 20
7.24591302064825
 42
0.1241099999999989
 10
3.549973183577356
 20
7.220430111247184
 42
-0.02741999999999999
 10
3.568386184523876
 20
7.204948241817915
 42
-0.140218000000003
 10
3.575167272067569
 20
7.193589713881575
 42
-0.07104900000000008
 10
3.57712270539986
 20
7.177057403096375
 42
-0.003864999999999988
 10
3.57544825652205
 20
7.124509748082609
 42
-0.0143949999999999
 10
3.5712421573005
 20
7.063086950029064
 42
-0.01290800000000015
 10
3.563410450299599
 20
6.999721957505129
 42
-0.01249300000000002
 10
3.552002469574208
 20
6.93473523408259
 42
-0.01143799999999985
 10
3.537065293229634
 20
6.86844593725718
 42
0.009039000000000054
 10
3.524646409632721
 20
6.814539310101525
 42
0.01757799999999997
 10
3.51703643872679
 20
6.77104133738301
 42
0.019676
 10
3.513023282559763
 20
6.73051213491915
 42
0.01525999999999979
 10
3.511744990298213
 20
6.68618979073752
 42
0.03698900000000008
 10
3.517211987222858
 20
6.61403995252332
 42
0.04408700000000003
 10
3.533274348094328
 20
6.54774002898814
 42
0.04436900000000009
 10
3.560600368286403
 20
6.48563160036946
 42
0.03828600000000001
 10
3.599653823535069
 20
6.42598411588592
 42
0.03799999999999989
 10
3.648144806302128
 20
6.372038128347145
 42
0.01231299999999999
 10
3.727586170331645
 20
6.299790156327065
 42
0.012607
 10
3.81601885880331
 20
6.227074727811191
 42
0.0191600000000001
 10
3.896714293320151
 20
6.16889800370698
 42
-0.015647
 10
3.928192566779792
 20
6.14653839710547
 42
-0.06966799999999904
 10
3.944141833337764
 20
6.130505244844095
 42
-0.05813799999999989
 10
3.956415920593142
 20
6.109437050631845
 42
-0.008822000000000009
 10
3.97513899587006
 20
6.06436727474053
 42
0.008684999999999946
 10
3.98255044321466
 20
6.046512680677355
 42
0.007673000000000027
 10
3.990878934055645
 20
6.028167773787305
 42
0.007729000000000015
 10
3.99889343233805
 20
6.01186788517394
 42
0.02312599999999989
 10
4.005049087549615
 20
6.00108391197043
 42
0.06299999999999932
 10
4.026638346743274
 20
5.974966071502246
 42
0.01168299999999988
 10
4.07313892895985
 20
5.933281407293702
 42
0.01199900000000021
 10
4.121637570081999
 20
5.893782520741006
 42
0.0576009999999999
 10
4.152075850794204
 20
5.875354024983025
 42
0.03232400000000002
 10
4.185959738257662
 20
5.862417519696145
 42
0.02071700000000026
 10
4.22668467402945
 20
5.85164245155669
 42
0.01766100000000014
 10
4.275055616533049
 20
5.842744986489685
 42
0.01094499999999985
 10
4.332377038918325
 20
5.83555978713917
 42
-0.007153000000000009
 10
4.387555606056503
 20
5.8290677579747
 42
-0.01927299999999994
 10
4.426465096102945
 20
5.822390147275325
 42
-0.02263699999999986
 10
4.461035623372138
 20
5.813423875746724
 42
-0.01371400000000002
 10
4.501081637060373
 20
5.799865203317864
 42
0.01989499999999995
 10
4.5257045547421
 20
5.791866140479825
 42
0.04061499999999942
 10
4.545633731894626
 20
5.787968453310045
 42
0.02468699999999976
 10
4.571382130938717
 20
5.78635479633618
 42
0.003548999999999989
 10
4.624131812172344
 20
5.786031542510985
 42
0.01113199999999975
 10
4.684535752163807
 20
5.787435039973146
 42
0.02720900000000004
 10
4.728783709377037
 20
5.791870118075101
 42
0.03430100000000009
 10
4.765631855196029
 20
5.800221583981346
 42
0.03184999999999971
 10
4.801946765779407
 20
5.813689127921381
 42
-0.03954600000000025
 10
4.814453750143373
 20
5.81810989855375
 42
-0.01123000000000002
 10
4.834511991357601
 20
5.822981265427301
 42
-0.01123000000000008
 10
4.857504748013421
 20
5.827482715940006
 42
-0.01161999999999997
 10
4.880417299725651
 20
5.830890209017105
 42
0.02648099999999999
 10
4.944428562431607
 20
5.842362840507535
 42
0.02723700000000017
 10
5.00625719393768
 20
5.860460720920695
 42
0.02834799999999988
 10
5.063174504516145
 20
5.884250124606873
 42
0.03600900000000012
 10
5.112454772793945
 20
5.912765623888323
 42
0.03591099999999989
 10
5.142266136996675
 20
5.936303548565589
 42
0.02125099999999991
 10
5.174416683425375
 20
5.96827658738413
 42
0.02086199999999994
 10
5.20479494400585
 20
6.004054819440455
 42
0.02715600000000028
 10
5.229337775478175
 20
6.039324987908905
 42
-0.02417800000000001
 10
5.255251215042755
 20
6.07704167430873
 42
-0.03471299999999981
 10
5.28196533860006
 20
6.107516881353215
 42
-0.02945800000000008
 10
5.315823816947415
 20
6.13737947935781
 42
-0.01211700000000002
 10
5.364944090907695
 20
6.173924199960899
 42
0.02777699999999991
 10
5.51277147877792
 20
6.291269138001208
 42
0.0534390000000001
 10
5.61436395217588
 20
6.403084031263364
 42
0.06206200000000011
 10
5.680180983770904
 20
6.52164023611644
 42
0.05394399999999992
 10
5.7187922135386
 20
6.658464289371935
 42
0.009729999999999964
 10
5.7234228468472
 20
6.689565641153675
 42
0.03666999999999977
 10
5.72450605883885
 20
6.709227013346515
 42
0.03158599999999992
 10
5.722794089957824
 20
6.73020675058916
 42
0.005916000000000004
 10
5.716785190201885
 20
6.768311994617245
 42
0.02460300000000002
 10
5.700384674364702
 20
6.842547280098935
 42
0.02525900000000005
 10
5.676883854120996
 20
6.914148981936995
 42
0.02538900000000001
 10
5.64641600859613
 20
6.98266656325734
 42
0.02545700000000002
 10
5.609184291984745
 20
7.047680417441705
 42
0.009444999999999986
 10
5.597422424013805
 20
7.06525183046793
 42
0.002672000000000005
 10
5.57845065998138
 20
7.09216008442164
 42
0.00269200000000002
 10
5.55668775203865
 20
7.12233453776944
 42
0.002842000000000008
 10
5.534988901190019
 20
7.151729026240216
 42
-0.005745000000000059
 10
5.474496148026383
 20
7.234679579178341
 42
-0.02403699999999992
 10
5.44114128073489
 20
7.28665594464943
 42
-0.03379100000000002
 10
5.418749497168595
 20
7.332434207436965
 42
-0.02071099999999998
 10
5.398369248838134
 20
7.38897643671743
 42
-0.04498500000000006
 10
5.376304281122659
 20
7.4902012497041
 42
-0.03330399999999973
 10
5.369645133589423
 20
7.604626870278805
 42
-0.03147099999999999
 10
5.378333804587884
 20
7.72615677285531
 42
-0.02923499999999995
 10
5.40225518132336
 20
7.848723402989095
 42
-0.01705600000000005
 10
5.428774283977866
 20
7.93913568720019
 42
-0.01203300000000009
 10
5.46443989665745
 20
8.038854475753874
 42
-0.008442999999999959
 10
5.516242850847853
 20
8.166900926104551
 42
-0.002828999999999984
 10
5.59612839947243
 20
8.35223098200181
 42
0.003607999999999902
 10
5.646426457204619
 20
8.46942126876303
 42
0.011173
 10
5.678026373839256
 20
8.549497682593859
 42
0.01485599999999984
 10
5.700826187440549
 20
8.617431388547665
 42
0.01202899999999996
 10
5.72133923995961
 20
8.691539034777895
 42
0.02014700000000019
 10
5.772162874572328
 20
8.93512667276099
 42
0.01426500000000009
 10
5.810280704424283
 20
9.211865073967436
 42
0.01364899999999994
 10
5.834142892167339
 20
9.505624258406046
 42
0.01356699999999993
 10
5.84200452018347
 20
9.80084316094457
 42
0.015172
 10
5.832744203439766
 20
10.10091657010202
 42
0.03297600000000002
 10
5.803536365111591
 20
10.32944420122367
 42
0.04149300000000004
 10
5.758760337599905
 20
10.48754381794972
 42
0.2396610000000004
 10
5.69664899999363
 20
10.54441921536003
 42
0.01309300000000011
 10
5.683567401529745
 20
10.54768695829857
 42
0.05687100000000717
 10
5.6756295461653
 20
10.5485233812817
 42
0.04153199999999811
 10
5.66664433653381
 20
10.54769758500833
 42
0.004812999999999993
  0
LWPOLYLINE
  5
4E
100
AcDbEntity
  8
0
  6
ByLayer
 62
  256
370
   -1
100
AcDbPolyline
 90
   40
 70
    1
 43
0
 10
4.177333640175959
 20
7.59854934216255
 42
-0.0699839999999997
 10
4.235207651469395
 20
7.574632121123636
 42
-0.03990299999999992
 10
4.297291977048038
 20
7.531111588909511
 42
-0.03980200000000009
 10
4.352004571867763
 20
7.477982314478766
 42
-0.06666700000000041
 10
4.387477241492821
 20
7.424701653959085
 42
-0.02234499999999998
 10
4.402474259867843
 20
7.39015517036284
 42
-0.02974400000000007
 10
4.412763527079551
 20
7.357519297943145
 42
-0.03144099999999991
 10
4.41870427341192
 20
7.325433342912395
 42
-0.03058899999999998
 10
4.420648130160941
 20
7.292558221105085
 42
-0.07444199999999974
 10
4.407555786253091
 20
7.206345921304895
 42
-0.06821199999999962
 10
4.369659455027734
 20
7.12490715140784
 42
-0.06680800000000045
 10
4.310346147914634
 20
7.05522158188604
 42
-0.06628099999999984
 10
4.234608696861056
 20
7.003423792632795
 42
-0.02925900000000022
 10
4.203318260885882
 20
6.98986203311506
 42
-0.03043599999999964
 10
4.171063822043209
 20
6.980250025708285
 42
-0.02731300000000029
 10
4.134928734386647
 20
6.973892284909765
 42
-0.01665899999999986
 10
4.091751462708298
 20
6.970159638260469
 42
-0.009211999999999904
 10
4.060909129556374
 20
6.96909518627043
 42
-0.02339799999999997
 10
4.038517108521703
 20
6.969783072785131
 42
-0.02582900000000004
 10
4.017605643436818
 20
6.97249882048644
 42
-0.01363700000000005
 10
3.991991829594144
 20
6.97790645031738
 42
-0.07927800000000007
 10
3.888264693608019
 20
7.02097668312579
 42
-0.08320500000000011
 10
3.805047938621742
 20
7.09364265885261
 42
-0.08490799999999972
 10
3.751289788567433
 20
7.18807100821832
 42
-0.08725299999999994
 10
3.732645849626417
 20
7.294095947566105
 42
-0.04488400000000017
 10
3.738040418696748
 20
7.354069416761145
 42
-0.06069700000000001
 10
3.75414611754662
 20
7.406013308431985
 42
-0.05689899999999991
 10
3.783218064597319
 20
7.45500244048228
 42
-0.03380900000000001
 10
3.827865028047302
 20
7.506232086648815
 42
-0.009183000000000042
 10
3.854598980213908
 20
7.532051191901505
 42
-0.02448200000000006
 10
3.874863047141996
 20
7.549142562608075
 42
-0.02925899999999988
 10
3.89449342971193
 20
7.562377803110455
 42
-0.01905599999999995
 10
3.918536805824957
 20
7.575406921063515
 42
-0.01128900000000001
 10
3.936516189519093
 20
7.583781718237584
 42
-0.01051400000000002
 10
3.955283849483379
 20
7.591547112194824
 42
-0.01055499999999997
 10
3.972249599419681
 20
7.597743493232665
 42
-0.03468000000000007
 10
3.983768655977384
 20
7.600804579318025
 42
-0.03951600000000011
 10
4.022310723080919
 20
7.605116648801831
 42
-0.011019
 10
4.083074130824733
 20
7.605747839742051
 42
-0.01044199999999995
 10
4.143318135865769
 20
7.603787122738421
 42
-0.0497230000000001
  0
LWPOLYLINE
  5
4F
100
AcDbEntity
  8
0
  6
ByLayer
 62
  256
370
   -1
100
AcDbPolyline
 90
   12
 70
    1
 43
0
 10
3.704394533911934
 20
7.290862400073545
 42
-0.4350320000000449
 10
3.700674769921974
 20
7.277268522958119
 42
-0.06876999999999954
 10
3.671454701972492
 20
7.266744577625015
 42
-0.05513599999999993
 10
3.636157343375132
 20
7.263266615807694
 42
-0.2199810000000051
 10
3.617028612746965
 20
7.2723893196282
 42
-0.03996999999999947
 10
3.614814635721611
 20
7.275538090910955
 42
-0.05628399999999615
 10
3.613414759652167
 20
7.27866875523013
 42
-0.07105199999999437
 10
3.612969743917791
 20
7.281322226850145
 42
-0.205234999999963
 10
3.613647538026562
 20
7.28301644497015
 42
-0.1606250000000043
 10
3.626224694295281
 20
7.289355781969625
 42
-0.015525
 10
3.660629053069206
 20
7.293409723330025
 42
-0.01254500000000001
 10
3.695614675057549
 20
7.29555198490619
 42
-0.2695819999999896
  0
LWPOLYLINE
  5
50
100
AcDbEntity
  8
0
  6
ByLayer
 62
  256
370
   -1
100
AcDbPolyline
 90
   16
 70
    1
 43
0
 10
3.649761372263587
 20
6.926719310989937
 42
-0.002305000000000143
 10
3.648818325980163
 20
6.724206280960506
 42
-0.004843999999999978
 10
3.645836435597792
 20
6.566905982784048
 42
-0.007716999999999859
 10
3.641621906248935
 20
6.471351380283764
 42
-0.9109549999996425
 10
3.636710051017481
 20
6.471186221029095
 42
-0.03086899999999984
 10
3.633557242772355
 20
6.519604657207732
 42
-0.0004049999999999633
 10
3.632802152707583
 20
6.822121615941906
 42
-0.000609999999999949
 10
3.632665074088223
 20
7.116106810906154
 42
-0.01923500000000005
 10
3.635501099521374
 20
7.18838327913118
 42
-0.007048
 10
3.637315120436471
 20
7.208092976138295
 42
-0.03295999999999982
 10
3.639262183008547
 20
7.219316384569375
 42
-0.09574799999999914
 10
3.641546628774126
 20
7.2243161624666
 42
-0.4637839999999059
 10
3.644260298627152
 20
7.22454128248591
 42
-0.1928170000000029
 10
3.647081601021055
 20
7.21794399546431
 42
-0.001170000000000001
 10
3.648469128735012
 20
7.151271780884535
 42
-0.003561999999999998
 10
3.64947854742919
 20
7.062298555024735
 42
-0.001066999999999922
  0
LWPOLYLINE
  5
51
100
AcDbEntity
  8
0
  6
ByLayer
 62
  256
370
   -1
100
AcDbPolyline
 90
   60
 70
    1
 43
0
 10
4.354716045138322
 20
6.308550245939245
 42
0.0110049999999999
 10
4.421362316298151
 20
6.27914340911299
 42
0.0242539999999999
 10
4.473722608764201
 20
6.260324515346845
 42
0.02791699999999993
 10
4.522812071202851
 20
6.248274301401805
 42
0.02039600000000005
 10
4.57838507331157
 20
6.240209697292315
 42
0.04090400000000014
 10
4.65589124818775
 20
6.2385381574021
 42
0.04020099999999995
 10
4.733098272278779
 20
6.24946211821255
 42
0.03930300000000023
 10
4.809167169816481
 20
6.272949699594359
 42
0.03562200000000023
 10
4.883281821363771
 20
6.308683465697509
 42
-0.003452999999999986
 10
4.898143779600627
 20
6.317066336796324
 42
-0.005233999999999982
 10
4.911195219580914
 20
6.324131970820124
 42
-0.002152000000000102
 10
4.922430263962355
 20
6.330001298538776
 42
-0.1198480000000023
 10
4.924717084411679
 20
6.33055744947255
 42
-0.4135669999999769
 10
4.928422184729496
 20
6.326860482446575
 42
-0.04780700000000062
 10
4.927211808423142
 20
6.31392991386906
 42
-0.03961999999999995
 10
4.922551847770252
 20
6.296965291907535
 42
-0.03044599999999994
 10
4.914923829267834
 20
6.27932554735646
 42
-0.07339699999999995
 10
4.880226671987781
 20
6.230264224920225
 42
-0.04733999999999991
 10
4.827523118985957
 20
6.18458688619198
 42
-0.04554200000000014
 10
4.764341452047365
 20
6.14769730214159
 42
-0.05196800000000003
 10
4.698213040045883
 20
6.124779763593485
 10
4.671845145379031
 20
6.11861241306446
 10
4.671845145379031
 20
6.04373287588194
 10
4.671845145379031
 20
5.968853338699425
 10
4.700136118312105
 20
5.938079812009095
 42
-0.005164999999999994
 10
4.717072125334465
 20
5.91927136685144
 42
-0.06130100000000037
 10
4.722604069859619
 20
5.911190318056995
 42
-0.2236280000000045
 10
4.722797428483798
 20
5.906079879897115
 42
-0.1599179999999979
 10
4.718970328788429
 20
5.901710639902075
 42
-0.1310700000000007
 10
4.701113894345342
 20
5.896698573016455
 42
-0.002746000000000072
 10
4.60829730220648
 20
5.896002375108631
 42
-0.00201900000000005
 10
4.513610943451554
 20
5.896194487023847
 42
-0.1972820000000011
 10
4.501449950509689
 20
5.901273519991165
 42
-0.2730440000000393
 10
4.500429489536077
 20
5.90522861514055
 42
-0.05331599999999981
 10
4.503322388644985
 20
5.912324526382135
 42
-0.03481000000000038
 10
4.509587279308959
 20
5.92224565824581
 42
-0.01173299999999988
 10
4.520030900964286
 20
5.935805577383635
 42
0.008405999999999986
 10
4.548180283378886
 20
5.97185565136202
 42
0.08179599999999929
 10
4.55714144933743
 20
5.988946903334405
 42
0.08448599999999895
 10
4.560015766546011
 20
6.007823442548535
 42
0.009255999999999986
 10
4.558432742992501
 20
6.051811134422985
 42
0.006894000000000009
 10
4.556539110804753
 20
6.07950445882378
 42
0.01761399999999997
 10
4.554185917944672
 20
6.099476320916675
 42
0.02123000000000008
 10
4.551395486439492
 20
6.11360693592624
 42
0.121186999999995
 10
4.547898527152189
 20
6.12034682270691
 42
0.09529500000000618
 10
4.542668939235249
 20
6.124413646726634
 42
0.011032
 10
4.52922276744895
 20
6.13089047791512
 42
0.01294999999999995
 10
4.512701973879929
 20
6.137893360920874
 42
0.01023600000000001
 10
4.494498538774169
 20
6.144632238460948
 42
-0.02723600000000026
 10
4.428759278071889
 20
6.17154262963003
 42
-0.03472600000000028
 10
4.37169010646774
 20
6.203646572890175
 42
-0.03918699999999989
 10
4.327077100995353
 20
6.23828406624106
 42
-0.08067799999999986
 10
4.299660724086668
 20
6.272799204011835
 42
-0.03769699999999974
 10
4.290418692407827
 20
6.29269282027523
 42
-0.02793600000000011
 10
4.283164864696999
 20
6.31583945643792
 42
-0.022024
 10
4.278917564712421
 20
6.33639163187173
 42
-0.4618159999999669
 10
4.282504108944117
 20
6.340602361726596
 42
-0.10394900000003
 10
4.285222943734297
 20
6.340030953449731
 42
-0.0008569999999999972
 10
4.30524034038806
 20
6.331187037501245
 42
-0.003019999999999998
 10
4.328186553242418
 20
6.320835731676615
 42
-0.001933999999999959
  0
LWPOLYLINE
  5
52
100
AcDbEntity
  8
0
  6
ByLayer
 62
  256
370
   -1
100
AcDbPolyline
 90
   52
 70
    1
 43
0
 10
3.745201989943966
 20
10.13203507897384
 42
0.04266200000000022
 10
3.625647586777422
 20
10.10720728545176
 42
0.03960400000000005
 10
3.508894538661301
 20
10.06203076752596
 42
0.039676
 10
3.400935360033678
 20
9.999112156179555
 42
0.04321100000000019
 10
3.307542491516287
 20
9.92150327623127
 42
0.05248099999999992
 10
3.229072848076448
 20
9.82568900206314
 42
0.05228300000000002
 10
3.172155418763799
 20
9.715519586537065
 42
0.05448300000000001
 10
3.141161580788752
 20
9.600648297189956
 42
0.06921499999999964
 10
3.139354387089429
 20
9.490937967399461
 42
0.01491300000000003
 10
3.147654975396374
 20
9.436591192611115
 42
0.01232300000000007
 10
3.159642022753714
 20
9.379236465286271
 42
0.01264899999999986
 10
3.173784926751674
 20
9.325197033942009
 42
0.02195599999999998
 10
3.18860117232638
 20
9.281250424096404
 42
0.01761900000000005
 10
3.210302338491664
 20
9.230533650252346
 42
0.01058000000000008
 10
3.239422194786979
 20
9.17186364496658
 42
0.007422000000000034
 10
3.26875333856877
 20
9.117751429565439
 42
0.08336000000000113
 10
3.284036268867053
 20
9.098770641734776
 42
0.1179780000000072
 10
3.298352821614089
 20
9.091103084747948
 42
0.1052869999999994
 10
3.315230530150435
 20
9.090308753034243
 42
0.05880000000000123
 10
3.338578717596238
 20
9.097028692471424
 42
0.01386599999999967
 10
3.375616125709943
 20
9.113810582518536
 42
0.01813900000000038
 10
3.398126465362358
 20
9.125801073167315
 42
0.02589900000000004
 10
3.417089086862352
 20
9.138157146379095
 42
0.02435400000000013
 10
3.435507787049869
 20
9.1529903709426
 42
0.01368000000000016
 10
3.45645303201107
 20
9.17266177617428
 42
0.04269599999999984
 10
3.498936896035001
 20
9.22268733894639
 42
0.05311400000000014
 10
3.528844553663715
 20
9.275832108188595
 42
0.03300899999999992
 10
3.555669753053335
 20
9.351553826962334
 42
0.006962000000000018
 10
3.591826331597818
 20
9.48717112530419
 42
-0.00878900000000004
 10
3.62782612164784
 20
9.620244959250664
 42
-0.03823999999999985
 10
3.656444563469762
 20
9.69668840378252
 42
-0.05560200000000012
 10
3.690775425781688
 20
9.753220956226714
 42
-0.03485500000000002
 10
3.742228529688906
 20
9.81111954549694
 42
-0.02646000000000008
 10
3.804028605622914
 20
9.865506749276095
 42
-0.0289009999999999
 10
3.869499111492013
 20
9.911361773715784
 42
-0.03093799999999994
 10
3.934679312272921
 20
9.946240950505125
 42
-0.04645099999999999
 10
3.995524765340232
 20
9.96753551144565
 42
0.007721000000000035
 10
4.011677542295405
 20
9.97181967839542
 42
0.01006600000000026
 10
4.026310818487328
 20
9.976263661561426
 42
0.007936000000000186
 10
4.038350346355499
 20
9.980398757738914
 42
0.08653899999999745
 10
4.04278251546986
 20
9.982932723399305
 42
0.1794389999999924
 10
4.047865882235018
 20
9.991735557318956
 42
0.05745000000000079
 10
4.048691737875479
 20
10.00706615939348
 42
0.05162200000000044
 10
4.04573798749553
 20
10.02490300269564
 42
0.05116500000000014
 10
4.039188906554012
 20
10.04181294756387
 42
0.0592809999999992
 10
4.027318693637072
 20
10.059535093641
 42
0.03410299999999972
 10
4.009280595887267
 20
10.07788712458229
 42
0.03290899999999995
 10
3.987803421766517
 20
10.09455740449325
 42
0.03873200000000029
 10
3.965422680479651
 20
10.10727781355907
 42
0.05410100000000054
 10
3.922032993340046
 20
10.12220335395329
 42
0.02782300000000013
 10
3.865298058473428
 20
10.13180105389048
 42
0.02679600000000009
 10
3.803762581676044
 20
10.13539703749007
 42
0.03108000000000007
  0
LWPOLYLINE
  5
53
100
AcDbEntity
  8
0
  6
ByLayer
 62
  256
370
   -1
100
AcDbPolyline
 90
  110
 70
    1
 43
0
 10
3.708529689456514
 20
6.23298674047021
 42
0.06477599999999988
 10
3.654922747389859
 20
6.153123988809611
 42
0.01185100000000002
 10
3.579299874827119
 20
5.991690969139406
 42
0.01244999999999992
 10
3.498840721343207
 20
5.795668009160371
 42
0.01053599999999998
 10
3.423385442085984
 20
5.584722714610185
 42
0.01501299999999993
 10
3.374390670161787
 20
5.421978869511085
 42
0.03109799999999998
 10
3.348004609164264
 20
5.29196315329529
 42
0.03394699999999994
 10
3.339233061702998
 20
5.167185692592115
 42
0.02183999999999968
 10
3.345232700192319
 20
5.022207628384021
 42
-0.006617000000000001
 10
3.349483562202522
 20
4.963104302681339
 42
-0.05974600000000011
 10
3.347911818396815
 20
4.937277717174842
 42
-0.04779700000000038
 10
3.340398556486515
 20
4.910715573377404
 42
-0.003350999999999976
 10
3.31181704099687
 20
4.838713796694899
 42
0.02146199999999997
 10
3.270295992498567
 20
4.721953624527535
 42
0.01958400000000002
 10
3.237499888292976
 20
4.598463657985431
 42
0.02034099999999998
 10
3.215874355805065
 20
4.479450742080526
 42
0.0326940000000001
 10
3.208282610596898
 20
4.376637087565162
 42
0.01562199999999991
 10
3.20923331523541
 20
4.335127378181753
 42
0.06794300000000035
 10
3.213865254620071
 20
4.311019351303687
 42
0.1180149999999975
 10
3.223261047071595
 20
4.296047385842204
 42
0.1033889999999996
 10
3.238849183598588
 20
4.286069795872422
 42
0.05983400000000003
 10
3.300068886824558
 20
4.270841839502904
 42
0.002501000000000016
 10
3.5236607971431
 20
4.244047273533631
 42
0.004692999999999919
 10
3.769161242885216
 20
4.218204124607988
 42
0.005230999999999939
 10
4.006369708548958
 20
4.197984761101459
 42
0.01024500000000004
 10
4.085466268498277
 20
4.193703028202538
 42
0.006137000000000114
 10
4.179567623911876
 20
4.191696836005132
 42
0.003283000000000088
 10
4.321052765794942
 20
4.191346570152277
 42
0.0005800000000000363
 10
4.586463391219576
 20
4.192739975208497
 42
0.002614000000000096
 10
5.02751542221684
 20
4.197873032231117
 42
0.009496999999999953
 10
5.307638638270619
 20
4.207922337650093
 42
0.01222799999999994
 10
5.549450962683711
 20
4.227139940817525
 42
0.006870999999999814
 10
5.842077422974519
 20
4.261683040489427
 42
0.004280000000000052
 10
5.926653506305252
 20
4.273584658598938
 42
0.02177800000000001
 10
5.97331604195345
 20
4.282651379250082
 42
0.03828600000000035
 10
6.0011427048467
 20
4.291626377741457
 42
0.1729690000000048
 10
6.013652598198255
 20
4.302846105412726
 42
0.1537600000000003
 10
6.025103916902045
 20
4.361742239958398
 42
0.010157
 10
6.001834628323776
 20
4.535130486223718
 42
0.01566700000000001
 10
5.967117701801515
 20
4.720592574537369
 42
0.02282999999999999
 10
5.924039988739304
 20
4.88121107768201
 10
5.906366998615755
 20
4.936825874224692
 10
5.902124329264481
 20
5.069920961590705
 42
0.005572000000000003
 10
5.898139788036621
 20
5.162505903329935
 42
0.010568
 10
5.892526332491816
 20
5.236922199080315
 42
0.01166100000000001
 10
5.884219748108411
 20
5.305958173862845
 42
0.00882000000000001
 10
5.872004434275791
 20
5.381313241465905
 42
0.015587
 10
5.8453230813542
 20
5.50679206501405
 42
0.01386899999999998
 10
5.809948901737595
 20
5.635397100349345
 42
0.01359
 10
5.76665663599875
 20
5.7645905229503
 42
0.01340500000000001
 10
5.716226486483075
 20
5.891838960827455
 42
0.01355300000000001
 10
5.675365481332525
 20
5.980644474647555
 42
0.006955
 10
5.619621442626856
 20
6.089775262869345
 42
0.005546999999999989
 10
5.564068328494525
 20
6.19213179076322
 42
0.04122099999999994
 10
5.53323590964725
 20
6.23810703356765
 42
0.1365270000000121
 10
5.52116384861173
 20
6.246840407987669
 42
0.1667280000000022
 10
5.507305194258405
 20
6.247179869029444
 42
0.06214000000000006
 10
5.486193662067749
 20
6.237496502376035
 42
0.007141000000000008
 10
5.442076015625188
 20
6.209314883629558
 42
-0.001748000000000161
 10
5.418080904959339
 20
6.193620242536459
 42
-0.001235000000000069
 10
5.391023164663689
 20
6.176152009519079
 42
-0.001247000000000063
 10
5.365078023071076
 20
6.15958401911057
 42
-0.002632000000000078
 10
5.344854266399619
 20
6.146889375363419
 42
0.01767999999999983
 10
5.31153739404809
 20
6.124551022181459
 42
0.04091400000000005
 10
5.28867073309929
 20
6.10498475607272
 42
0.03772199999999965
 10
5.268224884130295
 20
6.08099587895171
 42
0.0130810000000001
 10
5.242373126976071
 20
6.04355198434744
 42
-0.01617700000000005
 10
5.228438007806061
 20
6.023633196436309
 42
-0.008145000000000119
 10
5.209650816067944
 20
5.99938102625474
 42
-0.008079000000000012
 10
5.189399394330814
 20
5.974920952511036
 42
-0.0118750000000001
 10
5.17075717703552
 20
5.95415054364078
 42
-0.02565800000000006
 10
5.1169821667266
 20
5.90259894972511
 42
-0.04950699999999973
 10
5.068289573309335
 20
5.868272124375551
 42
-0.05512999999999998
 10
5.017499124901995
 20
5.846499955166205
 42
-0.04086400000000017
 10
4.957754693954456
 20
5.833569505322885
 42
5.000000000018911e-006
 10
4.938924164237648
 20
5.83107947131225
 42
3.999999999969823e-006
 10
4.917267107823164
 20
5.828215305876483
 42
3.999999999969823e-006
 10
4.896201228927737
 20
5.825429030067198
 42
7.000000000038067e-006
 10
4.879353263305219
 20
5.823200211268727
 42
0.02043299999999991
 10
4.8628866125257
 20
5.820332958744434
 42
0.01136899999999998
 10
4.843077297535355
 20
5.815569224411759
 42
0.01132500000000012
 10
4.823217639249552
 20
5.809828782653536
 42
0.01796299999999995
 10
4.806527649463487
 20
5.803925734425666
 42
-0.03993100000000004
 10
4.724487015970499
 20
5.77890155455762
 42
-0.05178599999999992
 10
4.646397915601277
 20
5.770058885318094
 42
-0.04876300000000007
 10
4.564556636808936
 20
5.77729365619185
 42
-0.03026999999999987
 10
4.470946900298259
 20
5.800811811626909
 42
0.01102399999999993
 10
4.438333884209636
 20
5.810353053458
 42
0.01999099999999996
 10
4.411228531504842
 20
5.816488108288051
 42
0.01889599999999991
 10
4.382716356780641
 20
5.820646595100449
 42
0.008729999999999967
 10
4.345385497122773
 20
5.823999707919724
 42
-0.01633399999999992
 10
4.254612201614893
 20
5.833546411523429
 42
-0.04240100000000031
 10
4.190528273586249
 20
5.848025036436265
 42
-0.05095500000000013
 10
4.136928811773401
 20
5.871242913111396
 42
-0.03422800000000004
 10
4.081016882926747
 20
5.907796716879826
 42
-0.01617499999999999
 10
4.046262495768366
 20
5.93588987865669
 42
-0.0430959999999999
 10
4.024023938670913
 20
5.958709224031815
 42
-0.0353780000000001
 10
4.003694271104286
 20
5.987449724598385
 42
-0.008140000000000033
 10
3.973723743723346
 20
6.03876141608841
 42
0.008862000000000017
 10
3.957836871980853
 20
6.065870983856855
 42
0.009314999999999983
 10
3.941252793089945
 20
6.091948573435515
 42
0.009020999999999993
 10
3.926135318881807
 20
6.11389914076143
 42
0.04063600000000041
 10
3.91608031422184
 20
6.12577950545139
 42
0.03890099999999998
 10
3.882186512453733
 20
6.154878761365195
 42
0.01040499999999999
 10
3.823927624291842
 20
6.195671613092175
 42
0.008733999999999969
 10
3.76460291869675
 20
6.233913460802866
 42
0.06758700000000045
 10
3.734540787890228
 20
6.247343722208055
 42
0.1004949999999961
 10
3.728601347633919
 20
6.247848936175439
 42
0.09752899999998342
 10
3.722865477141908
 20
6.246012237030549
 42
0.06514600000000018
 10
3.716537419890237
 20
6.24135506663107
 42
0.02142899999999992
  0
LWPOLYLINE
  5
54
100
AcDbEntity
  8
0
  6
ByLayer
 62
  256
370
   -1
100
AcDbPolyline
 90
   18
 70
    1
 43
0
 10
5.308606678100495
 20
5.11763453226576
 42
-0.1635240000000716
 10
5.30729745558311
 20
5.117136382982515
 42
-0.0001930000000001566
 10
5.278096266369404
 20
5.115997128454425
 42
-0.001714999999999992
 10
5.245350980396053
 20
5.114844694431515
 42
-0.00105099999999998
 10
5.206736722906572
 20
5.113699503194045
 42
-0.001770000000000148
 10
5.126030721047054
 20
5.1117615831544
 42
-0.1921770000000035
 10
5.116034311708584
 20
5.115515780058704
 42
-0.5087520000001012
 10
5.116749507086391
 20
5.12202555998419
 42
-0.004542000000000019
 10
5.166800835177165
 20
5.150089928720611
 42
0.006551000000000264
 10
5.184945556227255
 20
5.160359901626867
 42
0.002901000000000051
 10
5.208641634842139
 20
5.17436982333494
 42
0.00286999999999972
 10
5.233576704702539
 20
5.18950338602547
 42
0.003866000000000169
 10
5.25596249219237
 20
5.20350582747974
 10
5.307185845446975
 20
5.23610002419966
 10
5.308606678100495
 20
5.177450916130875
 42
-0.002311000000000002
 10
5.309049022315656
 20
5.154881921789885
 42
-0.003744000000000197
 10
5.309192750049501
 20
5.13568705621934
 42
-0.0007149999999998502
 10
5.30916864700946
 20
5.118819143253448
 42
-0.2236719999999952
  0
LWPOLYLINE
  5
55
100
AcDbEntity
  8
0
  6
ByLayer
 62
  256
370
   -1
100
AcDbPolyline
 90
   20
 70
    1
 43
0
 10
5.405123739923851
 20
5.17600752398175
 42
-0.01428600000000014
 10
5.404358676187341
 20
5.14923658611577
 42
-0.09493100000000082
 10
5.401115273757225
 20
5.136342825136345
 42
-0.1609369999999965
 10
5.394079916951215
 20
5.128864233608771
 42
-0.06410200000000055
 10
5.38078263783592
 20
5.123725655446475
 42
-0.06358000000000184
 10
5.36735570098798
 20
5.12219184721364
 42
-0.2253660000000408
 10
5.35977808514811
 20
5.125913867153165
 42
-0.1454020000000031
 10
5.35586525936944
 20
5.135650426722525
 42
-0.02333900000000006
 10
5.354899178653661
 20
5.156336237484255
 42
-0.01481799999999998
 10
5.355422321483346
 20
5.17398340292205
 42
-0.06929199999999629
 10
5.357413612540229
 20
5.183927687952265
 42
-0.08835200000000307
 10
5.36181407962655
 20
5.191753458243795
 42
-0.03274900000000004
 10
5.370497704422051
 20
5.201001011062349
 42
-0.02752999999999964
 10
5.37716836917146
 20
5.206577718376154
 42
-0.02888400000000005
 10
5.38430880573332
 20
5.21129188118559
 42
-0.03014199999999966
 10
5.390906152122015
 20
5.21460587109011
 42
-0.1016570000000064
 10
5.395609985057145
 20
5.215572189274265
 42
-0.1743019999999942
 10
5.400653457135335
 20
5.213758940131385
 42
-0.162543999999984
 10
5.403566184853534
 20
5.209094883149035
 42
-0.05330199999999897
 10
5.404857537875699
 20
5.19917701647551
 42
-0.005743999999999997
  0
LWPOLYLINE
  5
56
100
AcDbEntity
  8
0
  6
ByLayer
 62
  256
370
   -1
100
AcDbPolyline
 90
   52
 70
    1
 43
0
 10
3.185198131781269
 20
5.473447943166512
 42
-0.0002479999999999791
 10
3.152245951486204
 20
5.46761275152673
 42
-0.0001049999999999832
 10
3.108085026432242
 20
5.459824798073825
 42
-0.0001040000000000253
 10
3.060953906313635
 20
5.451533411666432
 42
-0.0001360000000004029
 10
3.017898455911583
 20
5.443980373803369
 42
0.009809999999999994
 10
2.819899106016273
 20
5.40528377415496
 42
0.009384000000000012
 10
2.620602288288058
 20
5.358327133924575
 42
0.009766999999999994
 10
2.442205477795644
 20
5.309013620074305
 42
0.02323200000000008
 10
2.312308377033061
 20
5.26369450238945
 42
0.02963100000000002
 10
2.176805538447858
 20
5.19967356284722
 42
0.03679999999999996
 10
2.05978729752418
 20
5.123974641037455
 42
0.04119200000000004
 10
1.968385304494018
 20
5.042161502247525
 42
0.07375999999999999
 10
1.910681320556936
 20
4.959794112270815
 42
0.06760800000000013
 10
1.89293827726282
 20
4.90779702768402
 42
0.07856699999999975
 10
1.891005937729977
 20
4.85562445396825
 42
0.07161800000000025
 10
1.905527781887026
 20
4.801640471489502
 42
0.04526499999999999
 10
1.936632873795668
 20
4.744190697447648
 42
0.05978999999999999
 10
1.991466874322011
 20
4.679895541299617
 42
0.03453599999999997
 10
2.07087006531028
 20
4.61618681330316
 42
0.03036799999999976
 10
2.170821454137087
 20
4.555399243152208
 42
0.02223899999999985
 10
2.288249328007296
 20
4.49994176940783
 42
0.01602699999999999
 10
2.359068096613636
 20
4.472905104430446
 42
0.004817999999999959
 10
2.468456300553703
 20
4.436289736985854
 42
0.004923000000000124
 10
2.579568762363207
 20
4.40148934032985
 42
0.01378000000000038
 10
2.658293209369209
 20
4.380030391906868
 42
0.00449800000000002
 10
2.735294704581836
 20
4.362036582008967
 42
0.002727000000000106
 10
2.82671159875252
 20
4.342062582700695
 42
0.002729999999999919
 10
2.917871077204923
 20
4.323184856144696
 42
0.004708999999999937
 10
2.993965740061301
 20
4.308604001096501
 42
0.01472999999999993
 10
3.045564233980993
 20
4.30078214903315
 42
0.02308200000000023
 10
3.090311824654802
 20
4.297427314568169
 42
0.0220810000000001
 10
3.125581280718124
 20
4.297973313728928
 42
0.1834589999999963
 10
3.139915109289424
 20
4.304417730484248
 42
0.1590039999999732
 10
3.142230960247566
 20
4.308976470242372
 42
0.002633000000000214
 10
3.146519460995172
 20
4.337467688382497
 42
0.006518999999999985
 10
3.150935719728423
 20
4.370962187078376
 42
0.004250000000000045
 10
3.155200058068894
 20
4.409730324074724
 42
-0.004879999999999979
 10
3.164930680928886
 20
4.497178290563187
 42
-0.01268600000000002
 10
3.17414391956728
 20
4.559855752774984
 42
-0.01531299999999992
 10
3.185384247620061
 20
4.614757134952676
 42
-0.01083599999999993
 10
3.201210208724414
 20
4.675658155619683
 42
0.007755000000000008
 10
3.228592746389695
 20
4.778425681903241
 42
0.01129799999999993
 10
3.249261934365189
 20
4.869869588101561
 42
0.0120829999999999
 10
3.264748553161957
 20
4.957186828249696
 42
0.01122399999999993
 10
3.276433540746554
 20
5.047319909019114
 42
0.02191400000000003
 10
3.281019945570348
 20
5.120426507315358
 42
0.003099000000000055
 10
3.282925391809734
 20
5.27122046885775
 42
0.00181900000000003
 10
3.283363817796715
 20
5.4278532434327
 42
0.05208400000000012
 10
3.279141630092772
 20
5.467950609656985
 42
0.09428299999999934
 10
3.273877371793112
 20
5.48050669060744
 42
0.2360789999999918
 10
3.265498181454109
 20
5.485327892286815
 42
0.05648600000000007
 10
3.248415003406468
 20
5.48439766929563
 42
0.002127000000000002
  0
LWPOLYLINE
  5
57
100
AcDbEntity
  8
0
  6
ByLayer
 62
  256
370
   -1
100
AcDbPolyline
 90
   52
 70
    1
 43
0
 10
5.940760968148279
 20
5.483345090724331
 42
0.2024520000000049
 10
5.936993116812422
 20
5.474070703979426
 42
0.003199999999999936
 10
5.938157008684411
 20
5.415910899496917
 42
0.006302999999999997
 10
5.941218807174893
 20
5.337474857832117
 42
0.002059999999999991
 10
5.947667082791304
 20
5.221912357413064
 42
0.003377999999999976
 10
5.958499796378739
 20
5.05954679943502
 42
0.01985700000000013
 10
5.96813578809138
 20
4.974700417726664
 42
0.0211989999999999
 10
5.984262502892419
 20
4.893130327818352
 42
0.004184999999999993
 10
6.020572901576675
 20
4.748483769461477
 42
-0.004479999999999993
 10
6.051422655615315
 20
4.625282564463122
 42
-0.009692999999999993
 10
6.072450124001289
 20
4.529911821852021
 42
-0.01226499999999999
 10
6.086323738862225
 20
4.450563664159611
 42
-0.01646399999999999
 10
6.094745910977071
 20
4.378057920218688
 42
0.00451300000000007
 10
6.098128113672251
 20
4.341293897571467
 42
0.01910200000000005
 10
6.10119068393495
 20
4.319396998098255
 42
0.02829900000000022
 10
6.104461988899105
 20
4.305657849704547
 42
0.1813809999999994
 10
6.10871065432684
 20
4.300059592135732
 42
0.1983609999999933
 10
6.133161526170991
 20
4.295834495444169
 42
0.000947999999999873
 10
6.386644708800329
 20
4.353163932387103
 42
0.004655000000000076
 10
6.619871423489688
 20
4.408666347021434
 42
0.01556600000000014
 10
6.771231806473105
 20
4.451220679785585
 42
0.01277799999999998
 10
6.920637171693875
 20
4.502521922667123
 42
0.01835000000000005
 10
7.049890139489814
 20
4.556106839542021
 42
0.02097500000000002
 10
7.155374007145614
 20
4.609907912005076
 42
0.04483000000000035
 10
7.230623935625729
 20
4.661742627590596
 42
0.02322799999999983
 10
7.259342707836005
 20
4.687925415659288
 42
0.01941999999999997
 10
7.287354121124849
 20
4.718219137498334
 42
0.01977399999999999
 10
7.310715725533825
 20
4.747834352823483
 42
0.05235300000000029
 10
7.324191758968254
 20
4.77116769849586
 42
0.06675199999999983
 10
7.337461491752081
 20
4.816322072495699
 42
0.04445800000000022
 10
7.34089777786962
 20
4.870223831549669
 42
0.04393199999999974
 10
7.334706146199275
 20
4.924783318634744
 42
0.05902500000000051
 10
7.319131604736736
 20
4.971983067113829
 42
0.07745499999999948
 10
7.26633627020805
 20
5.050623628416425
 42
0.043394
 10
7.180956118960255
 20
5.128305648624151
 42
0.03851199999999999
 10
7.070379207703025
 20
5.19988663134651
 42
0.03040100000000005
 10
6.94116797497396
 20
5.260202233102545
 42
0.014546
 10
6.880512259138115
 20
5.282127806882015
 42
0.004334000000000041
 10
6.786701565015264
 20
5.312085095401065
 42
0.004445999999999926
 10
6.691293777337695
 20
5.340716182413944
 42
0.01211499999999999
 10
6.62313388275689
 20
5.358732848642925
 42
0.007450000000000035
 10
6.493485055180159
 20
5.387628237956959
 42
0.003614999999999999
 10
6.326981135834473
 20
5.420888117898542
 42
0.003603000000000004
 10
6.161375143781004
 20
5.451489361282949
 42
0.008138000000000025
 10
6.035441983864769
 20
5.471714305296285
 42
-0.001113000000000061
 10
6.007739991868288
 20
5.47576492209943
 42
-0.00149900000000001
 10
5.982681972756835
 20
5.47956269445052
 42
-0.001018999999999742
 10
5.961672730068631
 20
5.482855134100019
 42
-0.01614199999999997
 10
5.95457272249758
 20
5.4842189149765
 42
0.03315799999999952
 10
5.95029324554822
 20
5.48489089111009
 42
0.03818100000000068
 10
5.94616159266217
 20
5.484945212000825
 42
0.04163599999999894
 10
5.942727799962565
 20
5.48443887005866
 42
0.1398419999999558
  0
LWPOLYLINE
  5
58
100
AcDbEntity
  8
0
  6
ByLayer
 62
  256
370
   -1
100
AcDbPolyline
 90
   64
 70
    1
 43
0
 10
6.713473561012378
 20
4.185615686496163
 42
-0.006895000000000249
 10
6.477774384971752
 20
4.136596989633195
 42
-0.007798999999999894
 10
6.250279563179208
 20
4.096219054524091
 42
-0.00781699999999997
 10
6.022092758542483
 20
4.063031127500075
 42
-0.00698999999999995
 10
5.784319177513797
 20
4.035610060590985
 42
-0.004886000000000217
 10
5.48320815029264
 20
4.008112825700682
 42
-0.008155999999999983
 10
5.229283929524178
 20
3.991588766941504
 42
-0.007906999999999789
 10
4.969525288888154
 20
3.98305076962686
 42
-0.00426100000000018
 10
4.649244092807406
 20
3.980321367494003
 42
-0.002964000000000027
 10
4.414699784840542
 20
3.981711685461363
 42
-0.004715000000000061
 10
4.214074984593369
 20
3.98598285101761
 42
-0.005189000000000041
 10
4.028586062353363
 20
3.993609563443965
 42
-0.004971000000000004
 10
3.840628656357306
 20
4.005167149245485
 42
-0.004610999999999977
 10
3.600505444494167
 20
4.024557748123954
 42
-0.003061999999999916
 10
3.325426947227582
 20
4.051025735710788
 42
-0.002687000000000006
 10
3.071867715351173
 20
4.078369269195505
 42
-0.01438600000000016
 10
2.934199580757457
 20
4.097990034296256
 42
0.003048999999999976
 10
2.911257820435127
 20
4.101792318546462
 42
0.0008009999999999846
 10
2.874454437404787
 20
4.107601151196633
 42
0.0008130000000000416
 10
2.832532720391098
 20
4.114079288461172
 42
0.0008330000000000246
 10
2.790935325810277
 20
4.120367154190408
 42
-0.0006970000000000475
 10
2.746793457593478
 20
4.127027310964245
 42
-0.0004900000000000212
 10
2.69712528472547
 20
4.134641853136383
 42
-0.0004940000000002828
 10
2.649592130648143
 20
4.142024863643105
 42
-0.001034999999999912
 10
2.612638133301107
 20
4.147880477563108
 42
0.003646999999999995
 10
2.565797140169253
 20
4.155052022482064
 42
0.00931900000000001
 10
2.531735507627257
 20
4.15936634791543
 42
0.01254999999999996
 10
2.506260197214186
 20
4.161466577589255
 42
0.03191999999999989
 10
2.487717360433744
 20
4.161343034667264
 42
0.7398949999999996
 10
2.486073426242094
 20
4.15420331051053
 42
0.02367900000000006
 10
2.526275278551292
 20
4.133490428354071
 42
0.01578099999999998
 10
2.592253135603154
 20
4.105840738767144
 42
0.008470000000000075
 10
2.675239190063312
 20
4.075704220992219
 42
0.01392499999999992
 10
2.822045167086427
 20
4.029719420085708
 42
0.00789900000000001
 10
3.002048747969826
 20
3.981852029270874
 42
0.007532000000000149
 10
3.197369157762018
 20
3.936314974985039
 42
0.007788999999999948
 10
3.391798051908116
 20
3.897224534037
 42
0.009151000000000143
 10
3.482317078153678
 20
3.882195873001034
 42
0.002811999999999904
 10
3.619431555231538
 20
3.86278942310854
 42
0.002852000000000065
 10
3.757561447080073
 20
3.844832598910006
 42
0.008312000000000149
 10
3.853184796674856
 20
3.834566662966118
 42
0.002144000000000019
 10
4.047892716161342
 20
3.817773255702825
 42
0.009624000000000079
 10
4.162055696713542
 20
3.810628663444413
 42
0.009427999999999931
 10
4.277446448130505
 20
3.807812822823131
 42
0.002002000000000032
 10
4.478480584488739
 20
3.807503342163674
 42
0.002582000000000024
 10
4.719571242510828
 20
3.809342415992303
 42
0.004329000000000091
 10
4.922137168620749
 20
3.813688087251146
 42
0.005096000000000018
 10
5.087218889869759
 20
3.820344207062603
 42
0.01224699999999989
 10
5.209247950970088
 20
3.829511436203376
 42
0.006460000000000098
 10
5.445077140945899
 20
3.856129325701788
 42
0.006041000000000093
 10
5.685475638022529
 20
3.889368367793482
 42
0.006219999999999851
 10
5.901404562620455
 20
3.924639961072184
 42
0.01618099999999988
 10
6.055531808372848
 20
3.956962553338428
 42
-0.0003040000000000051
 10
6.094374391704708
 20
3.966405008325602
 42
-0.0002410000000000081
 10
6.136346273912574
 20
3.976559690335883
 42
-0.0002439999999999899
 10
6.175275058264461
 20
3.98593820696314
 42
-0.0006109999999999861
 10
6.203694264119921
 20
3.992733423875137
 42
0.01253199999999968
 10
6.368679098272
 20
4.036365388124135
 42
0.007335000000000081
 10
6.56405840022113
 20
4.09643426023875
 42
0.003620000000000111
 10
6.752184171294917
 20
4.158815777488458
 42
0.09733399999999905
 10
6.79759970113996
 20
4.184908327574728
 42
0.1956190000000327
 10
6.802578463086016
 20
4.194736371835481
 42
0.4360969999999008
 10
6.7975361783497
 20
4.200259411296579
 42
0.05106199999999978
 10
6.77148007965896
 20
4.19781271526392
 42
0.005793999999999991
  0
LWPOLYLINE
  5
59
100
AcDbEntity
  8
0
  6
ByLayer
 62
  256
370
   -1
100
AcDbPolyline
 90
   36
 70
    1
 43
0
 10
3.842068189645371
 20
3.68454583908496
 42
0.5090289999999852
 10
3.839647852602317
 20
3.675419632605928
 42
0.104703999999999
 10
3.855052485442684
 20
3.662970174955761
 42
0.03002499999999988
 10
3.896570268750831
 20
3.644874847327629
 42
0.006055000000000092
 10
3.972543704001866
 20
3.61809595427109
 42
0.01204699999999992
 10
4.162115360642712
 20
3.558898056788146
 42
0.02166199999999989
 10
4.320524814230777
 20
3.5209262106196
 42
0.02466499999999999
 10
4.46637153775389
 20
3.499981796797713
 42
0.02319800000000003
 10
4.616598127981814
 20
3.492927679990091
 42
0.01329500000000034
 10
4.722245255145293
 20
3.495681007061706
 42
0.01711999999999996
 10
4.818994323570828
 20
3.504107987911137
 42
0.0172679999999998
 10
4.914260580097017
 20
3.519057215775733
 42
0.01393000000000004
 10
5.015415280546029
 20
3.541469540356446
 42
0.01613099999999975
 10
5.114204677247844
 20
3.569680248978839
 42
0.012772
 10
5.219072314471039
 20
3.606300009588371
 42
0.009119000000000011
 10
5.312446601088105
 20
3.643566812152137
 42
0.1050409999999994
 10
5.344698249677375
 20
3.665978424327726
 42
0.01084999999999999
 10
5.35148990456375
 20
3.673529621810896
 42
0.1508459999999984
 10
5.352938461650028
 20
3.676850201462817
 42
0.2680760000000045
 10
5.351796179400145
 20
3.679464609535178
 42
0.03718299999999988
 10
5.346581967560475
 20
3.682738882854014
 42
0.1080160000000019
 10
5.33993095331908
 20
3.684588108455675
 42
0.02190300000000012
 10
5.327612043907955
 20
3.684738307202738
 42
0.01846200000000007
 10
5.310958921087075
 20
3.683595253180639
 42
0.008260000000000026
 10
5.289160630356499
 20
3.680923259027391
 42
-0.01297299999999999
 10
5.159820096097351
 20
3.66630482460889
 42
-0.009127000000000026
 10
5.013726939768285
 20
3.656303962738374
 42
-0.00781699999999997
 10
4.844629093997562
 20
3.650474054769939
 42
-0.004760999999999729
 10
4.644740920649007
 20
3.648613608787567
 42
-0.005491999999999944
 10
4.426806456891715
 20
3.651054308743758
 42
-0.006417000000000276
 10
4.220020420926139
 20
3.658297984681564
 42
-0.006929999999999938
 10
4.031274204356109
 20
3.669960175302178
 42
-0.01063399999999996
 10
3.868252165055937
 20
3.685796406913747
 42
0.02155899999999968
 10
3.860890764171327
 20
3.686349530125753
 42
0.01990500000000025
 10
3.853309467571651
 20
3.68628945062693
 42
0.02035099999999995
 10
3.84656453458802
 20
3.685691505259184
 42
0.06026099999999956
  0
LWPOLYLINE
  5
5A
100
AcDbEntity
  8
0
  6
ByLayer
 62
  256
370
   -1
100
AcDbPolyline
 90
   40
 70
    1
 43
0
 10
7.11945946824215
 20
3.124141193672736
 42
0.04742699999999989
 10
7.020806259653285
 20
3.095451392604184
 42
0.05867099999999997
 10
6.93665370116901
 20
3.05002363313786
 42
0.06212100000000015
 10
6.869140017403135
 20
2.988835513205713
 42
0.06421400000000001
 10
6.819598771381425
 20
2.913576620294452
 42
0.03304300000000011
 10
6.794711313930176
 20
2.852660698486919
 42
0.05714099999999988
 10
6.783445517394196
 20
2.799186323140496
 42
0.0220179999999999
 10
6.779432776796817
 20
2.718108386438964
 42
0.001377000000000035
 10
6.778792740159645
 20
2.478333600048847
 42
0.0005109999999999988
 10
6.779023974989599
 20
2.26948859453957
 42
0.007366999999999976
 10
6.780274186615836
 20
2.195358745016195
 42
0.02144499999999996
 10
6.78342230486056
 20
2.153170172916327
 42
0.03977799999999986
 10
6.79013440784137
 20
2.119519420029827
 42
0.06529800000000005
 10
6.832412921088195
 20
2.021388107561675
 42
0.07090900000000007
 10
6.897653320102115
 20
1.940511959611615
 42
0.06900599999999998
 10
6.98455398135376
 20
1.879435093613063
 42
0.0571889999999998
 10
7.09045941474192
 20
1.839501996137046
 42
0.03990900000000012
 10
7.145479531107014
 20
1.830252781039867
 42
0.02212899999999997
 10
7.213538917198184
 20
1.827356972943369
 42
0.02213300000000003
 10
7.28151596113039
 20
1.830485143844609
 42
0.04029599999999982
 10
7.33625812076278
 20
1.839926648958281
 42
0.04529999999999999
 10
7.423923845750935
 20
1.87112251315319
 42
0.05415599999999997
 10
7.49905219042315
 20
1.916220310312735
 42
0.05678899999999969
 10
7.559871581336325
 20
1.974291420357255
 42
0.05889300000000012
 10
7.605213377250975
 20
2.043891145061564
 42
0.03302699999999974
 10
7.62964228327049
 20
2.102697041624809
 42
0.05375900000000031
 10
7.641442205548491
 20
2.155395370322388
 42
0.02403800000000017
 10
7.646475407119459
 20
2.232960021785834
 42
0.002116000000000032
 10
7.648933679735393
 20
2.429610017008512
 42
0.002514999999999875
 10
7.649564870675619
 20
2.624567456389868
 42
0.01198500000000001
 10
7.646694649796501
 20
2.735949919741514
 42
0.02092899999999997
 10
7.63993748719157
 20
2.809523618331006
 42
0.04708500000000023
 10
7.627309393956456
 20
2.864061198958506
 42
0.06559700000000011
 10
7.585124858818961
 20
2.950803053234499
 42
0.06649800000000008
 10
7.522072612144635
 20
3.023209476027664
 42
0.06358100000000012
 10
7.439522074683855
 20
3.079027723600458
 42
0.05216500000000001
 10
7.339941195888835
 20
3.116889028240534
 42
0.04053100000000003
 10
7.294214819941195
 20
3.125118969705976
 42
0.016046
 10
7.230443815863445
 20
3.129267957783388
 42
0.01608400000000004
 10
7.166363806062985
 20
3.129313848546817
 42
0.03921499999999999
  0
LWPOLYLINE
  5
5B
100
AcDbEntity
  8
0
  6
ByLayer
 62
  256
370
   -1
100
AcDbPolyline
 90
   40
 70
    1
 43
0
 10
7.275901021408245
 20
2.962931334907752
 42
-0.03068000000000002
 10
7.31065897059225
 20
2.953308819525389
 42
-0.03851399999999978
 10
7.341328189298945
 20
2.940036949526193
 42
-0.03949400000000021
 10
7.36897508863247
 20
2.922535827138906
 42
-0.03518500000000001
 10
7.394687689319064
 20
2.900271979659534
 42
-0.02982400000000002
 10
7.41550962882665
 20
2.876873033348617
 42
-0.03527100000000015
 10
7.432156993039435
 20
2.852384641501216
 42
-0.03359300000000022
 10
7.445803588134066
 20
2.824797168628485
 42
-0.02323300000000006
 10
7.457609743956906
 20
2.792022614677905
 42
-0.05216500000000062
 10
7.462882076181304
 20
2.765336749857196
 42
-0.01523199999999999
 10
7.465409986398145
 20
2.723508001712244
 42
-0.006749000000000001
 10
7.46659839687986
 20
2.651066789802171
 42
-0.0007260000000000003
 10
7.466841980065304
 20
2.483356056175706
 42
-0.001122000000000058
 10
7.466535230292134
 20
2.346659701538744
 42
-0.004101000000000092
 10
7.465435336147156
 20
2.259986653724399
 42
-0.004523999999999823
 10
7.463674033211266
 20
2.20117618589495
 42
-0.0481039999999994
 10
7.46045081559301
 20
2.177467343354922
 42
-0.06331699999999989
 10
7.4370800686516
 20
2.114945660396993
 42
-0.07083399999999976
 10
7.399449820740205
 20
2.062856853650433
 42
-0.07119300000000006
 10
7.348958107548365
 20
2.023540402176675
 42
-0.06492199999999969
 10
7.287887059524995
 20
1.998451749644871
 42
-0.04527300000000006
 10
7.25664512646537
 20
1.993100340451663
 42
-0.02026399999999961
 10
7.214948529470995
 20
1.991488523857706
 42
-0.02029599999999991
 10
7.173050796763165
 20
1.993269061731956
 42
-0.04296299999999994
 10
7.141040534776875
 20
1.998728637769889
 42
-0.06356800000000001
 10
7.076626466340165
 20
2.024588765684324
 42
-0.07579900000000024
 10
7.02497074254215
 20
2.064682688617173
 42
-0.07554200000000028
 10
6.987484400465884
 20
2.118472125129867
 42
-0.0625839999999995
 10
6.964651222557929
 20
2.184519916618105
 42
-0.04978099999999989
 10
6.95763789094368
 20
2.248989374553247
 42
-0.002084000000000006
 10
6.956548564141382
 20
2.480189771600386
 42
-0.00206699999999994
 10
6.957379228516434
 20
2.711542920179581
 42
-0.05032499999999994
 10
6.964329927846825
 20
2.775477599334653
 42
-0.03096599999999991
 10
6.974283889713315
 20
2.811336689372603
 42
-0.03929199999999963
 10
6.988017991904065
 20
2.842830635744981
 42
-0.04018899999999957
 10
7.006218221186761
 20
2.871219208180098
 42
-0.03494999999999958
 10
7.029527582553285
 20
2.897779155395067
 42
-0.06618299999999983
 10
7.080629351999985
 20
2.93650152036217
 42
-0.06452499999999944
 10
7.140505221692985
 20
2.960931851191935
 42
-0.0622670000000004
 10
7.20658263736098
 20
2.969849916640456
 42
-0.05468399999999964
  0
LWPOLYLINE
  5
5C
100
AcDbEntity
  8
0
  6
ByLayer
 62
  256
370
   -1
100
AcDbPolyline
 90
   72
 70
    1
 43
0
 10
0.00589548071231294
 20
3.091757987603829
 10
-0.009083965002975316
 20
3.076778541888541
 10
-0.009083965002975316
 20
2.478999995675518
 10
-0.009083965002975316
 20
1.881221449462496
 10
0.003037311353220849
 20
1.86712966053221
 42
0.06118799999999944
 10
0.0122063808739036
 20
1.858787515259676
 42
0.108101999999999
 10
0.02158560990628373
 20
1.854815263020209
 42
0.04310200000000013
 10
0.03676221373974792
 20
1.853306329599637
 42
0.003236999999999858
 10
0.07823464058830913
 20
1.853037812234833
 42
0.003835000000000099
 10
0.1167331916121662
 20
1.8533330447918
 42
0.03425099999999991
 10
0.1335854316653154
 20
1.854748831242357
 42
0.07959300000000041
 10
0.1439309788818508
 20
1.858075763173305
 42
0.07897599999999988
 10
0.1527507324232028
 20
1.864474229798103
 10
0.1641907713791912
 20
1.875910647361376
 10
0.1655910036511992
 20
2.109318965990295
 10
0.1669912359232072
 20
2.342727284619214
 10
0.2717032126267213
 20
2.342727284619214
 42
-0.002948000000000026
 10
0.3226592358583926
 20
2.342426887125093
 42
-0.01133100000000005
 10
0.3543276621191538
 20
2.341335363740325
 42
-0.01114399999999999
 10
0.3755971107790499
 20
2.339642986000218
 42
-0.1995790000000079
 10
0.3815039585009189
 20
2.336449214460441
 42
-0.04467600000000053
 10
0.3850500143747411
 20
2.331174210716824
 42
-0.0001519999999999967
 10
0.4222665923772269
 20
2.263413619208237
 42
-0.0008330000000000107
 10
0.4642521290166286
 20
2.186611775531727
 42
-0.0005219999999999899
 10
0.5131244859936004
 20
2.096633405408525
 42
0.0006280000000000323
 10
0.5620507482916643
 20
2.006601367432575
 42
0.0009960000000000092
 10
0.604207855831902
 20
1.929622787918085
 42
0.0002049999999999051
 10
0.6414758457375171
 20
1.861958193000049
 42
0.04714799999999966
 10
0.6455126300078425
 20
1.856033178947464
 42
0.09844399999999935
 10
0.6578408600526765
 20
1.846018068974463
 42
0.07536499999999992
 10
0.6742765212093315
 20
1.840286532280292
 42
0.0532989999999996
 10
0.6966215235057898
 20
1.838526713521742
 42
0.02090200000000005
 10
0.7274995956481235
 20
1.84068239206108
 42
0.01639800000000006
 10
0.7763480870534447
 20
1.847780084315477
 42
0.06956100000000032
 10
0.8043584911016939
 20
1.856937636619982
 42
0.133823
 10
0.8191601323713507
 20
1.869944432545807
 42
0.1469919999999985
 10
0.8246437520822318
 20
1.888194233351747
 42
0.120679000000001
 10
0.8228057468612793
 20
1.8956984714638
 42
0.0009070000000000056
 10
0.7932089353351781
 20
1.952243490997671
 42
0.003320000000000034
 10
0.7586502221176339
 20
2.016931004267962
 42
0.002116000000000032
 10
0.7176315973333089
 20
2.09174179435621
 42
-5.199999999995891e-005
 10
0.6750927000135221
 20
2.168571540566774
 42
-6.600000000003024e-005
 10
0.6357906153763793
 20
2.239595006912225
 42
-5.199999999995891e-005
 10
0.6028371883725168
 20
2.299179146706625
 42
-0.0005410000000001422
 10
0.5892963854388782
 20
2.323731476913853
 10
0.5679732689262825
 20
2.362493914669188
 10
0.5820476632981145
 20
2.36580196786434
 42
0.03550700000000007
 10
0.5899890806881745
 20
2.368274547949852
 42
0.006199999999999858
 10
0.6045280819353027
 20
2.374169759721352
 42
0.006702999999999883
 10
0.6214364832590908
 20
2.3815392938978
 42
0.005968000000000038
 10
0.6388128753825165
 20
2.389642783453664
 42
0.04638600000000016
 10
0.6819981022514212
 20
2.415588518717214
 42
0.03481799999999974
 10
0.7243125919570279
 20
2.451470643187519
 42
0.03509899999999982
 10
0.7607907620480809
 20
2.492421767586304
 42
0.05064499999999984
 10
0.7863848066485524
 20
2.533580617445947
 42
0.02160800000000001
 10
0.8038792799213473
 20
2.573622831640188
 42
0.03921099999999979
 10
0.8141023528235801
 20
2.607841608879206
 42
0.03309200000000007
 10
0.8198428539489007
 20
2.646942023498989
 42
0.01123099999999987
 10
0.8231269822052899
 20
2.704344125764604
 42
0.015518
 10
0.8233745429860195
 20
2.7720404820778
 42
0.03598800000000001
 10
0.8183412820479464
 20
2.822550836537065
 42
0.04202899999999998
 10
0.8067840524489949
 20
2.866836729323166
 42
0.02990400000000002
 10
0.786843892384135
 20
2.914121788315898
 42
0.04693599999999995
 10
0.7554202366506985
 20
2.965069559521544
 42
0.047642
 10
0.7151856137057777
 20
3.008985120377146
 42
0.04654099999999994
 10
0.6664462390186776
 20
3.045340934888085
 42
0.04102100000000004
 10
0.6097694839038874
 20
3.073837317965361
 42
0.02668099999999989
 10
0.5584034121560315
 20
3.091461864540451
 42
0.04646300000000018
 10
0.51415652355049
 20
3.099711219045537
 42
0.01960500000000001
 10
0.4490906637920578
 20
3.103114556426064
 42
0.001449999999999995
 10
0.2708300414125916
 20
3.1049244810117
 10
0.02087486706050745
 20
3.106737433319117
  0
LWPOLYLINE
  5
5D
100
AcDbEntity
  8
0
  6
ByLayer
 62
  256
370
   -1
100
AcDbPolyline
 90
   20
 70
    1
 43
0
 10
0.4677741412174669
 20
2.940259101190821
 42
-0.08228900000000067
 10
0.5430363586859761
 20
2.917532190380588
 42
-0.1094049999999998
 10
0.5986564982670923
 20
2.872974693140807
 42
-0.103164
 10
0.6323896526796466
 20
2.806868009495619
 42
-0.06665900000000008
 10
0.6438353315095364
 20
2.721396551657709
 42
-0.05667199999999988
 10
0.6358872056378875
 20
2.651497557434058
 42
-0.08088599999999971
 10
0.6123125327296206
 20
2.593795948180725
 42
-0.08617599999999997
 10
0.5730505208807872
 20
2.549140257767965
 42
-0.07416000000000003
 10
0.5190400606782514
 20
2.517523124676161
 42
-0.04543100000000019
 10
0.4970408123355013
 20
2.510940085757051
 42
-0.03289200000000003
 10
0.4716733719316823
 20
2.507515198121498
 42
-0.01327600000000023
 10
0.4300530616527051
 20
2.505770755440214
 42
-0.001275000000000076
 10
0.3286762095390633
 20
2.504474296847999
 10
0.1667019994427008
 20
2.50281593645258
 10
0.1667019994427008
 20
2.724118948473511
 10
0.1667019994427008
 20
2.945422019861534
 10
0.2985414727769592
 20
2.945266953012787
 42
-0.00331300000000001
 10
0.3517590260760372
 20
2.944851739559451
 42
-0.003789000000000024
 10
0.4026373377820537
 20
2.943731898070987
 42
-0.003428000000000025
 10
0.4457797016093071
 20
2.94215920439178
 42
-0.02144399999999988
  0
LWPOLYLINE
  5
5E
100
AcDbEntity
  8
0
  6
ByLayer
 62
  256
370
   -1
100
AcDbPolyline
 90
   54
 70
    1
 43
0
 10
1.34949041735575
 20
3.101392613873307
 42
0.04031000000000107
 10
1.3450157414023
 20
3.099124850261062
 42
0.02118900000000022
 10
1.339837921591069
 20
3.095642910848461
 42
0.02093999999999998
 10
1.334804126349153
 20
3.091603276957647
 42
0.03012700000000035
 10
1.330736530557204
 20
3.087592495474368
 42
0.1008190000000003
 10
1.319778255566689
 20
3.068942441723721
 42
6.400000000007078e-005
 10
1.12164503287454
 20
2.49076916579827
 42
7.699999999995983e-005
 10
0.9243698427887921
 20
1.914569964474367
 42
0.08261500000000004
 10
0.9200704184955995
 20
1.88872681554933
 42
0.06290999999999917
 10
0.920757889440645
 20
1.883284752804038
 42
0.03292799999999996
 10
0.9228907710160045
 20
1.876786430727639
 42
0.03214699999999986
 10
0.925995907484889
 20
1.870312805362215
 42
0.04231000000000013
 10
0.9296715617242295
 20
1.86489472692278
 42
0.09462900000000186
 10
0.9377075508945545
 20
1.858106277859467
 42
0.09200599999999769
 10
0.9477585185921505
 20
1.85467201022311
 42
0.03360700000000007
 10
0.9652500235102562
 20
1.853294931117645
 42
0.002844000000000026
 10
1.010442867386814
 20
1.853037812234831
 10
1.081612970453679
 20
1.853037812234831
 10
1.095012776539798
 20
1.868258169616354
 42
0.08315399999999926
 10
1.103708630956598
 20
1.882254080690313
 42
0.01213500000000018
 10
1.115720968695854
 20
1.913619200469361
 42
0.009157999999999972
 10
1.131825895773503
 20
1.961706665100528
 42
0.002334999999999997
 10
1.156125856465504
 20
2.040210978923087
 10
1.203839189672191
 20
2.196943490215421
 10
1.417293575070511
 20
2.196948417684197
 10
1.630747960468832
 20
2.196953404520069
 10
1.678103131999224
 20
2.043622983899331
 42
0.001537999999999988
 10
1.696897507155672
 20
1.983426353799074
 42
0.002114000000000074
 10
1.714187520157759
 20
1.929437206383172
 42
0.001346999999999964
 10
1.72903249940582
 20
1.884164573132681
 42
0.02535599999999984
 10
1.734444878604265
 20
1.870220548898607
 42
0.08334400000000018
 10
1.746926810054688
 20
1.851467196403902
 42
0.1378999999999996
 10
1.763095022454225
 20
1.841705762022283
 42
0.0828470000000001
 10
1.787961167118841
 20
1.83911587255962
 42
0.01713199999999997
 10
1.831915554053722
 20
1.843339663175094
 42
0.015608
 10
1.873541682307877
 20
1.850111726920545
 42
0.07550600000000018
 10
1.896037180186865
 20
1.858150684445555
 42
0.1394480000000028
 10
1.908088522106683
 20
1.869861140513347
 42
0.1098459999999999
 10
1.913556053335171
 20
1.887300046186439
 42
0.1002909999999996
 10
1.911439141508019
 20
1.905641331683769
 42
0.001005999999999993
 10
1.870308372283699
 20
2.031085722317568
 42
0.002318000000000005
 10
1.811636051681276
 20
2.206092315557171
 42
0.0005759999999999974
 10
1.713936634819817
 20
2.492007029069697
 42
0.0004010000000000345
 10
1.597158533790122
 20
2.831585855160185
 42
0.003465999999999987
 10
1.543937596566707
 20
2.98254111709617
 42
0.003541999999999986
 10
1.510495697115846
 20
3.073317559060018
 42
0.1185929999999976
 10
1.497596830566367
 20
3.092328861576846
 42
0.05052299999999951
 10
1.486694776213487
 20
3.100405517206357
 42
0.09082899999999917
 10
1.476292592789564
 20
3.104267524752822
 42
0.04112900000000029
 10
1.460473043331326
 20
3.10572890513134
 42
0.00377199999999996
 10
1.420981162095686
 20
3.10582228956973
 42
0.006103000000000003
 10
1.396714446976159
 20
3.10540030826771
 42
0.008072999999999952
 10
1.37463434065179
 20
3.104389702231656
 42
0.006046000000000003
 10
1.356249835910245
 20
3.103027286798334
 42
0.07575099999999839
  0
LWPOLYLINE
  5
5F
100
AcDbEntity
  8
0
  6
ByLayer
 62
  256
370
   -1
100
AcDbPolyline
 90
   16
 70
    1
 43
0
 10
1.49759065638861
 20
2.629007283859352
 42
0.0002490000000000318
 10
1.527318847293039
 20
2.532899795615478
 42
0.0003879999999999853
 10
1.553044449373061
 20
2.450105853070667
 42
0.0001040000000000253
 10
1.57555936029172
 20
2.377895757256297
 42
0.01363799999999998
 10
1.578571112322315
 20
2.369095179286066
 10
1.582785997873734
 20
2.357794653000271
 10
1.417992978801391
 20
2.357794653000271
 10
1.253200019096143
 20
2.357794653000271
 10
1.33397862691125
 20
2.621235062686297
 42
-0.001339000000000094
 10
1.365173719333946
 20
2.722007082849325
 42
-0.002263999999999953
 10
1.391919723020564
 20
2.806253381974539
 42
-0.0002440000000000454
 10
1.415993851288135
 20
2.88078532482346
 42
-0.5854030000005872
 10
1.417791190049905
 20
2.88114716725955
 42
-0.1011470000000024
 10
1.419576477291685
 20
2.87794490622538
 42
-0.0001199999999999975
 10
1.442483804699634
 20
2.805625634325764
 42
-0.001088000000000016
 10
1.467940948782037
 20
2.724576846867219
 42
-0.0006679999999999985
  0
LWPOLYLINE
  5
60
100
AcDbEntity
  8
0
  6
ByLayer
 62
  256
370
   -1
100
AcDbPolyline
 90
   50
 70
    1
 43
0
 10
2.062084151012339
 20
3.094347224028459
 10
2.047611819011436
 20
3.081899250555633
 10
2.046340235231412
 20
2.485047127839634
 42
0.0002379999999999789
 10
2.045698476948642
 20
2.097050281140312
 42
0.003781999999999865
 10
2.046540183603057
 20
1.965240194517573
 42
0.006550999999999931
 10
2.048488196048636
 20
1.893239664544031
 42
0.1279349999999976
 10
2.05488998723068
 20
1.872144517671237
 42
0.04184099999999998
 10
2.060289246301414
 20
1.864782048178938
 42
0.05690499999999925
 10
2.066363449860421
 20
1.859227781626554
 42
0.059309000000001
 10
2.073322104381373
 20
1.855348616990008
 42
0.05120200000000113
 10
2.081349247854736
 20
1.852972805267228
 42
0.04470600000000025
 10
2.093918092730309
 20
1.851761300986091
 42
0.0006730000000000233
 10
2.167582622973149
 20
1.851363897660869
 42
0.001814000000000038
 10
2.253168837403196
 20
1.851327861834999
 42
0.001196999999999941
 10
2.351545810905069
 20
1.851878907198728
 42
0.001973000000000006
 10
2.538015596267197
 20
1.854105766883411
 42
0.02269100000000006
 10
2.611178652669588
 20
1.858593503597462
 42
0.05088100000000009
 10
2.661020652387979
 20
1.869128906779649
 42
0.03114499999999962
 10
2.717040510610977
 20
1.891002296883757
 42
0.05997499999999987
 10
2.772747148047616
 20
1.925489057183738
 42
0.06130600000000015
 10
2.818215336504753
 20
1.971987145982383
 42
0.06050899999999991
 10
2.851516595310639
 20
2.028709969961882
 42
0.05584499999999998
 10
2.871385930432716
 20
2.093301902211318
 42
0.03444499999999991
 10
2.877172441055653
 20
2.142116673107417
 42
0.012652
 10
2.878827417526728
 20
2.211565071089888
 42
0.012138
 10
2.877067598768179
 20
2.279885316190775
 42
0.04539299999999998
 10
2.871047716099906
 20
2.322371851733924
 42
0.04674700000000004
 10
2.8546266592483
 20
2.371122446801733
 42
0.04290799999999999
 10
2.829054639839591
 20
2.417479894955401
 42
0.04427799999999992
 10
2.796991244304442
 20
2.457263743557859
 42
0.06003899999999991
 10
2.761257062631637
 20
2.486398500993693
 10
2.739503534689712
 20
2.500160802553944
 10
2.768328336529339
 20
2.526847498513964
 42
0.04162300000000001
 10
2.791476456869371
 20
2.552163467647544
 42
0.03343800000000009
 10
2.812036350025364
 20
2.582827224581621
 42
0.032138
 10
2.829110088705107
 20
2.61732805488281
 42
0.0310689999999999
 10
2.841842489923848
 20
2.654119564494413
 42
0.05421699999999972
 10
2.849517111594824
 20
2.70086640141566
 42
0.0162299999999999
 10
2.851103162870113
 20
2.77315112166674
 42
0.01658599999999999
 10
2.847911291077334
 20
2.846166828942546
 42
0.04589000000000021
 10
2.839289526793471
 20
2.896827382148873
 42
0.06277600000000005
 10
2.81088967461055
 20
2.966776422832513
 42
0.07904600000000012
 10
2.76760233634048
 20
3.021546544366034
 42
0.07422299999999975
 10
2.707117894569963
 20
3.062574608518254
 42
0.04804600000000007
 10
2.627583324203334
 20
3.091772710643069
 42
0.0321490000000002
 10
2.594228635013116
 20
3.098240814868776
 42
0.02080999999999999
 10
2.555043503550624
 20
3.101605266802939
 42
0.00831600000000003
 10
2.490203179381148
 20
3.103382598854125
 42
0.0007810000000000086
 10
2.330785553807869
 20
3.104850865815507
 10
2.076556483013241
 20
3.10679525686838
  0
LWPOLYLINE
  5
61
100
AcDbEntity
  8
0
  6
ByLayer
 62
  256
370
   -1
100
AcDbPolyline
 90
   24
 70
    1
 43
0
 10
2.579992168475484
 20
2.932466220269196
 42
-0.05970899999999955
 10
2.607904141882377
 20
2.920129203894493
 42
-0.05772199999999982
 10
2.632462527533253
 20
2.901429816087962
 42
-0.05936999999999966
 10
2.651489977899569
 20
2.878192051436445
 42
-0.07143400000000075
 10
2.663118744846432
 20
2.85248966188997
 42
-0.05729999999999998
 10
2.669466630707397
 20
2.815011215637166
 42
-0.01565299999999993
 10
2.670788617149908
 20
2.754942996560573
 42
-0.01515699999999968
 10
2.668423313402713
 20
2.695262503972944
 42
-0.06653999999999965
 10
2.661336010389713
 20
2.660796818991225
 42
-0.05413199999999991
 10
2.649350922146467
 20
2.635591153917736
 42
-0.04617400000000052
 10
2.631666058604176
 20
2.612050082784504
 42
-0.04639800000000051
 10
2.61006641016912
 20
2.592268432859827
 42
-0.05614799999999908
 10
2.58645944156188
 20
2.578226987224998
 42
-0.05084999999999901
 10
2.565326537217494
 20
2.571158088011047
 42
-0.03798499999999991
 10
2.541003007789294
 20
2.567600039984325
 42
-0.01387100000000014
 10
2.49999679072751
 20
2.565894067179762
 42
-0.001081999999999945
 10
2.390394449680465
 20
2.564614528209241
 10
2.220886555393602
 20
2.563002474146915
 10
2.220886555393602
 20
2.754763114266665
 10
2.220886555393602
 20
2.946523754386416
 10
2.385371993553488
 20
2.94410484215361
 42
-0.001690999999999989
 10
2.47695659976387
 20
2.94244814403682
 42
-0.009566000000000035
 10
2.525754985342108
 20
2.940465817411084
 42
-0.01792999999999995
 10
2.556976911691151
 20
2.937472291078354
 42
-0.04138900000000023
  0
LWPOLYLINE
  5
62
100
AcDbEntity
  8
0
  6
ByLayer
 62
  256
370
   -1
100
AcDbPolyline
 90
   24
 70
    1
 43
0
 10
2.603823188494348
 20
2.398022329995228
 42
-0.05822999999999955
 10
2.627514458374641
 20
2.385858012496101
 42
-0.04528899999999981
 10
2.650031565875736
 20
2.367604709031633
 42
-0.04423399999999999
 10
2.669435937919954
 20
2.345059817730688
 42
-0.04862100000000011
 10
2.683881257893222
 20
2.320126232047627
 42
-0.07999600000000005
 10
2.693742132156791
 20
2.284256040363155
 42
-0.01927400000000002
 10
2.698071774300331
 20
2.222577310768672
 42
-0.02004300000000005
 10
2.6975377672925
 20
2.160058596165428
 42
-0.06411699999999969
 10
2.690223563247381
 20
2.119092570626124
 42
-0.07564800000000016
 10
2.672041797130821
 20
2.081999594912713
 42
-0.07270800000000027
 10
2.643443421386567
 20
2.051419308112378
 42
-0.06926400000000021
 10
2.605941881334314
 20
2.029173211394024
 42
-0.05912899999999981
 10
2.561719986275218
 20
2.016505757775789
 42
-0.03011100000000005
 10
2.54155096606414
 20
2.01446869468966
 42
-0.00311100000000005
 10
2.493786695891057
 20
2.012832893789852
 42
-0.003862999999999942
 10
2.436804793914655
 20
2.011676779007137
 42
-0.003079000000000004
 10
2.375327081299444
 20
2.011283115808813
 10
2.220886555393602
 20
2.011245180235939
 10
2.220886555393602
 20
2.209632197253201
 10
2.220886555393602
 20
2.408019214270465
 10
2.398995316747385
 20
2.408019214270468
 42
-0.001192999999999993
 10
2.507257505021252
 20
2.407760908045773
 42
-0.01099900000000004
 10
2.554169738665547
 20
2.406504759710179
 42
-0.02602400000000001
 10
2.582195993727815
 20
2.403669980986005
 42
-0.05134099999999963
  0
LWPOLYLINE
  5
63
100
AcDbEntity
  8
0
  6
ByLayer
 62
  256
370
   -1
100
AcDbPolyline
 90
   46
 70
    1
 43
0
 10
3.076620288670242
 20
3.094346630357522
 10
3.062147956669339
 20
3.081898063213759
 10
3.062147956669339
 20
2.478907976680283
 10
3.062147956669339
 20
1.875917890146807
 10
3.073591438916761
 20
1.864477851190819
 10
3.085034921164185
 20
1.853037812234831
 10
3.347315297839289
 20
1.853037812234831
 42
0.002176000000000047
 10
3.542159761641291
 20
1.853885752434149
 42
0.02293699999999997
 10
3.621654259219693
 20
1.858228039768645
 42
0.05108900000000006
 10
3.675146622795508
 20
1.869212198812112
 42
0.03538899999999996
 10
3.732645849626418
 20
1.891869412654339
 42
0.05845700000000041
 10
3.788640061264939
 20
1.927200907330578
 42
0.06114199999999997
 10
3.833990465408175
 20
1.97406445995804
 42
0.06084099999999994
 10
3.86683441949129
 20
2.030725660894279
 42
0.05691299999999996
 10
3.885994080375277
 20
2.094910038045463
 42
0.03229500000000036
 10
3.891481618314342
 20
2.14378156388314
 42
0.01201499999999996
 10
3.893087557566019
 20
2.212932770194547
 42
0.011328
 10
3.891496994391609
 20
2.280705235121865
 42
0.0463899999999998
 10
3.885810636055741
 20
2.321399774941678
 42
0.04827099999999975
 10
3.869432086043225
 20
2.369528321601701
 42
0.04062000000000003
 10
3.843335973931334
 20
2.41665884804953
 42
0.04178499999999988
 10
3.811074054834854
 20
2.457347391792881
 42
0.06328399999999988
 10
3.77628849995228
 20
2.48608510210605
 10
3.754874789254694
 20
2.499632435420013
 10
3.785831166593617
 20
2.530588812758935
 42
0.03289100000000024
 10
3.809292626454198
 20
2.55735820708048
 42
0.03427000000000016
 10
3.828690883687765
 20
2.586622444147675
 42
0.03352899999999991
 10
3.844257173124276
 20
2.618861922482736
 42
0.02889300000000005
 10
3.856273132256247
 20
2.654521182883292
 42
0.02837399999999988
 10
3.860606989463443
 20
2.674803000572395
 42
0.02078299999999988
 10
3.863185064874457
 20
2.697679338357469
 42
0.01443199999999985
 10
3.864442341184835
 20
2.72773956941699
 42
0.004706000000000141
 10
3.864598951578018
 20
2.772147283479367
 42
0.02234200000000002
 10
3.860251321205086
 20
2.858059007684155
 42
0.05325200000000001
 10
3.847468161121228
 20
2.920592979630478
 42
0.06608399999999987
 10
3.823983429359916
 20
2.970474755301647
 42
0.05475500000000001
 10
3.786977663907152
 20
3.016105787696804
 42
0.04150800000000002
 10
3.758632429450434
 20
3.039837011631158
 42
0.03311400000000005
 10
3.724589794378424
 20
3.060608489109099
 42
0.03085700000000009
 10
3.685552308877963
 20
3.078039617692919
 42
0.02573000000000005
 10
3.642241639340072
 20
3.091761371528172
 42
0.03201900000000002
 10
3.608816481409633
 20
3.098236540438028
 42
0.02082300000000004
 10
3.569612946148093
 20
3.101604376296534
 42
0.008320999999999976
 10
3.504775174763646
 20
3.103382302018659
 42
0.0007810000000000086
 10
3.345321691465772
 20
3.104850865815521
 10
3.091092620671144
 20
3.10679525686838
  0
LWPOLYLINE
  5
64
100
AcDbEntity
  8
0
  6
ByLayer
 62
  256
370
   -1
100
AcDbPolyline
 90
   28
 70
    1
 43
0
 10
3.593143271837366
 20
2.932845991567595
 42
-0.04888099999999993
 10
3.618999897093273
 20
2.922036134311231
 42
-0.05480299999999996
 10
3.64120865190969
 20
2.906738896543366
 42
-0.05577399999999989
 10
3.659249005609057
 20
2.8872454738586
 42
-0.05385399999999984
 10
3.672781319048313
 20
2.864025578702285
 42
-0.03268799999999999
 10
3.679310274545065
 20
2.846397648202852
 42
-0.04303600000000021
 10
3.68277149484196
 20
2.829611186889523
 42
-0.02472000000000001
 10
3.684343832318605
 20
2.806487169589534
 42
-0.004156999999999999
 10
3.6847943098256
 20
2.762102371225326
 42
-0.005165000000000133
 10
3.684458707644914
 20
2.722601881761096
 42
-0.01725600000000021
 10
3.683077116640329
 20
2.696723350047618
 42
-0.02581700000000001
 10
3.68038107881413
 20
2.67751791713439
 42
-0.03616600000000004
 10
3.675872148047617
 20
2.660796818991224
 42
-0.05413199999999991
 10
3.663887059804368
 20
2.635591153917737
 42
-0.04617400000000052
 10
3.646202196262079
 20
2.612050082784504
 42
-0.04639799999999984
 10
3.624602547827022
 20
2.592268432859826
 42
-0.05614799999999952
 10
3.600995579219781
 20
2.578226987224999
 42
-0.05084999999999968
 10
3.579862674875396
 20
2.571158088011048
 42
-0.03798499999999969
 10
3.555539145447198
 20
2.567600039984326
 42
-0.01387100000000014
 10
3.514532928385422
 20
2.565894067179759
 42
-0.001081999999999945
 10
3.404930587338379
 20
2.564614528209237
 10
3.235422693051505
 20
2.563002474146915
 10
3.235422693051505
 20
2.754763114266665
 10
3.235422693051505
 20
2.946523754386416
 10
3.399908131211388
 20
2.94410484215361
 42
-0.001741999999999983
 10
3.48980795866966
 20
2.94246945682346
 42
-0.009132000000000019
 10
3.539220199996758
 20
2.940495026021184
 42
-0.01638200000000008
 10
3.570941225502536
 20
2.937601711342623
 42
-0.04367300000000034
  0
LWPOLYLINE
  5
65
100
AcDbEntity
  8
0
  6
ByLayer
 62
  256
370
   -1
100
AcDbPolyline
 90
   28
 70
    1
 43
0
 10
3.613444858768672
 20
2.400108311566566
 42
-0.06063899999999982
 10
3.637175132829526
 20
2.388659130078149
 42
-0.04410200000000029
 10
3.660373774566296
 20
2.37069898132237
 42
-0.04298000000000002
 10
3.68071561238713
 20
2.348328510542714
 42
-0.04892899999999975
 10
3.695951049010453
 20
2.323714497925042
 42
-0.02878800000000015
 10
3.704221300732518
 20
2.30409408902685
 42
-0.05466299999999951
 10
3.708159832462762
 20
2.287433248483791
 42
-0.02781900000000002
 10
3.709726411331318
 20
2.264188953451965
 42
-0.002917999999999858
 10
3.710044797054829
 20
2.209632197253201
 42
-0.002828000000000096
 10
3.709738284750058
 20
2.155442804630252
 42
-0.02726800000000016
 10
3.708223355253022
 20
2.132465245950422
 42
-0.05681200000000004
 10
3.704446658220203
 20
2.116611144843652
 42
-0.03543199999999973
 10
3.696681501731335
 20
2.099138162458777
 42
-0.05546100000000002
 10
3.675242025715086
 20
2.067789190529215
 42
-0.06474900000000054
 10
3.648402696957163
 20
2.043729904035075
 42
-0.0627100000000001
 10
3.615554349709113
 20
2.026784517011913
 42
-0.04757200000000011
 10
3.576300649253398
 20
2.016512941194128
 42
-0.03009699999999989
 10
3.556109485116368
 20
2.014473147221689
 42
-0.003116000000000028
 10
3.50833595367667
 20
2.012835031005225
 42
-0.003867000000000089
 10
3.451344196762711
 20
2.011677313310982
 42
-0.003082999999999937
 10
3.389863218957347
 20
2.011283115808812
 10
3.235422693051505
 20
2.011245180235939
 10
3.235422693051505
 20
2.209632197253201
 10
3.235422693051505
 20
2.408019214270465
 10
3.412825164091538
 20
2.408019214270466
 42
-0.001513999999999956
 10
3.509412635288018
 20
2.407726771966896
 42
-0.008339000000000046
 10
3.561461369246333
 20
2.406543288953988
 42
-0.014474
 10
3.593967880768859
 20
2.404317735345365
 42
-0.05783800000000034
  0
LWPOLYLINE
  5
66
100
AcDbEntity
  8
0
  6
ByLayer
 62
  256
370
   -1
100
AcDbPolyline
 90
   24
 70
    1
 43
0
 10
4.09077594262462
 20
3.094019339569955
 10
4.076684094327241
 20
3.081898063213759
 10
4.076684094327241
 20
2.478907976680283
 10
4.076684094327241
 20
1.875917890146807
 10
4.088124133283229
 20
1.864477851190819
 42
0.07856199999999927
 10
4.096922395936661
 20
1.858081818616862
 42
0.0797420000000009
 10
4.107220093275675
 20
1.854753046306011
 42
0.03449499999999991
 10
4.123959476483701
 20
1.853334588336238
 42
0.00389399999999995
 10
4.162065848486567
 20
1.853037812234831
 42
0.003894000000000172
 10
4.20017127061594
 20
1.853334588336239
 42
0.03449199999999976
 10
4.216911188127809
 20
1.85475304630601
 42
0.07973300000000112
 10
4.227209301036477
 20
1.858081581148489
 42
0.07856500000000041
 10
4.236007563689911
 20
1.864477138785694
 10
4.247447602645899
 20
1.875916524703652
 10
4.248763593011946
 20
2.476287216328897
 10
4.250079524010898
 20
3.076657848587048
 10
4.235338140341349
 20
3.091399232256599
 42
0.0468970000000004
 10
4.224781424372524
 20
3.100141808576141
 42
0.09973800000000375
 10
4.215052226322778
 20
3.104245262092683
 42
0.04610900000000005
 10
4.200370091012742
 20
3.105839446659811
 42
0.004001000000000017
 10
4.162732244113351
 20
3.106140615926153
 42
0.004633000000000012
 10
4.127574754388748
 20
3.105814868683021
 42
0.03710600000000034
 10
4.111456113512451
 20
3.104316205769658
 42
0.07677000000000037
 10
4.100874107161708
 20
3.100807966734549
 42
0.0593190000000006
  0
LWPOLYLINE
  5
67
100
AcDbEntity
  8
0
  6
ByLayer
 62
  256
370
   -1
100
AcDbPolyline
 90
   42
 70
    1
 43
0
 10
4.392416168119002
 20
3.100266420105818
 42
0.1222259999999988
 10
4.381850250250652
 20
3.091471482009633
 42
0.08977800000000112
 10
4.375135357016433
 20
3.077721588171965
 42
0.05370700000000014
 10
4.371520613415228
 20
3.056396156342709
 42
0.01515000000000004
 10
4.370497777757874
 20
3.022647447751607
 42
0.005811000000000062
 10
4.370848221711984
 20
2.992495019595567
 42
0.05187499999999948
 10
4.372523679830385
 20
2.97936301846913
 42
0.09649699999999634
 10
4.376625589802492
 20
2.970250050851993
 42
0.04253699999999932
 10
4.385178785093132
 20
2.960103027196792
 10
4.399859851795482
 20
2.945422019861534
 10
4.550852633734699
 20
2.945422019861534
 10
4.701845415673914
 20
2.945422019861534
 10
4.703168233255739
 20
2.410669123864857
 10
4.704491110204656
 20
1.87591616850109
 10
4.715917316627812
 20
1.864477020051507
 42
0.07794000000000066
 10
4.724592748764381
 20
1.858146291280619
 42
0.07305500000000127
 10
4.734982465098629
 20
1.85459934490042
 42
0.03418499999999986
 10
4.75158589766208
 20
1.852685052964067
 42
0.004627999999999917
 10
4.78662548433859
 20
1.851381232852225
 42
0.003959000000000139
 10
4.824656756967934
 20
1.850619849875522
 42
0.04178300000000026
 10
4.840141713486077
 20
1.851727639843965
 42
0.0891760000000001
 10
4.850560757164614
 20
1.855329203950369
 42
0.04723700000000028
 10
4.861836646106522
 20
1.863128259049738
 10
4.877765846586822
 20
1.876531805262759
 10
4.877765846586822
 20
2.410976882878599
 10
4.877765846586822
 20
2.945422019861534
 10
5.026177703494518
 20
2.945422019861532
 42
0.003097999999999848
 10
5.134398216068598
 20
2.946092571184874
 42
0.03862199999999999
 10
5.175240579951745
 20
2.949761813778096
 42
0.1220129999999974
 10
5.19616843035449
 20
2.958848481772724
 42
0.1467680000000017
 10
5.208703435986681
 20
2.976153633383709
 42
0.06483899999999902
 10
5.21309719459142
 20
2.997186979111958
 42
0.02288699999999987
 10
5.214043446697901
 20
3.028029787200636
 42
0.02258100000000001
 10
5.212199920337241
 20
3.058592323239953
 42
0.07272200000000033
 10
5.20716191003167
 20
3.078274177080123
 42
0.03463100000000027
 10
5.20369457492412
 20
3.085185159824834
 42
0.03028100000000074
 10
5.199162965927815
 20
3.091883727108285
 42
0.03149099999999935
 10
5.194306500194775
 20
3.097439952774762
 42
0.07467399999999848
 10
5.18991351336226
 20
3.100713869891034
 42
0.1233940000000002
 10
5.168486445068543
 20
3.106090510099079
 42
0.0002159999999999686
 10
4.791722921104917
 20
3.106041829082301
 42
0.0002339999999999519
 10
4.41582841265893
 20
3.105654874365428
 42
0.1128340000000026
  0
LWPOLYLINE
  5
68
100
AcDbEntity
  8
0
  6
ByLayer
 62
  256
370
   -1
100
AcDbPolyline
 90
   60
 70
    1
 43
0
 10
5.758231376795035
 20
3.094019339569955
 10
5.744139528497655
 20
3.081898063213759
 10
5.744139528497655
 20
2.478907976680283
 10
5.744139528497655
 20
1.875917890146807
 10
5.755579567453645
 20
1.864477851190819
 42
0.07856200000000051
 10
5.764377830107075
 20
1.858081818616862
 42
0.0797420000000009
 10
5.77467552744609
 20
1.854753046306011
 42
0.03449499999999991
 10
5.791414910654111
 20
1.853334588336238
 42
0.00389399999999995
 10
5.82952128265698
 20
1.853037812234833
 42
0.003895000000000011
 10
5.867623795798764
 20
1.853334647703331
 42
0.03448400000000022
 10
5.884365375589255
 20
1.854752986938917
 42
0.07970499999999987
 10
5.8946646758398
 20
1.858080987477549
 42
0.07857700000000137
 10
5.903462997860325
 20
1.864475001570321
 10
5.91490303681631
 20
1.875912190905811
 10
5.91628510275765
 20
2.146988158715158
 10
5.917667168698985
 20
2.418064126524504
 10
6.155939611416025
 20
2.418064126524504
 10
6.39421211350016
 20
2.418064126524504
 10
6.39563549893871
 20
2.14894762900982
 10
6.39705882501017
 20
1.879831072128042
 10
6.41346106249307
 20
1.865178857833229
 42
0.04061699999999988
 10
6.4247706719442
 20
1.856618360390064
 42
0.08941000000000343
 10
6.43476909976387
 20
1.852527314596102
 42
0.04736300000000017
 10
6.449070454534914
 20
1.850869844707094
 42
0.005182000000000328
 10
6.482192840287484
 20
1.850526584171322
 42
0.008709000000000007
 10
6.503190387658235
 20
1.850892344835608
 42
0.01031600000000008
 10
6.52300641113017
 20
1.851992535816055
 42
0.009258999999999995
 10
6.53963115648026
 20
1.853570156964037
 42
0.06262900000000039
 10
6.54764850438316
 20
1.85551710080193
 42
0.2582509999999937
 10
6.56547507717811
 20
1.876595090584644
 42
0.03869899999999973
 10
6.57231208852407
 20
1.933680884975022
 42
0.01059899999999989
 10
6.574766442911738
 20
2.052553160234955
 42
0.0004159999999999999
 10
6.574161373492785
 20
2.488798653224888
 10
6.572844789455845
 20
3.081899309922726
 10
6.55875294115846
 20
3.094019933240891
 42
0.05787399999999913
 10
6.5487638933396
 20
3.100776680276169
 42
0.07664200000000011
 10
6.53837851080319
 20
3.10428895627365
 42
0.03825300000000061
 10
6.522749648449915
 20
3.105804360707435
 42
0.005047999999999962
 10
6.489444768251315
 20
3.106140615926151
 42
0.01541199999999998
 10
6.446429390637485
 20
3.104814414419986
 42
0.07516799999999932
 10
6.42267376682762
 20
3.099708963095976
 42
0.1351280000000019
 10
6.408603468785255
 20
3.089441899177312
 42
0.1005620000000023
 10
6.399831921323985
 20
3.072230963144027
 42
0.06048900000000011
 10
6.39749434200955
 20
3.05677028776721
 42
0.002126000000000041
 10
6.39598119352532
 20
2.996192758393769
 42
0.00350100000000004
 10
6.39491781014296
 20
2.918696141619666
 42
0.001650000000000035
 10
6.394575618214876
 20
2.818605002654287
 10
6.394547596946655
 20
2.583805178716141
 10
6.15598093091324
 20
2.583805178716141
 10
5.91741426487982
 20
2.583805178716141
 10
5.91741426487982
 20
2.830291889985887
 10
5.91741426487982
 20
3.076778541888541
 10
5.902733257544565
 20
3.091459608590891
 42
0.04729000000000008
 10
5.892214358414425
 20
3.100156887817941
 42
0.09950200000000144
 10
5.88248480416212
 20
3.104247874244809
 42
0.04594400000000073
 10
5.867785393027815
 20
3.105839387292718
 42
0.004005999999999997
 10
5.830187678283765
 20
3.106140615926155
 42
0.004633000000000012
 10
5.795030188559165
 20
3.10581486868302
 42
0.03710599999999984
 10
5.778911547682865
 20
3.104316205769656
 42
0.07676999999999959
 10
5.768329541332125
 20
3.100807966734549
 42
0.05931900000000016
  0
LWPOLYLINE
  5
69
100
AcDbEntity
  8
0
  6
ByLayer
 62
  256
370
   -1
100
AcDbPolyline
 90
   30
 70
    1
 43
0
 10
7.86568056415032
 20
3.091399232256599
 10
7.85093918048077
 20
3.076657848587048
 10
7.852255111479725
 20
2.476287216328897
 10
7.85357110184577
 20
1.875916524703652
 10
7.86500912232057
 20
1.864477138785694
 10
7.87644708342828
 20
1.853037812234831
 10
8.205324872145024
 20
1.851676168573732
 42
0.000902000000000009
 10
8.453504911028379
 20
1.851096330169568
 42
0.02259600000000004
 10
8.521572905348229
 20
1.85413770637981
 42
0.1062310000000006
 10
8.552919502594046
 20
1.863886020633722
 42
0.199260000000002
 10
8.569009231695714
 20
1.884436236953444
 42
0.05718500000000014
 10
8.574651420913865
 20
1.920160385587414
 42
0.04960299999999955
 10
8.572500194906548
 20
1.958040865798754
 42
0.05295099999999945
 10
8.563956854553465
 20
1.989943317142883
 42
0.1798890000000016
 10
8.549936662338185
 20
2.005818434200823
 42
0.1165330000000006
 10
8.539955154140214
 20
2.008467097086246
 42
0.001751999999999987
 10
8.479341173371244
 20
2.009913338855874
 42
0.003775000000000017
 10
8.399043735850574
 20
2.010941339450376
 42
0.001312999999999994
 10
8.283321300481083
 20
2.011245180235932
 10
8.026845838227935
 20
2.011245180235939
 10
8.026845838227935
 20
2.544011890745787
 10
8.026845838227935
 20
3.076778541888541
 10
8.012164830892676
 20
3.091459608590892
 42
0.04761400000000077
 10
8.00162313479856
 20
3.100164308704655
 42
0.09962399999999981
 10
7.99185214231485
 20
3.104255117030238
 42
0.04558799999999963
 10
7.977049254336225
 20
3.105841940077744
 42
0.003920000000000002
 10
7.9389528560051
 20
3.10614061592615
 42
0.00391400000000003
 10
7.90081573184769
 20
3.105842058811934
 42
0.04575199999999995
 10
7.88603053526299
 20
3.104252504878118
 42
0.0998620000000041
 10
7.876260077083125
 20
3.100149288829948
 42
0.04721799999999954
  0
LWPOLYLINE
  5
6A
100
AcDbEntity
  8
0
  6
ByLayer
 62
  256
370
   -1
100
AcDbPolyline
 90
   54
 70
    1
 43
0
 10
8.711435579482394
 20
3.094019339569955
 10
8.697343731185015
 20
3.081898063213759
 10
8.697343731185015
 20
2.478907976680283
 10
8.697343731185015
 20
1.875917890146807
 10
8.70878181102691
 20
1.864477851190819
 10
8.720219831501716
 20
1.853037812234831
 10
9.053566656298106
 20
1.85167812768782
 10
9.386913421727405
 20
1.850318502507903
 10
9.402489803569845
 20
1.863425153885331
 10
9.41806618541229
 20
1.876531805262759
 10
9.41806618541229
 20
1.931572165806801
 42
0.004401000000000016
 10
9.417760444879736
 20
1.966308208533229
 42
0.0443279999999997
 10
9.416226458545616
 20
1.980697960906797
 42
0.09797899999999636
 10
9.412435275941935
 20
1.989917551824218
 42
0.05955000000000155
 10
9.404776624019171
 20
1.998928882976939
 10
9.391487121993144
 20
2.011245180235939
 10
9.131052765096619
 20
2.011245180235939
 10
8.87061846756718
 20
2.011245180235939
 10
8.87061846756718
 20
2.209328831404395
 10
8.87061846756718
 20
2.407412423205757
 10
9.077794782806714
 20
2.409077551449851
 42
0.001893000000000114
 10
9.157853802079083
 20
2.410024159758901
 42
0.002960000000000144
 10
9.226749492419197
 20
2.411507684063363
 42
0.0008269999999999637
 10
9.286671609078192
 20
2.413252008010456
 42
0.1036839999999973
 10
9.29394615590475
 20
2.415012004870296
 42
0.1291459999999976
 10
9.304796323417737
 20
2.42416736059233
 42
0.08018800000000303
 10
9.312131899616586
 20
2.439237103657137
 42
0.0533489999999995
 10
9.316343460610756
 20
2.461571657345105
 42
0.01994800000000006
 10
9.317617062871902
 20
2.493481707677225
 42
0.010873
 10
9.317219659546675
 20
2.511753949244585
 42
0.01331300000000007
 10
9.316022937671875
 20
2.528793670579636
 42
0.011814
 10
9.314309781448967
 20
2.542958006098425
 42
0.0870700000000086
 10
9.312190316836787
 20
2.549403372727245
 42
0.1796709999999978
 10
9.296538894987904
 20
2.563237686572156
 42
0.06694300000000122
 10
9.267538722753491
 20
2.570169210331286
 42
0.023204
 10
9.212209066361844
 20
2.573189155020703
 42
0.002032000000000005
 10
9.071678013041533
 20
2.573760266462102
 10
8.87061846756718
 20
2.573760266462102
 10
8.87061846756718
 20
2.759591143161817
 10
8.87061846756718
 20
2.945422019861534
 10
9.12397240803358
 20
2.945422019861534
 10
9.377326407867075
 20
2.945422019861534
 10
9.39141819679736
 20
2.957543296217731
 42
0.05686799999999707
 10
9.399697650418943
 20
2.966487601921667
 42
0.1078039999999915
 10
9.403667884177223
 20
2.975415819143204
 42
0.04693499999999935
 10
9.405218849500137
 20
2.98947798389373
 42
0.004011000000000041
 10
9.405510045094742
 20
3.02578131789384
 42
0.004011000000000041
 10
9.405218849500141
 20
3.062084651893949
 42
0.04693500000000041
 10
9.403667884177223
 20
3.076146816644477
 42
0.1078039999999996
 10
9.399697650418945
 20
3.085075033866019
 42
0.0568679999999993
 10
9.39141819679736
 20
3.094019339569955
 10
9.377326407867075
 20
3.106140615926151
 10
9.051426888139876
 20
3.106140615926151
 10
8.72552736841268
 20
3.106140615926151
  0
LWPOLYLINE
  5
6B
100
AcDbEntity
  8
0
  6
ByLayer
 62
  256
370
   -1
100
AcDbPolyline
 90
   80
 70
    1
 43
0
 10
0.7398294286044875
 20
1.295320952622782
 42
0.03447000000000002
 10
0.668673692374301
 20
1.274663341230557
 42
0.04142600000000001
 10
0.6054757588520359
 20
1.24535267909609
 42
0.04363499999999994
 10
0.5507784807424854
 20
1.207587430413621
 42
0.04700200000000001
 10
0.5049383574433173
 20
1.161744279392675
 42
0.03597500000000001
 10
0.483810380567708
 20
1.132118852927411
 42
0.02188999999999997
 10
0.4630393186594238
 20
1.094440577037213
 42
0.021415
 10
0.4449438722971041
 20
1.053615726446726
 42
0.02676700000000003
 10
0.4318725443404279
 20
1.014287639022603
 42
0.03734699999999994
 10
0.4254075272035918
 20
0.981154448458983
 42
0.01979000000000001
 10
0.4221257142638564
 20
0.9394155820938906
 42
0.007468999999999982
 10
0.4204085804456668
 20
0.8677376529075506
 42
0.0006290000000000559
 10
0.4189745682973722
 20
0.682805534639346
 42
0.001852999999999932
 10
0.4184038130585248
 20
0.4781775518968672
 42
0.01266400000000002
 10
0.4210502199943877
 20
0.3773591066665622
 42
0.02596100000000007
 10
0.427761373101703
 20
0.312735709857465
 42
0.04157899999999996
 10
0.4408559135920165
 20
0.2588766951109586
 42
0.04690200000000001
 10
0.4668496768343705
 20
0.1999337792954526
 42
0.04174400000000002
 10
0.5042601477648894
 20
0.1443635080730444
 42
0.04190900000000002
 10
0.5502039260096568
 20
0.09599832417753401
 42
0.04828900000000002
 10
0.6015714225677627
 20
0.05848295159244787
 42
0.07110599999999975
 10
0.708439255911897
 20
0.0142644404576947
 42
0.05906300000000022
 10
0.8305146233453164
 20
-0.001988073214895025
 42
0.05821299999999999
 10
0.9548144757796742
 20
0.01072544926805052
 42
0.06462000000000041
 10
1.068232874242669
 20
0.05177749772612653
 42
0.05931400000000004
 10
1.118682258696703
 20
0.08591048951474961
 42
0.03931300000000009
 10
1.167855250636189
 20
0.135727851889255
 42
0.03906000000000023
 10
1.205358631068348
 20
0.1880140542223678
 42
0.136881
 10
1.216395329989739
 20
0.2275736139448261
 42
0.106922
 10
1.212633415363251
 20
0.2449643135378338
 42
0.1340469999999985
 10
1.202138263070593
 20
0.2576140757621472
 42
0.07519200000000065
 10
1.18155337636815
 20
0.2678542463873647
 42
0.01648
 10
1.143429787908107
 20
0.2787572506137431
 42
0.01666000000000004
 10
1.100457629538492
 20
0.2880189921676912
 42
0.09929300000000055
 10
1.077638402897559
 20
0.2875860279533374
 42
0.1373900000000005
 10
1.06037106812526
 20
0.2783762326063765
 42
0.04289800000000011
 10
1.040786873154225
 20
0.2561370224708913
 42
-0.05983499999999997
 10
1.001709492966798
 20
0.2146739162560364
 42
-0.06767699999999989
 10
0.9554150926666384
 20
0.1856280313594708
 42
-0.06313199999999994
 10
0.9003213017382654
 20
0.1686404343326873
 42
-0.04327499999999992
 10
0.8350583432287404
 20
0.1629813254928297
 42
-0.05923400000000005
 10
0.7682063057221464
 20
0.1709290951619158
 42
-0.07314299999999987
 10
0.7100600369370008
 20
0.1943347499544188
 42
-0.07602199999999969
 10
0.6628158818718295
 20
0.2325755884245197
 42
-0.0711049999999999
 10
0.6278824435588484
 20
0.2840110603049101
 42
-0.05383000000000008
 10
0.610950948435611
 20
0.3308186297630135
 42
-0.04174500000000002
 10
0.6025217710037123
 20
0.3843834211931446
 42
-0.01774999999999999
 10
0.599315116804604
 20
0.4706704047972199
 42
-0.001908999999999997
 10
0.5997487934241121
 20
0.6706200230877561
 42
-0.0006109999999999861
 10
0.601045667585979
 20
0.850492521428256
 42
-0.008212999999999984
 10
0.6026847930430126
 20
0.9164181948047633
 42
-0.02314300000000007
 10
0.6059663091472789
 20
0.953799457125181
 42
-0.04754299999999999
 10
0.6126270595920438
 20
0.9823946864134691
 42
-0.07024399999999995
 10
0.6463868698296686
 20
1.049833983210942
 42
-0.08977800000000001
 10
0.695336107192998
 20
1.098973670210862
 42
-0.08776099999999998
 10
0.7593416112908645
 20
1.128575409205741
 42
-0.06402799999999995
 10
0.83719989239978
 20
1.138773013624775
 42
-0.03474600000000003
 10
0.8974391480733185
 20
1.134724177834435
 42
-0.06625499999999986
 10
0.9441447842315385
 20
1.121853688755746
 42
-0.06596800000000018
 10
0.985988967820854
 20
1.097170097904257
 42
-0.03416600000000004
 10
1.031179555747849
 20
1.056483038338248
 42
0.00701800000000001
 10
1.053470771457415
 20
1.034108055659472
 42
0.02687100000000017
 10
1.068261370447645
 20
1.021148515940231
 42
0.04406500000000006
 10
1.079243570377019
 20
1.013989260009668
 42
0.1230240000000027
 10
1.08810102202287
 20
1.011776410959095
 42
0.05405500000000047
 10
1.106754519065968
 20
1.013798988474359
 42
0.008651000000000155
 10
1.142480270611469
 20
1.02228883907602
 42
0.009032999999999906
 10
1.177912748714092
 20
1.032044692950833
 42
0.04766199999999995
 10
1.196598007152321
 20
1.039551187012448
 42
0.1342189999999992
 10
1.211204805620454
 20
1.052998546140621
 42
0.1380780000000006
 10
1.21673936229773
 20
1.07185870003689
 42
0.09543800000000034
 10
1.212268485838278
 20
1.096528695823922
 42
0.04033299999999999
 10
1.197561119513415
 20
1.12695949628232
 42
0.06200599999999993
 10
1.151652130385556
 20
1.186766915716283
 42
0.05506300000000001
 10
1.090741195413897
 20
1.236250456922916
 42
0.05244600000000015
 10
1.017498883941436
 20
1.273219533511774
 42
0.04646600000000004
 10
0.9351377868766571
 20
1.295993997364057
 42
0.03150400000000008
 10
0.8922940395307155
 20
1.300896235126334
 42
0.01359700000000004
 10
0.8348258616898109
 20
1.302261084610498
 42
0.01333600000000004
 10
0.7783350443124899
 20
1.300559326869587
 42
0.03923299999999982
  0
LWPOLYLINE
  5
6C
100
AcDbEntity
  8
0
  6
ByLayer
 62
  256
370
   -1
100
AcDbPolyline
 90
   40
 70
    1
 43
0
 10
1.750491210360435
 20
1.295648302777442
 42
0.016061
 10
1.715205309612158
 20
1.288067421747421
 42
0.02240500000000003
 10
1.684258549742413
 20
1.27888149197213
 42
0.02153899999999998
 10
1.653350912787418
 20
1.266664753329264
 42
0.01330800000000008
 10
1.61809629849752
 20
1.249803964414622
 42
0.05287200000000006
 10
1.546735211490225
 20
1.203217062443803
 42
0.05829300000000001
 10
1.48930888745038
 20
1.144033650531718
 42
0.05863699999999985
 10
1.447353331193285
 20
1.073520147521178
 42
0.05457399999999994
 10
1.421665367850578
 20
0.9934800663516941
 42
0.02932700000000003
 10
1.416121371805405
 20
0.9549420362105316
 42
0.015384
 10
1.413531838545304
 20
0.9065630197821904
 42
0.006346999999999778
 10
1.412721655817592
 20
0.8256720894258218
 42
0.0006419999999999941
 10
1.413484226136191
 20
0.6333010962158241
 42
0.0005249999999999483
 10
1.414769226879287
 20
0.4292765206137146
 42
0.007531999999999927
 10
1.416395529044111
 20
0.3567234610990075
 42
0.02189500000000002
 10
1.419738965027107
 20
0.3156693347926497
 42
0.0428319999999999
 10
1.426595804982364
 20
0.2836023178647864
 42
0.06397699999999996
 10
1.468795953665502
 20
0.1901221797196547
 42
0.06792000000000008
 10
1.532576812680809
 20
0.1124422373602146
 42
0.066176
 10
1.616413835062062
 20
0.05315226151493824
 42
0.05613100000000004
 10
1.717575600195224
 20
0.01377098117486153
 42
0.03808600000000009
 10
1.771725810536328
 20
0.003751715505300957
 42
0.02184899999999988
 10
1.838042297490653
 20
-0.0004404918163229965
 42
0.02187500000000032
 10
1.904070319736692
 20
0.001164497561854605
 42
0.040231
 10
1.957207608725087
 20
0.009111911028379938
 42
0.05981999999999998
 10
2.075147642512646
 20
0.05194687204445358
 42
0.07598699999999983
 10
2.169341669959521
 20
0.1191304747693594
 42
0.07946400000000012
 10
2.23614164252494
 20
0.2086707751081853
 42
0.0734610000000001
 10
2.273939839944413
 20
0.3170026603500575
 42
0.0455470000000001
 10
2.280935658266024
 20
0.3881480667059237
 42
0.001760000000000038
 10
2.281852642395314
 20
0.6527564052263275
 42
0.001761
 10
2.280905796617887
 20
0.9173544138724119
 42
0.04551800000000004
 10
2.273902438675382
 20
0.9885343125097354
 42
0.07927299999999998
 10
2.234047527661767
 20
1.098652612968133
 42
0.080134
 10
2.162012861609352
 20
1.190440017170597
 42
0.07717300000000007
 10
2.062156222664091
 20
1.257506191784166
 42
0.06628100000000006
 10
1.941340328123516
 20
1.295544232262187
 42
0.02745500000000007
 10
1.897938411362607
 20
1.300678654727925
 42
0.01557900000000003
 10
1.845043577584883
 20
1.302356012593323
 42
0.01559200000000007
 10
1.792541635233263
 20
1.300746986252773
 42
0.02942999999999991
  0
LWPOLYLINE
  5
6D
100
AcDbEntity
  8
0
  6
ByLayer
 62
  256
370
   -1
100
AcDbPolyline
 90
   40
 70
    1
 43
0
 10
1.93962901228052
 20
1.127602145071622
 42
-0.05705499999999993
 10
1.986769868602655
 20
1.105530350140371
 42
-0.05449000000000012
 10
2.028508497499372
 20
1.073086352167512
 42
-0.05449700000000001
 10
2.062247885456764
 20
1.032396442981006
 42
-0.05710199999999994
 10
2.08578147633619
 20
0.98598882963316
 10
2.097641774948482
 20
0.9540181654983725
 10
2.099186862929137
 20
0.664182255446923
 42
-0.001392999999999929
 10
2.099717129810059
 20
0.4558549309947114
 42
-0.01802399999999994
 10
2.096899805011418
 20
0.3782430233246588
 42
-0.04842200000000033
 10
2.088817153305447
 20
0.3309006157194134
 42
-0.05083300000000019
 10
2.071843685646963
 20
0.2868053506711825
 42
-0.06466600000000017
 10
2.044417335066534
 20
0.2465590324088032
 42
-0.05172899999999999
 10
2.005639402499729
 20
0.211144067598822
 42
-0.05086599999999982
 10
1.959650742732123
 20
0.1838831137414423
 42
-0.05725100000000007
 10
1.910869573611059
 20
0.1677679755236722
 42
-0.04473200000000008
 10
1.875352081830256
 20
0.1636549639050432
 42
-0.02193999999999968
 10
1.829789084124481
 20
0.1644747047348523
 42
-0.0219050000000001
 10
1.784800403683158
 20
0.1692462755238953
 42
-0.04818600000000008
 10
1.751286907517297
 20
0.1776527153589088
 42
-0.05234900000000004
 10
1.705148345838098
 20
0.1997509286468567
 42
-0.0555349999999999
 10
1.665598759787381
 20
0.2305870282539442
 42
-0.05510200000000006
 10
1.633556083367935
 20
0.2696077128668875
 42
-0.05013900000000004
 10
1.609615887263758
 20
0.3159049627875454
 10
1.595590767579697
 20
0.3513234302560541
 10
1.594140310746418
 20
0.6359808080911681
 42
-0.001539999999999866
 10
1.593729134255455
 20
0.8399733848297547
 42
-0.01767399999999996
 10
1.596650529569337
 20
0.9201794563932201
 42
-0.04556100000000007
 10
1.604674882789295
 20
0.9690295507100715
 42
-0.0538409999999999
 10
1.621224766234229
 20
1.01280595509804
 42
-0.04719600000000004
 10
1.638425372393209
 20
1.040038472117538
 42
-0.02969099999999995
 10
1.663176582364422
 20
1.068428291261623
 42
-0.02974500000000004
 10
1.69100597614398
 20
1.093581297722998
 42
-0.04881299999999984
 10
1.717582783613562
 20
1.110914114399647
 42
-0.0154
 10
1.735610373387783
 20
1.119612640335664
 42
-0.0228579999999999
 10
1.751936146053999
 20
1.126002201896408
 42
-0.01767199999999995
 10
1.771588019511851
 20
1.131909524555024
 42
-0.005486999999999978
 10
1.801511468787488
 20
1.139413109629049
 42
-0.0651570000000002
 10
1.826086595958789
 20
1.141992787951594
 42
-0.01494200000000001
 10
1.867851227642545
 20
1.139675690284484
 42
-0.01598500000000002
 10
1.910287716725705
 20
1.134676031121445
 42
-0.04369400000000003
  0
LWPOLYLINE
  5
6E
100
AcDbEntity
  8
0
  6
ByLayer
 62
  256
370
   -1
100
AcDbPolyline
 90
  130
 70
    1
 43
0
 10
8.45375460902458
 20
1.299735667811594
 42
0.04150599999999997
 10
8.367548305300851
 20
1.278731115123786
 42
0.04993599999999977
 10
8.291472996117029
 20
1.244598004600974
 42
0.0524709999999998
 10
8.22679195385995
 20
1.197795006409088
 42
0.05492200000000008
 10
8.174372056831823
 20
1.139199625560104
 42
0.02417099999999997
 10
8.155414837737355
 20
1.109737992906358
 42
0.02629799999999976
 10
8.139963720462619
 20
1.079383954100113
 42
0.02473699999999981
 10
8.127049774671345
 20
1.045969838449103
 42
0.01734300000000003
 10
8.115717546357514
 20
1.007240230696573
 42
0.03519300000000025
 10
8.109247245549334
 20
0.9716054295386205
 42
0.01965600000000002
 10
8.106164609208966
 20
0.9276096043723362
 42
0.007113999999999989
 10
8.104917484671617
 20
0.8516611626677687
 42
0.0005479999999999491
 10
8.104693908196737
 20
0.6476483417502491
 42
0.000686999999999986
 10
8.104951620750484
 20
0.460037580214285
 42
0.005692999999999956
 10
8.106155288575255
 20
0.3748750093648762
 42
0.01248499999999995
 10
8.108719947023094
 20
0.3241213091885314
 42
0.03402299999999997
 10
8.113859949995637
 20
0.2885427286683127
 42
0.05643700000000011
 10
8.147349936792398
 20
0.1889037294885567
 42
0.07335300000000002
 10
8.200336552096985
 20
0.1086340757677364
 42
0.07629299999999967
 10
8.272366290680621
 20
0.04935288625232614
 42
0.06759599999999993
 10
8.361841227849284
 20
0.01138234615984196
 42
0.04414899999999992
 10
8.409707193853871
 20
0.002765628078944204
 42
0.0222119999999997
 10
8.471078520637175
 20
-2.575329973575347e-005
 42
0.02221000000000002
 10
8.532369167540136
 20
0.002634604903148652
 42
0.04476099999999991
 10
8.579942394405689
 20
0.01115657310250179
 42
0.02572900000000006
 10
8.62060362928594
 20
0.02454848336515841
 42
0.02361399999999957
 10
8.66088639894385
 20
0.04238473299638262
 42
0.02315000000000001
 10
8.700102698130536
 20
0.06433832804407674
 42
0.02239400000000002
 10
8.737573129825689
 20
0.09005116619904352
 10
8.779770310154145
 20
0.1218770339922981
 10
8.787866319456191
 20
0.09346020282057932
 42
0.0003029999999999569
 10
8.791365178490487
 20
0.08120754708603961
 42
0.0002359999999999373
 10
8.795185925906832
 20
0.0678820686012469
 42
0.0002379999999999789
 10
8.798760240517232
 20
0.05546033538382455
 42
0.0005770000000000471
 10
8.801415196314599
 20
0.04629013788834534
 42
0.02814600000000058
 10
8.80415759984098
 20
0.03851862912045098
 42
0.02407100000000024
 10
8.807884962818935
 20
0.03067570173883982
 42
0.02477999999999986
 10
8.811977492790234
 20
0.02386896761066737
 42
0.06116300000000165
 10
8.81578274539512
 20
0.01946909419528028
 42
0.130348
 10
8.838698740398785
 20
0.007645484446895029
 42
0.05593500000000006
 10
8.873204201333285
 20
0.003997020336470258
 42
0.05605600000000004
 10
8.907391514012645
 20
0.008063963090387156
 42
0.1396470000000025
 10
8.929187845629125
 20
0.02019586615635374
 10
8.940932853345455
 20
0.03194087387268008
 10
8.940932853345466
 20
0.3481731154288638
 42
0.0009229999999999999
 10
8.940707970794509
 20
0.4699897017008446
 42
0.001481
 10
8.940016403520019
 20
0.5739004007406906
 42
0.000247
 10
8.939086536731352
 20
0.6658597914136036
 42
0.08918600000000232
 10
8.93781299383733
 20
0.6725356211001674
 42
0.2057950000000077
 10
8.92528202516751
 20
0.6853984518237703
 42
0.07156600000000013
 10
8.89966619284365
 20
0.6919298413713612
 42
0.02449399999999999
 10
8.84986480021735
 20
0.6948109264286195
 42
0.002201999999999956
 10
8.724830339365555
 20
0.6953616749568763
 10
8.54338615658642
 20
0.695361674956877
 10
8.52870508988407
 20
0.6806806676216174
 42
0.04282499999999943
 10
8.520140733579815
 20
0.6705085316857805
 42
0.09675999999999589
 10
8.516040070316675
 20
0.6613575691286757
 42
0.05147400000000007
 10
8.514370786376015
 20
0.6481268998925093
 42
0.005661999999999967
 10
8.514024082548808
 20
0.6175136049880778
 42
0.00573899999999988
 10
8.514370073970893
 20
0.5873684196174717
 42
0.04893999999999991
 10
8.515996732338275
 20
0.5739637454296679
 42
0.09384500000000524
 10
8.51991905685194
 20
0.5648321365451102
 42
0.048175999999999
 10
8.5278680138629
 20
0.5551836777428009
 42
0.06618000000000161
 10
8.53853004705595
 20
0.547023848815017
 42
0.08388200000000022
 10
8.55014889969816
 20
0.5427339232571625
 42
0.03301599999999978
 10
8.569266113110148
 20
0.5404227622994222
 42
0.002761000000000105
 10
8.619070711559505
 20
0.5379914423440351
 42
0.001696000000000173
 10
8.651207841025037
 20
0.5367096474239581
 42
0.001626999999999995
 10
8.683798297618043
 20
0.5356266729006824
 42
0.001609999999999928
 10
8.712548831223453
 20
0.5348576315688921
 42
0.005880999999999839
 10
8.730788242788
 20
0.5346430788922596
 10
8.765146888899775
 20
0.5346430788922585
 10
8.765146888899775
 20
0.4093846259959277
 10
8.765146888899775
 20
0.2841261137325012
 10
8.733028163233305
 20
0.2524328720265715
 42
-0.02400600000000011
 10
8.704362702673166
 20
0.2267419996962753
 42
-0.03030599999999988
 10
8.67542949652044
 20
0.2059930223468487
 42
-0.03030200000000001
 10
8.644197240297094
 20
0.188891974804004
 42
-0.02399100000000001
 10
8.608620084587125
 20
0.174167985692906
 42
-0.01844199999999996
 10
8.58635184394282
 20
0.167095049516583
 42
-0.0337029999999998
 10
8.567692291456165
 20
0.163248714882855
 42
-0.02638299999999986
 10
8.54586229869755
 20
0.1614293509293236
 42
-0.00733199999999995
 10
8.5115128544853
 20
0.1608888729082791
 42
-0.006800000000000118
 10
8.478145935673785
 20
0.1613069359821147
 42
-0.02498900000000001
 10
8.45709846057723
 20
0.1629117472590126
 42
-0.03549100000000022
 10
8.440396122435676
 20
0.1662456251399227
 42
-0.02772500000000004
 10
8.422853739918265
 20
0.1721254608341571
 42
-0.07092100000000011
 10
8.371743421610065
 20
0.2014197970178581
 42
-0.07633099999999933
 10
8.332310432531376
 20
0.2432109064254053
 42
-0.0693109999999995
 10
8.304547589263855
 20
0.2984658790131726
 42
-0.04588000000000006
 10
8.287952171258056
 20
0.367624743679667
 42
-0.02937699999999981
 10
8.285429722813834
 20
0.3972033888750971
 42
-0.00346600000000007
 10
8.284147987260852
 20
0.4632425721347563
 42
-0.003397999999999766
 10
8.283636955318297
 20
0.5532430861839261
 42
-0.001397000000000027
 10
8.284114326118733
 20
0.6752718504487861
 42
-0.001294999999999959
 10
8.285898010448937
 20
0.8671501561482509
 42
-0.01889900000000013
 10
8.289261334408323
 20
0.9347957535963459
 42
-0.0515380000000002
 10
8.297389580042259
 20
0.9769555920228645
 42
-0.04309000000000023
 10
8.314285454909278
 20
1.019310095149624
 42
-0.05496100000000004
 10
8.338052952137884
 20
1.055944756899672
 42
-0.0500150000000004
 10
8.369923048415945
 20
1.087823283305036
 42
-0.04948500000000006
 10
8.40785315951762
 20
1.113038387746421
 42
-0.05129299999999979
 10
8.449554209044026
 20
1.129951597804798
 42
-0.05506599999999992
 10
8.499424467499015
 20
1.138655585513435
 42
-0.03708399999999994
 10
8.55727247600541
 20
1.137998213684896
 42
-0.03718899999999999
 10
8.614117714932121
 20
1.128833834164616
 42
-0.05714499999999979
 10
8.660923681478694
 20
1.111835847896434
 42
-0.04976500000000072
 10
8.67188795254577
 20
1.104931751734594
 42
-0.01165000000000001
 10
8.688725113357121
 20
1.091184410681956
 42
-0.01189500000000005
 10
8.70743607774692
 20
1.074378892531548
 42
-0.011431
 10
8.725582342341445
 20
1.056483038338248
 42
0.013067
 10
8.758355887051435
 20
1.024372683431985
 42
0.1128869999999982
 10
8.775952352991204
 20
1.014198707116243
 42
0.121758999999998
 10
8.795685262531959
 20
1.013071266639785
 42
0.01618400000000014
 10
8.836781183272279
 20
1.022158350204067
 42
0.01224599999999997
 10
8.87129590547339
 20
1.031876921544037
 42
0.05207500000000042
 10
8.890989870200675
 20
1.040273625175684
 42
0.08893599999999949
 10
8.902889766664471
 20
1.049985072464408
 42
0.09364300000000531
 10
8.910416326803757
 20
1.063064593080016
 42
0.05460099999999966
 10
8.912823484352007
 20
1.073517832204523
 42
0.08611600000000605
 10
8.912322722916647
 20
1.0826860112188
 42
0.04986699999999957
 10
8.908400339035884
 20
1.094287528669652
 42
0.008334999999999997
 10
8.89832621817175
 20
1.115556680494081
 42
0.08915199999999984
 10
8.84076596196852
 20
1.193376432359186
 42
0.07207600000000029
 10
8.75559122086492
 20
1.253187116983304
 42
0.06567099999999999
 10
8.649080302488111
 20
1.290522904109948
 42
0.05401299999999996
 10
8.529091450929865
 20
1.302328941198597
 42
0.00271099999999996
 10
8.504131803092674
 20
1.301947863824136
 42
0.003429999999999977
 10
8.4810641845317
 20
1.301312220351891
 42
0.002717000000000009
 10
8.461735268063576
 20
1.300541694842759
 42
0.02769600000000025
  0
LWPOLYLINE
  5
6F
100
AcDbEntity
  8
0
  6
ByLayer
 62
  256
370
   -1
100
AcDbPolyline
 90
   84
 70
    1
 43
0
 10
4.819013024205345
 20
1.285592288876884
 42
0.01832500000000005
 10
4.787897661789493
 20
1.280298050194905
 42
0.0493810000000002
 10
4.766519215145563
 20
1.273594317974301
 42
0.07143400000000004
 10
4.751896743764692
 20
1.264726002150304
 42
0.09821400000000008
 10
4.742169148626481
 20
1.252872352652507
 42
0.1209800000000027
 10
4.739459871938365
 20
1.242288624656028
 42
0.0005819999999999786
 10
4.738485123626923
 20
1.129662598792654
 42
0.002085999999999876
 10
4.737993920293661
 20
0.9816446425517608
 42
0.0006500000000000198
 10
4.73847259717013
 20
0.7594160381730728
 42
0.0006830000000000206
 10
4.740227013523139
 20
0.3954667232832125
 42
0.01507899999999991
 10
4.744081718917119
 20
0.2894474238092091
 42
0.05066299999999984
 10
4.754745889325543
 20
0.2264680205588511
 42
0.04412400000000007
 10
4.778139789433492
 20
0.1637785068270328
 42
0.06059399999999984
 10
4.812677249231494
 20
0.1094655119150034
 42
0.06078999999999993
 10
4.859194216765935
 20
0.06508225709523288
 42
0.05782500000000026
 10
4.917213796173125
 20
0.03147798864310219
 42
0.0465869999999999
 10
4.985748653317738
 20
0.009043698237719944
 42
0.03718399999999982
 10
5.033477600070065
 20
0.001883492433657263
 42
0.01913199999999972
 10
5.093913182722468
 20
-0.0003121995268386968
 42
0.0190260000000002
 10
5.153220018822355
 20
0.002060881309631835
 42
0.04523599999999986
 10
5.19669181065255
 20
0.009453687386810128
 42
0.02711200000000013
 10
5.249165019330815
 20
0.02644009707172024
 42
0.02608400000000023
 10
5.30019293611296
 20
0.0491932481373672
 42
0.02637799999999966
 10
5.347990451858509
 20
0.07683628860979835
 42
0.02945699999999989
 10
5.39080142856873
 20
0.1084441010678933
 10
5.414147478799155
 20
0.1279045156485648
 10
5.420442349845444
 20
0.1014964294592781
 42
0.02794799999999991
 10
5.431507070035064
 20
0.06440208830271123
 42
0.06318699999999984
 10
5.44480749560633
 20
0.03834569277650467
 42
0.09232700000000088
 10
5.460260215792595
 20
0.02279733220228804
 42
0.152248999999998
 10
5.4777988581831
 20
0.01733009780927096
 42
0.07732199999999974
 10
5.4989024351832
 20
0.02061327619215891
 42
0.0128740000000001
 10
5.537803732570715
 20
0.03413045102252399
 42
0.01148399999999972
 10
5.57609218344996
 20
0.04956268956146109
 42
0.1029880000000023
 10
5.59084282838613
 20
0.05990194386606337
 42
0.1047310000000031
 10
5.59856120360516
 20
0.07261938457719574
 42
0.07368499999999904
 10
5.601726419572864
 20
0.08910586396605842
 42
0.05990099999999956
 10
5.60019124589688
 20
0.1089832730128771
 42
0.03623899999999983
 10
5.593904745610795
 20
0.1317704414232139
 42
-0.05193699999999991
 10
5.58072857536665
 20
0.1861187597559962
 42
-0.02287200000000004
 10
5.574194336198559
 20
0.2598982840593519
 42
-0.008253000000000038
 10
5.570779184766394
 20
0.3907592095882704
 42
-0.0006329999999999826
 10
5.567847637679478
 20
0.7430962022161195
 10
5.564236812306445
 20
1.254916361688597
 10
5.55271175967228
 20
1.266441473689858
 42
0.07432100000000189
 10
5.544048022853175
 20
1.272852110568865
 42
0.08112800000000023
 10
5.53414054542105
 20
1.276209794654347
 42
0.03678199999999985
 10
5.518349610901975
 20
1.27765597705688
 42
0.00444900000000002
 10
5.483436416767945
 20
1.277966585691118
 42
0.01181299999999999
 10
5.44278099986288
 20
1.277005966747958
 42
0.05332700000000004
 10
5.419347264435055
 20
1.273373056816081
 42
0.09906399999999922
 10
5.40492248547621
 20
1.266265094054475
 42
0.1225960000000011
 10
5.39563266328694
 20
1.254575357102384
 42
0.1036290000000018
 10
5.392758167977078
 20
1.241781332840366
 42
0.0007769999999999728
 10
5.39135876684438
 20
1.133556605202619
 42
0.002199999999999948
 10
5.390344183213074
 20
0.9880743956348128
 42
0.0006430000000000482
 10
5.390056371542812
 20
0.7643549054319083
 10
5.39005637154279
 20
0.2863730394948594
 10
5.35362973208907
 20
0.2506480597215768
 42
-0.01554899999999996
 10
5.334096533451525
 20
0.2326478975446455
 42
-0.0230090000000002
 10
5.315805828718025
 20
0.2182320236498506
 42
-0.02363699999999984
 10
5.29665162960666
 20
0.2058410425869764
 42
-0.01777899999999981
 10
5.274526048088515
 20
0.1940003351156064
 42
-0.02127299999999977
 10
5.230879717002845
 20
0.1748595529674181
 42
-0.04105899999999998
 10
5.19433446209591
 20
0.1640067139352159
 42
-0.04108999999999996
 10
5.15652522239701
 20
0.1592761658079188
 42
-0.02133899999999987
 10
5.108928367428165
 20
0.1592921355561265
 42
-0.0178599999999999
 10
5.06338205187572
 20
0.1628850320668482
 42
-0.04664599999999997
 10
5.03127905848907
 20
0.1696491406217441
 42
-0.05887099999999992
 10
5.005569841726825
 20
0.1810836584380179
 42
-0.0464560000000004
 10
4.980925433157176
 20
0.1990124020012282
 42
-0.03609599999999994
 10
4.961777111388086
 20
0.2184909829125714
 42
-0.04187500000000006
 10
4.946656609458167
 20
0.2396267368774541
 42
-0.03939600000000015
 10
4.934587991714083
 20
0.264075768341735
 42
-0.02655099999999996
 10
4.92459597554053
 20
0.2935651847953322
 42
-0.05490900000000001
 10
4.919148747858091
 20
0.3265037700258066
 42
-0.0089739999999999
 10
4.916801966644127
 20
0.3912372927937208
 42
-0.004188999999999964
 10
4.91565499439389
 20
0.5069453019595637
 42
-0.0003839999999998487
 10
4.915434267539524
 20
0.7944352619362469
 10
4.915434267539467
 20
1.262659374251512
 10
4.90287812722192
 20
1.274734522375904
 42
0.07136600000000028
 10
4.889470484679433
 20
1.284375025987657
 42
0.08826399999999895
 10
4.874819279625211
 20
1.28898470271218
 42
0.05352599999999989
 10
4.854265263811492
 20
1.289432864902521
 42
0.01168599999999999
  0
LWPOLYLINE
  5
70
100
AcDbEntity
  8
0
  6
ByLayer
 62
  256
370
   -1
100
AcDbPolyline
 90
   94
 70
    1
 43
0
 10
2.499404603967899
 20
1.265638711848847
 10
2.487076730125626
 20
1.253310897373668
 10
2.487076730125626
 20
0.6531791583005655
 10
2.487076730125626
 20
0.05304741922746435
 10
2.499187795341707
 20
0.03895563029717814
 42
0.05822899999999924
 10
2.508083716864275
 20
0.03075875630292653
 42
0.09974899999999975
 10
2.517224765116731
 20
0.02657361366545129
 42
0.04552100000000002
 10
2.531577472423826
 20
0.02455780399886809
 42
0.004500000000000087
 10
2.566410817816827
 20
0.02317918134896702
 42
0.006804999999999889
 10
2.594937181276424
 20
0.02269569573787414
 42
0.02341400000000006
 10
2.613426825140913
 20
0.02350017922460393
 42
0.03619299999999966
 10
2.62663725019813
 20
0.02566802801815258
 42
0.06063400000000023
 10
2.63717027869657
 20
0.02958625620235178
 42
0.002422000000000041
 10
2.643251606306821
 20
0.03276845115885785
 42
0.003550000000000109
 10
2.648568226383124
 20
0.03563190418928985
 42
0.001721999999999949
 10
2.653057922211278
 20
0.0381114302247644
 42
0.06355299999999858
 10
2.65399865317805
 20
0.03880454104371174
 42
0.202594999999953
 10
2.654489262841253
 20
0.03993601847925632
 42
1.099999999998282e-005
 10
2.655592303442063
 20
0.1583180402791181
 42
0.0004520000000000963
 10
2.656689051130343
 20
0.2890300731401869
 42
0.0002719999999999648
 10
2.657765495273338
 20
0.4440769151740452
 10
2.660351466507794
 20
0.848222620600646
 10
2.768334273238699
 20
0.6178663048917592
 42
0.002123000000000015
 10
2.812575284501965
 20
0.5245217611886406
 42
0.003788000000000044
 10
2.849871592511297
 20
0.4481752037536992
 42
0.001816000000000017
 10
2.881194621020915
 20
0.385837380684956
 42
0.07801100000000027
 10
2.889827012014556
 20
0.3738717648484352
 42
0.07739699999999997
 10
2.904125457798011
 20
0.3633225291334154
 42
0.07329799999999982
 10
2.921220806099861
 20
0.3573747181168937
 42
0.03973399999999981
 10
2.947086158318545
 20
0.3545426702790297
 42
0.007407999999999981
 10
2.99487096950604
 20
0.3538346583195643
 42
0.01647699999999993
 10
3.040424824679388
 20
0.355336289587612
 42
0.0544929999999998
 10
3.069944696452051
 20
0.360549017249939
 42
0.08508999999999936
 10
3.089950694623825
 20
0.3702977470735087
 42
0.09985399999999986
 10
3.104287135347249
 20
0.3857317666252575
 42
0.02605499999999984
 10
3.110837819200267
 20
0.3977971191791667
 42
0.0004740000000001736
 10
3.142192668472109
 20
0.4636533330560422
 42
0.001174999999999932
 10
3.178498080320473
 20
0.5405600783870987
 42
0.0007839999999999843
 10
3.219725321072062
 20
0.6287866443094536
 42
-0.0003370000000000424
 10
3.260792448771966
 20
0.7168760128782985
 42
-0.0005129999999999864
 10
3.296597930324296
 20
0.793339226652364
 42
-0.0001799999999999574
 10
3.327594736654035
 20
0.8592954740821028
 42
-0.01338599999999996
 10
3.332916521667506
 20
0.8698645384064155
 42
-0.7655480000001049
 10
3.337301137739813
 20
0.868841643381964
 42
-0.005976999999999997
 10
3.338600683420905
 20
0.8120941226914855
 42
-0.004152000000000051
 10
3.338869853823809
 20
0.710103711664392
 42
-0.0004269999999999835
 10
3.337299950398005
 20
0.4693217031624861
 10
3.334244207351013
 20
0.0549396266049629
 10
3.347169076687532
 20
0.03990170430238039
 42
0.05114899999999984
 10
3.356551392808783
 20
0.03100898860287152
 42
0.1042240000000008
 10
3.365657473843051
 20
0.02662478810022016
 42
0.04825899999999992
 10
3.379735014670847
 20
0.02457537665860299
 42
0.004391999999999995
 10
3.415205903283093
 20
0.02317918134896624
 42
0.01666699999999999
 10
3.458395345215651
 20
0.02329904351114664
 42
0.0779430000000004
 10
3.482734191354025
 20
0.02802223011882415
 42
0.136859000000001
 10
3.497380706407844
 20
0.03846258658399979
 42
0.09970299999999949
 10
3.50667515923042
 20
0.05628340077086379
 42
0.06830099999999953
 10
3.509411804148705
 20
0.07494627781473601
 42
0.0006740000000001281
 10
3.510477087278055
 20
0.2104756534908068
 42
0.00172499999999994
 10
3.511032050869957
 20
0.3917292085321115
 42
0.0005339999999999998
 10
3.510634825645994
 20
0.6644067817952959
 10
3.509146551974059
 20
1.253725279687694
 10
3.49457400831899
 20
1.26625939481348
 42
0.0534230000000003
 10
3.484215162873465
 20
1.273401137451401
 42
0.0865600000000001
 10
3.47410067238561
 20
1.276799725464445
 42
0.04090700000000024
 10
3.458888329561737
 20
1.277861802770739
 42
0.004352999999999978
 10
3.423394109681667
 20
1.277124463466983
 42
0.005144999999999996
 10
3.390244177597622
 20
1.27580550474625
 42
0.03498100000000005
 10
3.373984005569944
 20
1.273844965843902
 42
0.07075400000000041
 10
3.36352215821685
 20
1.270247557434059
 42
0.07069399999999997
 10
3.354474731871159
 20
1.263875212330487
 42
0.08910699999999964
 10
3.346460292955847
 20
1.253072004188606
 42
0.0006750000000000265
 10
3.297538364455621
 20
1.154125403422676
 42
0.002397000000000059
 10
3.240640288815516
 20
1.037244656688008
 42
0.001345999999999982
 10
3.172575975255583
 20
0.8947246869945289
 42
-0.0003500000000000591
 10
3.107302627504637
 20
0.7573453733116438
 42
-0.0005720000000000997
 10
3.051772369703258
 20
0.6410257049792563
 42
-4.699999999987693e-005
 10
3.001822618709866
 20
0.5367281699570868
 42
-0.06978999999999673
 10
2.999472809774196
 20
0.5331887631978902
 42
-0.5328879999998781
 10
2.997102222355636
 20
0.5335080394279998
 42
-0.0001619999999999718
 10
2.946507091686554
 20
0.636302577739178
 42
-0.001924999999999951
 10
2.890255464329766
 20
0.7518040487857842
 42
-0.001145000000000024
 10
2.824101880680558
 20
0.8897831482162921
 42
0.00106200000000001
 10
2.743814535565825
 20
1.057312930941081
 42
0.003404000000000002
 10
2.689302601522812
 20
1.16849989845317
 42
0.001961000000000003
 10
2.648641069807097
 20
1.249233268542884
 42
0.08810299999999917
 10
2.637386018715075
 20
1.264154831341815
 42
0.04883399999999991
 10
2.626889144776699
 20
1.272154725319171
 42
0.09012200000000059
 10
2.616932273922617
 20
1.276061080084628
 42
0.04394599999999969
 10
2.602092459611711
 20
1.277644163005233
 42
0.004611000000000033
 10
2.567128506612569
 20
1.277966585691118
 42
0.004644000000000001
 10
2.533110033947693
 20
1.277650634018447
 42
0.04039300000000003
 10
2.518071399239986
 20
1.276152149206366
 42
0.08709699999999951
 10
2.508425730691081
 20
1.272589411179242
 42
0.06454599999999991
  0
LWPOLYLINE
  5
71
100
AcDbEntity
  8
0
  6
ByLayer
 62
  256
370
   -1
100
AcDbPolyline
 90
   50
 70
    1
 43
0
 10
3.740721674116615
 20
1.266409177990886
 42
0.05716000000000029
 10
3.734696270308628
 20
1.258822478985683
 42
0.05545700000000073
 10
3.730472479693156
 20
1.249993226709339
 42
0.04195800000000004
 10
3.727506024755155
 20
1.238449770276125
 42
0.01650799999999998
 10
3.725300121654545
 20
1.222167335588308
 42
0.0244229999999998
 10
3.724007640657561
 20
1.197715395136373
 42
0.000272999999999976
 10
3.723441456684952
 20
1.032451298175541
 42
0.0008469999999998958
 10
3.723214911855436
 20
0.8416678997853623
 42
0.0005520000000000371
 10
3.723569392771921
 20
0.6213932445614611
 10
3.725112165435888
 20
0.0527128856544634
 10
3.739026624857294
 20
0.03878833382713126
 42
0.05195599999999951
 10
3.748860071523572
 20
0.03080470643345008
 42
0.08730500000000069
 10
3.758613194512075
 20
0.02663559291127444
 42
0.04407699999999996
 10
3.773243324248031
 20
0.02454866146643875
 42
0.00527200000000014
 10
3.805917666544445
 20
0.02314112704190507
 42
0.009169000000000139
 10
3.828400519232476
 20
0.02282256321711051
 42
0.01363700000000005
 10
3.84807293370475
 20
0.02344122770055912
 42
0.01406699999999991
 10
3.863876038478033
 20
0.02481706009705639
 42
0.06954300000000001
 10
3.872501720990078
 20
0.02705484332698339
 42
0.1421639999999982
 10
3.888917494170345
 20
0.04019806483413094
 42
0.1161849999999997
 10
3.897333492107443
 20
0.06115369903672916
 42
0.03324700000000002
 10
3.900821486963595
 20
0.1025333351178273
 42
0.002105999999999892
 10
3.902457406597593
 20
0.2245064130487953
 10
3.904016742680719
 20
0.3940143073357182
 10
4.022996353646056
 20
0.3940937998741818
 42
0.00571400000000003
 10
4.113890401822522
 20
0.395193219082411
 42
0.01055599999999984
 10
4.187688804861671
 20
0.3984893394917282
 42
0.01275000000000007
 10
4.246105668859902
 20
0.403834337038822
 42
0.03312300000000016
 10
4.287627251662052
 20
0.411517210735819
 42
0.02332800000000005
 10
4.30236970393929
 20
0.4160103498554087
 42
0.008908999999999927
 10
4.322457331864901
 20
0.4235782294919085
 42
0.008800000000000033
 10
4.344015185865991
 20
0.4325841582391035
 42
0.01067800000000018
 10
4.363880780861164
 20
0.4418075486505221
 42
0.06123700000000028
 10
4.43120668650967
 20
0.4857587297623426
 42
0.06364000000000015
 10
4.48489709871007
 20
0.5442045055352038
 42
0.06047700000000023
 10
4.524211353601361
 20
0.6170145651984345
 42
0.04730000000000013
 10
4.549034813325608
 20
0.7034174333694024
 42
0.03979000000000012
 10
4.555791085424135
 20
0.7671009303510398
 42
0.01251800000000002
 10
4.555898896066293
 20
0.8629678631312875
 42
0.011789
 10
4.55140605378217
 20
0.9575113252916791
 42
0.05336499999999992
 10
4.54166082661713
 20
1.011776410959095
 42
0.04552000000000008
 10
4.511945162169443
 20
1.087202540973309
 42
0.05591499999999999
 10
4.470617828497878
 20
1.150559222104127
 42
0.05772999999999995
 10
4.417516397234079
 20
1.201615041420308
 42
0.05377000000000002
 10
4.352919181313304
 20
1.240599808941563
 42
0.02993699999999995
 10
4.300796832158802
 20
1.261158633489868
 42
0.05318299999999993
 10
4.255697253986448
 20
1.270751346591196
 42
0.02231699999999996
 10
4.18904522421854
 20
1.274667200091653
 42
0.001626999999999995
 10
4.005181119966012
 20
1.276653207477196
 10
3.752869784399164
 20
1.278557288273432
  0
LWPOLYLINE
  5
72
100
AcDbEntity
  8
0
  6
ByLayer
 62
  256
370
   -1
100
AcDbPolyline
 90
   24
 70
    1
 43
0
 10
4.20636777038797
 20
1.112401913134863
 42
-0.06878499999999994
 10
4.26351352554299
 20
1.094744120987299
 42
-0.0824229999999997
 10
4.309884212558555
 20
1.062916828383797
 42
-0.07875099999999995
 10
4.344990587215483
 20
1.01650838389664
 42
-0.05652100000000012
 10
4.368999945983822
 20
0.9559623784499534
 42
-0.05203999999999995
 10
4.376257216986083
 20
0.911168659544342
 42
-0.01373600000000001
 10
4.378375731724766
 20
0.838541925466456
 42
-0.01362800000000009
 10
4.376521459920141
 20
0.7660232988661977
 42
-0.05405500000000003
 10
4.369395271460769
 20
0.7220952115538262
 42
-0.03549699999999992
 10
4.353779173032643
 20
0.6779200383974753
 42
-0.04614100000000021
 10
4.333098883410623
 20
0.6403312287174826
 42
-0.05056399999999991
 10
4.307763679338683
 20
0.6100211809276707
 42
-0.06093300000000015
 10
4.278273253644494
 20
0.5875182621619693
 42
-0.0581179999999999
 10
4.245279753852349
 20
0.5730216490197434
 42
-0.04460700000000012
 10
4.206734777761223
 20
0.564857545661213
 42
-0.02486300000000013
 10
4.149943384788496
 20
0.5608841654469678
 42
-0.004904999999999921
 10
4.047804971596878
 20
0.5598295683944823
 10
3.903409357945076
 20
0.559755359527355
 10
3.903409357945076
 20
0.838501674576928
 10
3.903409357945076
 20
1.117247989626501
 10
4.04027128740635
 20
1.117218899750589
 42
-0.003205999999999988
 10
4.094818129300466
 20
1.116857532251236
 42
-0.003988999999999975
 10
4.145517686687354
 20
1.115791892919321
 42
-0.003259000000000002
 10
4.188038773879034
 20
1.114281297220125
 42
-0.03008599999999989
  0
LWPOLYLINE
  5
73
100
AcDbEntity
  8
0
  6
ByLayer
 62
  256
370
   -1
100
AcDbPolyline
 90
   38
 70
    1
 43
0
 10
5.698709156879205
 20
1.265638711848846
 42
0.06280000000000011
 10
5.691790753247785
 20
1.256723852223388
 42
0.0870010000000007
 10
5.688224512562129
 20
1.24727694470419
 42
0.04178400000000099
 10
5.686708098887749
 20
1.232731888013503
 42
0.005089999999999814
 10
5.68638128303693
 20
1.200626876145672
 42
0.005508000000000031
 10
5.686728699269265
 20
1.169093450655984
 42
0.03938200000000021
 10
5.688261498261505
 20
1.153932104165599
 42
0.07635700000000056
 10
5.691776980082045
 20
1.143731946961535
 42
0.0565109999999996
 10
5.698496563316665
 20
1.13385106598739
 10
5.710611843596395
 20
1.11975921769001
 10
5.864237615508305
 20
1.118295225159368
 10
6.017863387420205
 20
1.116831173261632
 10
6.017863387420205
 20
0.584939296244549
 10
6.017863387420205
 20
0.05304741922746435
 10
6.029984663776405
 20
0.0389556302971775
 42
0.06154400000000023
 10
6.03917172152648
 20
0.03060909185970886
 42
0.1080899999999986
 10
6.04858817372661
 20
0.02663648341768018
 42
0.04281099999999967
 10
6.063856440352746
 20
0.02513063708598118
 42
0.00318499999999998
 10
6.105756369643039
 20
0.02486378199979722
 42
0.00318499999999998
 10
6.147656298933338
 20
0.02513063708597806
 42
0.04281099999999967
 10
6.162924565559485
 20
0.02663648341768049
 42
0.1080899999999986
 10
6.172341017759615
 20
0.03060909185970857
 42
0.06154400000000046
 10
6.18152807550969
 20
0.03895563029717818
 10
6.193649351865885
 20
0.05304741922746435
 10
6.193649351865885
 20
0.585147734110528
 10
6.193649351865885
 20
1.117247989626501
 10
6.338973644964436
 20
1.117247989626504
 42
0.002937000000000147
 10
6.434857141163831
 20
1.117811264611527
 42
0.02352100000000007
 10
6.47894973469284
 20
1.120406081542965
 42
0.05511799999999984
 10
6.503815819990365
 20
1.12586073011212
 42
0.1522289999999981
 10
6.51815980033469
 20
1.136279655056468
 42
0.1330700000000026
 10
6.5279995399129
 20
1.161213775043372
 42
0.03900700000000012
 10
6.52938314939867
 20
1.202737079491238
 42
0.03860300000000003
 10
6.5243696577028
 20
1.243683632623809
 42
0.1476580000000001
 10
6.51235803236867
 20
1.266084321254159
 10
6.50047576793171
 20
1.277966585691119
 10
6.105756369643045
 20
1.277966585691119
 10
5.711036971354385
 20
1.277966585691119
  0
LWPOLYLINE
  5
74
100
AcDbEntity
  8
0
  6
ByLayer
 62
  256
370
   -1
100
AcDbPolyline
 90
   28
 70
    1
 43
0
 10
6.669056466949205
 20
1.272278505709534
 42
0.2286549999999948
 10
6.654022047305151
 20
1.250049387979978
 42
0.02688500000000001
 10
6.648416012647062
 20
1.188838055514195
 42
0.008978999999999938
 10
6.646015385479103
 20
1.066469592739272
 42
0.0004140000000000356
 10
6.645670403297544
 20
0.6501595698137876
 42
0.0003969999999999203
 10
6.645920338762064
 20
0.3351688129210807
 42
0.002486999999999987
 10
6.646976538726118
 20
0.1742000439235314
 42
0.001741999999999928
 10
6.648543058227583
 20
0.06991907232026774
 42
0.09459900000000102
 10
6.65258631351111
 20
0.05067997826489566
 42
0.1067420000000017
 10
6.662917256422595
 20
0.03584995952445037
 42
0.1145389999999988
 10
6.678208616848185
 20
0.02706267978335303
 42
0.0659509999999999
 10
6.70250287829919
 20
0.02309772969641077
 42
0.01556199999999962
 10
6.743708865631229
 20
0.02314112704190574
 42
0.004770999999999974
 10
6.777350950922045
 20
0.02454539627628514
 42
0.04632800000000019
 10
6.791457403524475
 20
0.02658869290725021
 42
0.09914100000000213
 10
6.80050554227529
 20
0.0307830374442473
 42
0.05733700000000171
 10
6.80934429328663
 20
0.03895563029717694
 10
6.8214563677433
 20
0.05304741922746435
 10
6.8214563677433
 20
0.653190675516744
 10
6.8214563677433
 20
1.253333931806024
 10
6.80816680635018
 20
1.265650288432119
 42
0.06196499999999986
 10
6.79849424450783
 20
1.272608883585975
 42
0.08307000000000099
 10
6.7883060200896
 20
1.276145381357684
 42
0.03840899999999993
 10
6.77251484810215
 20
1.277595363254212
 42
0.004352000000000009
 10
6.736596806540155
 20
1.277813834159028
 42
0.00850099999999997
 10
6.713599716086495
 20
1.277362584879814
 42
0.01128799999999996
 10
6.69271615353565
 20
1.276124840343263
 42
0.008741999999999995
 10
6.67543498623052
 20
1.274403907031088
 42
0.1028109999999991
  0
LWPOLYLINE
  5
75
100
AcDbEntity
  8
0
  6
ByLayer
 62
  256
370
   -1
100
AcDbPolyline
 90
   66
 70
    1
 43
0
 10
7.05204267157319
 20
1.263225202021568
 10
7.037301287903635
 20
1.248483818352017
 10
7.03861721890259
 20
0.648113186093865
 10
7.03993320926864
 20
0.04774249446862
 10
7.05136173100845
 20
0.03630310855066173
 42
0.07377700000000054
 10
7.059775591730175
 20
0.03005715598958078
 42
0.07253499999999884
 10
7.0696887090362
 20
0.02647809201168785
 42
0.03659700000000007
 10
7.085083308837729
 20
0.02448887880308193
 42
0.005705000000000085
 10
7.115741544632094
 20
0.02314112704190552
 42
0.01531300000000003
 10
7.1534188112817
 20
0.02306958969399731
 42
0.05158699999999972
 10
7.17781643084284
 20
0.02630420579424086
 42
0.08431600000000188
 10
7.193933290706325
 20
0.03317772790282612
 42
0.1218769999999971
 10
7.204520580728405
 20
0.04438682886432144
 42
0.125472000000009
 10
7.207777696957162
 20
0.05640391597105443
 42
0.001167000000000082
 10
7.208955480729076
 20
0.1490558831590611
 42
0.00267700000000004
 10
7.209615227241358
 20
0.2803707888534147
 42
0.000615
 10
7.20926953265473
 20
0.5019971140666335
 10
7.2080223487503
 20
0.948995709371353
 10
7.22288306027815
 20
0.9213722006728631
 42
0.0003299999999999673
 10
7.49355925007853
 20
0.4190266731523309
 42
0.002709999999999965
 10
7.618310054956652
 20
0.1908365439581647
 42
0.001802999999999999
 10
7.697821472156743
 20
0.0484653482015196
 42
0.1473899999999981
 10
7.71585167408309
 20
0.03114962924784741
 42
0.05769000000000039
 10
7.72762832446036
 20
0.02675367406064358
 42
0.033647
 10
7.74249057953268
 20
0.02412988598747909
 42
0.02114500000000027
 10
7.763658747930725
 20
0.02274793878032955
 42
0.005696999999999963
 10
7.797317871577434
 20
0.02236033102556245
 42
0.01223199999999981
 10
7.846614109603439
 20
0.02356055555889602
 42
0.07044900000000004
 10
7.872180429771155
 20
0.02846338699211007
 42
0.1378899999999987
 10
7.8869774404075
 20
0.03867779229866304
 42
0.1028739999999994
 10
7.89631232222089
 20
0.05628340077086261
 42
0.0684240000000011
 10
7.899058287772895
 20
0.0749748927539261
 42
0.0006809999999998597
 10
7.900122977231302
 20
0.2102096295439383
 42
0.001730999999999868
 10
7.900675388038209
 20
0.3913239687505162
 42
0.0005330000000000002
 10
7.900271988636504
 20
0.6644069598965774
 10
7.898773206988945
 20
1.253725635890256
 10
7.884681358691565
 20
1.26584608110714
 42
0.05760900000000022
 10
7.87471273315293
 20
1.272596594597579
 42
0.07660599999999894
 10
7.864363327075305
 20
1.276109642367276
 42
0.03846899999999997
 10
7.84882446523608
 20
1.277628311991216
 42
0.00513100000000004
 10
7.81585892734507
 20
1.277966585691119
 42
0.013131
 10
7.775991905444335
 20
1.276919409525344
 42
0.06067999999999977
 10
7.753308095144135
 20
1.272938370956011
 42
0.1108769999999999
 10
7.739364545846815
 20
1.265032514455076
 42
0.110813000000001
 10
7.730135337460215
 20
1.251923369659711
 42
0.09493099999999667
 10
7.726857264647384
 20
1.236030383106562
 42
0.001598999999999965
 10
7.725875985955618
 20
1.146114229697527
 42
0.002747999999999996
 10
7.725586393272565
 20
1.01565516002608
 42
0.0006090000000000217
 10
7.726589934624457
 20
0.7923745707468988
 42
-0.000647
 10
7.727508402931107
 20
0.5845461673500665
 42
-0.002397999999999993
 10
7.72728933835532
 20
0.4534677207899147
 42
-0.000812999999999986
 10
7.726513885377411
 20
0.3576654387747332
 42
-0.7663040000000353
 10
7.7237737971677
 20
0.3569559426379344
 42
-0.005369000000000008
 10
7.719569063389372
 20
0.3645491720258178
 42
-8.99999999994669e-006
 10
7.649593366880254
 20
0.4941874916258371
 42
-7.099999999999794e-005
 10
7.571028973558327
 20
0.6397935409507909
 42
-4.400000000001696e-005
 10
7.478768294885171
 20
0.8108781658792097
 42
0.0006670000000000293
 10
7.35300272827503
 20
1.043399005823524
 42
0.003592999999999994
 10
7.283516513453889
 20
1.169293280293376
 42
0.002700000000000016
 10
7.236727822731589
 20
1.25159875039136
 42
0.1103669999999998
 10
7.222910250407105
 20
1.266666059405326
 42
0.05923400000000228
 10
7.21117414775483
 20
1.27293290918339
 42
0.06050700000000049
 10
7.198379589188985
 20
1.276217215541061
 42
0.02883800000000002
 10
7.17871566421111
 20
1.277650099714605
 42
0.003770000000000008
 10
7.136742000990435
 20
1.277966585691119
 10
7.06678405524274
 20
1.277966585691119
  0
LWPOLYLINE
  5
76
100
AcDbEntity
  8
0
  6
ByLayer
 62
  256
370
   -1
100
AcDbPolyline
 90
   36
 70
    1
 43
0
 10
4.031481989184067
 20
7.59304963396928
 42
0.03287400000000022
 10
3.996922266725929
 20
7.585340223181396
 42
0.02340099999999997
 10
3.959401194899846
 20
7.572404489666735
 42
0.02373600000000007
 10
3.924538700263839
 20
7.556573541726505
 42
0.04456099999999999
 10
3.898386901818056
 20
7.540076079425305
 42
0.02778899999999994
 10
3.876380588791155
 20
7.52125997591256
 42
0.01147499999999991
 10
3.848670463502839
 20
7.49352082011543
 42
0.01111400000000006
 10
3.82275185900111
 20
7.465118237046195
 42
0.03675600000000009
 10
3.80755673263441
 20
7.44487886682909
 42
0.03416900000000005
 10
3.793429145346622
 20
7.419153561584445
 42
0.02802500000000015
 10
3.781858201949026
 20
7.39000241883075
 42
0.02607799999999992
 10
3.772897510927231
 20
7.357584661113305
 42
0.02113500000000008
 10
3.766605548868532
 20
7.32205452414155
 42
0.07207499999999968
 10
3.76743235438249
 20
7.246156188264045
 42
0.06600899999999989
 10
3.789539888304148
 20
7.171148714994605
 42
0.06425700000000023
 10
3.831189050990659
 20
7.10272487431521
 42
0.06195499999999976
 10
3.889300352557616
 20
7.046159195032735
 42
0.04035500000000003
 10
3.940376119217277
 20
7.01360073730322
 42
0.05664800000000052
 10
3.99067061492385
 20
6.993881066624366
 42
0.05572999999999985
 10
4.044738779941463
 20
6.985756857952801
 42
0.03747999999999983
 10
4.107207329350529
 20
6.98807728017716
 42
0.03330099999999987
 10
4.170007800180474
 20
6.99941627633967
 42
0.05261800000000015
 10
4.221362829648903
 20
7.018182511493705
 42
0.05449200000000026
 10
4.266399953638683
 20
7.046692905205095
 42
0.03896999999999983
 10
4.31002152864628
 20
7.08742342148369
 42
0.06572200000000021
 10
4.353388181353533
 20
7.14940516072442
 42
0.060678
 10
4.380622716854218
 20
7.22219242342367
 42
0.06144900000000034
 10
4.389362799755824
 20
7.298468334017105
 42
0.0711320000000001
 10
4.378394966663126
 20
7.37070526375776
 42
0.06485399999999984
 10
4.348035466084261
 20
7.43828318271902
 42
0.05706100000000011
 10
4.300255344897165
 20
7.499120680595775
 42
0.05647699999999971
 10
4.239410782336262
 20
7.548142880117259
 42
0.06071900000000013
 10
4.170555758455325
 20
7.580902414193135
 42
0.04238900000000001
 10
4.141825469028869
 20
7.587874366943076
 42
0.01655600000000002
 10
4.101253344156263
 20
7.592776070401505
 42
0.01651199999999998
 10
4.06054598104421
 20
7.59498054869187
 42
0.04373700000000001
  0
LWPOLYLINE
  5
77
100
AcDbEntity
  8
0
  6
ByLayer
 62
  256
370
   -1
100
AcDbPolyline
 90
   28
 70
    1
 43
0
 10
4.172784636621196
 20
7.531333265637385
 42
-0.05371999999999999
 10
4.186685916547798
 20
7.52065734054441
 42
-0.03270899999999973
 10
4.200713114080139
 20
7.505391982905865
 42
-0.03082300000000021
 10
4.211775697054387
 20
7.48976881979359
 42
-0.139520999999998
 10
4.214801637820271
 20
7.479135757742265
 42
-0.1947209999999933
 10
4.209724029663191
 20
7.466591965780193
 42
-0.001161000000000023
 10
4.121237495237533
 20
7.375625905319064
 42
-0.005301000000000143
 10
4.031779358956403
 20
7.286008071555878
 42
-0.007673000000000027
 10
3.950718282509461
 20
7.208910757853994
 42
-0.001569999999999694
 10
3.892641473223958
 20
7.155683408984475
 42
-0.02282699999999991
 10
3.871215592272161
 20
7.137889013154309
 42
-0.09056699999999704
 10
3.859795619393843
 20
7.132134145192315
 42
-0.336896000000008
 10
3.852736159547792
 20
7.134821752891205
 42
-0.07756799999999797
 10
3.847583273915914
 20
7.146931808866691
 42
-0.004682999999999918
 10
3.838237112354724
 20
7.185439443055881
 42
-0.005919999999999963
 10
3.829846998470477
 20
7.22351274758756
 42
-0.05130999999999958
 10
3.828072516039784
 20
7.240759007041595
 42
-0.1802610000000121
 10
3.831885308265572
 20
7.250991044374975
 42
-0.01135900000000001
 10
3.853831007489805
 20
7.275214658984475
 42
-0.01026599999999994
 10
3.889305695596047
 20
7.311121064596106
 42
-0.002201999999999956
 10
3.952378305183513
 20
7.371855085628541
 42
-0.002691999999999881
 10
4.038624800429673
 20
7.453292133879877
 42
-0.01000700000000001
 10
4.094238528364674
 20
7.503194925502215
 42
-0.009531000000000003
 10
4.133380618684233
 20
7.53564877841263
 42
-0.1704759999999949
 10
4.148586727963268
 20
7.5409506160826
 42
-0.07266800000000032
 10
4.152884430610397
 20
7.54031295412917
 42
-0.02148300000000015
 10
4.159183219884874
 20
7.538117796472521
 42
-0.02107100000000036
 10
4.166137362506703
 20
7.535008623041259
 42
-0.02125299999999959
  0
LWPOLYLINE
  5
78
100
AcDbEntity
  8
0
  6
ByLayer
 62
  256
370
   -1
100
AcDbPolyline
 90
   18
 70
    1
 43
0
 10
4.292339514724491
 20
7.207819709405995
 42
-0.04074400000000018
 10
4.291049645879668
 20
7.19425035090027
 42
-0.05422299999999839
 10
4.287574355581566
 20
7.18236862076715
 42
-0.03971200000000021
 10
4.280745240059069
 20
7.168999982405225
 42
-0.01193900000000003
 10
4.268303618865267
 20
7.149823639367909
 42
-0.02784500000000009
 10
4.236182043578294
 20
7.108012820085249
 42
-0.06198000000000047
 10
4.206488463689462
 20
7.081104269296075
 42
-0.08310199999999986
 10
4.177336727264832
 20
7.067144156579621
 42
-0.1000749999999991
 10
4.14711252429251
 20
7.064681490798755
 10
4.133083961317014
 20
7.066347272080885
 10
4.155108618775868
 20
7.092105407328346
 42
-0.004712000000000004
 10
4.20155452389915
 20
7.14539936607701
 42
-0.006810000000000039
 10
4.243684619411725
 20
7.191549504339478
 42
-0.001870999999999987
 10
4.281521286707915
 20
7.231578301570544
 42
-0.2942749999999565
 10
4.287262381504173
 20
7.23296743219603
 42
-0.2310019999999855
 10
4.289338983074705
 20
7.2308757513837
 42
-0.03214000000000004
 10
4.290976030683483
 20
7.22480671276184
 42
-0.03137499999999994
 10
4.292065951156719
 20
7.216870935245685
 42
-0.0217749999999997
  0
ENDSEC
  0
SECTION
  2
OBJECTS
  0
DICTIONARY
  5
C
330
0
100
AcDbDictionary
281
    1
  3
ACAD_GROUP
350
D
  0
DICTIONARY
  5
D
330
C
100
AcDbDictionary
281
    1
  0
ENDSEC
  0
EOF
