999
dxfrw 0.6.3
  0
SECTION
  2
HEADER
  9
$ACADVER
  1
AC1021
  9
$DWGCODEPAGE
  3
ANSI_1252
  9
$INSBASE
 10
0
 20
0
 30
0
  9
$EXTMIN
 10
0.03963570897420791
 20
0.06851290882287776
 30
0
  9
$EXTMAX
 10
22.48290110213323
 20
25.20591615343289
 30
0
  9
$LIMMIN
 10
0
 20
0
  9
$LIMMAX
 10
420
 20
297
  9
$ORTHOMODE
 70
    0
  9
$REGENMODE
 70
    1
  9
$FILLMODE
 70
    0
  9
$QTEXTMODE
 70
    0
  9
$MIRRTEXT
 70
    0
  9
$LTSCALE
 40
1
  9
$ATTMODE
 70
    0
  9
$TEXTSIZE
 40
2.5
  9
$TRACEWID
 40
15.68
  9
$TEXTSTYLE
  7
STANDARD
  9
$CLAYER
  8
0
  9
$CELTYPE
  6
BYLAYER
  9
$CECOLOR
 62
  256
  9
$CELTSCALE
 40
1
  9
$DISPSILH
 70
    0
  9
$DIMSCALE
 40
2.5
  9
$DIMASZ
 40
2.5
  9
$DIMEXO
 40
0.625
  9
$DIMDLI
 40
3.75
  9
$DIMRND
 40
0
  9
$DIMDLE
 40
0
  9
$DIMEXE
 40
1.25
  9
$DIMTP
 40
0
  9
$DIMTM
 40
0
  9
$DIMTXT
 40
2.5
  9
$DIMCEN
 40
2.5
  9
$DIMTSZ
 40
0
  9
$DIMTOL
 70
    0
  9
$DIMLIM
 70
    0
  9
$DIMTIH
 70
    0
  9
$DIMTOH
 70
    0
  9
$DIMSE1
 70
    0
  9
$DIMSE2
 70
    0
  9
$DIMTAD
 70
    1
  9
$DIMZIN
 70
    8
  9
$DIMBLK
  1

  9
$DIMASO
 70
    1
  9
$DIMSHO
 70
    1
  9
$DIMPOST
  1

  9
$DIMAPOST
  1

  9
$DIMALT
 70
    0
  9
$DIMALTD
 70
    3
  9
$DIMALTF
 40
0.03937
  9
$DIMLFAC
 40
1
  9
$DIMTOFL
 70
    1
  9
$DIMTVP
 40
0
  9
$DIMTIX
 70
    0
  9
$DIMSOXD
 70
    0
  9
$DIMSAH
 70
    0
  9
$DIMBLK1
  1

  9
$DIMBLK2
  1

  9
$DIMSTYLE
  2
Standard
  9
$DIMCLRD
 70
    0
  9
$DIMCLRE
 70
    0
  9
$DIMCLRT
 70
    0
  9
$DIMTFAC
 40
1
  9
$DIMGAP
 40
0.625
  9
$DIMJUST
 70
    0
  9
$DIMSD1
 70
    0
  9
$DIMSD2
 70
    0
  9
$DIMTOLJ
 70
    0
  9
$DIMTZIN
 70
    8
  9
$DIMALTZ
 70
    0
  9
$DIMALTTZ
 70
    0
  9
$DIMUPT
 70
    0
  9
$DIMDEC
 70
    2
  9
$DIMTDEC
 70
    2
  9
$DIMALTU
 70
    2
  9
$DIMALTTD
 70
    3
  9
$DIMTXSTY
  7
STANDARD
  9
$DIMAUNIT
 70
    0
  9
$DIMADEC
 70
    0
  9
$DIMALTRND
 40
0
  9
$DIMAZIN
 70
    0
  9
$DIMDSEP
 70
   44
  9
$DIMATFIT
 70
    3
  9
$DIMFRAC
 70
    0
  9
$DIMLDRBLK
  1
STANDARD
  9
$DIMLUNIT
 70
    2
  9
$DIMLWD
 70
   -2
  9
$DIMLWE
 70
   -2
  9
$DIMTMOVE
 70
    0
  9
$DIMFXL
 40
1
  9
$DIMFXLON
 70
    0
  9
$DIMJOGANG
 40
0.7854
  9
$DIMTFILL
 70
    0
  9
$DIMTFILLCLR
 70
    0
  9
$DIMARCSYM
 70
    0
  9
$DIMLTYPE
  6

  9
$DIMLTEX1
  6

  9
$DIMLTEX2
  6

  9
$LUNITS
 70
    2
  9
$LUPREC
 70
    4
  9
$SKETCHINC
 40
1
  9
$FILLETRAD
 40
0
  9
$AUNITS
 70
    0
  9
$AUPREC
 70
    2
  9
$MENU
  1
.
  9
$ELEVATION
 40
0
  9
$PELEVATION
 40
0
  9
$THICKNESS
 40
0
  9
$LIMCHECK
 70
    0
  9
$CHAMFERA
 40
0
  9
$CHAMFERB
 40
0
  9
$CHAMFERC
 40
0
  9
$CHAMFERD
 40
0
  9
$SKPOLY
 70
    0
  9
$USRTIMER
 70
    1
  9
$ANGBASE
 50
0
  9
$ANGDIR
 70
    0
  9
$PDMODE
 70
   34
  9
$PDSIZE
 40
0
  9
$PLINEWID
 40
0
  9
$SPLFRAME
 70
    1
  9
$SPLINETYPE
 70
    2
  9
$SPLINESEGS
 70
    8
  9
$HANDSEED
  5
20000
  9
$SURFTAB1
 70
    6
  9
$SURFTAB2
 70
    6
  9
$SURFTYPE
 70
    6
  9
$SURFU
 70
    6
  9
$SURFV
 70
    6
  9
$UCSBASE
  2

  9
$UCSNAME
  2

  9
$UCSORG
 10
0
 20
0
 30
0
  9
$UCSXDIR
 10
1
 20
0
 30
0
  9
$UCSYDIR
 10
0
 20
1
 30
0
  9
$UCSORTHOREF
  2

  9
$UCSORTHOVIEW
 70
    0
  9
$UCSORGTOP
 10
0
 20
0
 30
0
  9
$UCSORGBOTTOM
 10
0
 20
0
 30
0
  9
$UCSORGLEFT
 10
0
 20
0
 30
0
  9
$UCSORGRIGHT
 10
0
 20
0
 30
0
  9
$UCSORGFRONT
 10
0
 20
0
 30
0
  9
$UCSORGBACK
 10
0
 20
0
 30
0
  9
$PUCSBASE
  2

  9
$PUCSNAME
  2

  9
$PUCSORG
 10
0
 20
0
 30
0
  9
$PUCSXDIR
 10
1
 20
0
 30
0
  9
$PUCSYDIR
 10
0
 20
1
 30
0
  9
$PUCSORTHOREF
  2

  9
$PUCSORTHOVIEW
 70
    0
  9
$PUCSORGTOP
 10
0
 20
0
 30
0
  9
$PUCSORGBOTTOM
 10
0
 20
0
 30
0
  9
$PUCSORGLEFT
 10
0
 20
0
 30
0
  9
$PUCSORGRIGHT
 10
0
 20
0
 30
0
  9
$PUCSORGFRONT
 10
0
 20
0
 30
0
  9
$PUCSORGBACK
 10
0
 20
0
 30
0
  9
$USERI1
 70
    0
  9
$USERI2
 70
    0
  9
$USERI3
 70
    0
  9
$USERI4
 70
    0
  9
$USERI5
 70
    0
  9
$USERR1
 40
0
  9
$USERR2
 40
0
  9
$USERR3
 40
0
  9
$USERR4
 40
0
  9
$USERR5
 40
0
  9
$WORLDVIEW
 70
    1
  9
$SHADEDGE
 70
    3
  9
$SHADEDIF
 70
   70
  9
$TILEMODE
 70
    1
  9
$MAXACTVP
 70
   64
  9
$PINSBASE
 10
0
 20
0
 30
0
  9
$PLIMCHECK
 70
    0
  9
$PEXTMIN
 10
0
 20
0
 30
0
  9
$PEXTMAX
 10
0
 20
0
 30
0
  9
$GRIDMODE
 70
    1
  9
$SNAPSTYLE
 70
    0
  9
$PLIMMIN
 10
0
 20
0
  9
$PLIMMAX
 10
210
 20
297
  9
$UNITMODE
 70
    0
  9
$VISRETAIN
 70
    1
  9
$PLINEGEN
 70
    0
  9
$PSLTSCALE
 70
    1
  9
$TREEDEPTH
 70
 3020
  9
$CMLSTYLE
  2
Standard
  9
$CMLJUST
 70
    0
  9
$CMLSCALE
 40
20
  9
$PROXYGRAPHICS
 70
    1
  9
$MEASUREMENT
 70
    1
  9
$CELWEIGHT
370
   -1
  9
$ENDCAPS
280
    0
  9
$JOINSTYLE
280
    0
  9
$LWDISPLAY
290
    0
  9
$INSUNITS
 70
    4
  9
$HYPERLINKBASE
  1

  9
$STYLESHEET
  1

  9
$XEDIT
290
    1
  9
$CEPSNTYPE
380
    0
  9
$PSTYLEMODE
290
    1
  9
$EXTNAMES
290
    1
  9
$PSVPSCALE
 40
1
  9
$OLESTARTUP
290
    0
  9
$SORTENTS
280
  127
  9
$INDEXCTL
280
    0
  9
$HIDETEXT
280
    1
  9
$XCLIPFRAME
290
    0
  9
$HALOGAP
280
    0
  9
$OBSCOLOR
 70
  257
  9
$OBSLTYPE
280
    0
  9
$INTERSECTIONDISPLAY
280
    0
  9
$INTERSECTIONCOLOR
 70
  257
  9
$DIMASSOC
280
    1
  9
$PROJECTNAME
  1

  9
$CAMERADISPLAY
290
    0
  9
$LENSLENGTH
 40
50
  9
$CAMERAHEIGHT
 40
0
  9
$STEPSPERSEC
 40
2
  9
$STEPSIZE
 40
50
  9
$3DDWFPREC
 40
2
  9
$PSOLWIDTH
 40
5
  9
$PSOLHEIGHT
 40
80
  9
$LOFTANG1
 40
1.570796326794897
  9
$LOFTANG2
 40
1.570796326794897
  9
$LOFTMAG1
 40
0
  9
$LOFTMAG2
 40
0
  9
$LOFTPARAM
 70
    7
  9
$LOFTNORMALS
280
    1
  9
$LATITUDE
 40
1
  9
$LONGITUDE
 40
1
  9
$NORTHDIRECTION
 40
0
  9
$TIMEZONE
 70
-8000
  9
$LIGHTGLYPHDISPLAY
280
    1
  9
$TILEMODELIGHTSYNCH
280
    1
  9
$SOLIDHIST
280
    1
  9
$SHOWHIST
280
    1
  9
$DWFFRAME
280
    2
  9
$DGNFRAME
280
    0
  9
$REALWORLDSCALE
290
    1
  9
$INTERFERECOLOR
 62
    1
  9
$CSHADOW
280
    0
  9
$SHADOWPLANELOCATION
 40
0
  0
ENDSEC
  0
SECTION
  2
CLASSES
  0
ENDSEC
  0
SECTION
  2
TABLES
  0
TABLE
  2
VPORT
  5
8
330
0
100
AcDbSymbolTable
 70
    1
  0
VPORT
  5
31
330
2
100
AcDbSymbolTableRecord
100
AcDbViewportTableRecord
  2
*ACTIVE
 70
    0
 10
0
 20
0
 11
1
 21
1
 12
23.36146650820938
 22
10.36685104993928
 13
0
 23
0
 14
10
 24
10
 15
10
 25
10
 16
0
 26
0
 36
1
 17
0
 27
0
 37
0
 40
38.71145616175161
 41
1.855960264900662
 42
50
 43
0
 44
0
 50
0
 51
0
 71
    0
 72
  100
 73
    1
 74
    3
 75
    0
 76
    1
 77
    0
 78
    0
281
    0
 65
    1
110
0
120
0
130
0
111
1
121
0
131
0
112
0
122
1
132
0
 79
    0
146
0
348
10020
 60
    7
 61
    5
292
1
282
    1
141
0
142
0
 63
  250
421
3358443
  0
ENDTAB
  0
TABLE
  2
LTYPE
  5
5
330
0
100
AcDbSymbolTable
 70
    4
  0
LTYPE
  5
14
330
5
100
AcDbSymbolTableRecord
100
AcDbLinetypeTableRecord
  2
ByBlock
 70
    0
  3

 72
   65
 73
    0
 40
0
  0
LTYPE
  5
15
330
5
100
AcDbSymbolTableRecord
100
AcDbLinetypeTableRecord
  2
ByLayer
 70
    0
  3

 72
   65
 73
    0
 40
0
  0
LTYPE
  5
16
330
5
100
AcDbSymbolTableRecord
100
AcDbLinetypeTableRecord
  2
Continuous
 70
    0
  3
Solid line
 72
   65
 73
    0
 40
0
  0
LTYPE
  5
32
330
5
100
AcDbSymbolTableRecord
100
AcDbLinetypeTableRecord
  2
DOT
 70
    0
  3
Dot . . . . . . . . . . . . . . . . . . . . . .
 72
   65
 73
    2
 40
6.35
 49
0
 74
    0
 49
-6.35
 74
    0
  0
LTYPE
  5
33
330
5
100
AcDbSymbolTableRecord
100
AcDbLinetypeTableRecord
  2
DOTTINY
 70
    0
  3
Dot (.15x) .....................................
 72
   65
 73
    2
 40
0.9525
 49
0
 74
    0
 49
-0.9525
 74
    0
  0
LTYPE
  5
34
330
5
100
AcDbSymbolTableRecord
100
AcDbLinetypeTableRecord
  2
DOT2
 70
    0
  3
Dot (.5x) .....................................
 72
   65
 73
    2
 40
3.175
 49
0
 74
    0
 49
-3.175
 74
    0
  0
LTYPE
  5
35
330
5
100
AcDbSymbolTableRecord
100
AcDbLinetypeTableRecord
  2
DOTX2
 70
    0
  3
Dot (2x) .  .  .  .  .  .  .  .  .  .  .  .  .
 72
   65
 73
    2
 40
12.7
 49
0
 74
    0
 49
-12.7
 74
    0
  0
LTYPE
  5
36
330
5
100
AcDbSymbolTableRecord
100
AcDbLinetypeTableRecord
  2
DASHED
 70
    0
  3
Dashed _ _ _ _ _ _ _ _ _ _ _ _ _ _ _ _ _
 72
   65
 73
    2
 40
19.05
 49
12.7
 74
    0
 49
-6.35
 74
    0
  0
LTYPE
  5
37
330
5
100
AcDbSymbolTableRecord
100
AcDbLinetypeTableRecord
  2
DASHEDTINY
 70
    0
  3
Dashed (.15x) _ _ _ _ _ _ _ _ _ _ _ _ _ _ _ _ _
 72
   65
 73
    2
 40
2.8575
 49
1.905
 74
    0
 49
-0.9525
 74
    0
  0
LTYPE
  5
38
330
5
100
AcDbSymbolTableRecord
100
AcDbLinetypeTableRecord
  2
DASHED2
 70
    0
  3
Dashed (.5x) _ _ _ _ _ _ _ _ _ _ _ _ _ _ _ _ _
 72
   65
 73
    2
 40
9.524999999999999
 49
6.35
 74
    0
 49
-3.175
 74
    0
  0
LTYPE
  5
39
330
5
100
AcDbSymbolTableRecord
100
AcDbLinetypeTableRecord
  2
DASHEDX2
 70
    0
  3
Dashed (2x) ____  ____  ____  ____  ____  ___
 72
   65
 73
    2
 40
38.09999999999999
 49
25.4
 74
    0
 49
-12.7
 74
    0
  0
LTYPE
  5
3A
330
5
100
AcDbSymbolTableRecord
100
AcDbLinetypeTableRecord
  2
DASHDOT
 70
    0
  3
Dash dot __ . __ . __ . __ . __ . __ . __ . __
 72
   65
 73
    4
 40
25.4
 49
12.7
 74
    0
 49
-6.35
 74
    0
 49
0
 74
    0
 49
-6.35
 74
    0
  0
LTYPE
  5
3B
330
5
100
AcDbSymbolTableRecord
100
AcDbLinetypeTableRecord
  2
DASHDOTTINY
 70
    0
  3
Dash dot (.15x) _._._._._._._._._._._._._._._.
 72
   65
 73
    4
 40
3.81
 49
1.905
 74
    0
 49
-0.9525
 74
    0
 49
0
 74
    0
 49
-0.9525
 74
    0
  0
LTYPE
  5
3C
330
5
100
AcDbSymbolTableRecord
100
AcDbLinetypeTableRecord
  2
DASHDOT2
 70
    0
  3
Dash dot (.5x) _._._._._._._._._._._._._._._.
 72
   65
 73
    4
 40
12.7
 49
6.35
 74
    0
 49
-3.175
 74
    0
 49
0
 74
    0
 49
-3.175
 74
    0
  0
LTYPE
  5
3D
330
5
100
AcDbSymbolTableRecord
100
AcDbLinetypeTableRecord
  2
DASHDOTX2
 70
    0
  3
Dash dot (2x) ____  .  ____  .  ____  .  ___
 72
   65
 73
    4
 40
50.8
 49
25.4
 74
    0
 49
-12.7
 74
    0
 49
0
 74
    0
 49
-12.7
 74
    0
  0
LTYPE
  5
3E
330
5
100
AcDbSymbolTableRecord
100
AcDbLinetypeTableRecord
  2
DIVIDE
 70
    0
  3
Divide ____ . . ____ . . ____ . . ____ . . ____
 72
   65
 73
    6
 40
31.75
 49
12.7
 74
    0
 49
-6.35
 74
    0
 49
0
 74
    0
 49
-6.35
 74
    0
 49
0
 74
    0
 49
-6.35
 74
    0
  0
LTYPE
  5
3F
330
5
100
AcDbSymbolTableRecord
100
AcDbLinetypeTableRecord
  2
DIVIDETINY
 70
    0
  3
Divide (.15x) __..__..__..__..__..__..__..__.._
 72
   65
 73
    6
 40
4.7625
 49
1.905
 74
    0
 49
-0.9525
 74
    0
 49
0
 74
    0
 49
-0.9525
 74
    0
 49
0
 74
    0
 49
-0.9525
 74
    0
  0
LTYPE
  5
40
330
5
100
AcDbSymbolTableRecord
100
AcDbLinetypeTableRecord
  2
DIVIDE2
 70
    0
  3
Divide (.5x) __..__..__..__..__..__..__..__.._
 72
   65
 73
    6
 40
15.875
 49
6.35
 74
    0
 49
-3.175
 74
    0
 49
0
 74
    0
 49
-3.175
 74
    0
 49
0
 74
    0
 49
-3.175
 74
    0
  0
LTYPE
  5
41
330
5
100
AcDbSymbolTableRecord
100
AcDbLinetypeTableRecord
  2
DIVIDEX2
 70
    0
  3
Divide (2x) ________  .  .  ________  .  .  _
 72
   65
 73
    6
 40
63.5
 49
25.4
 74
    0
 49
-12.7
 74
    0
 49
0
 74
    0
 49
-12.7
 74
    0
 49
0
 74
    0
 49
-12.7
 74
    0
  0
LTYPE
  5
42
330
5
100
AcDbSymbolTableRecord
100
AcDbLinetypeTableRecord
  2
BORDER
 70
    0
  3
Border __ __ . __ __ . __ __ . __ __ . __ __ .
 72
   65
 73
    6
 40
44.45
 49
12.7
 74
    0
 49
-6.35
 74
    0
 49
12.7
 74
    0
 49
-6.35
 74
    0
 49
0
 74
    0
 49
-6.35
 74
    0
  0
LTYPE
  5
43
330
5
100
AcDbSymbolTableRecord
100
AcDbLinetypeTableRecord
  2
BORDERTINY
 70
    0
  3
Border (.15x) __.__.__.__.__.__.__.__.__.__.__.
 72
   65
 73
    6
 40
6.6675
 49
1.905
 74
    0
 49
-0.9525
 74
    0
 49
1.905
 74
    0
 49
-0.9525
 74
    0
 49
0
 74
    0
 49
-0.9525
 74
    0
  0
LTYPE
  5
44
330
5
100
AcDbSymbolTableRecord
100
AcDbLinetypeTableRecord
  2
BORDER2
 70
    0
  3
Border (.5x) __.__.__.__.__.__.__.__.__.__.__.
 72
   65
 73
    6
 40
22.225
 49
6.35
 74
    0
 49
-3.175
 74
    0
 49
6.35
 74
    0
 49
-3.175
 74
    0
 49
0
 74
    0
 49
-3.175
 74
    0
  0
LTYPE
  5
45
330
5
100
AcDbSymbolTableRecord
100
AcDbLinetypeTableRecord
  2
BORDERX2
 70
    0
  3
Border (2x) ____  ____  .  ____  ____  .  ___
 72
   65
 73
    6
 40
88.89999999999999
 49
25.4
 74
    0
 49
-12.7
 74
    0
 49
25.4
 74
    0
 49
-12.7
 74
    0
 49
0
 74
    0
 49
-12.7
 74
    0
  0
LTYPE
  5
46
330
5
100
AcDbSymbolTableRecord
100
AcDbLinetypeTableRecord
  2
CENTER
 70
    0
  3
Center ____ _ ____ _ ____ _ ____ _ ____ _ ____
 72
   65
 73
    4
 40
50.8
 49
31.75
 74
    0
 49
-6.35
 74
    0
 49
6.35
 74
    0
 49
-6.35
 74
    0
  0
LTYPE
  5
47
330
5
100
AcDbSymbolTableRecord
100
AcDbLinetypeTableRecord
  2
CENTERTINY
 70
    0
  3
Center (.15x) ___ _ ___ _ ___ _ ___ _ ___ _ ___
 72
   65
 73
    4
 40
7.62
 49
4.7625
 74
    0
 49
-0.9525
 74
    0
 49
0.9525
 74
    0
 49
-0.9525
 74
    0
  0
LTYPE
  5
48
330
5
100
AcDbSymbolTableRecord
100
AcDbLinetypeTableRecord
  2
CENTER2
 70
    0
  3
Center (.5x) ___ _ ___ _ ___ _ ___ _ ___ _ ___
 72
   65
 73
    4
 40
28.575
 49
19.05
 74
    0
 49
-3.175
 74
    0
 49
3.175
 74
    0
 49
-3.175
 74
    0
  0
LTYPE
  5
49
330
5
100
AcDbSymbolTableRecord
100
AcDbLinetypeTableRecord
  2
CENTERX2
 70
    0
  3
Center (2x) ________  __  ________  __  _____
 72
   65
 73
    4
 40
101.6
 49
63.5
 74
    0
 49
-12.7
 74
    0
 49
12.7
 74
    0
 49
-12.7
 74
    0
  0
ENDTAB
  0
TABLE
  2
LAYER
  5
2
330
0
100
AcDbSymbolTable
 70
    1
  0
LAYER
  5
10
330
2
100
AcDbSymbolTableRecord
100
AcDbLayerTableRecord
  2
0
 70
    0
 62
    7
  6
CONTINUOUS
370
   -3
390
F
  0
ENDTAB
  0
TABLE
  2
STYLE
  5
3
330
0
100
AcDbSymbolTable
 70
    3
  0
STYLE
  5
4A
330
2
100
AcDbSymbolTableRecord
100
AcDbTextStyleTableRecord
  2
Standard
 70
    0
 40
0
 41
1
 50
0
 71
    0
 42
1
  3
txt
  4

  0
ENDTAB
  0
TABLE
  2
VIEW
  5
6
330
0
100
AcDbSymbolTable
 70
    0
  0
ENDTAB
  0
TABLE
  2
UCS
  5
7
330
0
100
AcDbSymbolTable
 70
    0
  0
ENDTAB
  0
TABLE
  2
APPID
  5
9
330
0
100
AcDbSymbolTable
 70
    1
  0
APPID
  5
12
330
9
100
AcDbSymbolTableRecord
100
AcDbRegAppTableRecord
  2
ACAD
 70
    0
  0
APPID
  5
4B
330
9
100
AcDbSymbolTableRecord
100
AcDbRegAppTableRecord
  2
LibreCad
 70
    0
  0
ENDTAB
  0
TABLE
  2
DIMSTYLE
  5
A
330
0
100
AcDbSymbolTable
 70
    1
100
AcDbDimStyleTable
 71
    1
  0
DIMSTYLE
105
4C
330
A
100
AcDbSymbolTableRecord
100
AcDbDimStyleTableRecord
  2
Standard
 70
    0
 40
2.5
 41
2.5
 42
0.625
 43
0.38
 44
1.25
 45
0
 46
0
 47
0
 48
0
 49
1
140
2.5
141
0.09
142
0
143
25.4
144
1
145
0
146
1
147
0.625
148
0
 71
    0
 72
    0
 73
    0
 74
    1
 75
    0
 76
    0
 77
    0
 78
    8
 79
    0
170
    0
171
    2
172
    0
173
    0
174
    0
175
    0
176
    0
177
    0
178
    0
179
    0
271
    2
272
    4
273
    2
274
    2
275
    0
276
    0
277
    2
278
   44
279
    0
280
    0
281
    0
282
    0
283
    1
284
    0
285
    0
286
    0
288
    0
289
    3
340
STANDARD
341

371
   -2
372
   -2
  0
ENDTAB
  0
TABLE
  2
BLOCK_RECORD
  5
1
330
0
100
AcDbSymbolTable
 70
    2
  0
BLOCK_RECORD
  5
1F
330
1
100
AcDbSymbolTableRecord
100
AcDbBlockTableRecord
  2
*Model_Space
 70
    0
280
    1
281
    0
  0
BLOCK_RECORD
  5
1E
330
1
100
AcDbSymbolTableRecord
100
AcDbBlockTableRecord
  2
*Paper_Space
 70
    0
280
    1
281
    0
  0
ENDTAB
  0
ENDSEC
  0
SECTION
  2
BLOCKS
  0
BLOCK
  5
20
330
1F
100
AcDbEntity
  8
0
100
AcDbBlockBegin
  2
*Model_Space
 70
    0
 10
0
 20
0
 30
0
  3
*Model_Space
  1

  0
ENDBLK
  5
21
330
1F
100
AcDbEntity
  8
0
100
AcDbBlockEnd
  0
BLOCK
  5
1C
330
1B
100
AcDbEntity
  8
0
100
AcDbBlockBegin
  2
*Paper_Space
 70
    0
 10
0
 20
0
 30
0
  3
*Paper_Space
  1

  0
ENDBLK
  5
1D
330
1F
100
AcDbEntity
  8
0
100
AcDbBlockEnd
  0
ENDSEC
  0
SECTION
  2
ENTITIES
  0
LWPOLYLINE
  5
4D
100
AcDbEntity
  8
0
  6
ByLayer
 62
    0
370
   -1
100
AcDbPolyline
 90
   36
 70
    1
 43
0
 10
21.55641183467883
 20
5.722079311371316
 10
20.95286551080845
 20
4.608299740388505
 10
20.94373344813641
 20
4.592846392775948
 10
20.81778214219215
 20
4.525292848646144
 10
20.79963661506459
 20
4.52722599957542
 10
20.60857488825083
 20
4.548455080332506
 10
20.58615982532855
 20
4.552949952738611
 10
20.51915183299474
 20
4.603140717969884
 10
20.51974482407734
 20
4.682933598044555
 10
20.5319604403789
 20
4.701600957324805
 10
21.12269815686511
 20
5.768403774744037
 10
21.02675219970042
 20
5.795432308288948
 10
20.6729737198212
 20
6.06117533204536
 10
20.51084995783834
 20
6.428568887181076
 10
20.51084995783834
 20
6.550819928769911
 10
20.51084995783834
 20
6.703325375393005
 10
20.51084995783834
 20
6.785679976944509
 10
20.57513019119219
 20
7.03211521105146
 10
20.76109219469558
 20
7.294644223140173
 10
21.05379259306699
 20
7.469019180889558
 10
21.34471401819059
 20
7.532077852613255
 10
21.44184595752049
 20
7.532077852613255
 10
22.36394709096365
 20
7.532077852613255
 10
22.39347804687713
 20
7.532077852613255
 10
22.48290110213323
 20
7.440057496415371
 10
22.48290110213323
 20
7.409174520833558
 10
22.48290110213323
 20
4.680360016746068
 10
22.48290110213323
 20
4.650117471533465
 10
22.39347804687713
 20
4.557468544788025
 10
22.36394709096365
 20
4.557468544788025
 10
22.19399584669046
 20
4.557468544788025
 10
22.16387189969437
 20
4.557468544788025
 10
22.07504183552088
 20
4.650117471533465
 10
22.07504183552088
 20
4.680360016746068
 10
22.07504183552088
 20
5.722079311371316
 10
21.55641183467883
 20
5.722079311371316
  0
LWPOLYLINE
  5
4E
100
AcDbEntity
  8
0
  6
ByLayer
 62
    0
370
   -1
100
AcDbPolyline
 90
   13
 70
    1
 43
0
 10
22.07504183552088
 20
6.095912749664071
 10
22.07504183552088
 20
7.153725822271086
 10
21.44184595752049
 20
7.153725822271086
 10
21.34601859857231
 20
7.153725822271086
 10
21.05972250389298
 20
7.012807421401996
 10
20.92712969782361
 20
6.739355513571788
 10
20.92712969782361
 20
6.647987447564764
 10
20.92712969782361
 20
6.601651124370393
 10
20.92712969782361
 20
6.511587638745089
 10
21.05972250389298
 20
6.240685592570062
 10
21.34601859857231
 20
6.095912749664071
 10
21.44184595752049
 20
6.095912749664071
 10
22.07504183552088
 20
6.095912749664071
  0
LWPOLYLINE
  5
4F
100
AcDbEntity
  8
0
  6
ByLayer
 62
    0
370
   -1
100
AcDbPolyline
 90
   28
 70
    1
 43
0
 10
18.58944025199749
 20
5.386209162186621
 10
18.35141363144181
 20
4.621167646880928
 10
18.34500932774973
 20
4.603140717969884
 10
18.22546232549755
 20
4.525292848646144
 10
18.20660520907087
 20
4.52722599957542
 10
18.01554348225712
 20
4.552949952738611
 10
17.99431440150003
 20
4.556175824227958
 10
17.91841154292722
 20
4.679079156007653
 10
17.92612042700102
 20
4.697722795644601
 10
18.8655369000561
 20
7.434258043627541
 10
18.87075522158298
 20
7.451644542169379
 10
18.96907314307807
 20
7.532077852613255
 10
19.00192484905412
 20
7.532077852613255
 10
19.18847984364011
 20
7.532077852613255
 10
19.223347719297
 20
7.532077852613255
 10
19.32249582830774
 20
7.451644542169379
 10
19.32890013199982
 20
7.434258043627541
 10
20.26380987282714
 20
4.697722795644601
 10
20.27092576581833
 20
4.676493714887516
 10
20.25918454238285
 20
4.596060404443639
 10
20.18909299641952
 20
4.557468544788025
 10
20.16596634419812
 20
4.557468544788025
 10
19.96648414401144
 20
4.557468544788025
 10
19.9324464558702
 20
4.557468544788025
 10
19.83389133794206
 20
4.642396727638012
 10
19.83009619501342
 20
4.659130935988987
 10
19.60499678005842
 20
5.386209162186621
 10
18.58944025199749
 20
5.386209162186621
  0
LWPOLYLINE
  5
50
100
AcDbEntity
  8
0
  6
ByLayer
 62
    0
370
   -1
100
AcDbPolyline
 90
    4
 70
    1
 43
0
 10
19.49493763512785
 20
5.751681426214714
 10
19.09905678838402
 20
7.039195524577703
 10
18.70009238801067
 20
5.751681426214714
 10
19.49493763512785
 20
5.751681426214714
  0
LWPOLYLINE
  5
51
100
AcDbEntity
  8
0
  6
ByLayer
 62
    0
370
   -1
100
AcDbPolyline
 90
   32
 70
    1
 43
0
 10
17.59926374227184
 20
7.409174520833558
 10
17.59926374227184
 20
4.680360016746068
 10
17.59926374227184
 20
4.650117471533465
 10
17.50984068701575
 20
4.557468544788025
 10
17.48019113288575
 20
4.557468544788025
 10
16.47708741755942
 20
4.557468544788025
 10
16.38256463899296
 20
4.557468544788025
 10
16.10065667832487
 20
4.613435043163824
 10
15.83748723586695
 20
4.767221350525332
 10
15.68247936687528
 20
5.00014824777065
 10
15.6316007319882
 20
5.219554948332689
 10
15.6316007319882
 20
5.292267514881112
 10
15.62709399976043
 20
5.496232727652244
 10
15.62709399976043
 20
5.588893514219334
 10
15.72624210877117
 20
5.866852154277304
 10
15.92572430895784
 20
6.074683668906987
 10
15.97589135454581
 20
6.095912749664071
 10
15.92572430895784
 20
6.126155294876678
 10
15.76027979691242
 20
6.342347983771023
 10
15.69540657247596
 20
6.555978951188532
 10
15.69540657247596
 20
6.62675836680768
 10
15.69540657247596
 20
6.797255162876864
 10
15.69540657247596
 20
6.880262054619226
 10
15.75257091283861
 20
7.129282729846311
 10
15.9225221571118
 20
7.357702894863871
 10
16.20039777841821
 20
7.489607831277437
 10
16.48740546239666
 20
7.532077852613255
 10
16.58335141956135
 20
7.532077852613255
 10
17.48019113288575
 20
7.532077852613255
 10
17.50984068701575
 20
7.532077852613255
 10
17.59926374227184
 20
7.440057496415371
 10
17.59926374227184
 20
7.409174520833558
  0
LWPOLYLINE
  5
52
100
AcDbEntity
  8
0
  6
ByLayer
 62
    0
370
   -1
100
AcDbPolyline
 90
   13
 70
    1
 43
0
 10
16.48171274800369
 20
6.244563754250269
 10
17.19128587744298
 20
6.244563754250269
 10
17.19128587744298
 20
7.153725822271086
 10
16.57493094618843
 20
7.153725822271086
 10
16.48610088201493
 20
7.153725822271086
 10
16.21972928771097
 20
7.072011651088794
 10
16.10717958023347
 20
6.821081544575735
 10
16.10717958023347
 20
6.737422362642515
 10
16.10717958023347
 20
6.669228388143501
 10
16.10717958023347
 20
6.58943550806883
 10
16.20810666249201
 20
6.348787866928057
 10
16.41280718420557
 20
6.244563754250269
 10
16.48171274800369
 20
6.244563754250269
  0
LWPOLYLINE
  5
53
100
AcDbEntity
  8
0
  6
ByLayer
 62
    0
370
   -1
100
AcDbPolyline
 90
   13
 70
    1
 43
0
 10
16.48550789093234
 20
4.93130198308078
 10
17.19128587744298
 20
4.93130198308078
 10
17.19128587744298
 20
5.88744080466518
 10
16.44304972941817
 20
5.88744080466518
 10
16.36833285301056
 20
5.88744080466518
 10
16.14441942022076
 20
5.769684635482453
 10
16.04349233796222
 20
5.532903296200234
 10
16.04349233796222
 20
5.453774566138075
 10
16.04349233796222
 20
5.3437391408508
 10
16.04349233796222
 20
5.270386143933169
 10
16.14774017028332
 20
5.048394002250996
 10
16.400591567904
 20
4.93130198308078
 10
16.48550789093234
 20
4.93130198308078
  0
LWPOLYLINE
  5
54
100
AcDbEntity
  8
0
  6
ByLayer
 62
    0
370
   -1
100
AcDbPolyline
 90
   32
 70
    1
 43
0
 10
15.18958517901808
 20
7.409174520833558
 10
15.18958517901808
 20
4.680360016746068
 10
15.18958517901808
 20
4.650117471533465
 10
15.10016212376198
 20
4.557468544788025
 10
15.0706311678485
 20
4.557468544788025
 10
14.06812044360477
 20
4.557468544788025
 10
13.9734790668218
 20
4.557468544788025
 10
13.69168970437023
 20
4.613435043163824
 10
13.4279272708297
 20
4.767221350525332
 10
13.27280080362152
 20
5.00014824777065
 10
13.22192216873443
 20
5.219554948332689
 10
13.22192216873443
 20
5.292267514881112
 10
13.21812702580579
 20
5.496232727652244
 10
13.21812702580579
 20
5.588893514219334
 10
13.3171565366
 20
5.866852154277304
 10
13.51604574570407
 20
6.074683668906987
 10
13.56621279129204
 20
6.095912749664071
 10
13.51604574570407
 20
6.126155294876678
 10
13.35071983187517
 20
6.342347983771023
 10
13.2857280092222
 20
6.555978951188532
 10
13.2857280092222
 20
6.62675836680768
 10
13.2857280092222
 20
6.797255162876864
 10
13.2857280092222
 20
6.880262054619226
 10
13.34289234958485
 20
7.129282729846311
 10
13.51284359385804
 20
7.357702894863871
 10
13.79083781338096
 20
7.489607831277437
 10
14.07843848844201
 20
7.532077852613255
 10
14.17426584739018
 20
7.532077852613255
 10
15.0706311678485
 20
7.532077852613255
 10
15.10016212376198
 20
7.532077852613255
 10
15.18958517901808
 20
7.440057496415371
 10
15.18958517901808
 20
7.409174520833558
  0
LWPOLYLINE
  5
55
100
AcDbEntity
  8
0
  6
ByLayer
 62
    0
370
   -1
100
AcDbPolyline
 90
   13
 70
    1
 43
0
 10
14.07191558653341
 20
6.244563754250269
 10
14.78172591240573
 20
6.244563754250269
 10
14.78172591240573
 20
7.153725822271086
 10
14.16525238293467
 20
7.153725822271086
 10
14.07642231876117
 20
7.153725822271086
 10
13.8100507244572
 20
7.072011651088794
 10
13.69809400806231
 20
6.821081544575735
 10
13.69809400806231
 20
6.737422362642515
 10
13.69809400806231
 20
6.669228388143501
 10
13.69809400806231
 20
6.58943550806883
 10
13.79854669745477
 20
6.348787866928057
 10
14.0031286209518
 20
6.244563754250269
 10
14.07191558653341
 20
6.244563754250269
  0
LWPOLYLINE
  5
56
100
AcDbEntity
  8
0
  6
ByLayer
 62
    0
370
   -1
100
AcDbPolyline
 90
   13
 70
    1
 43
0
 10
14.07642231876117
 20
4.93130198308078
 10
14.78172591240573
 20
4.93130198308078
 10
14.78172591240573
 20
5.88744080466518
 10
14.033964157247
 20
5.88744080466518
 10
13.95877288797331
 20
5.88744080466518
 10
13.734740856967
 20
5.769684635482453
 10
13.63440676579105
 20
5.532903296200234
 10
13.63440676579105
 20
5.453774566138075
 10
13.63440676579105
 20
5.3437391408508
 10
13.63440676579105
 20
5.270386143933169
 10
13.73865459811215
 20
5.048394002250996
 10
13.99150599573284
 20
4.93130198308078
 10
14.07642231876117
 20
4.93130198308078
  0
LWPOLYLINE
  5
57
100
AcDbEntity
  8
0
  6
ByLayer
 62
    0
370
   -1
100
AcDbPolyline
 90
   17
 70
    1
 43
0
 10
12.78061820506344
 20
7.409174520833558
 10
12.78061820506344
 20
4.680360016746068
 10
12.78061820506344
 20
4.650117471533465
 10
12.69119514980734
 20
4.557468544788025
 10
12.66154559567734
 20
4.557468544788025
 10
12.49171294962066
 20
4.557468544788025
 10
12.46147040440806
 20
4.557468544788025
 10
12.37264034023456
 20
4.650117471533465
 10
12.37264034023456
 20
4.680360016746068
 10
12.37264034023456
 20
7.409174520833558
 10
12.37264034023456
 20
7.440057496415371
 10
12.46147040440806
 20
7.532077852613255
 10
12.49171294962066
 20
7.532077852613255
 10
12.66154559567734
 20
7.532077852613255
 10
12.69119514980734
 20
7.532077852613255
 10
12.78061820506344
 20
7.440057496415371
 10
12.78061820506344
 20
7.409174520833558
  0
LWPOLYLINE
  5
58
100
AcDbEntity
  8
0
  6
ByLayer
 62
    0
370
   -1
100
AcDbPolyline
 90
   27
 70
    1
 43
0
 10
11.28846288409515
 20
7.158220694677196
 10
11.28846288409515
 20
4.680360016746068
 10
11.28846288409515
 20
4.650117471533465
 10
11.19580209752806
 20
4.557468544788025
 10
11.16555955231545
 20
4.557468544788025
 10
10.99953390900908
 20
4.557468544788025
 10
10.96865093342726
 20
4.557468544788025
 10
10.87600200668182
 20
4.650117471533465
 10
10.87600200668182
 20
4.680360016746068
 10
10.87600200668182
 20
7.158220694677196
 10
10.20876844054019
 20
7.158220694677196
 10
10.17788546495838
 20
7.158220694677196
 10
10.08587696858215
 20
7.247667469576593
 10
10.08587696858215
 20
7.277269584419991
 10
10.08587696858215
 20
7.409174520833558
 10
10.08587696858215
 20
7.440057496415371
 10
10.17788546495838
 20
7.532077852613255
 10
10.20876844054019
 20
7.532077852613255
 10
11.96015574317794
 20
7.532077852613255
 10
11.98980529730794
 20
7.532077852613255
 10
12.07922835256404
 20
7.440057496415371
 10
12.07922835256404
 20
7.409174520833558
 10
12.07922835256404
 20
7.277269584419991
 10
12.07922835256404
 20
7.247667469576593
 10
11.98980529730794
 20
7.158220694677196
 10
11.96015574317794
 20
7.158220694677196
 10
11.28846288409515
 20
7.158220694677196
  0
LWPOLYLINE
  5
59
100
AcDbEntity
  8
0
  6
ByLayer
 62
    0
370
   -1
100
AcDbPolyline
 90
   37
 70
    1
 43
0
 10
8.818951520607035
 20
7.409174520833558
 10
8.818951520607035
 20
4.680360016746068
 10
8.818951520607035
 20
4.650117471533465
 10
8.729504745707633
 20
4.557468544788025
 10
8.699902630864237
 20
4.557468544788025
 10
8.530046265164264
 20
4.557468544788025
 10
8.499803719951659
 20
4.557468544788025
 10
8.410997375421466
 20
4.650117471533465
 10
8.410997375421466
 20
4.680360016746068
 10
8.410997375421466
 20
5.908681745243916
 10
7.263120817189151
 20
5.908681745243916
 10
7.263120817189151
 20
4.680360016746068
 10
7.263120817189151
 20
4.650117471533465
 10
7.17046003062206
 20
4.557468544788025
 10
7.140217485409453
 20
4.557468544788025
 10
6.970349259887828
 20
4.557468544788025
 10
6.940106714675221
 20
4.557468544788025
 10
6.851324089788337
 20
4.650117471533465
 10
6.851324089788337
 20
4.680360016746068
 10
6.851324089788337
 20
7.409174520833558
 10
6.851324089788337
 20
7.440057496415371
 10
6.940106714675221
 20
7.532077852613255
 10
6.970349259887828
 20
7.532077852613255
 10
7.140217485409453
 20
7.532077852613255
 10
7.17046003062206
 20
7.532077852613255
 10
7.263120817189151
 20
7.440057496415371
 10
7.263120817189151
 20
7.409174520833558
 10
7.263120817189151
 20
6.287021915764432
 10
8.410997375421466
 20
6.287021915764432
 10
8.410997375421466
 20
7.409174520833558
 10
8.410997375421466
 20
7.440057496415371
 10
8.499803719951659
 20
7.532077852613255
 10
8.530046265164264
 20
7.532077852613255
 10
8.699902630864237
 20
7.532077852613255
 10
8.729504745707633
 20
7.532077852613255
 10
8.818951520607035
 20
7.440057496415371
 10
8.818951520607035
 20
7.409174520833558
  0
LWPOLYLINE
  5
5A
100
AcDbEntity
  8
0
  6
ByLayer
 62
    0
370
   -1
100
AcDbPolyline
 90
   27
 70
    1
 43
0
 10
6.358441761752784
 20
6.647987447564764
 10
6.358441761752784
 20
5.441547090014862
 10
6.358441761752784
 20
5.3437391408508
 10
6.277368020939701
 20
5.048394002250996
 10
6.057309030186802
 20
4.751791722556078
 10
5.730452345457627
 20
4.563244277932553
 10
5.429307754069991
 20
4.497623884732023
 10
5.329590373619959
 20
4.497623884732023
 10
5.229208843157417
 20
4.497623884732023
 10
4.928087971413087
 20
4.563244277932553
 10
4.601859857231466
 20
4.751791722556078
 10
4.381812726300221
 20
5.048394002250996
 10
4.301379415856344
 20
5.3437391408508
 10
4.301379415856344
 20
5.441547090014862
 10
4.301379415856344
 20
6.647987447564764
 10
4.301379415856344
 20
6.747064397645591
 10
4.381812726300221
 20
7.043049966614605
 10
4.601859857231466
 20
7.340328256143687
 10
4.928087971413087
 20
7.527559260563842
 10
5.229208843157417
 20
7.591898793025953
 10
5.329590373619959
 20
7.591898793025953
 10
5.429307754069991
 20
7.591898793025953
 10
5.730452345457627
 20
7.527559260563842
 10
6.057309030186802
 20
7.340328256143687
 10
6.277368020939701
 20
7.043049966614605
 10
6.358441761752784
 20
6.747064397645591
 10
6.358441761752784
 20
6.647987447564764
  0
LWPOLYLINE
  5
5B
100
AcDbEntity
  8
0
  6
ByLayer
 62
    0
370
   -1
100
AcDbPolyline
 90
   27
 70
    1
 43
0
 10
5.942138302124212
 20
5.500739459880005
 10
5.942138302124212
 20
6.593289950105732
 10
5.942138302124212
 20
6.660855354057189
 10
5.893228397631358
 20
6.863539706089901
 10
5.761335321039442
 20
7.058503314227162
 10
5.565090852163764
 20
7.177528484326653
 10
5.385556871995758
 20
7.217424924363992
 10
5.325724071761409
 20
7.217424924363992
 10
5.266531701896266
 20
7.217424924363992
 10
5.088930872657534
 20
7.177528484326653
 10
4.895271844901997
 20
7.058503314227162
 10
4.765288199596055
 20
6.863539706089901
 10
4.717671015663264
 20
6.660855354057189
 10
4.717671015663264
 20
6.593289950105732
 10
4.717671015663264
 20
5.500739459880005
 10
4.717671015663264
 20
5.4331859157502
 10
4.765288199596055
 20
5.229208843157418
 10
4.895271844901997
 20
5.034245235020157
 10
5.088930872657534
 20
4.915860495289873
 10
5.266531701896266
 20
4.875964055252538
 10
5.325724071761409
 20
4.875964055252538
 10
5.385556871995758
 20
4.875964055252538
 10
5.565090852163764
 20
4.915860495289873
 10
5.761335321039442
 20
5.034245235020157
 10
5.893228397631358
 20
5.229208843157418
 10
5.942138302124212
 20
5.4331859157502
 10
5.942138302124212
 20
5.500739459880005
  0
LWPOLYLINE
  5
5C
100
AcDbEntity
  8
0
  6
ByLayer
 62
    0
370
   -1
100
AcDbPolyline
 90
   22
 70
    1
 43
0
 10
3.808497087820792
 20
7.409174520833558
 10
3.808497087820792
 20
4.680360016746068
 10
3.808497087820792
 20
4.650117471533465
 10
3.719062172743046
 20
4.557468544788025
 10
3.68946005789965
 20
4.557468544788025
 10
2.227571001787274
 20
4.557468544788025
 10
2.19668802620546
 20
4.557468544788025
 10
2.104027239638369
 20
4.650117471533465
 10
2.104027239638369
 20
4.680360016746068
 10
2.104027239638369
 20
4.812253093337985
 10
2.104027239638369
 20
4.842495638550589
 10
2.19668802620546
 20
4.93130198308078
 10
2.227571001787274
 20
4.93130198308078
 10
3.40055480245688
 20
4.93130198308078
 10
3.40055480245688
 20
7.409174520833558
 10
3.40055480245688
 20
7.440057496415371
 10
3.489361146987071
 20
7.532077852613255
 10
3.519603692199678
 20
7.532077852613255
 10
3.68946005789965
 20
7.532077852613255
 10
3.719062172743046
 20
7.532077852613255
 10
3.808497087820792
 20
7.440057496415371
 10
3.808497087820792
 20
7.409174520833558
  0
LWPOLYLINE
  5
5D
100
AcDbEntity
  8
0
  6
ByLayer
 62
    0
370
   -1
100
AcDbPolyline
 90
   37
 70
    1
 43
0
 10
1.802906367894038
 20
7.409174520833558
 10
1.802906367894038
 20
4.680360016746068
 10
1.802906367894038
 20
4.650117471533465
 10
1.713459592994639
 20
4.557468544788025
 10
1.683881197794546
 20
4.557468544788025
 10
0.2129774912444855
 20
4.557468544788025
 10
0.1820921436983419
 20
4.557468544788025
 10
0.09008115675956344
 20
4.650117471533465
 10
0.09008115675956344
 20
4.680360016746068
 10
0.09008115675956344
 20
4.812253093337985
 10
0.09008115675956344
 20
4.842495638550589
 10
0.1820921436983419
 20
4.93130198308078
 10
0.2129774912444855
 20
4.93130198308078
 10
1.394975942351778
 20
4.93130198308078
 10
1.394975942351778
 20
5.88744080466518
 10
0.4555535393858735
 20
5.88744080466518
 10
0.424669377821895
 20
5.88744080466518
 10
0.3320145211656296
 20
5.980101591232271
 10
0.3320145211656296
 20
6.010984566814087
 10
0.3320145211656296
 20
6.138382770999891
 10
0.3320145211656296
 20
6.169265746581704
 10
0.424669377821895
 20
6.261274242957935
 10
0.4555535393858735
 20
6.261274242957935
 10
1.394975942351778
 20
6.261274242957935
 10
1.394975942351778
 20
7.153725822271086
 10
0.2432188504749255
 20
7.153725822271086
 10
0.2123335029287818
 20
7.153725822271086
 10
0.1196798322546814
 20
7.243172597170487
 10
0.1196798322546814
 20
7.272750992370578
 10
0.1196798322546814
 20
7.409174520833558
 10
0.1196798322546814
 20
7.440057496415371
 10
0.2123335029287818
 20
7.532077852613255
 10
0.2432188504749255
 20
7.532077852613255
 10
1.683881197794546
 20
7.532077852613255
 10
1.713459592994639
 20
7.532077852613255
 10
1.802906367894038
 20
7.440057496415371
 10
1.802906367894038
 20
7.409174520833558
  0
LWPOLYLINE
  5
5E
100
AcDbEntity
  8
0
  6
ByLayer
 62
    0
370
   -1
100
AcDbPolyline
 90
   57
 70
    1
 43
0
 10
21.04679529829231
 20
1.158830289510108
 10
21.04679529829231
 20
2.250745093295288
 10
21.04679529829231
 20
2.317658207055885
 10
21.00552311894334
 20
2.516476257230048
 10
20.88905967032068
 20
2.710787575176445
 10
20.70973916694241
 20
2.83047689528845
 10
20.53528119044146
 20
2.871013765694994
 10
20.47728666256317
 20
2.871013765694994
 10
20.40328137545468
 20
2.871013765694994
 10
20.18257009451092
 20
2.810528675269782
 10
20.00906090374213
 20
2.677983308487009
 10
19.98451107292249
 20
2.641953170308225
 10
19.97490461738436
 20
2.626511682517321
 10
19.8525112579357
 20
2.564733871532041
 10
19.8359075076229
 20
2.569892893950662
 10
19.66607486156623
 20
2.612351055464829
 10
19.64662475405695
 20
2.618138648431007
 10
19.58044694923878
 20
2.746189142807673
 10
19.5894604136943
 20
2.764856502087923
 10
19.62290511075295
 20
2.839490359743971
 10
19.92141682173384
 20
3.119382150731218
 10
20.33840815101823
 20
3.249365796037162
 10
20.47728666256317
 20
3.249365796037162
 10
20.5758417804913
 20
3.249365796037162
 10
20.87115133962615
 20
3.18372168319333
 10
21.18377623837293
 20
2.994557527843898
 10
21.3891883493856
 20
2.697291098136469
 10
21.4637866275767
 20
2.403890970287591
 10
21.4637866275767
 20
2.306071161301877
 10
21.4637866275767
 20
1.098990373382766
 10
21.4637866275767
 20
1.001829970480905
 10
21.3891883493856
 20
0.7097095173882789
 10
21.18377623837293
 20
0.4124430876808491
 10
20.87115133962615
 20
0.2226290141048874
 10
20.5758417804913
 20
0.1557111564156313
 10
20.47728666256317
 20
0.1557111564156313
 10
20.33840815101823
 20
0.1557111564156313
 10
19.92141682173384
 20
0.2863293021799553
 10
19.62290511075295
 20
0.566224651113698
 10
19.5894604136943
 20
0.6402192643827037
 10
19.58044694923878
 20
0.6595234960856673
 10
19.64662475405695
 20
0.7882108628850454
 10
19.66607486156623
 20
0.7933580254820141
 10
19.8359075076229
 20
0.8358244888713379
 10
19.8525112579357
 20
0.8416156397840105
 10
19.97490461738436
 20
0.7792021423581845
 10
19.98451107292249
 20
0.7631154802694091
 10
20.00906090374213
 20
0.7270829701262966
 10
20.18257009451092
 20
0.5945364173613571
 10
20.40328137545468
 20
0.5340525129183123
 10
20.47728666256317
 20
0.5340525129183123
 10
20.53528119044146
 20
0.5340525129183123
 10
20.70973916694241
 20
0.5752321856583934
 10
20.88905967032068
 20
0.6949120179130764
 10
21.00552311894334
 20
0.8911600447352487
 10
21.04679529829231
 20
1.091912431820852
 10
21.04679529829231
 20
1.158830289510108
  0
LWPOLYLINE
  5
5F
100
AcDbEntity
  8
0
  6
ByLayer
 62
    0
370
   -1
100
AcDbPolyline
 90
   27
 70
    1
 43
0
 10
19.1048681009935
 20
2.306071161301877
 10
19.1048681009935
 20
1.098990373382766
 10
19.1048681009935
 20
1.001188354129532
 10
19.02386551911032
 20
0.7064931337562562
 10
18.80374722924916
 20
0.4092267040488259
 10
18.47760213381911
 20
0.2213422234556452
 10
18.17648126207478
 20
0.1557111564156313
 10
18.07662156376492
 20
0.1557111564156313
 10
17.97640607080551
 20
0.1557111564156313
 10
17.67528519906118
 20
0.2213422234556452
 10
17.34830991611548
 20
0.4092267040488259
 10
17.12819162625433
 20
0.7064931337562562
 10
17.04778203545375
 20
1.001188354129532
 10
17.04778203545375
 20
1.098990373382766
 10
17.04778203545375
 20
2.306071161301877
 10
17.04778203545375
 20
2.405171831026007
 10
17.12819162625433
 20
2.701145540173369
 10
17.34830991611548
 20
2.997771539511591
 10
17.67528519906118
 20
3.185002543931746
 10
17.97640607080551
 20
3.249365796037162
 10
18.07662156376492
 20
3.249365796037162
 10
18.17648126207478
 20
3.249365796037162
 10
18.47760213381911
 20
3.185002543931746
 10
18.80374722924916
 20
2.997771539511591
 10
19.02386551911032
 20
2.701145540173369
 10
19.1048681009935
 20
2.405171831026007
 10
19.1048681009935
 20
2.306071161301877
  0
LWPOLYLINE
  5
60
100
AcDbEntity
  8
0
  6
ByLayer
 62
    0
370
   -1
100
AcDbPolyline
 90
   27
 70
    1
 43
0
 10
18.68858836100823
 20
1.158830289510108
 10
18.68858836100823
 20
2.250745093295288
 10
18.68858836100823
 20
2.318298637425091
 10
18.63972589580198
 20
2.520982989457807
 10
18.5077260808152
 20
2.716587027964275
 10
18.31156463069108
 20
2.835612198063766
 10
18.13200693087977
 20
2.875508638101103
 10
18.07223342975368
 20
2.875508638101103
 10
18.01293432149367
 20
2.875508638101103
 10
17.8353927913632
 20
2.835612198063766
 10
17.64231489486861
 20
2.716587027964275
 10
17.51233124956267
 20
2.520982989457807
 10
17.46477336473814
 20
2.318298637425091
 10
17.46477336473814
 20
2.250745093295288
 10
17.46477336473814
 20
1.158830289510108
 10
17.46477336473814
 20
1.091268443505148
 10
17.51233124956267
 20
0.8872996727875221
 10
17.64231489486861
 20
0.6923384366145919
 10
17.8353927913632
 20
0.5739465809913163
 10
18.01293432149367
 20
0.5340525129183123
 10
18.07223342975368
 20
0.5340525129183123
 10
18.13200693087977
 20
0.5340525129183123
 10
18.31156463069108
 20
0.5739465809913163
 10
18.5077260808152
 20
0.6923384366145919
 10
18.63972589580198
 20
0.8872996727875221
 10
18.68858836100823
 20
1.091268443505148
 10
18.68858836100823
 20
1.158830289510108
  0
LWPOLYLINE
  5
61
100
AcDbEntity
  8
0
  6
ByLayer
 62
    0
370
   -1
100
AcDbPolyline
 90
   44
 70
    1
 43
0
 10
16.55500644581307
 20
3.066617804201464
 10
16.55500644581307
 20
0.3384484744118434
 10
16.55500644581307
 20
0.3075631268656996
 10
16.46558339055697
 20
0.2149082702094342
 10
16.43593383642697
 20
0.2149082702094342
 10
16.27060792259806
 20
0.2149082702094342
 10
16.24036537738546
 20
0.2149082702094342
 10
16.15023073283024
 20
0.318500254393176
 10
16.15153531321196
 20
0.3384484744118434
 10
16.15995578658488
 20
2.216636246224131
 10
15.63290531236991
 20
1.095128815452875
 10
15.62519642829611
 20
1.080328944013341
 10
15.52225317635673
 20
1.005691528410798
 10
15.48809688999897
 20
1.005691528410798
 10
15.22504604575757
 20
1.005691528410798
 10
15.18828059863636
 20
1.005691528410798
 10
15.08853949854302
 20
1.080328944013341
 10
15.08023762338662
 20
1.095128815452875
 10
14.52365619325817
 20
2.289336952950903
 10
14.53646480064233
 20
0.3384484744118434
 10
14.53646480064233
 20
0.3075631268656996
 10
14.44704174538623
 20
0.2149082702094342
 10
14.41751078947275
 20
0.2149082702094342
 10
14.24755954519956
 20
0.2149082702094342
 10
14.21731699998695
 20
0.2149082702094342
 10
14.12860553402998
 20
0.3075631268656996
 10
14.12860553402998
 20
0.3384484744118434
 10
14.12860553402998
 20
3.066617804201464
 10
14.12860553402998
 20
3.097500779783278
 10
14.21731699998695
 20
3.190161566350366
 10
14.24755954519956
 20
3.190161566350366
 10
14.38786123534275
 20
3.190161566350366
 10
14.42391509316483
 20
3.190161566350366
 10
14.52424918434077
 20
3.116808569432734
 10
14.53207666663109
 20
3.100714791450969
 10
15.34400005692714
 20
1.392402361053296
 10
16.15995578658488
 20
3.100714791450969
 10
16.16636009027696
 20
3.116808569432734
 10
16.26289903852426
 20
3.190161566350366
 10
16.29563214628378
 20
3.190161566350366
 10
16.43593383642697
 20
3.190161566350366
 10
16.46558339055697
 20
3.190161566350366
 10
16.55500644581307
 20
3.097500779783278
 10
16.55500644581307
 20
3.066617804201464
  0
LWPOLYLINE
  5
62
100
AcDbEntity
  8
0
  6
ByLayer
 62
    0
370
   -1
100
AcDbPolyline
 90
   28
 70
    1
 43
0
 10
13.60938254210533
 20
3.066617804201464
 10
13.60938254210533
 20
0.3384484744118434
 10
13.60938254210533
 20
0.3075631268656996
 10
13.51984088863271
 20
0.2149082702094342
 10
13.49030993271923
 20
0.2149082702094342
 10
13.32047728666256
 20
0.2149082702094342
 10
13.29023474144996
 20
0.2149082702094342
 10
13.20140467727647
 20
0.3075631268656996
 10
13.20140467727647
 20
0.3384484744118434
 10
13.20140467727647
 20
1.103493547664032
 10
12.56820879927608
 20
1.103493547664032
 10
12.47107685994618
 20
1.103493547664032
 10
12.18086702412169
 20
1.170411405353288
 10
11.88947120613201
 20
1.360226664911414
 10
11.70539491427128
 20
1.657493094618845
 10
11.64169581217838
 20
1.949612361729306
 10
11.64169581217838
 20
2.046779880524158
 10
11.64169581217838
 20
2.246878791436736
 10
11.64169581217838
 20
2.344686740600796
 10
11.70539491427128
 20
2.638086868449675
 10
11.88947120613201
 20
2.935353298157102
 10
12.18086702412169
 20
3.124541173149839
 10
12.47107685994618
 20
3.190161566350366
 10
12.56820879927608
 20
3.190161566350366
 10
13.49030993271923
 20
3.190161566350366
 10
13.51984088863271
 20
3.190161566350366
 10
13.60938254210533
 20
3.097500779783278
 10
13.60938254210533
 20
3.066617804201464
  0
LWPOLYLINE
  5
63
100
AcDbEntity
  8
0
  6
ByLayer
 62
    0
370
   -1
100
AcDbPolyline
 90
   13
 70
    1
 43
0
 10
12.56820879927608
 20
1.481837276131043
 10
13.20140467727647
 20
1.481837276131043
 10
13.20140467727647
 20
2.8118095360082
 10
12.56820879927608
 20
2.8118095360082
 10
12.4723814403279
 20
2.8118095360082
 10
12.18667833673117
 20
2.653540216062232
 10
12.05408553066179
 20
2.307363881861945
 10
12.05408553066179
 20
2.191540863608495
 10
12.05408553066179
 20
2.102105948530748
 10
12.05408553066179
 20
1.986935220468156
 10
12.18667833673117
 20
1.64075888626787
 10
12.4723814403279
 20
1.481837276131043
 10
12.56820879927608
 20
1.481837276131043
  0
LWPOLYLINE
  5
64
100
AcDbEntity
  8
0
  6
ByLayer
 62
    0
370
   -1
100
AcDbPolyline
 90
   52
 70
    1
 43
0
 10
10.29369662339018
 20
0.521183420443725
 10
10.3889191314341
 20
0.521183420443725
 10
10.67525080557839
 20
0.6569487288050175
 10
10.7955805560596
 20
0.9857456803564602
 10
10.7955805560596
 20
1.095128815452875
 10
10.79107382383184
 20
3.100714791450969
 10
10.79107382383184
 20
3.12387702313733
 10
10.82646353164141
 20
3.193375578018059
 10
10.90239010985753
 20
3.218470960633696
 10
10.9229787602454
 20
3.21524508914435
 10
11.09735371799479
 20
3.194016008387266
 10
11.11536878708418
 20
3.191442427088782
 10
11.20802957365127
 20
3.094939058306443
 10
11.20802957365127
 20
3.062763362164561
 10
11.20802957365127
 20
1.039793259588964
 10
11.20802957365127
 20
0.9426352286514331
 10
11.15332021637058
 20
0.6511587638745103
 10
10.99118459456607
 20
0.3751226009063289
 10
10.7215752689511
 20
0.2104027239638385
 10
10.43910989666537
 20
0.1557111564156313
 10
10.34516824935987
 20
0.1557111564156313
 10
10.23837055538359
 20
0.1557111564156313
 10
9.918570464537353
 20
0.2548011523002732
 10
9.64059996465773
 20
0.4343197147001319
 10
9.601367674632908
 20
0.4742137827731361
 10
9.598141803143562
 20
0.4594127253514377
 10
9.548603328103152
 20
0.2908336624433857
 10
9.541523014576905
 20
0.2747470003546102
 10
9.535083131419871
 20
0.2567307452830539
 10
9.405763636126439
 20
0.2091171192967616
 10
9.389029427775462
 20
0.2155510725429726
 10
9.235883550783162
 20
0.2663834541256184
 10
9.217228051324565
 20
0.2741030120389064
 10
9.161249693127115
 20
0.4053651461189339
 10
9.167689576284152
 20
0.4233814011904904
 10
9.182478773884199
 20
0.4671358412112214
 10
9.2275223765185
 20
0.674964983876574
 10
9.240402142832577
 20
0.9271925548783612
 10
9.239761712463368
 20
0.9928224359362099
 10
9.244256584869476
 20
3.066617804201464
 10
9.244256584869476
 20
3.097500779783278
 10
9.333051069578016
 20
3.190161566350366
 10
9.363293614790621
 20
3.190161566350366
 10
9.533149980490592
 20
3.190161566350366
 10
9.564044815894061
 20
3.190161566350366
 10
9.656693742639497
 20
3.097500779783278
 10
9.656693742639497
 20
3.066617804201464
 10
9.656693742639497
 20
0.8396848608190643
 10
9.685014996744478
 20
0.7997919787282255
 10
9.906342988414139
 20
0.6202734163283666
 10
10.19652910459533
 20
0.521183420443725
 10
10.29369662339018
 20
0.521183420443725
  0
LWPOLYLINE
  5
65
100
AcDbEntity
  8
0
  6
ByLayer
 62
    0
370
   -1
100
AcDbPolyline
 90
   27
 70
    1
 43
0
 10
8.164562141314519
 20
2.816328128057612
 10
8.164562141314519
 20
0.3384484744118434
 10
8.164562141314519
 20
0.3075631268656996
 10
8.071913214569081
 20
0.2149082702094342
 10
8.041030238987265
 20
0.2149082702094342
 10
7.875668745693403
 20
0.2149082702094342
 10
7.844773910289937
 20
0.2149082702094342
 10
7.752124983544496
 20
0.3075631268656996
 10
7.752124983544496
 20
0.3384484744118434
 10
7.752124983544496
 20
2.816328128057612
 10
7.084879557581215
 20
2.816328128057612
 10
7.053996581999399
 20
2.816328128057612
 10
6.961335795432308
 20
2.905751183313707
 10
6.961335795432308
 20
2.935353298157102
 10
6.961335795432308
 20
3.066617804201464
 10
6.961335795432308
 20
3.097500779783278
 10
7.053996581999399
 20
3.190161566350366
 10
7.084879557581215
 20
3.190161566350366
 10
8.835662009314703
 20
3.190161566350366
 10
8.865264124158101
 20
3.190161566350366
 10
8.954710899057501
 20
3.097500779783278
 10
8.954710899057501
 20
3.066617804201464
 10
8.954710899057501
 20
2.935353298157102
 10
8.954710899057501
 20
2.905751183313707
 10
8.865264124158101
 20
2.816328128057612
 10
8.835662009314703
 20
2.816328128057612
 10
8.164562141314519
 20
2.816328128057612
  0
LWPOLYLINE
  5
66
100
AcDbEntity
  8
0
  6
ByLayer
 62
    0
370
   -1
100
AcDbPolyline
 90
   17
 70
    1
 43
0
 10
6.66793566758343
 20
3.066617804201464
 10
6.66793566758343
 20
0.3384484744118434
 10
6.66793566758343
 20
0.3075631268656996
 10
6.578500752505684
 20
0.2149082702094342
 10
6.548898637662287
 20
0.2149082702094342
 10
6.379030412140664
 20
0.2149082702094342
 10
6.348787866928055
 20
0.2149082702094342
 10
6.259993382219516
 20
0.3075631268656996
 10
6.259993382219516
 20
0.3384484744118434
 10
6.259993382219516
 20
3.066617804201464
 10
6.259993382219516
 20
3.097500779783278
 10
6.348787866928055
 20
3.190161566350366
 10
6.379030412140664
 20
3.190161566350366
 10
6.548898637662287
 20
3.190161566350366
 10
6.578500752505684
 20
3.190161566350366
 10
6.66793566758343
 20
3.097500779783278
 10
6.66793566758343
 20
3.066617804201464
  0
LWPOLYLINE
  5
67
100
AcDbEntity
  8
0
  6
ByLayer
 62
    0
370
   -1
100
AcDbPolyline
 90
   35
 70
    1
 43
0
 10
5.741387101020773
 20
3.066617804201464
 10
5.741387101020773
 20
0.3384484744118434
 10
5.741387101020773
 20
0.3075631268656996
 10
5.651952185943026
 20
0.2149082702094342
 10
5.622350071099627
 20
0.2149082702094342
 10
5.456336287614907
 20
0.2149082702094342
 10
5.42674603259316
 20
0.2149082702094342
 10
5.337951547884622
 20
0.3075631268656996
 10
5.337951547884622
 20
0.3384484744118434
 10
5.350179024007837
 20
2.441842399573996
 10
4.194558002236762
 20
0.2998411969880811
 10
4.188129978901378
 20
0.2850425115307132
 10
4.08774844843883
 20
0.2149082702094342
 10
4.054291891558532
 20
0.2149082702094342
 10
3.820724563944007
 20
0.2149082702094342
 10
3.7904820187314
 20
0.2149082702094342
 10
3.701699393844514
 20
0.3075631268656996
 10
3.701699393844514
 20
0.3384484744118434
 10
3.701699393844514
 20
3.066617804201464
 10
3.701699393844514
 20
3.097500779783278
 10
3.7904820187314
 20
3.190161566350366
 10
3.820724563944007
 20
3.190161566350366
 10
3.986086057237871
 20
3.190161566350366
 10
4.016969032819683
 20
3.190161566350366
 10
4.109629819386775
 20
3.097500779783278
 10
4.109629819386775
 20
3.066617804201464
 10
4.096761912894353
 20
0.9548603328103169
 10
5.256877807071537
 20
3.10523338350038
 10
5.263946260776128
 20
3.120022581100428
 10
5.366901372537157
 20
3.190161566350366
 10
5.401650649977523
 20
3.190161566350366
 10
5.622350071099627
 20
3.190161566350366
 10
5.651952185943026
 20
3.190161566350366
 10
5.741387101020773
 20
3.097500779783278
 10
5.741387101020773
 20
3.066617804201464
  0
LWPOLYLINE
  5
68
100
AcDbEntity
  8
0
  6
ByLayer
 62
    0
370
   -1
100
AcDbPolyline
 90
   70
 70
    1
 43
0
 10
3.206231624688828
 20
2.306071161301877
 10
3.206231624688828
 20
1.095128815452875
 10
3.206231624688828
 20
0.997969598533179
 10
3.147051114645337
 20
0.70456235479131
 10
2.975249738194436
 20
0.4085827157331225
 10
2.700493249982505
 20
0.2213422234556452
 10
2.422534609924534
 20
0.1557111564156313
 10
2.330526113548303
 20
0.1557111564156313
 10
2.227571001787274
 20
0.1557111564156313
 10
1.920662537076766
 20
0.2451496294398739
 10
1.64847963016332
 20
0.41887704092706
 10
1.604088317719877
 20
0.4613435043163837
 10
1.553257122119396
 20
0.2747470003546102
 10
1.548750389891635
 20
0.2567307452830539
 10
1.459315474813889
 20
0.1724418068201105
 10
1.429713359970492
 20
0.1724418068201105
 10
1.336412143034192
 20
0.1724418068201105
 10
1.308755038941723
 20
0.1724418068201105
 10
1.225748147199361
 20
0.2650966634763762
 10
1.225748147199361
 20
0.2959820110225198
 10
1.225748147199361
 20
1.685802488902173
 10
1.225748147199361
 20
1.716045034114779
 10
1.3145426319079
 20
1.804839518823318
 10
1.344785177120505
 20
1.804839518823318
 10
2.109826692426198
 20
1.804839518823318
 10
2.140069237638803
 20
1.804839518823318
 10
2.232730024205894
 20
1.716045034114779
 10
2.232730024205894
 20
1.685802488902173
 10
2.232730024205894
 20
1.558404284716368
 10
2.232730024205894
 20
1.528802169872971
 10
2.140069237638803
 20
1.439367254795224
 10
2.109826692426198
 20
1.439367254795224
 10
1.633690432563274
 20
1.434860522567463
 10
1.633690432563274
 20
0.8396848608190643
 10
1.67164186184968
 20
0.7882108628850454
 10
1.913582223550521
 20
0.6048307425552951
 10
2.168390491743784
 20
0.5256877807071551
 10
2.253959104962978
 20
0.5256877807071551
 10
2.351755194305386
 20
0.5256877807071551
 10
2.646448042714332
 20
0.690407657649646
 10
2.789940024881905
 20
1.038506468939722
 10
2.789940024881905
 20
1.154324743264513
 10
2.789940024881905
 20
2.250745093295288
 10
2.789940024881905
 20
2.317658207055885
 10
2.746189142807669
 20
2.516476257230048
 10
2.62521896195725
 20
2.711439865367307
 10
2.439909248644718
 20
2.831117325657657
 10
2.262332139049292
 20
2.8716541960642
 10
2.203127909362498
 20
2.8716541960642
 10
2.128494051706449
 20
2.8716541960642
 10
1.906501910024276
 20
2.811169105638991
 10
1.730193801345614
 20
2.677983308487009
 10
1.705750708920838
 20
2.641953170308225
 10
1.694815953357692
 20
2.626511682517321
 10
1.566765458981026
 20
2.564733871532041
 10
1.548750389891635
 20
2.569892893950662
 10
1.387255198456324
 20
2.612351055464829
 10
1.366654688246797
 20
2.618138648431007
 10
1.297808423556926
 20
2.746189142807673
 10
1.306181457643239
 20
2.764856502087923
 10
1.340918875261953
 20
2.839490359743971
 10
1.64462518812642
 20
3.119382150731218
 10
2.063490369231826
 20
3.249365796037162
 10
2.203127909362498
 20
3.249365796037162
 10
2.303509439825044
 20
3.249365796037162
 10
2.605270741938582
 20
3.18372168319333
 10
2.922485391664678
 20
2.994557527843898
 10
3.130957336663571
 20
2.697291098136469
 10
3.206231624688828
 20
2.403890970287591
 10
3.206231624688828
 20
2.306071161301877
  0
LWPOLYLINE
  5
69
100
AcDbEntity
  8
0
  6
ByLayer
 62
    0
370
   -1
100
AcDbPolyline
 90
   23
 70
    1
 43
0
 10
11.86824212537492
 20
8.474056047145165
 10
11.94663554649465
 20
8.481776791040621
 10
12.41130335882009
 20
8.573156716869294
 10
12.97618666410495
 20
8.73658505923388
 10
13.10486572902917
 20
8.780335941308117
 10
13.16535081945438
 20
8.800924591695994
 10
13.34099477812053
 20
8.883931483438355
 10
13.26639649992943
 20
8.907093715124715
 10
13.24315124949151
 20
8.904520133826228
 10
13.02315155784687
 20
8.880077041401453
 10
12.3610177150156
 20
8.836314299505565
 10
11.41456836772089
 20
8.813792498188414
 10
10.52855667156477
 20
8.836954729874773
 10
10.00158921610137
 20
8.877491600281314
 10
9.828495119090396
 20
8.905160564195437
 10
9.811760910739423
 20
8.90837457586313
 10
9.755794412363626
 20
8.883931483438355
 10
9.860670815232281
 20
8.811859347259137
 10
9.89927453470955
 20
8.795125138908162
 10
10.06527645837262
 20
8.724345723289014
 10
10.87858744780196
 20
8.504298592357772
 10
11.69831460074503
 20
8.457974128985049
 10
11.86824212537492
 20
8.474056047145165
  0
LWPOLYLINE
  5
6A
100
AcDbEntity
  8
0
  6
ByLayer
 62
    0
370
   -1
100
AcDbPolyline
 90
   91
 70
    1
 43
0
 10
12.51092586069691
 20
9.203079284093729
 10
12.51223044107863
 20
9.205000575201353
 10
12.64221408638457
 20
9.2198134924447
 10
12.88486603738453
 20
9.238457132081653
 10
12.9427419670463
 20
9.241683003570994
 10
13.00061789670807
 20
9.245537445607896
 10
13.31205681328964
 20
9.271285118414392
 10
13.57522625574757
 20
9.298301792137652
 10
13.60938254210533
 20
9.302808524365412
 10
13.64282723916398
 20
9.307955686962378
 10
13.81325287630325
 20
9.33046562845788
 10
13.94525269129003
 20
9.347199836808857
 10
13.95995887013851
 20
9.348492557368925
 10
14.05649781838581
 20
9.360067743301277
 10
14.3467076542103
 20
9.408977647794133
 10
14.8241840739199
 20
9.502907435277988
 10
15.32217798508746
 20
9.617437732971373
 10
15.65935271465388
 20
9.703670496203079
 10
15.77130943104877
 20
9.735846192344962
 10
15.84270555739383
 20
9.757075273102044
 10
16.05630094534638
 20
9.825909677970266
 10
16.31626823595827
 20
9.919222754728217
 10
16.50092565907994
 20
9.996430193682748
 10
16.56081775842255
 20
10.03824792482771
 10
16.56081775842255
 20
10.03824792482771
 10
16.55808999944259
 20
10.04082150612619
 10
16.47530844431162
 20
10.0376074944585
 10
16.33038142372415
 20
10.01829970480904
 10
16.29693672666551
 20
10.01188354129531
 10
16.26289903852426
 20
10.00608408850748
 10
15.83558966440263
 20
9.939159114925234
 10
15.80155197626138
 20
9.934011952328262
 10
15.76680269882101
 20
9.929517079922153
 10
15.60847407976679
 20
9.905702558044933
 10
15.50493783674481
 20
9.888339779146403
 10
15.49782194375361
 20
9.886394768395474
 10
15.46307266631324
 20
9.878685884321676
 10
15.22433445645844
 20
9.84780290873986
 10
14.7205292326814
 20
9.789891399613136
 10
14.14722545402362
 20
9.731327600295549
 10
13.7875170633184
 20
9.697871043415251
 10
13.6678514628497
 20
9.688869438781383
 10
13.62610489063465
 20
9.685655427113689
 10
13.32237485812689
 20
9.664426346356601
 10
12.98069339633271
 20
9.640599964657735
 10
12.9196153148249
 20
9.636105092251626
 10
12.77219773169051
 20
9.626451197426894
 10
12.28131971351415
 20
9.613583290934473
 10
11.40940934530227
 20
9.606502977408224
 10
10.54142457805719
 20
9.613583290934473
 10
10.05819614484637
 20
9.626451197426894
 10
9.916637313608076
 20
9.636105092251626
 10
9.540242153838491
 20
9.663133625796538
 10
8.059045308076655
 20
9.814974922407117
 10
6.786960837682921
 20
10.0337530524216
 10
6.516082511151199
 20
10.09423814284681
 10
6.467172606658339
 20
10.10517289840996
 10
6.31919761190631
 20
10.1309087113948
 10
6.314038589487689
 20
10.10258745728982
 10
6.317904891346243
 20
10.09873301525292
 10
6.326277925432557
 20
10.09101227135746
 10
6.442729514233562
 20
10.04340694724633
 10
6.704606236131418
 20
9.948172579380754
 10
7.009593409734302
 20
9.845857897988934
 10
7.199409855274596
 20
9.786036957576234
 10
7.263761247558358
 20
9.768650459034399
 10
7.283045317564514
 20
9.763503296437431
 10
7.544933899284021
 20
9.692071590627423
 10
7.567455700601172
 20
9.685655427113689
 10
7.589977501918328
 20
9.679855974325861
 10
7.87245473402571
 20
9.61166199982685
 10
7.89496467552121
 20
9.606502977408224
 10
7.916846046469153
 20
9.602008105002119
 10
8.088006992550847
 20
9.561471234595578
 10
8.093142295326162
 20
9.559538083666302
 10
8.140119048889742
 20
9.541523014576908
 10
8.422584421175474
 20
9.486837376939528
 10
9.013903268922641
 20
9.39224343944316
 10
9.694016601378348
 20
9.301527663626997
 10
10.14120303658874
 20
9.251336898395724
 10
10.29048261172249
 20
9.239761712463368
 10
10.33808793583362
 20
9.236523981152374
 10
10.4822203483704
 20
9.23010781763864
 10
10.77756548697021
 20
9.220453922813908
 10
11.13595743747206
 20
9.211440458358389
 10
11.51944477058954
 20
9.204360144832146
 10
11.88816662575028
 20
9.199212982235174
 10
12.20209610487878
 20
9.196627541115038
 10
12.42280738582253
 20
9.197920261675108
 10
12.50523314630395
 20
9.197920261675108
 10
12.51092586069691
 20
9.203079284093729
  0
LWPOLYLINE
  5
6B
100
AcDbEntity
  8
0
  6
ByLayer
 62
    0
370
   -1
100
AcDbPolyline
 90
  171
 70
    1
 43
0
 10
12.90668810922421
 20
14.35833027942926
 10
12.90668810922421
 20
14.35833027942926
 10
12.81785804505072
 20
14.28432499232077
 10
12.70139459642806
 20
14.18197473146399
 10
12.69119514980734
 20
14.17296126700847
 10
12.66415475644077
 20
14.15173218625138
 10
12.46787470810014
 20
14.07132259545081
 10
12.19628479226929
 20
14.02495069279148
 10
12.13259754999804
 20
14.02044396056372
 10
12.09535771001076
 20
14.0179533980168
 10
11.83923300161412
 20
13.96648177204711
 10
11.82444380401408
 20
13.95806129867419
 10
11.7819619228566
 20
13.93683221791711
 10
11.44029232088408
 20
13.8994737797133
 10
11.09027340446854
 20
13.95414755752903
 10
11.04458937146503
 20
13.97798579904956
 10
11.03557590700951
 20
13.98320412057643
 10
10.91976474857771
 20
14.01214208540732
 10
10.88116102910044
 20
14.01214208540732
 10
10.84446674090915
 20
14.01273507648992
 10
10.59289620402689
 20
14.07511773837945
 10
10.34838226102756
 20
14.18588847260915
 10
10.31557799433812
 20
14.20960811591315
 10
10.28340229819624
 20
14.23344635743368
 10
10.02539187815693
 20
14.53456722917801
 10
10.00158921610137
 20
14.57643239960958
 10
9.989990310525709
 20
14.59635689998494
 10
9.908928429534276
 20
14.68898210708707
 10
9.779597074419195
 20
14.79062077864473
 10
9.74355507641876
 20
14.81445902016526
 10
9.616156872232956
 20
14.89937534319359
 10
9.160609262757905
 20
15.32858228877954
 10
8.916095319758581
 20
15.8028565566431
 10
8.894866239001498
 20
15.90959495151112
 10
8.885852774545976
 20
15.95205311302529
 10
8.869782716207514
 20
16.09555695501451
 10
8.888426355844462
 20
16.24546510069582
 10
8.897439820299983
 20
16.29112541405602
 10
8.91288130809089
 20
16.36963743339228
 10
9.043493523944386
 20
16.72234852932282
 10
9.276420421189709
 20
17.08905421480272
 10
9.343985825141161
 20
17.17397053783105
 10
9.363293614790621
 20
17.19899476151678
 10
9.460449273763821
 20
17.33099457650356
 10
9.532509550121382
 20
17.44105372143414
 10
9.540242153838491
 20
17.45457391811742
 10
9.57690086256483
 20
17.52276789261643
 10
9.691431160258212
 20
17.89528489070581
 10
9.714605251766223
 20
18.31796893438317
 10
9.705603647132353
 20
18.41071273970182
 10
9.698511473784455
 20
18.48531101789291
 10
9.65990775430719
 20
18.70720828100187
 10
9.568539688300168
 20
19.03418356394757
 10
9.414777100581961
 20
19.44334741094163
 10
9.241042573201785
 20
19.85203686506962
 10
9.181197913145782
 20
19.98640864438681
 10
9.145155915145349
 20
20.06681823518738
 10
9.040919942645903
 20
20.3074540165065
 10
8.948911446269671
 20
20.54939437820734
 10
8.882638762878283
 20
20.77532398067798
 10
8.834381148576286
 20
20.98121048455673
 10
8.82023238134545
 20
21.04999745013834
 10
8.758466430181823
 20
21.34163046456107
 10
8.645857423596064
 20
22.22945671342994
 10
8.587945914469337
 20
23.43915852193414
 10
8.645857423596064
 20
24.46930263062705
 10
8.742372652200055
 20
24.98473047962305
 10
8.819591950976241
 20
25.10949580340212
 10
8.833100287837871
 20
25.13191086632439
 10
8.910960016983264
 20
25.19702128719389
 10
9.0184100011504
 20
25.20591615343289
 10
9.047359825802939
 20
25.20010484082341
 10
9.138087461440755
 20
25.18350109051059
 10
9.389669858144671
 20
25.01354984623741
 10
9.739700634381858
 20
24.59347496332351
 10
10.08263923727115
 20
23.96229525500396
 10
10.3329526330583
 20
23.35104004705978
 10
10.40309161830824
 20
23.14242578420104
 10
10.48350120910882
 20
22.90179000288193
 10
10.80072771865657
 20
21.68188874775701
 10
10.97380995584588
 20
20.56742130711838
 10
10.98282342030141
 20
20.37896874106807
 10
10.99825304827066
 20
20.04689373481202
 10
11.25822033888254
 20
20.0604139314953
 10
11.31482726762755
 20
20.06373468155786
 10
11.64041495143996
 20
20.05460261888582
 10
11.95956275209534
 20
20.01854876106373
 10
12.01293194952934
 20
20.00763772514389
 10
12.07863536148144
 20
19.99423612667713
 10
12.07021488810851
 20
20.27982063205733
 10
12.06381058441643
 20
20.49602518077333
 10
12.16284009521065
 20
21.66398041706249
 10
12.42221439473993
 20
22.84071192137414
 10
12.49550809254931
 20
23.06071161301877
 10
12.51424661075947
 20
23.11918053376314
 10
12.576629272649
 20
23.29233392988237
 10
12.6660523279051
 20
23.52348185387989
 10
12.74385275794223
 20
23.70683469661984
 10
12.78251577652775
 20
23.78712568920389
 10
12.79152924098327
 20
23.79554616257682
 10
12.80315186620224
 20
23.80776177887837
 10
12.88866118031317
 20
23.79554616257682
 10
13.06371214789672
 20
23.73114733100643
 10
13.26058518731996
 20
23.62761108798446
 10
13.38736668077986
 20
23.54340635425525
 10
13.42460652076714
 20
23.50996165719659
 10
13.46267654827007
 20
23.47639836192144
 10
13.56621279129204
 20
23.36183248476309
 10
13.67425576654178
 20
23.19010226724209
 10
13.76569499147872
 20
22.96227509330714
 10
13.83578653744205
 20
22.72484146383407
 10
13.85642262711654
 20
22.64455047125001
 10
13.87895628825534
 20
22.55643199637564
 10
13.98569468312336
 20
22.23645400820462
 10
14.11888048027534
 20
22.00091795019587
 10
14.15493433809742
 20
21.95407165467046
 10
14.22383990189556
 20
21.86453000119784
 10
14.19490193706467
 20
21.5917541032018
 10
14.17687500815363
 20
21.42773276975461
 10
14.02115554986284
 20
20.69289822019657
 10
13.7869240722358
 20
20.12018743262139
 10
13.73094571403835
 20
20.0366942881913
 10
13.71552794589075
 20
20.01416062705249
 10
13.67176520399486
 20
19.90979419651487
 10
13.65112911432038
 20
19.72964350562096
 10
13.64792696247434
 20
19.66915841519575
 10
13.64211564986486
 20
19.57594021701102
 10
13.56680578237464
 20
19.05351507324033
 10
13.44073587821386
 20
18.53097133125312
 10
13.41049333300126
 20
18.43775313306838
 10
13.37064433225053
 20
18.31535977361972
 10
13.45366308381455
 20
18.19249202130498
 10
13.49861180787563
 20
18.12560262718769
 10
13.6376089176371
 20
17.92410425732018
 10
13.75929068778664
 20
17.76138750425471
 10
13.83578653744205
 20
17.68168950275326
 10
13.8757541364093
 20
17.65974883269705
 10
13.88927433309258
 20
17.65974883269705
 10
13.92070286047038
 20
17.65974883269705
 10
14.01664881763508
 20
17.61349552825425
 10
14.08614737251581
 20
17.52786761592679
 10
14.08994251544445
 20
17.50853610663403
 10
14.09385625658961
 20
17.48529085619611
 10
14.07772689914289
 20
17.37594330056465
 10
14.02246013024456
 20
17.30336119205439
 10
14.00763535317956
 20
17.29826146874403
 10
13.99731730834232
 20
17.29494071868147
 10
13.96837934351143
 20
17.26149602162283
 10
13.95995887013851
 20
17.17468212713017
 10
13.95995887013851
 20
17.14562556408277
 10
13.95995887013851
 20
17.06402999111699
 10
13.98640627242248
 20
16.81876887935359
 10
14.0404870591556
 20
16.52998222212734
 10
14.05460024692148
 20
16.48040816762197
 10
14.08934952436185
 20
16.35421966524467
 10
14.09444924767222
 20
15.81305600326382
 10
13.86674067195377
 20
15.36463614660163
 10
13.78561949185408
 20
15.28422655580106
 10
13.7489726429494
 20
15.24817269797897
 10
13.63179760502761
 20
15.14582243712219
 10
13.44073587821386
 20
14.9895099877488
 10
13.25667144617479
 20
14.85051287798734
 10
13.15503277461714
 20
14.77970974272489
 10
13.12479022940453
 20
14.76369898349469
 10
13.11708134533073
 20
14.75978524234953
 10
13.05280111197688
 20
14.66194171372051
 10
13.04959896013084
 20
14.64913310633635
 10
13.04307605822224
 20
14.62600645411495
 10
12.98579311964306
 20
14.4894999069004
 10
12.91831073444318
 20
14.37244346719514
 10
12.90668810922421
 20
14.35833027942926
  0
LWPOLYLINE
  5
6C
100
AcDbEntity
  8
0
  6
ByLayer
 62
    0
370
   -1
100
AcDbPolyline
 90
  119
 70
    1
 43
0
 10
12.9208012969901
 20
14.31195837676993
 10
12.92341045775354
 20
14.31646510899769
 10
12.96586861926771
 20
14.38786123534275
 10
13.03086044192068
 20
14.50052954103676
 10
13.04438063860396
 20
14.52555376472249
 10
13.06750729082536
 20
14.56931650661837
 10
13.16084408722661
 20
14.70439987523468
 10
13.31525896513568
 20
14.82608164538422
 10
13.36933975186881
 20
14.86213550320631
 10
13.41239090446558
 20
14.89166645911979
 10
13.55459016607308
 20
14.97729437144724
 10
13.62088656910777
 20
14.99401671997656
 10
13.62729087279985
 20
14.98879839844968
 10
13.65112911432038
 20
14.96887389807432
 10
13.72382982104715
 20
14.8556126012977
 10
13.85832019858086
 20
14.6014566232953
 10
14.010244513943
 20
14.26629806340972
 10
14.12469179288482
 20
13.98569468312336
 10
14.16015265962431
 20
13.8911719045569
 10
14.21352185705832
 20
13.74707507148508
 10
14.36402299382222
 20
13.3088546614436
 10
14.48250261212572
 20
12.87253182286645
 10
14.52816292548593
 20
12.51353502146035
 10
14.52496077363989
 20
12.2484680075381
 10
14.51654030026697
 20
12.16094252374633
 10
14.51013599657489
 20
12.09784827255768
 10
14.50052954103676
 20
11.90548196536221
 10
14.53456722917801
 20
11.78582822471516
 10
14.54998499732561
 20
11.75173123746566
 10
14.58734343552942
 20
11.66679119479401
 10
14.73914915267504
 20
11.20029696993417
 10
14.83058837761198
 20
10.72287984933283
 10
14.83829726168578
 20
10.63215221369501
 10
14.84280399391354
 20
10.57810700642684
 10
14.83058837761198
 20
10.40886735145277
 10
14.76108982273125
 20
10.33744750546442
 10
14.73725158121072
 20
10.33167177231989
 10
14.66976919601083
 20
10.31749928544575
 10
14.38655665496102
 20
10.27824327577762
 10
13.84100485896893
 20
10.21519646387558
 10
13.24765798171927
 20
10.15793724493971
 10
12.87905472477505
 20
10.12897556046552
 10
12.75606837424379
 20
10.12253567730849
 10
12.73365331132151
 20
10.12189524693928
 10
12.5926400318792
 20
10.11997395583166
 10
12.26969708829519
 20
10.11932166564079
 10
11.83279311845708
 20
10.11932166564079
 10
11.45574566849664
 20
10.12061438620086
 10
11.33028061524011
 20
10.12125481657007
 10
11.11986365949029
 20
10.12253567730849
 10
10.48994109226586
 20
10.13154914176401
 10
9.844577037250515
 20
10.1566563842013
 10
9.258405352100315
 20
10.20490213868164
 10
8.761028151658655
 20
10.26281364780836
 10
8.59566665836479
 20
10.28404272856545
 10
8.534541137570374
 20
10.29241576265176
 10
8.351805005556326
 20
10.31749928544575
 10
8.226980382669005
 20
10.34646096991994
 10
8.17937505855787
 20
10.38571697958806
 10
8.169080733363932
 20
10.43589588499768
 10
8.168416583351419
 20
10.45261823352701
 10
8.163281280576104
 20
10.51439604451229
 10
8.180655919296285
 20
10.71900168765262
 10
8.235981987302873
 20
11.08898068390847
 10
8.317708018306819
 20
11.47569388851531
 10
8.382047550768933
 20
11.71504880909601
 10
8.410356945052261
 20
11.79161581768134
 10
8.416796828209298
 20
11.81091174750914
 10
8.446387083231041
 20
12.0985598618568
 10
8.445746652861832
 20
12.14232260375269
 10
8.44381350193256
 20
12.30836010688071
 10
8.576358868715333
 20
13.2123157131963
 10
8.883291053069144
 20
14.14663246294102
 10
8.968859666288337
 20
14.32808773421666
 10
8.993314618534766
 20
14.38145693165066
 10
9.073095638787784
 20
14.53978555070489
 10
9.184411924813476
 20
14.74626504566625
 10
9.280274863226605
 20
14.90969338803083
 10
9.327892047159395
 20
14.981801103675
 10
9.3394790929134
 20
14.99081456813053
 10
9.344638115332021
 20
14.99591429144089
 10
9.463663285431512
 20
14.94894939769896
 10
9.485532796557806
 20
14.93353162955135
 10
9.500986144170364
 20
14.92262059363151
 10
9.735205761975751
 20
14.77140786756849
 10
9.757075273102043
 20
14.75848066196781
 10
9.789239109422269
 20
14.73986074197416
 10
9.89732952395862
 20
14.65945115117359
 10
9.973267961996386
 20
14.56030304216285
 10
9.989349880156499
 20
14.53266965771369
 10
9.999644205350439
 20
14.51464272880265
 10
10.08779825968977
 20
14.39367254795222
 10
10.19783368497704
 20
14.26760264379145
 10
10.21906276573413
 20
14.24637356303436
 10
10.26345407817757
 20
14.20261082113847
 10
10.4751518946658
 20
14.06171613991269
 10
10.72737472173893
 20
13.99992646910576
 10
10.79299511493946
 20
13.9960127279606
 10
10.81682149663833
 20
13.99470814757888
 10
11.02657430237564
 20
13.94904783421867
 10
11.0387899186772
 20
13.94264353052659
 10
11.04972467424034
 20
13.93683221791711
 10
11.25563489776241
 20
13.87444955602758
 10
11.2775044088887
 20
13.86994282379982
 10
11.32126715078459
 20
13.86223393972602
 10
11.5728495474885
 20
13.86543609157206
 10
11.83215268808788
 20
13.92402361053295
 10
11.87974615237736
 20
13.94323652160919
 10
11.8971800902058
 20
13.95094540568299
 10
12.17956244373997
 20
13.99340356719716
 10
12.2188184534081
 20
13.99470814757888
 10
12.27100166867691
 20
13.99672431725972
 10
12.44795020772477
 20
14.01985096948112
 10
12.59335162117832
 20
14.07262717583253
 10
12.6294054790004
 20
14.08863793506274
 10
12.65122755084009
 20
14.09895597989998
 10
12.80433784836744
 20
14.21031970521227
 10
12.91831073444318
 20
14.30875622492389
 10
12.9208012969901
 20
14.31195837676993
  0
LWPOLYLINE
  5
6D
100
AcDbEntity
  8
0
  6
ByLayer
 62
    0
370
   -1
100
AcDbPolyline
 90
   23
 70
    1
 43
0
 10
13.77850359886288
 20
16.93333475651193
 10
13.77660602739856
 20
16.81687130788927
 10
13.779215188162
 20
16.46487180125785
 10
13.79083781338096
 20
15.95146012194269
 10
13.80756016191029
 20
15.54087309635038
 10
13.82546849260481
 20
15.38195148621355
 10
13.82546849260481
 20
15.38195148621355
 10
13.82748466228565
 20
15.38456064697699
 10
13.83199139451341
 20
15.46627481815928
 10
13.83768410890637
 20
15.68247936687528
 10
13.84100485896893
 20
15.99842501568461
 10
13.84290243043325
 20
16.28472111036394
 10
13.84290243043325
 20
16.37995547822952
 10
13.84290243043325
 20
16.50033266799734
 10
13.84100485896893
 20
16.85944806761996
 10
13.83649812674117
 20
17.15855276968345
 10
13.82748466228565
 20
17.31107007612819
 10
13.81396446560237
 20
17.3502074875798
 10
13.81396446560237
 20
17.3502074875798
 10
13.80815315299289
 20
17.34890290719808
 10
13.78953323299925
 20
17.25177096786819
 10
13.779215188162
 20
17.00864462400214
 10
13.77850359886288
 20
16.93333475651193
  0
LWPOLYLINE
  5
6E
100
AcDbEntity
  8
0
  6
ByLayer
 62
    0
370
   -1
100
AcDbPolyline
 90
   14
 70
    1
 43
0
 10
13.70841205289955
 20
17.41709688169709
 10
13.72833655327491
 20
17.41199715838674
 10
13.87444955602758
 20
17.42112922105877
 10
13.87895628825534
 20
17.42753352475086
 10
13.88275143118398
 20
17.43464941774205
 10
13.87314497564586
 20
17.46797551658418
 10
13.79012622408184
 20
17.48730702587694
 10
13.76249283963268
 20
17.4906277759395
 10
13.74126375887559
 20
17.49311833848643
 10
13.65563584654814
 20
17.47378682919366
 10
13.65563584654814
 20
17.46667093620247
 10
13.65563584654814
 20
17.45457391811742
 10
13.70070316882575
 20
17.41911305137793
 10
13.70841205289955
 20
17.41709688169709
  0
LWPOLYLINE
  5
6F
100
AcDbEntity
  8
0
  6
ByLayer
 62
    0
370
   -1
100
AcDbPolyline
 90
   48
 70
    1
 43
0
 10
15.26869018943693
 20
10.38119838753865
 10
15.3336820120899
 20
10.39213314310179
 10
15.52806448896621
 20
10.43010829203151
 10
15.83558966440263
 20
10.49444782449362
 10
16.12259734838107
 20
10.56008007751579
 10
16.27701222629014
 20
10.59739107643299
 10
16.32006337888691
 20
10.61027084274707
 10
16.47779900685854
 20
10.6578761668582
 10
17.04979820513459
 20
10.85992008852171
 10
17.44805101620882
 20
11.06131171999436
 10
17.51944714255387
 20
11.10828847355794
 10
17.5871667241868
 20
11.1539606467398
 10
17.8359857824458
 20
11.39397971733301
 10
17.96347886520483
 20
11.65264242756318
 10
17.97130634749515
 20
11.7066757750097
 10
17.97948962443503
 20
11.76845358599498
 10
17.90821209630649
 20
11.96667864508654
 10
17.67528519906118
 20
12.23945454308258
 10
17.30644474568392
 20
12.49621968184842
 10
16.95646140873334
 20
12.66545933682249
 10
16.83549122788292
 20
12.70720590903754
 10
16.7228229221889
 20
12.74646191870567
 10
15.98229565823789
 20
12.94463953851062
 10
15.14902458896823
 20
13.11257461310297
 10
14.99081456813053
 20
13.13570126532437
 10
14.95736987107188
 20
13.14091958685125
 10
14.81256144870093
 20
13.16594381053698
 10
14.7282381167552
 20
13.18397073944802
 10
14.72562895599176
 20
13.18598690912886
 10
14.72313839344484
 20
13.18729148951058
 10
14.67486891932119
 20
13.12229966685761
 10
14.66134872263791
 20
12.861027795864
 10
14.66134872263791
 20
12.77350231207223
 10
14.66134872263791
 20
12.5695133796578
 10
14.70831361637984
 20
11.9563606002493
 10
14.83829726168578
 20
11.34956468524626
 10
14.88016243211735
 20
11.2138053067958
 10
14.88917589657287
 20
11.1842031919524
 10
14.9598604336188
 20
10.7698328832531
 10
14.96436716584656
 20
10.72287984933283
 10
14.9675693176926
 20
10.68170254855708
 10
14.98559624660365
 20
10.50280899875828
 10
14.99852345220433
 20
10.39857302625883
 10
15.00042102366865
 20
10.39407815385273
 10
15.00231859513296
 20
10.38699784032648
 10
15.08925108784214
 20
10.36897091141543
 10
15.23595708167741
 20
10.37606308476333
 10
15.26869018943693
 20
10.38119838753865
  0
LWPOLYLINE
  5
70
100
AcDbEntity
  8
0
  6
ByLayer
 62
    0
370
   -1
100
AcDbPolyline
 90
   59
 70
    1
 43
0
 10
7.961237358912598
 20
10.38055795716944
 10
7.963182369663524
 20
10.38314339828958
 10
7.976690706525155
 20
10.49123381282592
 10
7.976690706525155
 20
10.52663538045715
 10
7.976690706525155
 20
10.60447138995924
 10
8.015294426002422
 20
10.83805057739542
 10
8.093782725695371
 20
11.20093740030338
 10
8.113730945714037
 20
11.2768639785195
 10
8.141399909628158
 20
11.3817522412098
 10
8.223125940632103
 20
11.69703374000662
 10
8.279732869377108
 20
11.95505601986758
 10
8.306761402922024
 20
12.19889395303274
 10
8.324147901463858
 20
12.4806833154843
 10
8.329923634608381
 20
12.57461310296816
 10
8.335082657027003
 20
12.66794989936941
 10
8.351164575187116
 20
12.94855327965578
 10
8.356952168153297
 20
13.12609480978625
 10
8.345376982220943
 20
13.17887101613766
 10
8.32220289071293
 20
13.17827802505506
 10
8.315134437008338
 20
13.17697344467334
 10
8.204458581351853
 20
13.16404623907266
 10
7.875668745693403
 20
13.11067704163865
 10
7.331955222057371
 20
13.01034295046271
 10
6.826216847351049
 20
12.9047905377599
 10
6.564992415644051
 20
12.84228927765384
 10
6.503855035027982
 20
12.82106019689676
 10
6.495493860763322
 20
12.81856963434984
 10
6.400271352719399
 20
12.78832708913723
 10
6.263847824256418
 20
12.74586892762307
 10
6.235550289794741
 20
12.73685546316755
 10
6.093351028187238
 20
12.69368571235426
 10
5.499446739319933
 20
12.40288288544717
 10
5.117892557131723
 20
12.04898580735143
 10
5.081862418952944
 20
11.97438752916033
 10
5.065780500792828
 20
11.94153582318429
 10
5.027805351863116
 20
11.73821104078237
 10
5.048394002250993
 20
11.53745983967893
 10
5.061914198934277
 20
11.50593643372791
 10
5.072220383949865
 20
11.48084105111228
 10
5.197685437206395
 20
11.3219075811538
 10
5.371408104764918
 20
11.17005442472156
 10
5.406797812574494
 20
11.14754448322606
 10
5.480138949670473
 20
11.10120816003169
 10
6.010344136444873
 20
10.86185323945099
 10
6.653775040530939
 20
10.65338129445209
 10
6.78439911620609
 20
10.62185788850108
 10
6.798547883436927
 20
10.61862015719008
 10
7.050782570331708
 20
10.55751835603896
 10
7.076506523494898
 20
10.55107847288193
 10
7.102254196301396
 20
10.5452790200941
 10
7.414321683430523
 20
10.47579232503502
 10
7.438776635676953
 20
10.47064516243805
 10
7.462579297732522
 20
10.46615029003194
 10
7.745044670018251
 20
10.40630562997594
 10
7.766273750775335
 20
10.40114660755732
 10
7.804877470252602
 20
10.39279729311431
 10
7.923285929626189
 20
10.36833048104623
 10
7.956090196315626
 20
10.37606308476333
 10
7.961237358912598
 20
10.38055795716944
  0
LWPOLYLINE
  5
71
100
AcDbEntity
  8
0
  6
ByLayer
 62
    0
370
   -1
100
AcDbPolyline
 90
   49
 70
    1
 43
0
 10
14.73855616159244
 20
21.89489114462696
 10
14.74946719751228
 20
21.91540863608493
 10
14.84280399391354
 20
22.10386120213524
 10
14.84659913684218
 20
22.11358625588988
 10
14.84991988690474
 20
22.12331130964453
 10
14.89166645911979
 20
22.22435699011958
 10
14.89486861096583
 20
22.23076129381166
 10
14.90518665580307
 20
22.25329495495047
 10
14.96887389807432
 20
22.50816252225199
 10
15.01073906850588
 20
22.78022683094891
 10
15.01073906850588
 20
22.810350777945
 10
15.01014607742329
 20
22.88767681511605
 10
14.90198450395703
 20
23.28925037625284
 10
14.67415733002207
 20
23.65595606173275
 10
14.61438382889598
 20
23.71584816107534
 10
14.53527881847713
 20
23.79495317149421
 10
14.05139809507545
 20
24.09156731101078
 10
13.56621279129204
 20
24.22997142968964
 10
13.40468202039178
 20
24.22997142968964
 10
13.31525896513568
 20
24.22997142968964
 10
13.0469897993674
 20
24.16426801773755
 10
12.87383640324817
 20
24.01874800606748
 10
12.85913022439969
 20
23.97830601423416
 10
12.85070975102677
 20
23.95766992455968
 10
12.85462349217193
 20
23.8843762267503
 10
12.93432149367338
 20
23.84832236892821
 10
12.96207347633906
 20
23.84381563670046
 10
13.01674725415479
 20
23.83539516332752
 10
13.17626185537422
 20
23.7658966084468
 10
13.4136954848473
 20
23.61337930200205
 10
13.62729087279985
 20
23.42160598588918
 10
13.74375432142251
 20
23.2801183135808
 10
13.77020172370648
 20
23.2267491161468
 10
13.7869240722358
 20
23.19271142800555
 10
13.85832019858086
 20
22.99904054042834
 10
13.93944137868055
 20
22.68641564168158
 10
13.96126345052023
 20
22.59296024706381
 10
13.97668121866784
 20
22.5247662725648
 10
14.05590482730321
 20
22.26479898195291
 10
14.14912302548795
 20
22.07373725513916
 10
14.17236827592587
 20
22.04029255808051
 10
14.19288576738383
 20
22.01005001286791
 10
14.35951626159446
 20
21.86144644756832
 10
14.54298770255093
 20
21.76490749932103
 10
14.57251865846442
 20
21.75980777601067
 10
14.59185016775718
 20
21.7564870259481
 10
14.65553741002843
 20
21.76739806186794
 10
14.7199362415988
 20
21.86215803686744
 10
14.73855616159244
 20
21.89489114462696
  0
LWPOLYLINE
  5
72
100
AcDbEntity
  8
0
  6
ByLayer
 62
    0
370
   -1
100
AcDbPolyline
 90
   14
 70
    1
 43
0
 10
10.0041509375782
 20
12.30503935681815
 10
10.06527645837262
 20
12.30503935681815
 10
10.23706597500187
 20
12.29282374051659
 10
10.24930531094673
 20
12.29092616905227
 10
10.26860124077454
 20
12.28772401720623
 10
10.3323122026891
 20
12.29993963350779
 10
10.25509290391291
 20
12.3610177150156
 10
10.22677164980793
 20
12.37584249208061
 10
10.21134202183868
 20
12.38426296545353
 10
9.999644205350439
 20
12.50973987853171
 10
9.981640996082701
 20
12.52124390553415
 10
9.846498328358134
 20
12.60876938932592
 10
9.846498328358134
 20
12.30575094611727
 10
10.0041509375782
 20
12.30503935681815
  0
LWPOLYLINE
  5
73
100
AcDbEntity
  8
0
  6
ByLayer
 62
    0
370
   -1
100
AcDbPolyline
 90
   16
 70
    1
 43
0
 10
9.612302430196054
 20
12.44854319880737
 10
9.612302430196054
 20
12.42470495728685
 10
9.621315894651575
 20
12.35141125947748
 10
9.656693742639497
 20
12.32567544649264
 10
9.670202079501129
 20
12.32306628572919
 10
9.686295857482895
 20
12.32057572318227
 10
9.738407913821792
 20
12.32828460725608
 10
9.752556681052628
 20
12.39197184952733
 10
9.752556681052628
 20
12.41320093028441
 10
9.752556681052628
 20
12.4415459040327
 10
9.709458089169255
 20
12.52065091445155
 10
9.70108505508294
 20
12.52646222706103
 10
9.685014996744478
 20
12.53737326298087
 10
9.627091627796101
 20
12.5546886025928
 10
9.612302430196054
 20
12.47558359217394
 10
9.612302430196054
 20
12.44854319880737
  0
LWPOLYLINE
  5
74
100
AcDbEntity
  8
0
  6
ByLayer
 62
    0
370
   -1
100
AcDbPolyline
 90
   53
 70
    1
 43
0
 10
11.78646865508436
 20
14.17936557070055
 10
11.78646865508436
 20
14.20960811591315
 10
11.71376794835759
 20
14.28622256378508
 10
11.70218090260359
 20
14.29843818008665
 10
11.6841658335142
 20
14.31836268046201
 10
11.62883976550761
 20
14.44834632576796
 10
11.63204191735365
 20
14.46257811175035
 10
11.63397506828292
 20
14.47218456728848
 10
11.64620254440614
 20
14.58153212291994
 10
11.64620254440614
 20
14.61758598074202
 10
11.64620254440614
 20
14.63691749003478
 10
11.66036317145863
 20
14.69479341969656
 10
11.72276955299146
 20
14.72693353637348
 10
11.74529135430861
 20
14.73345643828208
 10
11.80835002603231
 20
14.75338093865745
 10
12.07602620071799
 20
14.88265299466426
 10
12.24977258791982
 20
15.03517030110901
 10
12.26578334715003
 20
15.06600583740422
 10
12.27349223122383
 20
15.08154220376834
 10
12.29863505312607
 20
15.17025366972532
 10
12.29282374051659
 20
15.2282481976036
 10
12.29151916013487
 20
15.2282481976036
 10
12.27550840090467
 20
15.2282481976036
 10
12.22913649824534
 20
15.20049621493792
 10
12.11789137114956
 20
15.14653402642131
 10
12.09215555816472
 20
15.13301382973803
 10
11.98268940431674
 20
15.0783400519223
 10
11.43387615737034
 20
14.97978493399416
 10
10.91653887708836
 20
15.11237774006355
 10
10.82323766015207
 20
15.17357441978787
 10
10.8071676018136
 20
15.1837738664086
 10
10.74796337212681
 20
15.19670107200928
 10
10.76083127861923
 20
15.11557989190959
 10
10.77112560381317
 20
15.09055566822386
 10
10.78721938179494
 20
15.04999507817402
 10
10.97445038621509
 20
14.85371502983338
 10
11.23827211886388
 20
14.71471792007192
 10
11.29295775650126
 20
14.70250230377036
 10
11.36565846322803
 20
14.68708453562276
 10
11.36565846322803
 20
14.50752683581145
 10
11.36565846322803
 20
14.4669662457616
 10
11.35536413803409
 20
14.34481008274598
 10
11.30905153448302
 20
14.28230882263993
 10
11.29166503594119
 20
14.26760264379145
 10
11.28073028037804
 20
14.25918217041852
 10
11.23183223570684
 20
14.18387230292831
 10
11.23439395718367
 20
14.17936557070055
 10
11.2401934099715
 20
14.17035210624503
 10
11.33028061524011
 20
14.15884807924258
 10
11.51880434022033
 20
14.15173218625138
 10
11.70347362316366
 20
14.15884807924258
 10
11.78646865508436
 20
14.17426584739018
 10
11.78646865508436
 20
14.17936557070055
  0
LWPOLYLINE
  5
75
100
AcDbEntity
  8
0
  6
ByLayer
 62
    0
370
   -1
100
AcDbPolyline
 90
   31
 70
    1
 43
0
 10
12.57591768334988
 20
16.72744825263318
 10
12.64162109530197
 20
16.71392805594989
 10
12.94653710997494
 20
16.71772319887854
 10
13.22192216873443
 20
16.8193618704362
 10
13.27280080362152
 20
16.85411114787656
 10
13.32747458143725
 20
16.89218117537948
 10
13.46457411973439
 20
17.04517287469031
 10
13.57712382721189
 20
17.28402968276163
 10
13.60226664911413
 20
17.54328538407439
 10
13.56170605906429
 20
17.73766786095071
 10
13.533361085316
 20
17.79423921023076
 10
13.51533415640495
 20
17.82958147875372
 10
13.36803517148709
 20
18.00783459818332
 10
13.17946400722026
 20
18.15062685087342
 10
13.14151257793386
 20
18.16877237800098
 10
13.11387919348469
 20
18.18229257468426
 10
12.99421359301599
 20
18.21953241467155
 10
12.82948067026968
 20
18.23056204880791
 10
12.77931362468171
 20
18.23056204880791
 10
12.7265374183303
 20
18.23115503989051
 10
12.56310907596572
 20
18.22142998613587
 10
12.4498477791891
 20
18.18158098538514
 10
12.42221439473993
 20
18.16675620832014
 10
12.32887759833867
 20
18.11848673419649
 10
12.0245545747483
 20
17.78000742424835
 10
11.95825817171361
 20
17.3644392735622
 10
11.98458697578106
 20
17.27762537906955
 10
12.00522306545554
 20
17.20871981527142
 10
12.20861900678737
 20
16.92052614912777
 10
12.50713071776827
 20
16.74227302969818
 10
12.57591768334988
 20
16.72744825263318
  0
LWPOLYLINE
  5
76
100
AcDbEntity
  8
0
  6
ByLayer
 62
    0
370
   -1
100
AcDbPolyline
 90
   26
 70
    1
 43
0
 10
12.96658020856682
 20
16.76860183376562
 10
12.9356260740551
 20
16.76089294969182
 10
12.70922207871838
 20
16.76089294969182
 10
12.48910378885722
 20
16.80524868267031
 10
12.46147040440806
 20
16.81876887935359
 10
12.38165380469009
 20
16.85873647832084
 10
12.17956244373997
 20
17.05430493736235
 10
12.04898580735143
 20
17.36704843432564
 10
12.07922835256404
 20
17.7003094227469
 10
12.21502331047946
 20
17.93833604330258
 10
12.27930354383331
 20
17.99633057118087
 10
12.33148675910212
 20
18.0438884560054
 10
12.62679631823697
 20
18.1789718246217
 10
12.95424599404874
 20
18.17826023532258
 10
13.02255856676427
 20
18.1570311545655
 10
13.0695234605062
 20
18.14303656501614
 10
13.3017387684524
 20
17.97569448150639
 10
13.46647169119871
 20
17.74596973610711
 10
13.47999188788199
 20
17.69959783344778
 10
13.49220750418355
 20
17.65773266301622
 10
13.49481666494699
 20
17.29754987944491
 10
13.48319403972803
 20
17.25698928939507
 10
13.46706468228131
 20
17.20350149374454
 10
13.28762558068652
 20
16.95527542656814
 10
13.02374454892947
 20
16.78413820012975
 10
12.96658020856682
 20
16.76860183376562
  0
LWPOLYLINE
  5
77
100
AcDbEntity
  8
0
  6
ByLayer
 62
    0
370
   -1
100
AcDbPolyline
 90
   24
 70
    1
 43
0
 10
13.32818617073636
 20
17.1328169566986
 10
13.3313883225824
 20
17.14171182293761
 10
13.36412143034193
 20
17.27560920938871
 10
13.36673059110537
 20
17.28782482569027
 10
13.38155536817037
 20
17.38128022030805
 10
13.03406259376672
 20
17.71892934274054
 10
12.98579311964306
 20
17.76589423648247
 10
12.77219773169051
 20
17.96217428482311
 10
12.63901193453853
 20
18.07021726007284
 10
12.63189604154732
 20
18.07223342975368
 10
12.62169659492661
 20
18.0747239923006
 10
12.52124390553415
 20
18.03297742008556
 10
12.50902828923258
 20
18.02064320556748
 10
12.49942183369447
 20
18.01174833932847
 10
12.44083431473358
 20
17.94426595412858
 10
12.44083431473358
 20
17.92173229298978
 10
12.44083431473358
 20
17.89528489070581
 10
12.52966437890707
 20
17.81606128207044
 10
12.74266677577703
 20
17.59795916189012
 10
12.99872032524375
 20
17.34830991611548
 10
13.16143707830921
 20
17.19591120788725
 10
13.21753403472319
 20
17.14704874268101
 10
13.30494092029844
 20
17.07102728589168
 10
13.32818617073636
 20
17.1328169566986
  0
LWPOLYLINE
  5
78
100
AcDbEntity
  8
0
  6
ByLayer
 62
    0
370
   -1
100
AcDbPolyline
 90
   22
 70
    1
 43
0
 10
12.36172930431472
 20
17.0794477592646
 10
12.38355137615441
 20
17.05228876768152
 10
12.46597713663582
 20
16.96938861433402
 10
12.54116840590951
 20
16.93653690835798
 10
12.55990692411967
 20
16.93333475651193
 10
12.57212254042124
 20
16.93203017613022
 10
12.65063455975749
 20
16.93784148873969
 10
12.65063455975749
 20
16.93914606912141
 10
12.65063455975749
 20
16.95266626580469
 10
12.61327612155369
 20
16.9918036772563
 10
12.54187999520863
 20
17.07422943773772
 10
12.52444605738019
 20
17.09225636664876
 10
12.50713071776827
 20
17.1108762866424
 10
12.35402042024092
 20
17.28343669167903
 10
12.34749751833232
 20
17.29173856683543
 10
12.33338433056644
 20
17.31035848682908
 10
12.27550840090467
 20
17.35293524655976
 10
12.25356773084846
 20
17.30134502237355
 10
12.25356773084846
 20
17.28402968276163
 10
12.25356773084846
 20
17.23315104787454
 10
12.34239779502196
 20
17.1031674025686
 10
12.36172930431472
 20
17.0794477592646
  0
ENDSEC
  0
SECTION
  2
OBJECTS
  0
DICTIONARY
  5
C
330
0
100
AcDbDictionary
281
    1
  3
ACAD_GROUP
350
D
  0
DICTIONARY
  5
D
330
C
100
AcDbDictionary
281
    1
  0
ENDSEC
  0
EOF
