999
dxfrw 0.6.3
  0
SECTION
  2
HEADER
  9
$ACADVER
  1
AC1021
  9
$DWGCODEPAGE
  3
ANSI_1252
  9
$INSBASE
 10
0
 20
0
 30
0
  9
$EXTMIN
 10
-0.009083965002975316
 20
-0.002043648600612125
 30
0
  9
$EXTMAX
 10
9.418066185412409
 20
10.54852469380187
 30
0
  9
$LIMMIN
 10
0
 20
0
  9
$LIMMAX
 10
12
 20
9
  9
$ORTHOMODE
 70
    0
  9
$REGENMODE
 70
    1
  9
$FILLMODE
 70
    1
  9
$QTEXTMODE
 70
    0
  9
$MIRRTEXT
 70
    1
  9
$LTSCALE
 40
1
  9
$ATTMODE
 70
    1
  9
$TEXTSIZE
 40
0.2
  9
$TRACEWID
 40
0.05
  9
$TEXTSTYLE
  7
Standard
  9
$CLAYER
  8
0
  9
$CELTYPE
  6
ByBlock
  9
$CECOLOR
 62
  256
  9
$CELTSCALE
 40
1
  9
$DISPSILH
 70
    0
  9
$DIMSCALE
 40
0.1
  9
$DIMASZ
 40
0.18
  9
$DIMEXO
 40
0.0625
  9
$DIMDLI
 40
0.38
  9
$DIMRND
 40
0
  9
$DIMDLE
 40
0
  9
$DIMEXE
 40
0.18
  9
$DIMTP
 40
0
  9
$DIMTM
 40
0
  9
$DIMTXT
 40
0.18
  9
$DIMCEN
 40
0.09
  9
$DIMTSZ
 40
0
  9
$DIMTOL
 70
    0
  9
$DIMLIM
 70
    0
  9
$DIMTIH
 70
    1
  9
$DIMTOH
 70
    1
  9
$DIMSE1
 70
    0
  9
$DIMSE2
 70
    0
  9
$DIMTAD
 70
    0
  9
$DIMZIN
 70
    0
  9
$DIMBLK
  1

  9
$DIMASO
 70
    1
  9
$DIMSHO
 70
    1
  9
$DIMPOST
  1

  9
$DIMAPOST
  1

  9
$DIMALT
 70
    0
  9
$DIMALTD
 70
    2
  9
$DIMALTF
 40
25.4
  9
$DIMLFAC
 40
1
  9
$DIMTOFL
 70
    0
  9
$DIMTVP
 40
0
  9
$DIMTIX
 70
    0
  9
$DIMSOXD
 70
    0
  9
$DIMSAH
 70
    0
  9
$DIMBLK1
  1

  9
$DIMBLK2
  1

  9
$DIMSTYLE
  2
Standard
  9
$DIMCLRD
 70
    0
  9
$DIMCLRE
 70
    0
  9
$DIMCLRT
 70
    0
  9
$DIMTFAC
 40
1
  9
$DIMGAP
 40
0.09
  9
$DIMJUST
 70
    0
  9
$DIMSD1
 70
    0
  9
$DIMSD2
 70
    0
  9
$DIMTOLJ
 70
    1
  9
$DIMTZIN
 70
    0
  9
$DIMALTZ
 70
    0
  9
$DIMALTTZ
 70
    0
  9
$DIMUPT
 70
    0
  9
$DIMDEC
 70
    4
  9
$DIMTDEC
 70
    4
  9
$DIMALTU
 70
    2
  9
$DIMALTTD
 70
    2
  9
$DIMTXSTY
  7
standard
  9
$DIMAUNIT
 70
    0
  9
$DIMADEC
 70
    0
  9
$DIMALTRND
 40
0
  9
$DIMAZIN
 70
    0
  9
$DIMDSEP
 70
    0
  9
$DIMATFIT
 70
    3
  9
$DIMFRAC
 70
    0
  9
$DIMLDRBLK
  1

  9
$DIMLUNIT
 70
    2
  9
$DIMLWD
 70
   -2
  9
$DIMLWE
 70
   -2
  9
$DIMTMOVE
 70
    2
  9
$DIMFXL
 40
1
  9
$DIMFXLON
 70
    0
  9
$DIMJOGANG
 40
0.7854
  9
$DIMTFILL
 70
    0
  9
$DIMTFILLCLR
 70
    0
  9
$DIMARCSYM
 70
    0
  9
$DIMLTYPE
  6

  9
$DIMLTEX1
  6

  9
$DIMLTEX2
  6

  9
$LUNITS
 70
    2
  9
$LUPREC
 70
    4
  9
$SKETCHINC
 40
0.1
  9
$FILLETRAD
 40
0.5
  9
$AUNITS
 70
    0
  9
$AUPREC
 70
    0
  9
$MENU
  1
.
  9
$ELEVATION
 40
0
  9
$PELEVATION
 40
0
  9
$THICKNESS
 40
0
  9
$LIMCHECK
 70
    0
  9
$CHAMFERA
 40
0
  9
$CHAMFERB
 40
0
  9
$CHAMFERC
 40
0
  9
$CHAMFERD
 40
0
  9
$SKPOLY
 70
    0
  9
$USRTIMER
 70
    1
  9
$ANGBASE
 50
0
  9
$ANGDIR
 70
    0
  9
$PDMODE
 70
    0
  9
$PDSIZE
 40
0
  9
$PLINEWID
 40
0
  9
$SPLFRAME
 70
    0
  9
$SPLINETYPE
 70
    6
  9
$SPLINESEGS
 70
    8
  9
$HANDSEED
  5
20000
  9
$SURFTAB1
 70
    6
  9
$SURFTAB2
 70
    6
  9
$SURFTYPE
 70
    6
  9
$SURFU
 70
    6
  9
$SURFV
 70
    6
  9
$UCSBASE
  2

  9
$UCSNAME
  2

  9
$UCSORG
 10
0
 20
0
 30
0
  9
$UCSXDIR
 10
1
 20
0
 30
0
  9
$UCSYDIR
 10
0
 20
1
 30
0
  9
$UCSORTHOREF
  2

  9
$UCSORTHOVIEW
 70
    0
  9
$UCSORGTOP
 10
0
 20
0
 30
0
  9
$UCSORGBOTTOM
 10
0
 20
0
 30
0
  9
$UCSORGLEFT
 10
0
 20
0
 30
0
  9
$UCSORGRIGHT
 10
0
 20
0
 30
0
  9
$UCSORGFRONT
 10
0
 20
0
 30
0
  9
$UCSORGBACK
 10
0
 20
0
 30
0
  9
$PUCSBASE
  2

  9
$PUCSNAME
  2

  9
$PUCSORG
 10
0
 20
0
 30
0
  9
$PUCSXDIR
 10
1
 20
0
 30
0
  9
$PUCSYDIR
 10
0
 20
1
 30
0
  9
$PUCSORTHOREF
  2

  9
$PUCSORTHOVIEW
 70
    0
  9
$PUCSORGTOP
 10
0
 20
0
 30
0
  9
$PUCSORGBOTTOM
 10
0
 20
0
 30
0
  9
$PUCSORGLEFT
 10
0
 20
0
 30
0
  9
$PUCSORGRIGHT
 10
0
 20
0
 30
0
  9
$PUCSORGFRONT
 10
0
 20
0
 30
0
  9
$PUCSORGBACK
 10
0
 20
0
 30
0
  9
$USERI1
 70
    0
  9
$USERI2
 70
    0
  9
$USERI3
 70
    0
  9
$USERI4
 70
    0
  9
$USERI5
 70
    0
  9
$USERR1
 40
0
  9
$USERR2
 40
0
  9
$USERR3
 40
0
  9
$USERR4
 40
0
  9
$USERR5
 40
0
  9
$WORLDVIEW
 70
    1
  9
$SHADEDGE
 70
    3
  9
$SHADEDIF
 70
   70
  9
$TILEMODE
 70
    1
  9
$MAXACTVP
 70
   64
  9
$PINSBASE
 10
0
 20
0
 30
0
  9
$PLIMCHECK
 70
    0
  9
$PEXTMIN
 10
1e+020
 20
1e+020
 30
1e+020
  9
$PEXTMAX
 10
-1e+020
 20
-1e+020
 30
-1e+020
  9
$GRIDMODE
 70
    1
  9
$SNAPSTYLE
 70
    0
  9
$GRIDUNIT
 10
0.1
 20
0.1
  9
$PLIMMIN
 10
0
 20
0
  9
$PLIMMAX
 10
12
 20
9
  9
$UNITMODE
 70
    0
  9
$VISRETAIN
 70
    1
  9
$PLINEGEN
 70
    0
  9
$PSLTSCALE
 70
    1
  9
$TREEDEPTH
 70
 3020
  9
$CMLSTYLE
  2
Standard
  9
$CMLJUST
 70
    0
  9
$CMLSCALE
 40
1
  9
$PROXYGRAPHICS
 70
    1
  9
$MEASUREMENT
 70
    0
  9
$CELWEIGHT
370
   -1
  9
$ENDCAPS
280
    0
  9
$JOINSTYLE
280
    0
  9
$LWDISPLAY
290
    0
  9
$INSUNITS
 70
    4
  9
$HYPERLINKBASE
  1

  9
$STYLESHEET
  1

  9
$XEDIT
290
    1
  9
$CEPSNTYPE
380
    0
  9
$PSTYLEMODE
290
    1
  9
$EXTNAMES
290
    1
  9
$PSVPSCALE
 40
0
  9
$OLESTARTUP
290
    0
  9
$SORTENTS
280
  127
  9
$INDEXCTL
280
    0
  9
$HIDETEXT
280
    1
  9
$XCLIPFRAME
290
    0
  9
$HALOGAP
280
    0
  9
$OBSCOLOR
 70
  257
  9
$OBSLTYPE
280
    0
  9
$INTERSECTIONDISPLAY
280
    0
  9
$INTERSECTIONCOLOR
 70
  257
  9
$DIMASSOC
280
    1
  9
$PROJECTNAME
  1

  9
$CAMERADISPLAY
290
    0
  9
$LENSLENGTH
 40
50
  9
$CAMERAHEIGHT
 40
0
  9
$STEPSPERSEC
 40
2
  9
$STEPSIZE
 40
50
  9
$3DDWFPREC
 40
2
  9
$PSOLWIDTH
 40
5
  9
$PSOLHEIGHT
 40
80
  9
$LOFTANG1
 40
1.570796326794897
  9
$LOFTANG2
 40
1.570796326794897
  9
$LOFTMAG1
 40
0
  9
$LOFTMAG2
 40
0
  9
$LOFTPARAM
 70
    7
  9
$LOFTNORMALS
280
    1
  9
$LATITUDE
 40
1
  9
$LONGITUDE
 40
1
  9
$NORTHDIRECTION
 40
0
  9
$TIMEZONE
 70
-8000
  9
$LIGHTGLYPHDISPLAY
280
    1
  9
$TILEMODELIGHTSYNCH
280
    1
  9
$SOLIDHIST
280
    1
  9
$SHOWHIST
280
    1
  9
$DWFFRAME
280
    2
  9
$DGNFRAME
280
    0
  9
$REALWORLDSCALE
290
    1
  9
$INTERFERECOLOR
 62
    1
  9
$CSHADOW
280
    0
  9
$SHADOWPLANELOCATION
 40
0
  0
ENDSEC
  0
SECTION
  2
CLASSES
  0
ENDSEC
  0
SECTION
  2
TABLES
  0
TABLE
  2
VPORT
  5
8
330
0
100
AcDbSymbolTable
 70
    1
  0
VPORT
  5
31
330
2
100
AcDbSymbolTableRecord
100
AcDbViewportTableRecord
  2
*ACTIVE
 70
    0
 10
0
 20
0
 11
1
 21
1
 12
8.894563409233552
 22
5.035817258162149
 13
0
 23
0
 14
10
 24
10
 15
0.1
 25
0.1
 16
0
 26
0
 36
1
 17
0
 27
0
 37
0
 40
14.06344087950161
 41
1.85589519650655
 42
50
 43
0
 44
0
 50
0
 51
0
 71
    0
 72
  100
 73
    1
 74
    3
 75
    0
 76
    1
 77
    0
 78
    0
281
    0
 65
    1
110
0
120
0
130
0
111
1
121
0
131
0
112
0
122
1
132
0
 79
    0
146
0
348
10020
 60
    3
 61
    5
292
1
282
    1
141
0
142
0
 63
  250
421
3358443
  0
ENDTAB
  0
TABLE
  2
LTYPE
  5
5
330
0
100
AcDbSymbolTable
 70
    4
  0
LTYPE
  5
14
330
5
100
AcDbSymbolTableRecord
100
AcDbLinetypeTableRecord
  2
ByBlock
 70
    0
  3

 72
   65
 73
    0
 40
0
  0
LTYPE
  5
15
330
5
100
AcDbSymbolTableRecord
100
AcDbLinetypeTableRecord
  2
ByLayer
 70
    0
  3

 72
   65
 73
    0
 40
0
  0
LTYPE
  5
16
330
5
100
AcDbSymbolTableRecord
100
AcDbLinetypeTableRecord
  2
Continuous
 70
    0
  3
Solid line
 72
   65
 73
    0
 40
0
  0
LTYPE
  5
32
330
5
100
AcDbSymbolTableRecord
100
AcDbLinetypeTableRecord
  2
DOT
 70
    0
  3
Dot . . . . . . . . . . . . . . . . . . . . . .
 72
   65
 73
    2
 40
6.35
 49
0
 74
    0
 49
-6.35
 74
    0
  0
LTYPE
  5
33
330
5
100
AcDbSymbolTableRecord
100
AcDbLinetypeTableRecord
  2
DOTTINY
 70
    0
  3
Dot (.15x) .....................................
 72
   65
 73
    2
 40
0.9525
 49
0
 74
    0
 49
-0.9525
 74
    0
  0
LTYPE
  5
34
330
5
100
AcDbSymbolTableRecord
100
AcDbLinetypeTableRecord
  2
DOT2
 70
    0
  3
Dot (.5x) .....................................
 72
   65
 73
    2
 40
3.175
 49
0
 74
    0
 49
-3.175
 74
    0
  0
LTYPE
  5
35
330
5
100
AcDbSymbolTableRecord
100
AcDbLinetypeTableRecord
  2
DOTX2
 70
    0
  3
Dot (2x) .  .  .  .  .  .  .  .  .  .  .  .  .
 72
   65
 73
    2
 40
12.7
 49
0
 74
    0
 49
-12.7
 74
    0
  0
LTYPE
  5
36
330
5
100
AcDbSymbolTableRecord
100
AcDbLinetypeTableRecord
  2
DASHED
 70
    0
  3
Dashed _ _ _ _ _ _ _ _ _ _ _ _ _ _ _ _ _
 72
   65
 73
    2
 40
19.05
 49
12.7
 74
    0
 49
-6.35
 74
    0
  0
LTYPE
  5
37
330
5
100
AcDbSymbolTableRecord
100
AcDbLinetypeTableRecord
  2
DASHEDTINY
 70
    0
  3
Dashed (.15x) _ _ _ _ _ _ _ _ _ _ _ _ _ _ _ _ _
 72
   65
 73
    2
 40
2.8575
 49
1.905
 74
    0
 49
-0.9525
 74
    0
  0
LTYPE
  5
38
330
5
100
AcDbSymbolTableRecord
100
AcDbLinetypeTableRecord
  2
DASHED2
 70
    0
  3
Dashed (.5x) _ _ _ _ _ _ _ _ _ _ _ _ _ _ _ _ _
 72
   65
 73
    2
 40
9.524999999999999
 49
6.35
 74
    0
 49
-3.175
 74
    0
  0
LTYPE
  5
39
330
5
100
AcDbSymbolTableRecord
100
AcDbLinetypeTableRecord
  2
DASHEDX2
 70
    0
  3
Dashed (2x) ____  ____  ____  ____  ____  ___
 72
   65
 73
    2
 40
38.09999999999999
 49
25.4
 74
    0
 49
-12.7
 74
    0
  0
LTYPE
  5
3A
330
5
100
AcDbSymbolTableRecord
100
AcDbLinetypeTableRecord
  2
DASHDOT
 70
    0
  3
Dash dot __ . __ . __ . __ . __ . __ . __ . __
 72
   65
 73
    4
 40
25.4
 49
12.7
 74
    0
 49
-6.35
 74
    0
 49
0
 74
    0
 49
-6.35
 74
    0
  0
LTYPE
  5
3B
330
5
100
AcDbSymbolTableRecord
100
AcDbLinetypeTableRecord
  2
DASHDOTTINY
 70
    0
  3
Dash dot (.15x) _._._._._._._._._._._._._._._.
 72
   65
 73
    4
 40
3.81
 49
1.905
 74
    0
 49
-0.9525
 74
    0
 49
0
 74
    0
 49
-0.9525
 74
    0
  0
LTYPE
  5
3C
330
5
100
AcDbSymbolTableRecord
100
AcDbLinetypeTableRecord
  2
DASHDOT2
 70
    0
  3
Dash dot (.5x) _._._._._._._._._._._._._._._.
 72
   65
 73
    4
 40
12.7
 49
6.35
 74
    0
 49
-3.175
 74
    0
 49
0
 74
    0
 49
-3.175
 74
    0
  0
LTYPE
  5
3D
330
5
100
AcDbSymbolTableRecord
100
AcDbLinetypeTableRecord
  2
DASHDOTX2
 70
    0
  3
Dash dot (2x) ____  .  ____  .  ____  .  ___
 72
   65
 73
    4
 40
50.8
 49
25.4
 74
    0
 49
-12.7
 74
    0
 49
0
 74
    0
 49
-12.7
 74
    0
  0
LTYPE
  5
3E
330
5
100
AcDbSymbolTableRecord
100
AcDbLinetypeTableRecord
  2
DIVIDE
 70
    0
  3
Divide ____ . . ____ . . ____ . . ____ . . ____
 72
   65
 73
    6
 40
31.75
 49
12.7
 74
    0
 49
-6.35
 74
    0
 49
0
 74
    0
 49
-6.35
 74
    0
 49
0
 74
    0
 49
-6.35
 74
    0
  0
LTYPE
  5
3F
330
5
100
AcDbSymbolTableRecord
100
AcDbLinetypeTableRecord
  2
DIVIDETINY
 70
    0
  3
Divide (.15x) __..__..__..__..__..__..__..__.._
 72
   65
 73
    6
 40
4.7625
 49
1.905
 74
    0
 49
-0.9525
 74
    0
 49
0
 74
    0
 49
-0.9525
 74
    0
 49
0
 74
    0
 49
-0.9525
 74
    0
  0
LTYPE
  5
40
330
5
100
AcDbSymbolTableRecord
100
AcDbLinetypeTableRecord
  2
DIVIDE2
 70
    0
  3
Divide (.5x) __..__..__..__..__..__..__..__.._
 72
   65
 73
    6
 40
15.875
 49
6.35
 74
    0
 49
-3.175
 74
    0
 49
0
 74
    0
 49
-3.175
 74
    0
 49
0
 74
    0
 49
-3.175
 74
    0
  0
LTYPE
  5
41
330
5
100
AcDbSymbolTableRecord
100
AcDbLinetypeTableRecord
  2
DIVIDEX2
 70
    0
  3
Divide (2x) ________  .  .  ________  .  .  _
 72
   65
 73
    6
 40
63.5
 49
25.4
 74
    0
 49
-12.7
 74
    0
 49
0
 74
    0
 49
-12.7
 74
    0
 49
0
 74
    0
 49
-12.7
 74
    0
  0
LTYPE
  5
42
330
5
100
AcDbSymbolTableRecord
100
AcDbLinetypeTableRecord
  2
BORDER
 70
    0
  3
Border __ __ . __ __ . __ __ . __ __ . __ __ .
 72
   65
 73
    6
 40
44.45
 49
12.7
 74
    0
 49
-6.35
 74
    0
 49
12.7
 74
    0
 49
-6.35
 74
    0
 49
0
 74
    0
 49
-6.35
 74
    0
  0
LTYPE
  5
43
330
5
100
AcDbSymbolTableRecord
100
AcDbLinetypeTableRecord
  2
BORDERTINY
 70
    0
  3
Border (.15x) __.__.__.__.__.__.__.__.__.__.__.
 72
   65
 73
    6
 40
6.6675
 49
1.905
 74
    0
 49
-0.9525
 74
    0
 49
1.905
 74
    0
 49
-0.9525
 74
    0
 49
0
 74
    0
 49
-0.9525
 74
    0
  0
LTYPE
  5
44
330
5
100
AcDbSymbolTableRecord
100
AcDbLinetypeTableRecord
  2
BORDER2
 70
    0
  3
Border (.5x) __.__.__.__.__.__.__.__.__.__.__.
 72
   65
 73
    6
 40
22.225
 49
6.35
 74
    0
 49
-3.175
 74
    0
 49
6.35
 74
    0
 49
-3.175
 74
    0
 49
0
 74
    0
 49
-3.175
 74
    0
  0
LTYPE
  5
45
330
5
100
AcDbSymbolTableRecord
100
AcDbLinetypeTableRecord
  2
BORDERX2
 70
    0
  3
Border (2x) ____  ____  .  ____  ____  .  ___
 72
   65
 73
    6
 40
88.89999999999999
 49
25.4
 74
    0
 49
-12.7
 74
    0
 49
25.4
 74
    0
 49
-12.7
 74
    0
 49
0
 74
    0
 49
-12.7
 74
    0
  0
LTYPE
  5
46
330
5
100
AcDbSymbolTableRecord
100
AcDbLinetypeTableRecord
  2
CENTER
 70
    0
  3
Center ____ _ ____ _ ____ _ ____ _ ____ _ ____
 72
   65
 73
    4
 40
50.8
 49
31.75
 74
    0
 49
-6.35
 74
    0
 49
6.35
 74
    0
 49
-6.35
 74
    0
  0
LTYPE
  5
47
330
5
100
AcDbSymbolTableRecord
100
AcDbLinetypeTableRecord
  2
CENTERTINY
 70
    0
  3
Center (.15x) ___ _ ___ _ ___ _ ___ _ ___ _ ___
 72
   65
 73
    4
 40
7.62
 49
4.7625
 74
    0
 49
-0.9525
 74
    0
 49
0.9525
 74
    0
 49
-0.9525
 74
    0
  0
LTYPE
  5
48
330
5
100
AcDbSymbolTableRecord
100
AcDbLinetypeTableRecord
  2
CENTER2
 70
    0
  3
Center (.5x) ___ _ ___ _ ___ _ ___ _ ___ _ ___
 72
   65
 73
    4
 40
28.575
 49
19.05
 74
    0
 49
-3.175
 74
    0
 49
3.175
 74
    0
 49
-3.175
 74
    0
  0
LTYPE
  5
49
330
5
100
AcDbSymbolTableRecord
100
AcDbLinetypeTableRecord
  2
CENTERX2
 70
    0
  3
Center (2x) ________  __  ________  __  _____
 72
   65
 73
    4
 40
101.6
 49
63.5
 74
    0
 49
-12.7
 74
    0
 49
12.7
 74
    0
 49
-12.7
 74
    0
  0
ENDTAB
  0
TABLE
  2
LAYER
  5
2
330
0
100
AcDbSymbolTable
 70
    1
  0
LAYER
  5
10
330
2
100
AcDbSymbolTableRecord
100
AcDbLayerTableRecord
  2
0
 70
    0
 62
    7
  6
CONTINUOUS
370
   -3
390
F
  0
ENDTAB
  0
TABLE
  2
STYLE
  5
3
330
0
100
AcDbSymbolTable
 70
    3
  0
STYLE
  5
4A
330
2
100
AcDbSymbolTableRecord
100
AcDbTextStyleTableRecord
  2
Standard
 70
    0
 40
0
 41
1
 50
0
 71
    0
 42
1
  3
txt
  4

  0
ENDTAB
  0
TABLE
  2
VIEW
  5
6
330
0
100
AcDbSymbolTable
 70
    0
  0
ENDTAB
  0
TABLE
  2
UCS
  5
7
330
0
100
AcDbSymbolTable
 70
    0
  0
ENDTAB
  0
TABLE
  2
APPID
  5
9
330
0
100
AcDbSymbolTable
 70
    1
  0
APPID
  5
12
330
9
100
AcDbSymbolTableRecord
100
AcDbRegAppTableRecord
  2
ACAD
 70
    0
  0
APPID
  5
4B
330
9
100
AcDbSymbolTableRecord
100
AcDbRegAppTableRecord
  2
LibreCad
 70
    0
  0
ENDTAB
  0
TABLE
  2
DIMSTYLE
  5
A
330
0
100
AcDbSymbolTable
 70
    1
100
AcDbDimStyleTable
 71
    1
  0
DIMSTYLE
105
4C
330
A
100
AcDbSymbolTableRecord
100
AcDbDimStyleTableRecord
  2
Standard
 70
    0
 40
0.1
 41
0.18
 42
0.0625
 43
0.38
 44
0.18
 45
0
 46
0
 47
0
 48
0
 49
1
140
0.18
141
0.09
142
0
143
25.4
144
1
145
0
146
1
147
0.09
148
0
 71
    0
 72
    0
 73
    1
 74
    1
 75
    0
 76
    0
 77
    0
 78
    0
 79
    0
170
    0
171
    2
172
    0
173
    0
174
    0
175
    0
176
    0
177
    0
178
    0
179
    0
271
    4
272
    4
273
    2
274
    2
275
    0
276
    0
277
    2
278
    0
279
    0
280
    0
281
    0
282
    0
283
    1
284
    0
285
    0
286
    0
288
    0
289
    3
340
standard
341

371
   -2
372
   -2
  0
ENDTAB
  0
TABLE
  2
BLOCK_RECORD
  5
1
330
0
100
AcDbSymbolTable
 70
    2
  0
BLOCK_RECORD
  5
1F
330
1
100
AcDbSymbolTableRecord
100
AcDbBlockTableRecord
  2
*Model_Space
 70
    0
280
    1
281
    0
  0
BLOCK_RECORD
  5
1E
330
1
100
AcDbSymbolTableRecord
100
AcDbBlockTableRecord
  2
*Paper_Space
 70
    0
280
    1
281
    0
  0
ENDTAB
  0
ENDSEC
  0
SECTION
  2
BLOCKS
  0
BLOCK
  5
20
330
1F
100
AcDbEntity
  8
0
100
AcDbBlockBegin
  2
*Model_Space
 70
    0
 10
0
 20
0
 30
0
  3
*Model_Space
  1

  0
ENDBLK
  5
21
330
1F
100
AcDbEntity
  8
0
100
AcDbBlockEnd
  0
BLOCK
  5
1C
330
1B
100
AcDbEntity
  8
0
100
AcDbBlockBegin
  2
*Paper_Space
 70
    0
 10
0
 20
0
 30
0
  3
*Paper_Space
  1

  0
ENDBLK
  5
1D
330
1F
100
AcDbEntity
  8
0
100
AcDbBlockEnd
  0
ENDSEC
  0
SECTION
  2
ENTITIES
  0
LWPOLYLINE
  5
4D
100
AcDbEntity
  8
0
  6
ByLayer
 62
  256
370
   -1
100
AcDbPolyline
 90
  198
 70
    1
 43
0
 10
5.64674573343454
 20
10.54398826962685
 42
0.09473799999999988
 10
5.565204792769225
 20
10.51115161769627
 42
0.05100499999999996
 10
5.480212486744566
 20
10.44330725921848
 42
0.04153899999999992
 10
5.393666247042316
 20
10.34305927239155
 42
0.02484899999999991
 10
5.307404731921445
 20
10.21124057754009
 42
0.04291499999999997
 10
5.139622995250967
 20
9.85851318690405
 42
0.02211100000000002
 10
4.988498240262453
 20
9.393151577745709
 42
0.02201499999999999
 10
4.876730603206882
 20
8.90653019676374
 42
0.03577500000000002
 10
4.830100125789283
 20
8.485191127963835
 42
-0.001996000000000086
 10
4.828779445422839
 20
8.454277554299464
 42
-0.002543999999999942
 10
4.82730286706833
 20
8.425784911349098
 42
-0.001981000000000068
 10
4.825849085677802
 20
8.401913402972328
 42
-0.021266
 10
4.824810814576087
 20
8.392275689613985
 10
4.822536105013878
 20
8.377208321232924
 10
4.668086970879448
 20
8.377208321232933
 42
0.002430000000000008
 10
4.586173086131509
 20
8.376810205502576
 42
0.008260000000000026
 10
4.532796429021316
 20
8.375409320192535
 42
0.01228600000000003
 10
4.492534497213293
 20
8.372694403630547
 42
0.0160050000000001
 10
4.455879531917201
 20
8.368129133492108
 42
0.001465000000000001
 10
4.432971492104091
 20
8.364459356595043
 42
0.001880000000000021
 10
4.41191695232339
 20
8.360941856293314
 42
0.001441999999999993
 10
4.394288546887207
 20
8.357876198941739
 42
0.01617400000000005
 10
4.387327042745757
 20
8.356411197170505
 10
4.376532799035037
 20
8.35377244858973
 10
4.376777450828176
 20
8.523697752912435
 42
0.012285
 10
4.37214058397474
 20
8.724145223650744
 42
0.015281
 10
4.357568574623516
 20
8.909976040983365
 42
0.015157
 10
4.331545958973619
 20
9.095812141987325
 42
0.01175399999999999
 10
4.292372225993118
 20
9.296317792477465
 42
0.008592999999999995
 10
4.259967054099537
 20
9.432483998967671
 42
0.010833
 10
4.225103668957123
 20
9.55724667726451
 42
0.01104200000000001
 10
4.185466041506453
 20
9.678382560440125
 42
0.009577999999999996
 10
4.138700088381034
 20
9.803585861306415
 42
0.002510000000000002
 10
4.108546591617308
 20
9.878720736358934
 42
0.01331700000000001
 10
4.090751245913643
 20
9.91929755123194
 42
0.02141400000000006
 10
4.077989042413863
 20
9.943647499016835
 42
0.1258490000000048
 10
4.067965264845179
 20
9.953862379260139
 42
0.1833769999999889
 10
4.053218419403008
 20
9.956572308986264
 42
0.02518400000000003
 10
4.022260142317085
 20
9.949279773930346
 42
0.02512100000000003
 10
3.9837873566119
 20
9.9360187087422
 42
0.01586999999999986
 10
3.940305472375778
 20
9.91691799938226
 42
0.020833
 10
3.875870803557555
 20
9.88277248113687
 42
0.03040099999999983
 10
3.822489337712768
 20
9.847050529085365
 42
0.03341900000000003
 10
3.777844274009781
 20
9.808103459668605
 42
0.0355259999999999
 10
3.739761352008922
 20
9.76429719363251
 42
0.03562800000000008
 10
3.708162741450353
 20
9.715362798042605
 42
0.02983099999999985
 10
3.681691548040465
 20
9.659497294263225
 42
0.02144800000000002
 10
3.655558272127918
 20
9.5856119777989
 42
0.007460999999999937
 10
3.624109266645468
 20
9.477126213050152
 42
-0.008348000000000208
 10
3.592271644167659
 20
9.368023802299147
 42
-0.02587500000000007
 10
3.565809652657294
 20
9.296059248784395
 42
-0.03378199999999997
 10
3.536342558230928
 20
9.23828408370197
 42
-0.0247129999999999
 10
3.496353893155209
 20
9.17837787742409
 10
3.466003713210055
 20
9.13744456315341
 10
3.476507236262926
 20
9.043606441433274
 42
0.01648900000000003
 10
3.506753167591542
 20
8.835669455622149
 42
0.02543499999999998
 10
3.54785900263651
 20
8.658739309179589
 42
0.02917999999999994
 10
3.600924101238967
 20
8.507514995574946
 42
0.03858900000000001
 10
3.667392864788634
 20
8.377616648103395
 42
-0.008620000000000018
 10
3.677388680456183
 20
8.360667995890076
 42
-0.009160000000000033
 10
3.686587492890808
 20
8.343721184056665
 42
-0.00882299999999998
 10
3.693971572005214
 20
8.32886735911165
 42
-0.0411209999999991
 10
3.697351459383742
 20
8.31992845581324
 42
-0.03724500000000066
 10
3.699496214377842
 20
8.309605230623935
 42
-0.004522000000000003
 10
3.702301606390635
 20
8.286599116372035
 42
-0.005347999999999994
 10
3.705099696250902
 20
8.259154955663496
 42
-0.004383999999999997
 10
3.707518371015333
 20
8.229775190231965
 42
0.01515500000000005
 10
3.721872621866867
 20
8.0918238152342
 42
0.01338199999999995
 10
3.745013380687281
 20
7.949111199321697
 42
0.01377400000000002
 10
3.774614704112502
 20
7.813597555925436
 42
0.02084200000000006
 10
3.808467720687235
 20
7.69774184143059
 42
-0.004588999999999992
 10
3.814053273697999
 20
7.680703663639975
 42
-0.006214000000000007
 10
3.818766486633938
 20
7.665202796740715
 42
-0.004303999999999996
 10
3.822434482518192
 20
7.652159964989015
 42
-0.06648200000000047
 10
3.823050059912767
 20
7.64755058509996
 42
-0.1382799999999941
 10
3.821687169542694
 20
7.64271679759672
 42
-0.002440000000000094
 10
3.807289046408913
 20
7.61946905927346
 42
-0.005932000000000113
 10
3.789958248213452
 20
7.592505475188421
 42
-0.003895999999999868
 10
3.769395564804054
 20
7.561855372685899
 42
-0.005170000000000024
 10
3.704282211370653
 20
7.468503348728968
 42
-0.01962600000000003
 10
3.660760966751406
 20
7.412268581626775
 42
-0.02714400000000009
 10
3.629085891376152
 20
7.37841437771017
 42
-0.1934520000000017
 10
3.608663907978824
 20
7.37020586776555
 42
0.07117500000000072
 10
3.594790530586259
 20
7.368220928987691
 42
0.03178000000000001
 10
3.577407133145778
 20
7.36191958692819
 42
0.031664
 10
3.560440848905632
 20
7.35320277592731
 42
0.05335299999999928
 10
3.547661903885427
 20
7.34359824877434
 42
0.1096469999999991
 10
3.52804873777267
 20
7.31500664087877
 42
0.1007369999999987
 10
3.521585204813176
 20
7.27989225166419
 42
0.1038219999999997
 10
3.529386040925354
 20
7.24591302064825
 42
0.1241099999999985
 10
3.549973183577357
 20
7.220430111247184
 42
-0.02742000000000004
 10
3.568386184523876
 20
7.204948241817915
 42
-0.1402180000000036
 10
3.575167272067569
 20
7.193589713881575
 42
-0.07104900000000053
 10
3.57712270539986
 20
7.177057403096375
 42
-0.003864999999999988
 10
3.575448256522049
 20
7.124509748082608
 42
-0.0143949999999999
 10
3.5712421573005
 20
7.063086950029064
 42
-0.01290800000000015
 10
3.563410450299598
 20
6.999721957505129
 42
-0.01249300000000002
 10
3.552002469574207
 20
6.93473523408259
 42
-0.01143799999999985
 10
3.537065293229633
 20
6.86844593725718
 42
0.009039000000000054
 10
3.52464640963272
 20
6.814539310101525
 42
0.01757799999999997
 10
3.517036438726791
 20
6.77104133738301
 42
0.01967599999999988
 10
3.513023282559764
 20
6.73051213491915
 42
0.01525999999999968
 10
3.511744990298213
 20
6.68618979073752
 42
0.03698900000000008
 10
3.517211987222858
 20
6.61403995252332
 42
0.04408700000000003
 10
3.533274348094328
 20
6.54774002898814
 42
0.0443690000000002
 10
3.560600368286403
 20
6.48563160036946
 42
0.03828600000000001
 10
3.599653823535069
 20
6.42598411588592
 42
0.03800000000000001
 10
3.648144806302127
 20
6.372038128347145
 42
0.01231299999999999
 10
3.727586170331643
 20
6.299790156327066
 42
0.012607
 10
3.816018858803309
 20
6.227074727811191
 42
0.0191600000000001
 10
3.896714293320151
 20
6.16889800370698
 42
-0.01564700000000003
 10
3.928192566779792
 20
6.14653839710547
 42
-0.06966799999999879
 10
3.944141833337763
 20
6.130505244844095
 42
-0.05813799999999989
 10
3.956415920593142
 20
6.109437050631845
 42
-0.008822000000000009
 10
3.97513899587006
 20
6.06436727474053
 42
0.008684999999999946
 10
3.982550443214659
 20
6.046512680677355
 42
0.007673000000000027
 10
3.990878934055645
 20
6.028167773787305
 42
0.007729000000000015
 10
3.998893432338051
 20
6.01186788517394
 42
0.02312599999999978
 10
4.005049087549617
 20
6.00108391197043
 42
0.0629999999999991
 10
4.026638346743274
 20
5.974966071502246
 42
0.01168299999999988
 10
4.073138928959849
 20
5.933281407293703
 42
0.01199900000000021
 10
4.121637570081998
 20
5.893782520741006
 42
0.05760100000000012
 10
4.152075850794204
 20
5.875354024983025
 42
0.03232400000000002
 10
4.185959738257662
 20
5.862417519696145
 42
0.02071700000000026
 10
4.22668467402945
 20
5.85164245155669
 42
0.01766100000000014
 10
4.275055616533049
 20
5.842744986489685
 42
0.01094499999999985
 10
4.332377038918325
 20
5.83555978713917
 42
-0.007153000000000009
 10
4.387555606056503
 20
5.8290677579747
 42
-0.01927299999999994
 10
4.426465096102945
 20
5.822390147275326
 42
-0.02263699999999986
 10
4.461035623372138
 20
5.813423875746725
 42
-0.01371400000000007
 10
4.501081637060373
 20
5.799865203317865
 42
0.01989499999999973
 10
4.5257045547421
 20
5.791866140479826
 42
0.04061499999999942
 10
4.545633731894626
 20
5.787968453310045
 42
0.02468699999999954
 10
4.571382130938717
 20
5.78635479633618
 42
0.003548999999999989
 10
4.624131812172343
 20
5.786031542510985
 42
0.01113199999999975
 10
4.684535752163806
 20
5.787435039973146
 42
0.02720900000000004
 10
4.728783709377037
 20
5.791870118075101
 42
0.03430100000000009
 10
4.765631855196029
 20
5.800221583981346
 42
0.03184999999999971
 10
4.801946765779407
 20
5.813689127921381
 42
-0.03954600000000025
 10
4.814453750143373
 20
5.81810989855375
 42
-0.01123000000000002
 10
4.834511991357601
 20
5.822981265427302
 42
-0.01123000000000008
 10
4.857504748013421
 20
5.827482715940005
 42
-0.01161999999999997
 10
4.880417299725651
 20
5.830890209017104
 42
0.02648099999999999
 10
4.944428562431607
 20
5.842362840507535
 42
0.02723700000000017
 10
5.00625719393768
 20
5.860460720920696
 42
0.02834799999999988
 10
5.063174504516145
 20
5.884250124606872
 42
0.03600900000000035
 10
5.112454772793946
 20
5.912765623888322
 42
0.03591099999999989
 10
5.142266136996675
 20
5.936303548565589
 42
0.02125099999999991
 10
5.174416683425375
 20
5.96827658738413
 42
0.02086199999999994
 10
5.20479494400585
 20
6.004054819440455
 42
0.02715600000000028
 10
5.229337775478175
 20
6.039324987908905
 42
-0.02417800000000001
 10
5.255251215042755
 20
6.07704167430873
 42
-0.03471299999999981
 10
5.28196533860006
 20
6.107516881353215
 42
-0.02945800000000008
 10
5.315823816947415
 20
6.13737947935781
 42
-0.01211700000000002
 10
5.364944090907695
 20
6.173924199960899
 42
0.02777699999999991
 10
5.51277147877792
 20
6.291269138001207
 42
0.0534390000000001
 10
5.61436395217588
 20
6.403084031263364
 42
0.06206200000000011
 10
5.680180983770904
 20
6.52164023611644
 42
0.05394399999999992
 10
5.7187922135386
 20
6.658464289371935
 42
0.009729999999999964
 10
5.7234228468472
 20
6.689565641153675
 42
0.03666999999999954
 10
5.724506058838851
 20
6.709227013346515
 42
0.031586
 10
5.722794089957824
 20
6.73020675058916
 42
0.005916000000000004
 10
5.716785190201884
 20
6.768311994617245
 42
0.02460300000000003
 10
5.700384674364702
 20
6.842547280098935
 42
0.02525900000000006
 10
5.676883854120998
 20
6.914148981936995
 42
0.02538900000000002
 10
5.64641600859613
 20
6.98266656325734
 42
0.02545700000000002
 10
5.609184291984745
 20
7.047680417441705
 42
0.009444999999999986
 10
5.597422424013805
 20
7.06525183046793
 42
0.002672000000000005
 10
5.57845065998138
 20
7.09216008442164
 42
0.00269200000000002
 10
5.55668775203865
 20
7.12233453776944
 42
0.002842000000000008
 10
5.534988901190017
 20
7.151729026240216
 42
-0.005745000000000059
 10
5.474496148026381
 20
7.234679579178341
 42
-0.02403699999999992
 10
5.44114128073489
 20
7.28665594464943
 42
-0.03379100000000002
 10
5.418749497168595
 20
7.332434207436965
 42
-0.02071099999999998
 10
5.398369248838134
 20
7.38897643671743
 42
-0.04498500000000006
 10
5.376304281122659
 20
7.4902012497041
 42
-0.03330399999999962
 10
5.369645133589424
 20
7.604626870278805
 42
-0.03147099999999999
 10
5.378333804587885
 20
7.72615677285531
 42
-0.02923499999999995
 10
5.40225518132336
 20
7.848723402989095
 42
-0.01705600000000005
 10
5.428774283977866
 20
7.93913568720019
 42
-0.01203300000000009
 10
5.46443989665745
 20
8.038854475753874
 42
-0.008442999999999959
 10
5.516242850847853
 20
8.16690092610455
 42
-0.002828999999999984
 10
5.596128399472429
 20
8.352230982001808
 42
0.003607999999999902
 10
5.646426457204621
 20
8.469421268763032
 42
0.011173
 10
5.678026373839256
 20
8.549497682593859
 42
0.01485599999999984
 10
5.700826187440549
 20
8.617431388547665
 42
0.01202899999999996
 10
5.72133923995961
 20
8.691539034777893
 42
0.02014700000000019
 10
5.772162874572328
 20
8.935126672760987
 42
0.01426500000000009
 10
5.810280704424283
 20
9.211865073967433
 42
0.01364899999999994
 10
5.834142892167341
 20
9.505624258406046
 42
0.01356699999999993
 10
5.842004520183471
 20
9.80084316094457
 42
0.015172
 10
5.832744203439765
 20
10.10091657010202
 42
0.03297600000000001
 10
5.803536365111591
 20
10.32944420122367
 42
0.04149300000000005
 10
5.758760337599907
 20
10.48754381794972
 42
0.2396610000000048
 10
5.696648999993631
 20
10.54441921536003
 42
0.01309300000000005
 10
5.683567401529745
 20
10.54768695829857
 42
0.05687100000000433
 10
5.6756295461653
 20
10.5485233812817
 42
0.04153199999999806
 10
5.66664433653381
 20
10.54769758500833
 42
0.004812999999999993
  0
LWPOLYLINE
  5
4E
100
AcDbEntity
  8
0
  6
ByLayer
 62
  256
370
   -1
100
AcDbPolyline
 90
   40
 70
    1
 43
0
 10
4.177333640175959
 20
7.59854934216255
 42
-0.06998399999999975
 10
4.235207651469394
 20
7.574632121123635
 42
-0.03990299999999987
 10
4.297291977048037
 20
7.53111158890951
 42
-0.03980200000000009
 10
4.352004571867763
 20
7.477982314478766
 42
-0.06666700000000025
 10
4.387477241492819
 20
7.424701653959085
 42
-0.02234499999999995
 10
4.402474259867842
 20
7.39015517036284
 42
-0.02974400000000009
 10
4.412763527079551
 20
7.357519297943145
 42
-0.03144099999999991
 10
4.41870427341192
 20
7.325433342912395
 42
-0.03058899999999998
 10
4.420648130160941
 20
7.292558221105085
 42
-0.07444199999999974
 10
4.407555786253091
 20
7.206345921304895
 42
-0.06821199999999962
 10
4.369659455027733
 20
7.12490715140784
 42
-0.06680800000000045
 10
4.310346147914634
 20
7.05522158188604
 42
-0.06628099999999984
 10
4.234608696861056
 20
7.003423792632795
 42
-0.02925900000000022
 10
4.203318260885882
 20
6.98986203311506
 42
-0.03043599999999964
 10
4.171063822043209
 20
6.980250025708285
 42
-0.02731300000000029
 10
4.134928734386647
 20
6.973892284909766
 42
-0.01665899999999986
 10
4.091751462708298
 20
6.970159638260469
 42
-0.009211999999999904
 10
4.060909129556374
 20
6.969095186270429
 42
-0.02339799999999997
 10
4.038517108521703
 20
6.969783072785131
 42
-0.02582900000000004
 10
4.017605643436818
 20
6.97249882048644
 42
-0.01363700000000005
 10
3.991991829594144
 20
6.97790645031738
 42
-0.07927800000000007
 10
3.888264693608019
 20
7.02097668312579
 42
-0.08320500000000011
 10
3.805047938621742
 20
7.09364265885261
 42
-0.08490799999999961
 10
3.751289788567434
 20
7.18807100821832
 42
-0.08725299999999983
 10
3.732645849626417
 20
7.294095947566105
 42
-0.04488400000000028
 10
3.738040418696748
 20
7.354069416761145
 42
-0.0606969999999999
 10
3.75414611754662
 20
7.406013308431985
 42
-0.05689899999999991
 10
3.783218064597319
 20
7.45500244048228
 42
-0.03380900000000001
 10
3.827865028047302
 20
7.506232086648815
 42
-0.009183000000000042
 10
3.854598980213908
 20
7.532051191901505
 42
-0.02448200000000006
 10
3.874863047141996
 20
7.549142562608075
 42
-0.02925899999999988
 10
3.89449342971193
 20
7.562377803110455
 42
-0.01905599999999995
 10
3.918536805824957
 20
7.575406921063515
 42
-0.01128899999999996
 10
3.936516189519093
 20
7.583781718237584
 42
-0.01051400000000002
 10
3.955283849483379
 20
7.591547112194824
 42
-0.01055499999999997
 10
3.972249599419681
 20
7.597743493232665
 42
-0.03468000000000018
 10
3.983768655977384
 20
7.600804579318025
 42
-0.03951600000000016
 10
4.022310723080919
 20
7.605116648801831
 42
-0.011019
 10
4.083074130824733
 20
7.605747839742051
 42
-0.01044199999999995
 10
4.143318135865769
 20
7.603787122738421
 42
-0.0497230000000001
  0
LWPOLYLINE
  5
4F
100
AcDbEntity
  8
0
  6
ByLayer
 62
  256
370
   -1
100
AcDbPolyline
 90
   12
 70
    1
 43
0
 10
3.704394533911934
 20
7.290862400073545
 42
-0.4350320000000596
 10
3.700674769921974
 20
7.277268522958118
 42
-0.06876999999999976
 10
3.671454701972492
 20
7.266744577625014
 42
-0.05513599999999971
 10
3.636157343375132
 20
7.263266615807694
 42
-0.2199810000000075
 10
3.617028612746965
 20
7.2723893196282
 42
-0.03996999999999914
 10
3.614814635721611
 20
7.275538090910955
 42
-0.05628399999999514
 10
3.613414759652168
 20
7.27866875523013
 42
-0.07105199999999381
 10
3.612969743917791
 20
7.281322226850145
 42
-0.2052349999999313
 10
3.613647538026563
 20
7.28301644497015
 42
-0.1606250000000013
 10
3.626224694295281
 20
7.289355781969625
 42
-0.015525
 10
3.660629053069206
 20
7.293409723330025
 42
-0.01254500000000001
 10
3.695614675057549
 20
7.29555198490619
 42
-0.2695819999999925
  0
LWPOLYLINE
  5
50
100
AcDbEntity
  8
0
  6
ByLayer
 62
  256
370
   -1
100
AcDbPolyline
 90
   16
 70
    1
 43
0
 10
3.649761372263587
 20
6.926719310989935
 42
-0.002305000000000143
 10
3.648818325980163
 20
6.724206280960503
 42
-0.004843999999999978
 10
3.645836435597793
 20
6.566905982784046
 42
-0.007716999999999859
 10
3.641621906248934
 20
6.471351380283764
 42
-0.9109549999996319
 10
3.63671005101748
 20
6.471186221029095
 42
-0.03086899999999984
 10
3.633557242772355
 20
6.519604657207755
 42
-0.0004049999999999633
 10
3.632802152707583
 20
6.82212161594197
 42
-0.000609999999999838
 10
3.632665074088209
 20
7.116106810906142
 42
-0.01923500000000005
 10
3.635501099521374
 20
7.18838327913118
 42
-0.007048
 10
3.637315120436471
 20
7.208092976138295
 42
-0.03295999999999993
 10
3.639262183008547
 20
7.219316384569375
 42
-0.09574799999999947
 10
3.641546628774126
 20
7.2243161624666
 42
-0.4637839999997111
 10
3.644260298627152
 20
7.22454128248591
 42
-0.1928170000000012
 10
3.647081601021055
 20
7.21794399546431
 42
-0.001170000000000001
 10
3.648469128735011
 20
7.151271780884535
 42
-0.003561999999999997
 10
3.649478547429197
 20
7.062298555024735
 42
-0.001066999999999922
  0
LWPOLYLINE
  5
51
100
AcDbEntity
  8
0
  6
ByLayer
 62
  256
370
   -1
100
AcDbPolyline
 90
   60
 70
    1
 43
0
 10
4.354716045138322
 20
6.308550245939244
 42
0.0110049999999999
 10
4.421362316298151
 20
6.27914340911299
 42
0.0242539999999999
 10
4.473722608764201
 20
6.260324515346845
 42
0.02791699999999993
 10
4.522812071202851
 20
6.248274301401805
 42
0.02039600000000005
 10
4.57838507331157
 20
6.240209697292315
 42
0.04090400000000014
 10
4.65589124818775
 20
6.2385381574021
 42
0.04020099999999995
 10
4.733098272278779
 20
6.24946211821255
 42
0.03930300000000023
 10
4.809167169816481
 20
6.272949699594358
 42
0.03562200000000023
 10
4.883281821363771
 20
6.308683465697509
 42
-0.003452999999999986
 10
4.898143779600627
 20
6.317066336796324
 42
-0.005233999999999982
 10
4.911195219580914
 20
6.324131970820124
 42
-0.002152000000000102
 10
4.922430263962355
 20
6.330001298538776
 42
-0.1198480000000124
 10
4.924717084411679
 20
6.330557449472549
 42
-0.4135669999999066
 10
4.928422184729496
 20
6.326860482446575
 42
-0.04780700000000084
 10
4.927211808423142
 20
6.31392991386906
 42
-0.03961999999999995
 10
4.922551847770252
 20
6.296965291907535
 42
-0.03044599999999994
 10
4.914923829267834
 20
6.27932554735646
 42
-0.07339700000000017
 10
4.880226671987781
 20
6.230264224920225
 42
-0.04733999999999991
 10
4.827523118985957
 20
6.18458688619198
 42
-0.04554200000000014
 10
4.764341452047365
 20
6.14769730214159
 42
-0.05196800000000003
 10
4.698213040045883
 20
6.124779763593485
 10
4.671845145379031
 20
6.11861241306446
 10
4.671845145379031
 20
6.04373287588194
 10
4.671845145379031
 20
5.968853338699425
 10
4.700136118312105
 20
5.938079812009095
 42
-0.005164999999999994
 10
4.717072125334466
 20
5.91927136685144
 42
-0.06130100000000149
 10
4.72260406985962
 20
5.911190318056995
 42
-0.223628000000021
 10
4.722797428483798
 20
5.906079879897115
 42
-0.1599179999999979
 10
4.718970328788429
 20
5.901710639902075
 42
-0.13107
 10
4.70111389434534
 20
5.896698573016456
 42
-0.002746000000000072
 10
4.608297302206472
 20
5.896002375108631
 42
-0.00201900000000005
 10
4.513610943451548
 20
5.896194487023847
 42
-0.197281999999994
 10
4.50144995050969
 20
5.901273519991165
 42
-0.2730440000000511
 10
4.500429489536078
 20
5.90522861514055
 42
-0.05331599999999881
 10
4.503322388644985
 20
5.912324526382135
 42
-0.0348100000000006
 10
4.509587279308958
 20
5.92224565824581
 42
-0.01173299999999999
 10
4.520030900964285
 20
5.935805577383635
 42
0.008405999999999986
 10
4.548180283378886
 20
5.971855651362019
 42
0.0817960000000004
 10
4.557141449337431
 20
5.988946903334405
 42
0.08448599999999939
 10
4.560015766546011
 20
6.007823442548535
 42
0.009255999999999983
 10
4.558432742992501
 20
6.051811134422985
 42
0.006894000000000009
 10
4.556539110804753
 20
6.07950445882378
 42
0.01761399999999997
 10
4.554185917944672
 20
6.099476320916675
 42
0.02123000000000012
 10
4.551395486439493
 20
6.11360693592624
 42
0.1211869999999978
 10
4.547898527152189
 20
6.12034682270691
 42
0.0952950000000055
 10
4.542668939235249
 20
6.124413646726634
 42
0.011032
 10
4.52922276744895
 20
6.13089047791512
 42
0.0129499999999999
 10
4.512701973879929
 20
6.137893360920874
 42
0.01023600000000001
 10
4.494498538774169
 20
6.144632238460948
 42
-0.02723600000000026
 10
4.428759278071889
 20
6.17154262963003
 42
-0.03472600000000051
 10
4.371690106467739
 20
6.203646572890176
 42
-0.03918699999999978
 10
4.327077100995353
 20
6.238284066241061
 42
-0.08067799999999964
 10
4.299660724086668
 20
6.272799204011835
 42
-0.03769699999999974
 10
4.290418692407827
 20
6.29269282027523
 42
-0.02793600000000011
 10
4.283164864696999
 20
6.31583945643792
 42
-0.022024
 10
4.278917564712421
 20
6.33639163187173
 42
-0.4618160000000402
 10
4.282504108944117
 20
6.340602361726597
 42
-0.1039490000000244
 10
4.285222943734297
 20
6.340030953449731
 42
-0.0008569999999999972
 10
4.30524034038806
 20
6.331187037501245
 42
-0.003019999999999998
 10
4.328186553242418
 20
6.320835731676615
 42
-0.001933999999999959
  0
LWPOLYLINE
  5
52
100
AcDbEntity
  8
0
  6
ByLayer
 62
  256
370
   -1
100
AcDbPolyline
 90
   52
 70
    1
 43
0
 10
3.745201989943966
 20
10.13203507897384
 42
0.04266200000000022
 10
3.625647586777422
 20
10.10720728545176
 42
0.03960399999999994
 10
3.508894538661302
 20
10.06203076752596
 42
0.03967599999999988
 10
3.400935360033678
 20
9.999112156179555
 42
0.0432110000000003
 10
3.307542491516286
 20
9.92150327623127
 42
0.05248099999999992
 10
3.229072848076448
 20
9.82568900206314
 42
0.05228300000000013
 10
3.172155418763799
 20
9.715519586537065
 42
0.05448300000000001
 10
3.141161580788753
 20
9.600648297189956
 42
0.06921499999999964
 10
3.139354387089428
 20
9.490937967399461
 42
0.01491300000000003
 10
3.147654975396374
 20
9.436591192611115
 42
0.01232300000000007
 10
3.159642022753714
 20
9.379236465286271
 42
0.01264899999999986
 10
3.173784926751674
 20
9.325197033942009
 42
0.02195599999999998
 10
3.188601172326381
 20
9.281250424096404
 42
0.01761899999999994
 10
3.210302338491664
 20
9.230533650252346
 42
0.01058000000000008
 10
3.239422194786978
 20
9.17186364496658
 42
0.007422000000000034
 10
3.26875333856877
 20
9.117751429565439
 42
0.08336000000000079
 10
3.284036268867053
 20
9.098770641734776
 42
0.1179780000000085
 10
3.298352821614089
 20
9.091103084747948
 42
0.105286999999999
 10
3.315230530150435
 20
9.090308753034243
 42
0.05880000000000123
 10
3.338578717596238
 20
9.097028692471424
 42
0.01386599999999967
 10
3.375616125709943
 20
9.113810582518536
 42
0.01813900000000038
 10
3.398126465362358
 20
9.125801073167315
 42
0.02589900000000004
 10
3.417089086862351
 20
9.138157146379097
 42
0.02435400000000013
 10
3.435507787049869
 20
9.1529903709426
 42
0.01368000000000016
 10
3.456453032011071
 20
9.17266177617428
 42
0.04269599999999984
 10
3.498936896035001
 20
9.22268733894639
 42
0.05311400000000036
 10
3.528844553663715
 20
9.275832108188595
 42
0.03300899999999992
 10
3.555669753053335
 20
9.351553826962331
 42
0.006962000000000018
 10
3.591826331597818
 20
9.487171125304187
 42
-0.00878900000000004
 10
3.62782612164784
 20
9.620244959250664
 42
-0.03823999999999985
 10
3.656444563469762
 20
9.69668840378252
 42
-0.05560200000000023
 10
3.690775425781687
 20
9.753220956226714
 42
-0.03485500000000002
 10
3.742228529688905
 20
9.81111954549694
 42
-0.02646000000000008
 10
3.804028605622913
 20
9.865506749276095
 42
-0.02890100000000001
 10
3.869499111492013
 20
9.911361773715784
 42
-0.03093799999999994
 10
3.934679312272921
 20
9.946240950505125
 42
-0.04645099999999994
 10
3.995524765340232
 20
9.96753551144565
 42
0.007721000000000035
 10
4.011677542295405
 20
9.97181967839542
 42
0.01006600000000026
 10
4.026310818487328
 20
9.976263661561426
 42
0.007936000000000186
 10
4.038350346355499
 20
9.980398757738914
 42
0.08653900000000125
 10
4.042782515469859
 20
9.982932723399305
 42
0.1794389999999842
 10
4.047865882235018
 20
9.991735557318956
 42
0.05745000000000079
 10
4.048691737875478
 20
10.00706615939348
 42
0.05162200000000012
 10
4.045737987495529
 20
10.02490300269564
 42
0.05116500000000038
 10
4.039188906554012
 20
10.04181294756387
 42
0.05928099999999929
 10
4.027318693637072
 20
10.059535093641
 42
0.03410299999999975
 10
4.009280595887267
 20
10.07788712458229
 42
0.03290900000000003
 10
3.987803421766517
 20
10.09455740449325
 42
0.03873200000000036
 10
3.965422680479652
 20
10.10727781355907
 42
0.05410100000000076
 10
3.922032993340046
 20
10.12220335395329
 42
0.02782300000000018
 10
3.865298058473428
 20
10.13180105389048
 42
0.02679600000000009
 10
3.803762581676044
 20
10.13539703749007
 42
0.03107999999999995
  0
LWPOLYLINE
  5
53
100
AcDbEntity
  8
0
  6
ByLayer
 62
  256
370
   -1
100
AcDbPolyline
 90
  110
 70
    1
 43
0
 10
3.708529689456514
 20
6.23298674047021
 42
0.06477599999999976
 10
3.654922747389859
 20
6.153123988809611
 42
0.01185100000000002
 10
3.579299874827119
 20
5.991690969139407
 42
0.01244999999999992
 10
3.498840721343209
 20
5.795668009160371
 42
0.01053599999999998
 10
3.423385442085985
 20
5.584722714610185
 42
0.01501299999999993
 10
3.374390670161787
 20
5.421978869511086
 42
0.03109799999999998
 10
3.348004609164264
 20
5.29196315329529
 42
0.03394699999999994
 10
3.339233061702998
 20
5.167185692592115
 42
0.02183999999999968
 10
3.345232700192319
 20
5.022207628384021
 42
-0.006617000000000003
 10
3.349483562202522
 20
4.963104302681339
 42
-0.05974599999999989
 10
3.347911818396815
 20
4.937277717174842
 42
-0.04779700000000038
 10
3.340398556486515
 20
4.910715573377403
 42
-0.003350999999999976
 10
3.31181704099687
 20
4.838713796694898
 42
0.02146199999999997
 10
3.270295992498566
 20
4.721953624527535
 42
0.01958400000000002
 10
3.237499888292976
 20
4.598463657985431
 42
0.02034099999999987
 10
3.215874355805065
 20
4.479450742080526
 42
0.0326940000000001
 10
3.208282610596898
 20
4.376637087565162
 42
0.0156219999999998
 10
3.20923331523541
 20
4.335127378181753
 42
0.06794300000000024
 10
3.213865254620071
 20
4.311019351303687
 42
0.1180149999999971
 10
3.223261047071595
 20
4.296047385842204
 42
0.1033889999999993
 10
3.238849183598588
 20
4.286069795872421
 42
0.05983400000000003
 10
3.300068886824551
 20
4.270841839502907
 42
0.002501000000000016
 10
3.523660797143083
 20
4.244047273533631
 42
0.004692999999999919
 10
3.769161242885202
 20
4.21820412460799
 42
0.005230999999999939
 10
4.006369708548955
 20
4.197984761101461
 42
0.01024500000000004
 10
4.085466268498277
 20
4.193703028202538
 42
0.006137000000000114
 10
4.179567623911872
 20
4.191696836005132
 42
0.003283000000000088
 10
4.321052765794874
 20
4.191346570152263
 42
0.0005800000000000363
 10
4.586463391219496
 20
4.192739975208482
 42
0.002614000000000096
 10
5.027515422216823
 20
4.197873032231117
 42
0.009496999999999953
 10
5.307638638270615
 20
4.207922337650093
 42
0.01222799999999994
 10
5.549450962683701
 20
4.227139940817523
 42
0.006871000000000036
 10
5.842077422974519
 20
4.261683040489427
 42
0.004280000000000052
 10
5.92665350630525
 20
4.273584658598939
 42
0.02177800000000023
 10
5.97331604195345
 20
4.282651379250082
 42
0.03828600000000035
 10
6.0011427048467
 20
4.291626377741457
 42
0.1729690000000089
 10
6.013652598198256
 20
4.302846105412726
 42
0.1537599999999996
 10
6.025103916902045
 20
4.361742239958398
 42
0.010157
 10
6.001834628323776
 20
4.535130486223718
 42
0.01566700000000001
 10
5.967117701801515
 20
4.720592574537369
 42
0.02282999999999998
 10
5.924039988739304
 20
4.88121107768201
 10
5.906366998615755
 20
4.936825874224692
 10
5.902124329264481
 20
5.069920961590705
 42
0.005572000000000005
 10
5.898139788036621
 20
5.162505903329935
 42
0.010568
 10
5.892526332491816
 20
5.236922199080315
 42
0.01166100000000001
 10
5.884219748108411
 20
5.305958173862845
 42
0.00882000000000001
 10
5.872004434275791
 20
5.381313241465905
 42
0.015587
 10
5.8453230813542
 20
5.50679206501405
 42
0.01386899999999998
 10
5.809948901737595
 20
5.635397100349345
 42
0.01359
 10
5.76665663599875
 20
5.7645905229503
 42
0.01340500000000001
 10
5.716226486483075
 20
5.891838960827455
 42
0.01355300000000001
 10
5.675365481332525
 20
5.980644474647555
 42
0.006955
 10
5.619621442626856
 20
6.089775262869345
 42
0.005546999999999989
 10
5.564068328494525
 20
6.19213179076322
 42
0.04122099999999994
 10
5.53323590964725
 20
6.23810703356765
 42
0.1365270000000145
 10
5.52116384861173
 20
6.24684040798767
 42
0.166728000000009
 10
5.507305194258405
 20
6.247179869029446
 42
0.06214000000000046
 10
5.486193662067749
 20
6.237496502376036
 42
0.007141000000000008
 10
5.442076015625187
 20
6.209314883629556
 42
-0.001748000000000161
 10
5.418080904959334
 20
6.193620242536457
 42
-0.001235000000000069
 10
5.391023164663684
 20
6.176152009519078
 42
-0.001247000000000063
 10
5.365078023071076
 20
6.159584019110569
 42
-0.002632000000000078
 10
5.344854266399619
 20
6.146889375363419
 42
0.01767999999999983
 10
5.31153739404809
 20
6.124551022181459
 42
0.04091400000000005
 10
5.28867073309929
 20
6.10498475607272
 42
0.03772199999999965
 10
5.268224884130296
 20
6.08099587895171
 42
0.0130810000000001
 10
5.242373126976071
 20
6.04355198434744
 42
-0.01617700000000005
 10
5.22843800780606
 20
6.023633196436309
 42
-0.008145000000000119
 10
5.209650816067944
 20
5.99938102625474
 42
-0.008079000000000012
 10
5.189399394330813
 20
5.974920952511036
 42
-0.0118750000000001
 10
5.170757177035519
 20
5.954150543640781
 42
-0.02565800000000006
 10
5.1169821667266
 20
5.90259894972511
 42
-0.04950699999999973
 10
5.068289573309335
 20
5.868272124375551
 42
-0.05513000000000021
 10
5.017499124901995
 20
5.846499955166205
 42
-0.04086400000000017
 10
4.957754693954413
 20
5.833569505322771
 42
5.000000000018911e-006
 10
4.938924164237591
 20
5.83107947131225
 42
3.999999999969823e-006
 10
4.917267107823136
 20
5.828215305876483
 42
3.999999999969823e-006
 10
4.896201228927708
 20
5.825429030067085
 42
7.000000000038067e-006
 10
4.879353263305219
 20
5.823200211268613
 42
0.02043299999999997
 10
4.8628866125257
 20
5.820332958744434
 42
0.01136899999999998
 10
4.843077297535355
 20
5.815569224411759
 42
0.01132500000000012
 10
4.823217639249552
 20
5.809828782653536
 42
0.01796299999999995
 10
4.806527649463487
 20
5.803925734425666
 42
-0.03993100000000004
 10
4.724487015970499
 20
5.77890155455762
 42
-0.05178599999999992
 10
4.646397915601277
 20
5.770058885318094
 42
-0.04876300000000007
 10
4.564556636808936
 20
5.77729365619185
 42
-0.03027000000000009
 10
4.470946900298258
 20
5.800811811626909
 42
0.01102399999999993
 10
4.438333884209636
 20
5.810353053458
 42
0.0199909999999999
 10
4.411228531504842
 20
5.816488108288051
 42
0.01889599999999991
 10
4.382716356780641
 20
5.820646595100449
 42
0.008729999999999967
 10
4.345385497122773
 20
5.823999707919724
 42
-0.01633399999999992
 10
4.254612201614893
 20
5.833546411523429
 42
-0.04240100000000031
 10
4.190528273586249
 20
5.848025036436265
 42
-0.05095500000000035
 10
4.136928811773401
 20
5.871242913111396
 42
-0.03422800000000004
 10
4.081016882926747
 20
5.907796716879826
 42
-0.01617499999999999
 10
4.046262495768366
 20
5.93588987865669
 42
-0.0430959999999999
 10
4.024023938670913
 20
5.958709224031815
 42
-0.0353780000000001
 10
4.003694271104286
 20
5.987449724598385
 42
-0.008140000000000033
 10
3.973723743723346
 20
6.03876141608841
 42
0.008862000000000017
 10
3.957836871980853
 20
6.065870983856855
 42
0.009314999999999983
 10
3.941252793089945
 20
6.091948573435515
 42
0.009020999999999993
 10
3.926135318881807
 20
6.11389914076143
 42
0.04063600000000035
 10
3.91608031422184
 20
6.12577950545139
 42
0.03890099999999995
 10
3.882186512453733
 20
6.154878761365195
 42
0.01040499999999999
 10
3.823927624291843
 20
6.195671613092175
 42
0.008733999999999969
 10
3.76460291869675
 20
6.233913460802865
 42
0.06758700000000045
 10
3.734540787890228
 20
6.247343722208055
 42
0.1004949999999961
 10
3.728601347633919
 20
6.24784893617544
 42
0.09752899999998667
 10
3.722865477141907
 20
6.246012237030551
 42
0.06514600000000162
 10
3.716537419890237
 20
6.241355066631071
 42
0.02142899999999992
  0
LWPOLYLINE
  5
54
100
AcDbEntity
  8
0
  6
ByLayer
 62
  256
370
   -1
100
AcDbPolyline
 90
   18
 70
    1
 43
0
 10
5.308606678100495
 20
5.117634532265761
 42
-0.163524000000023
 10
5.307297455583122
 20
5.117136382982515
 42
-0.0001930000000003787
 10
5.27809626636938
 20
5.115997128454424
 42
-0.001714999999999992
 10
5.245350980396049
 20
5.114844694431515
 42
-0.00105099999999998
 10
5.20673672290657
 20
5.113699503194045
 42
-0.001770000000000148
 10
5.126030721047052
 20
5.111761583154401
 42
-0.1921770000000003
 10
5.116034311708584
 20
5.115515780058704
 42
-0.5087520000001565
 10
5.116749507086391
 20
5.122025559984191
 42
-0.004542000000000019
 10
5.166800835177164
 20
5.150089928720611
 42
0.006551000000000264
 10
5.184945556227254
 20
5.160359901626867
 42
0.002901000000000051
 10
5.208641634842138
 20
5.17436982333494
 42
0.00286999999999972
 10
5.233576704702538
 20
5.18950338602547
 42
0.003866000000000169
 10
5.25596249219237
 20
5.203505827479739
 10
5.307185845446975
 20
5.23610002419966
 10
5.308606678100495
 20
5.177450916130875
 42
-0.002311000000000001
 10
5.309049022315655
 20
5.154881921789885
 42
-0.003744000000000197
 10
5.309192750049501
 20
5.13568705621934
 42
-0.0007149999999998502
 10
5.30916864700946
 20
5.118819143253447
 42
-0.2236719999999255
  0
LWPOLYLINE
  5
55
100
AcDbEntity
  8
0
  6
ByLayer
 62
  256
370
   -1
100
AcDbPolyline
 90
   20
 70
    1
 43
0
 10
5.405123739923851
 20
5.17600752398175
 42
-0.01428600000000014
 10
5.404358676187342
 20
5.14923658611577
 42
-0.09493100000000305
 10
5.401115273757226
 20
5.136342825136345
 42
-0.1609369999999965
 10
5.394079916951215
 20
5.128864233608771
 42
-0.06410200000000055
 10
5.38078263783592
 20
5.123725655446475
 42
-0.06358000000000184
 10
5.36735570098798
 20
5.12219184721364
 42
-0.2253660000000408
 10
5.35977808514811
 20
5.125913867153165
 42
-0.1454020000000031
 10
5.35586525936944
 20
5.135650426722525
 42
-0.02333900000000006
 10
5.354899178653661
 20
5.156336237484255
 42
-0.01481799999999998
 10
5.355422321483346
 20
5.17398340292205
 42
-0.06929199999999529
 10
5.35741361254023
 20
5.183927687952265
 42
-0.08835200000000462
 10
5.361814079626551
 20
5.191753458243794
 42
-0.03274899999999971
 10
5.370497704422052
 20
5.201001011062348
 42
-0.02752999999999964
 10
5.37716836917146
 20
5.206577718376154
 42
-0.02888400000000005
 10
5.38430880573332
 20
5.21129188118559
 42
-0.03014199999999966
 10
5.390906152122015
 20
5.21460587109011
 42
-0.1016570000000064
 10
5.395609985057145
 20
5.215572189274265
 42
-0.1743019999999942
 10
5.400653457135335
 20
5.213758940131385
 42
-0.1625439999999867
 10
5.403566184853534
 20
5.209094883149035
 42
-0.05330199999999897
 10
5.404857537875699
 20
5.19917701647551
 42
-0.005743999999999999
  0
LWPOLYLINE
  5
56
100
AcDbEntity
  8
0
  6
ByLayer
 62
  256
370
   -1
100
AcDbPolyline
 90
   52
 70
    1
 43
0
 10
3.185198131781251
 20
5.473447943166505
 42
-0.0002479999999999791
 10
3.152245951486126
 20
5.467612751526687
 42
-0.0001049999999999832
 10
3.108085026432171
 20
5.459824798073825
 42
-0.0001040000000000253
 10
3.060953906313578
 20
5.451533411666446
 42
-0.0001360000000004029
 10
3.017898455911539
 20
5.44398037380337
 42
0.009809999999999994
 10
2.819899106016273
 20
5.40528377415496
 42
0.009384000000000012
 10
2.620602288288058
 20
5.358327133924574
 42
0.009766999999999994
 10
2.442205477795643
 20
5.309013620074305
 42
0.02323200000000008
 10
2.312308377033061
 20
5.26369450238945
 42
0.02963100000000002
 10
2.176805538447858
 20
5.19967356284722
 42
0.03679999999999996
 10
2.05978729752418
 20
5.123974641037455
 42
0.04119200000000004
 10
1.968385304494018
 20
5.042161502247525
 42
0.0737600000000001
 10
1.910681320556936
 20
4.959794112270815
 42
0.06760800000000024
 10
1.89293827726282
 20
4.90779702768402
 42
0.07856699999999964
 10
1.891005937729977
 20
4.85562445396825
 42
0.07161800000000025
 10
1.905527781887026
 20
4.801640471489502
 42
0.04526499999999999
 10
1.936632873795668
 20
4.744190697447648
 42
0.0597900000000001
 10
1.991466874322011
 20
4.679895541299618
 42
0.03453599999999997
 10
2.070870065310281
 20
4.616186813303161
 42
0.03036799999999976
 10
2.170821454137086
 20
4.555399243152209
 42
0.02223899999999985
 10
2.288249328007295
 20
4.499941769407831
 42
0.01602699999999999
 10
2.359068096613634
 20
4.472905104430449
 42
0.004817999999999959
 10
2.468456300553699
 20
4.436289736985858
 42
0.004923000000000124
 10
2.579568762363205
 20
4.401489340329852
 42
0.01378000000000038
 10
2.658293209369207
 20
4.380030391906868
 42
0.00449800000000002
 10
2.735294704581832
 20
4.362036582008969
 42
0.002727000000000106
 10
2.826711598752515
 20
4.342062582700699
 42
0.002729999999999919
 10
2.917871077204921
 20
4.323184856144697
 42
0.004708999999999937
 10
2.993965740061301
 20
4.308604001096501
 42
0.01472999999999993
 10
3.045564233980993
 20
4.300782149033149
 42
0.02308200000000023
 10
3.090311824654802
 20
4.297427314568168
 42
0.0220810000000001
 10
3.125581280718124
 20
4.297973313728928
 42
0.1834589999999947
 10
3.139915109289424
 20
4.304417730484248
 42
0.1590039999999789
 10
3.142230960247567
 20
4.308976470242372
 42
0.002633000000000214
 10
3.146519460995172
 20
4.337467688382497
 42
0.006518999999999985
 10
3.150935719728424
 20
4.370962187078375
 42
0.004250000000000045
 10
3.155200058068893
 20
4.409730324074724
 42
-0.004879999999999979
 10
3.164930680928886
 20
4.497178290563188
 42
-0.01268600000000002
 10
3.17414391956728
 20
4.559855752774984
 42
-0.01531299999999992
 10
3.18538424762006
 20
4.614757134952676
 42
-0.01083599999999993
 10
3.201210208724413
 20
4.675658155619683
 42
0.007755000000000008
 10
3.228592746389695
 20
4.778425681903241
 42
0.01129799999999993
 10
3.249261934365189
 20
4.86986958810156
 42
0.0120829999999999
 10
3.264748553161958
 20
4.957186828249696
 42
0.01122399999999993
 10
3.276433540746555
 20
5.047319909019114
 42
0.02191400000000003
 10
3.28101994557035
 20
5.120426507315351
 42
0.003099000000000055
 10
3.282925391809734
 20
5.27122046885773
 42
0.00181900000000003
 10
3.283363817796715
 20
5.4278532434327
 42
0.05208400000000012
 10
3.279141630092772
 20
5.467950609656985
 42
0.09428300000000064
 10
3.273877371793112
 20
5.48050669060744
 42
0.2360789999999858
 10
3.265498181454109
 20
5.485327892286815
 42
0.0564859999999999
 10
3.248415003406467
 20
5.484397669295631
 42
0.002127000000000002
  0
LWPOLYLINE
  5
57
100
AcDbEntity
  8
0
  6
ByLayer
 62
  256
370
   -1
100
AcDbPolyline
 90
   52
 70
    1
 43
0
 10
5.940760968148279
 20
5.483345090724331
 42
0.2024520000000031
 10
5.936993116812422
 20
5.474070703979428
 42
0.003199999999999936
 10
5.938157008684411
 20
5.41591089949692
 42
0.006302999999999997
 10
5.941218807174895
 20
5.337474857832119
 42
0.002059999999999991
 10
5.947667082791305
 20
5.221912357413069
 42
0.003377999999999976
 10
5.95849979637874
 20
5.059546799435024
 42
0.01985700000000013
 10
5.968135788091379
 20
4.974700417726665
 42
0.02119900000000001
 10
5.984262502892417
 20
4.893130327818355
 42
0.004184999999999993
 10
6.020572901576676
 20
4.74848376946148
 42
-0.004479999999999986
 10
6.051422655615315
 20
4.625282564463122
 42
-0.009692999999999986
 10
6.072450124001289
 20
4.529911821852021
 42
-0.01226499999999999
 10
6.086323738862225
 20
4.450563664159611
 42
-0.01646399999999999
 10
6.094745910977071
 20
4.378057920218689
 42
0.00451300000000007
 10
6.098128113672251
 20
4.341293897571468
 42
0.01910200000000005
 10
6.10119068393495
 20
4.319396998098255
 42
0.02829900000000033
 10
6.104461988899105
 20
4.305657849704547
 42
0.1813809999999994
 10
6.108710654326839
 20
4.300059592135731
 42
0.1983609999999982
 10
6.133161526170984
 20
4.295834495444154
 42
0.000947999999999873
 10
6.38664470880032
 20
4.353163932387091
 42
0.004655000000000076
 10
6.619871423489685
 20
4.408666347021432
 42
0.01556600000000014
 10
6.771231806473105
 20
4.451220679785585
 42
0.01277799999999998
 10
6.920637171693875
 20
4.502521922667123
 42
0.01835000000000005
 10
7.049890139489814
 20
4.556106839542021
 42
0.02097500000000002
 10
7.155374007145614
 20
4.609907912005076
 42
0.04483000000000035
 10
7.230623935625729
 20
4.661742627590596
 42
0.02322799999999983
 10
7.259342707836005
 20
4.687925415659288
 42
0.01941999999999997
 10
7.287354121124849
 20
4.718219137498334
 42
0.01977399999999999
 10
7.310715725533825
 20
4.747834352823483
 42
0.05235300000000051
 10
7.324191758968253
 20
4.77116769849586
 42
0.0667519999999996
 10
7.337461491752081
 20
4.816322072495699
 42
0.04445800000000044
 10
7.340897777869621
 20
4.870223831549669
 42
0.04393199999999974
 10
7.334706146199275
 20
4.924783318634744
 42
0.05902500000000058
 10
7.319131604736736
 20
4.971983067113829
 42
0.07745499999999948
 10
7.26633627020805
 20
5.050623628416425
 42
0.04339400000000002
 10
7.180956118960255
 20
5.128305648624151
 42
0.03851199999999999
 10
7.070379207703025
 20
5.19988663134651
 42
0.03040100000000005
 10
6.94116797497396
 20
5.260202233102545
 42
0.014546
 10
6.880512259138115
 20
5.282127806882015
 42
0.004334000000000041
 10
6.786701565015264
 20
5.312085095401065
 42
0.004445999999999926
 10
6.691293777337695
 20
5.340716182413943
 42
0.01211499999999999
 10
6.62313388275689
 20
5.358732848642924
 42
0.007450000000000035
 10
6.493485055180159
 20
5.387628237956958
 42
0.003614999999999999
 10
6.326981135834472
 20
5.420888117898541
 42
0.003603000000000004
 10
6.161375143781003
 20
5.451489361282949
 42
0.008138000000000025
 10
6.035441983864765
 20
5.471714305296286
 42
-0.001113000000000061
 10
6.007739991868284
 20
5.47576492209943
 42
-0.00149900000000001
 10
5.982681972756834
 20
5.47956269445052
 42
-0.001018999999999742
 10
5.961672730068631
 20
5.482855134100019
 42
-0.01614199999999997
 10
5.95457272249758
 20
5.484218914976499
 42
0.03315799999999991
 10
5.95029324554822
 20
5.48489089111009
 42
0.03818100000000068
 10
5.94616159266217
 20
5.484945212000825
 42
0.04163599999999894
 10
5.942727799962565
 20
5.48443887005866
 42
0.1398419999999587
  0
LWPOLYLINE
  5
58
100
AcDbEntity
  8
0
  6
ByLayer
 62
  256
370
   -1
100
AcDbPolyline
 90
   64
 70
    1
 43
0
 10
6.713473561012373
 20
4.185615686496163
 42
-0.006895000000000249
 10
6.477774384971749
 20
4.136596989633194
 42
-0.007798999999999894
 10
6.250279563179205
 20
4.096219054524092
 42
-0.00781699999999997
 10
6.022092758542477
 20
4.063031127500075
 42
-0.00698999999999995
 10
5.784319177513789
 20
4.035610060590987
 42
-0.004886000000000217
 10
5.48320815029263
 20
4.008112825700683
 42
-0.008155999999999983
 10
5.229283929524174
 20
3.991588766941502
 42
-0.007906999999999789
 10
4.969525288888141
 20
3.98305076962686
 42
-0.00426100000000018
 10
4.649244092807402
 20
3.980321367494007
 42
-0.002964000000000027
 10
4.414699784840547
 20
3.981711685461367
 42
-0.004715000000000061
 10
4.214074984593363
 20
3.98598285101761
 42
-0.005189000000000041
 10
4.028586062353353
 20
3.993609563443963
 42
-0.004971000000000004
 10
3.840628656357299
 20
4.005167149245485
 42
-0.004610999999999977
 10
3.600505444494162
 20
4.02455774812395
 42
-0.003061999999999916
 10
3.325426947227565
 20
4.05102573571078
 42
-0.002687000000000006
 10
3.071867715351158
 20
4.078369269195505
 42
-0.01438600000000016
 10
2.934199580757456
 20
4.097990034296256
 42
0.003049000000000031
 10
2.911257820435127
 20
4.101792318546462
 42
0.0008009999999999846
 10
2.874454437404788
 20
4.107601151196633
 42
0.0008130000000000416
 10
2.832532720391097
 20
4.114079288461172
 42
0.0008330000000000246
 10
2.790935325810267
 20
4.120367154190408
 42
-0.0006970000000000475
 10
2.746793457593455
 20
4.127027310964245
 42
-0.0004900000000000212
 10
2.697125284725454
 20
4.134641853136387
 42
-0.0004940000000002828
 10
2.649592130648142
 20
4.142024863643107
 42
-0.001034999999999912
 10
2.612638133301109
 20
4.147880477563106
 42
0.003646999999999995
 10
2.565797140169253
 20
4.155052022482064
 42
0.00931900000000001
 10
2.531735507627257
 20
4.15936634791543
 42
0.01254999999999991
 10
2.506260197214186
 20
4.161466577589255
 42
0.03191999999999995
 10
2.487717360433744
 20
4.161343034667264
 42
0.7398949999999731
 10
2.486073426242094
 20
4.15420331051053
 42
0.02367900000000006
 10
2.526275278551292
 20
4.133490428354071
 42
0.01578099999999998
 10
2.592253135603154
 20
4.105840738767144
 42
0.008470000000000075
 10
2.67523919006331
 20
4.07570422099222
 42
0.01392499999999992
 10
2.822045167086423
 20
4.02971942008571
 42
0.00789900000000001
 10
3.002048747969822
 20
3.981852029270876
 42
0.007532000000000149
 10
3.197369157762013
 20
3.936314974985041
 42
0.007788999999999948
 10
3.391798051908113
 20
3.897224534037001
 42
0.009151000000000143
 10
3.482317078153673
 20
3.882195873001034
 42
0.002811999999999904
 10
3.619431555231531
 20
3.862789423108541
 42
0.002852000000000065
 10
3.757561447080069
 20
3.844832598910008
 42
0.008312000000000149
 10
3.853184796674848
 20
3.834566662966122
 42
0.002144000000000019
 10
4.047892716161333
 20
3.817773255702829
 42
0.009624000000000079
 10
4.16205569671354
 20
3.810628663444413
 42
0.009427999999999931
 10
4.277446448130497
 20
3.807812822823127
 42
0.002002000000000032
 10
4.478480584488729
 20
3.80750334216367
 42
0.002582000000000024
 10
4.719571242510817
 20
3.809342415992301
 42
0.004329000000000091
 10
4.922137168620742
 20
3.813688087251146
 42
0.005096000000000018
 10
5.087218889869759
 20
3.820344207062602
 42
0.01224699999999989
 10
5.209247950970089
 20
3.829511436203374
 42
0.006460000000000098
 10
5.445077140945894
 20
3.856129325701785
 42
0.006041000000000093
 10
5.685475638022523
 20
3.88936836779348
 42
0.006219999999999851
 10
5.901404562620454
 20
3.924639961072183
 42
0.01618099999999988
 10
6.055531808372848
 20
3.956962553338432
 42
-0.0003040000000000051
 10
6.09437439170471
 20
3.966405008325609
 42
-0.0002410000000000081
 10
6.136346273912576
 20
3.976559690335883
 42
-0.0002439999999999899
 10
6.17527505826446
 20
3.985938206963141
 42
-0.0006109999999999861
 10
6.203694264119918
 20
3.992733423875137
 42
0.01253199999999968
 10
6.368679098271998
 20
4.036365388124135
 42
0.007335000000000081
 10
6.564058400221128
 20
4.096434260238748
 42
0.003620000000000111
 10
6.752184171294915
 20
4.158815777488456
 42
0.0973339999999995
 10
6.79759970113996
 20
4.184908327574727
 42
0.1956190000000334
 10
6.802578463086016
 20
4.194736371835481
 42
0.4360969999999008
 10
6.7975361783497
 20
4.20025941129658
 42
0.05106199999999995
 10
6.77148007965896
 20
4.19781271526392
 42
0.005793999999999991
  0
LWPOLYLINE
  5
59
100
AcDbEntity
  8
0
  6
ByLayer
 62
  256
370
   -1
100
AcDbPolyline
 90
   36
 70
    1
 43
0
 10
3.842068189645371
 20
3.68454583908496
 42
0.5090289999999815
 10
3.839647852602317
 20
3.675419632605928
 42
0.1047039999999984
 10
3.855052485442684
 20
3.662970174955762
 42
0.03002499999999988
 10
3.89657026875083
 20
3.64487484732763
 42
0.006055000000000092
 10
3.972543704001864
 20
3.61809595427109
 42
0.01204699999999992
 10
4.162115360642709
 20
3.558898056788146
 42
0.02166199999999989
 10
4.320524814230775
 20
3.5209262106196
 42
0.02466499999999999
 10
4.466371537753889
 20
3.499981796797713
 42
0.02319799999999981
 10
4.616598127981813
 20
3.492927679990091
 42
0.01329500000000034
 10
4.722245255145293
 20
3.495681007061706
 42
0.01711999999999996
 10
4.818994323570828
 20
3.504107987911137
 42
0.0172679999999998
 10
4.914260580097017
 20
3.519057215775733
 42
0.01393000000000004
 10
5.015415280546028
 20
3.541469540356446
 42
0.01613099999999975
 10
5.114204677247844
 20
3.569680248978839
 42
0.012772
 10
5.219072314471039
 20
3.606300009588371
 42
0.009119000000000011
 10
5.312446601088105
 20
3.643566812152137
 42
0.1050409999999991
 10
5.344698249677375
 20
3.665978424327726
 42
0.01084999999999977
 10
5.351489904563749
 20
3.673529621810896
 42
0.1508459999999963
 10
5.352938461650028
 20
3.676850201462817
 42
0.2680759999999686
 10
5.351796179400145
 20
3.679464609535178
 42
0.03718299999999988
 10
5.346581967560475
 20
3.682738882854014
 42
0.1080160000000019
 10
5.33993095331908
 20
3.684588108455675
 42
0.02190300000000012
 10
5.327612043907955
 20
3.684738307202738
 42
0.01846200000000007
 10
5.310958921087075
 20
3.683595253180638
 42
0.008260000000000026
 10
5.2891606303565
 20
3.68092325902739
 42
-0.01297300000000021
 10
5.159820096097348
 20
3.66630482460889
 42
-0.009126999999999804
 10
5.013726939768287
 20
3.656303962738376
 42
-0.00781699999999997
 10
4.844629093997558
 20
3.650474054769941
 42
-0.004760999999999729
 10
4.644740920648998
 20
3.648613608787567
 42
-0.005491999999999944
 10
4.426806456891709
 20
3.651054308743756
 42
-0.006417000000000276
 10
4.220020420926135
 20
3.658297984681562
 42
-0.006929999999999938
 10
4.031274204356103
 20
3.669960175302179
 42
-0.01063399999999996
 10
3.868252165055935
 20
3.685796406913747
 42
0.02155899999999968
 10
3.860890764171327
 20
3.686349530125753
 42
0.01990500000000025
 10
3.853309467571651
 20
3.68628945062693
 42
0.02035099999999995
 10
3.84656453458802
 20
3.685691505259184
 42
0.06026099999999822
  0
LWPOLYLINE
  5
5A
100
AcDbEntity
  8
0
  6
ByLayer
 62
  256
370
   -1
100
AcDbPolyline
 90
   36
 70
    1
 43
0
 10
4.031481989184067
 20
7.59304963396928
 42
0.03287400000000022
 10
3.996922266725929
 20
7.585340223181396
 42
0.02340099999999997
 10
3.959401194899846
 20
7.572404489666735
 42
0.02373600000000007
 10
3.924538700263839
 20
7.556573541726505
 42
0.04456099999999999
 10
3.898386901818056
 20
7.540076079425305
 42
0.02778899999999994
 10
3.876380588791155
 20
7.52125997591256
 42
0.01147499999999991
 10
3.848670463502839
 20
7.49352082011543
 42
0.01111400000000006
 10
3.82275185900111
 20
7.465118237046195
 42
0.03675600000000009
 10
3.80755673263441
 20
7.44487886682909
 42
0.03416900000000005
 10
3.793429145346622
 20
7.419153561584445
 42
0.02802500000000026
 10
3.781858201949026
 20
7.39000241883075
 42
0.02607799999999992
 10
3.772897510927232
 20
7.357584661113305
 42
0.02113500000000008
 10
3.766605548868533
 20
7.32205452414155
 42
0.07207499999999957
 10
3.76743235438249
 20
7.246156188264045
 42
0.06600899999999989
 10
3.789539888304148
 20
7.171148714994605
 42
0.06425700000000023
 10
3.831189050990659
 20
7.10272487431521
 42
0.06195499999999987
 10
3.889300352557616
 20
7.046159195032734
 42
0.04035500000000003
 10
3.940376119217277
 20
7.013600737303219
 42
0.05664800000000052
 10
3.99067061492385
 20
6.993881066624366
 42
0.05572999999999985
 10
4.044738779941463
 20
6.985756857952801
 42
0.03747999999999983
 10
4.107207329350529
 20
6.98807728017716
 42
0.03330099999999987
 10
4.170007800180474
 20
6.99941627633967
 42
0.05261800000000015
 10
4.221362829648903
 20
7.018182511493704
 42
0.05449200000000026
 10
4.266399953638683
 20
7.046692905205095
 42
0.03896999999999983
 10
4.31002152864628
 20
7.08742342148369
 42
0.06572200000000021
 10
4.353388181353532
 20
7.14940516072442
 42
0.06067799999999977
 10
4.380622716854217
 20
7.22219242342367
 42
0.06144900000000012
 10
4.389362799755824
 20
7.298468334017105
 42
0.07113199999999986
 10
4.378394966663125
 20
7.37070526375776
 42
0.06485399999999976
 10
4.348035466084261
 20
7.43828318271902
 42
0.05706100000000011
 10
4.300255344897165
 20
7.499120680595775
 42
0.05647699999999976
 10
4.239410782336262
 20
7.548142880117259
 42
0.06071900000000018
 10
4.170555758455325
 20
7.580902414193135
 42
0.04238900000000007
 10
4.141825469028869
 20
7.587874366943077
 42
0.01655600000000007
 10
4.101253344156263
 20
7.592776070401506
 42
0.01651199999999998
 10
4.06054598104421
 20
7.594980548691871
 42
0.04373700000000018
  0
LWPOLYLINE
  5
5B
100
AcDbEntity
  8
0
  6
ByLayer
 62
  256
370
   -1
100
AcDbPolyline
 90
   28
 70
    1
 43
0
 10
4.172784636621196
 20
7.531333265637385
 42
-0.05371999999999999
 10
4.186685916547798
 20
7.52065734054441
 42
-0.03270899999999959
 10
4.200713114080138
 20
7.505391982905865
 42
-0.03082300000000024
 10
4.211775697054388
 20
7.48976881979359
 42
-0.1395210000000014
 10
4.214801637820271
 20
7.479135757742265
 42
-0.1947209999999956
 10
4.209724029663185
 20
7.466591965780193
 42
-0.001161000000000023
 10
4.121237495237531
 20
7.375625905319063
 42
-0.005301000000000143
 10
4.031779358956402
 20
7.286008071555877
 42
-0.007672999999999805
 10
3.950718282509461
 20
7.208910757853992
 42
-0.001569999999999694
 10
3.892641473223959
 20
7.155683408984475
 42
-0.02282699999999991
 10
3.871215592272161
 20
7.137889013154309
 42
-0.09056699999999658
 10
3.859795619393843
 20
7.132134145192315
 42
-0.3368960000000129
 10
3.852736159547792
 20
7.134821752891205
 42
-0.07756799999999775
 10
3.847583273915914
 20
7.146931808866692
 42
-0.004682999999999918
 10
3.838237112354724
 20
7.185439443055882
 42
-0.005919999999999963
 10
3.829846998470477
 20
7.223512747587561
 42
-0.05130999999999946
 10
3.828072516039784
 20
7.240759007041595
 42
-0.1802610000000168
 10
3.831885308265572
 20
7.250991044374975
 42
-0.01135900000000001
 10
3.853831007489805
 20
7.275214658984475
 42
-0.01026599999999994
 10
3.889305695596049
 20
7.311121064596107
 42
-0.002201999999999956
 10
3.952378305183516
 20
7.371855085628543
 42
-0.002691999999999881
 10
4.038624800429676
 20
7.453292133879879
 42
-0.01000700000000001
 10
4.094238528364674
 20
7.503194925502214
 42
-0.009531000000000003
 10
4.133380618684233
 20
7.53564877841263
 42
-0.1704759999999964
 10
4.148586727963268
 20
7.5409506160826
 42
-0.07266800000000032
 10
4.152884430610397
 20
7.54031295412917
 42
-0.02148300000000027
 10
4.159183219884874
 20
7.538117796472521
 42
-0.0210710000000003
 10
4.166137362506703
 20
7.535008623041259
 42
-0.02125299999999953
  0
LWPOLYLINE
  5
5C
100
AcDbEntity
  8
0
  6
ByLayer
 62
  256
370
   -1
100
AcDbPolyline
 90
   18
 70
    1
 43
0
 10
4.292339514724491
 20
7.207819709405995
 42
-0.04074400000000018
 10
4.291049645879668
 20
7.19425035090027
 42
-0.05422299999999839
 10
4.287574355581566
 20
7.18236862076715
 42
-0.03971200000000021
 10
4.280745240059069
 20
7.168999982405225
 42
-0.01193900000000003
 10
4.268303618865266
 20
7.149823639367909
 42
-0.02784500000000009
 10
4.236182043578294
 20
7.108012820085248
 42
-0.06198000000000069
 10
4.206488463689463
 20
7.081104269296074
 42
-0.08310199999999941
 10
4.177336727264832
 20
7.067144156579621
 42
-0.1000749999999991
 10
4.14711252429251
 20
7.064681490798755
 10
4.133083961317014
 20
7.066347272080885
 10
4.155108618775868
 20
7.092105407328345
 42
-0.004712000000000004
 10
4.20155452389915
 20
7.14539936607701
 42
-0.006810000000000039
 10
4.243684619411724
 20
7.191549504339479
 42
-0.001870999999999987
 10
4.281521286707913
 20
7.231578301570544
 42
-0.2942749999999356
 10
4.287262381504173
 20
7.23296743219603
 42
-0.2310019999999833
 10
4.289338983074705
 20
7.2308757513837
 42
-0.03214000000000004
 10
4.290976030683483
 20
7.22480671276184
 42
-0.03137499999999994
 10
4.292065951156719
 20
7.216870935245685
 42
-0.0217749999999997
  0
ENDSEC
  0
SECTION
  2
OBJECTS
  0
DICTIONARY
  5
C
330
0
100
AcDbDictionary
281
    1
  3
ACAD_GROUP
350
D
  0
DICTIONARY
  5
D
330
C
100
AcDbDictionary
281
    1
  0
ENDSEC
  0
EOF
